<?xml version="1.0" standalone="no"?><!DOCTYPE svg PUBLIC "-//W3C//DTD SVG 1.1//EN" "http://www.w3.org/Graphics/SVG/1.1/DTD/svg11.dtd"><svg t="1596106527960" class="icon" viewBox="0 0 1024 1024" version="1.1" xmlns="http://www.w3.org/2000/svg" p-id="1043" xmlns:xlink="http://www.w3.org/1999/xlink" width="48" height="48"><defs><style type="text/css"></style></defs><path d="M405.65110178 439.40689542h-62.72044236l-44.78994551-120.21418119h-182.93462353L73.02949659 439.40689542h-62.72044235L177.63616028 0.1460196h60.68783543L405.65110178 439.40689542zM280.57318261 269.5390307l-66.3500976-182.57165803a204.56736871 204.56736871 0 0 1-6.82375182-30.63429013h-1.45186209c-2.03260692 13.21194503-4.35558627 23.37497968-7.04153118 30.63429013L133.13658721 269.5390307h147.4365954zM689.2723614 1020.15173207V576.09971134h154.26034721c46.09662141 0 82.97391855 9.29191739 110.41411207 27.94834525 27.58537974 18.65642788 41.37806962 43.41067652 41.37806962 74.11755979 0 24.46387626-8.20302082 46.02402831-24.60906245 64.82564241-16.40604162 18.72902099-38.90990405 31.94096601-67.65677347 39.85361439v1.16148969c35.71580745 3.41187591 64.24489755 14.80899334 85.65986342 34.26394536 21.34237275 19.45495204 31.94096601 43.99142139 31.940966 73.82718737 0 38.25656612-16.18826233 69.18122868-48.63738007 92.77398767-32.23133843 23.52016589-73.82718737 35.28024884-124.42458125 35.2802488h-158.32556108z m67.87455275-393.89018544v139.01579526h61.70413891c32.73949017 0 58.51004229-6.75115873 77.09387707-20.18088308a65.33379412 65.33379412 0 0 0 28.02093837-56.04187674c0-41.81362825-32.95726948-62.72044236-98.94440155-62.72044235h-67.8745528z m0 188.95985122v154.76849896h81.30427715c35.42543503 0 62.86562856-6.89634494 82.2479875-20.76162793a67.00343553 67.00343553 0 0 0 28.89205562-57.78411124c0-50.8151732-40.79732477-76.2227598-122.39197434-76.22275979h-70.05234593zM439.40689542 904.72869578l7.25931046-42.82993169A396.57613034 396.57613034 0 0 1 149.03447709 512h72.59310458a327.39490166 327.39490166 0 0 0 238.10538303 278.75752158l10.88896568-60.97820784 135.74910558 114.69710525-166.96414054 60.25227679z" p-id="1044" fill="#1296db"></path></svg>