<?xml version="1.0" standalone="no"?><!DOCTYPE svg PUBLIC "-//W3C//DTD SVG 1.1//EN" "http://www.w3.org/Graphics/SVG/1.1/DTD/svg11.dtd"><svg t="1565948295366" class="icon" viewBox="0 0 1024 1024" version="1.1" xmlns="http://www.w3.org/2000/svg" p-id="2043" width="64" height="64" xmlns:xlink="http://www.w3.org/1999/xlink"><defs><style type="text/css"></style></defs><path d="M921.6 561.629867a34.133333 34.133333 0 0 1 68.266667 0V819.2a170.666667 170.666667 0 0 1-170.666667 170.666667H204.8A170.666667 170.666667 0 0 1 34.133333 819.2V204.8A170.666667 170.666667 0 0 1 204.8 34.133333h206.301867a34.133333 34.133333 0 0 1 0 68.266667H204.8A102.4 102.4 0 0 0 102.4 204.8v614.4A102.4 102.4 0 0 0 204.8 921.6h614.4a102.4 102.4 0 0 0 102.4-102.4V561.629867z m94.6176-363.042134c11.400533 10.717867 11.400533 28.672-7.509333 50.107734L872.2432 359.765333c-15.1552 7.168-30.3104 7.168-41.642667-3.549866-7.5776-14.336-7.5776-28.672 3.754667-39.389867l98.5088-82.397867c-26.555733-3.549867-56.797867 0-87.108267 3.618134-60.6208 7.168-121.2416 21.504-174.216533 46.557866-140.151467 64.443733-238.660267 186.1632-272.725333 375.944534-3.822933 14.336-18.909867 25.053867-34.133334 21.504-15.086933-3.618133-26.487467-17.885867-22.664533-32.221867 37.888-207.6672 147.729067-343.790933 306.7904-415.402667 90.862933-39.389867 185.5488-57.275733 265.079467-57.275733l-56.797867-64.443733c-7.509333-14.336-7.509333-28.672 3.822933-39.389867 15.1552-7.168 30.3104-7.168 41.642667 3.618133l113.595733 121.719467z" fill="#1296db" p-id="2044"></path></svg>