<?xml version="1.0" standalone="no"?><!DOCTYPE svg PUBLIC "-//W3C//DTD SVG 1.1//EN" "http://www.w3.org/Graphics/SVG/1.1/DTD/svg11.dtd"><svg t="1602674035257" class="icon" viewBox="0 0 1024 1024" version="1.1" xmlns="http://www.w3.org/2000/svg" p-id="6641" xmlns:xlink="http://www.w3.org/1999/xlink" width="48" height="48"><defs><style type="text/css"></style></defs><path d="M833 511.6H641v-160c0-17.6-14.4-32-32-32s-32 14.4-32 32v160H193c-52.9 0-96 43.1-96 96v224c0 52.9 43.1 96 96 96h640c52.9 0 96-43.1 96-96v-224c0-52.9-43.1-96-96-96z m32 320c0 17.6-14.4 32-32 32H193c-17.6 0-32-14.4-32-32v-224c0-17.6 14.4-32 32-32h640c17.6 0 32 14.4 32 32v224z" p-id="6642" fill="#1296db"></path><path d="M273 719.6m-48 0a48 48 0 1 0 96 0 48 48 0 1 0-96 0Z" p-id="6643" fill="#1296db"></path><path d="M465 719.6m-48 0a48 48 0 1 0 96 0 48 48 0 1 0-96 0Z" p-id="6644" fill="#1296db"></path><path d="M736 386.8h0.9c17.3 0 31.5-13.2 31.9-30.6 0.1-1.1 0.3-3.6 0.3-4.6 0-88.2-71.8-160-160-160s-160 71.8-160 160c0 1.6 0.1 3.1 0.2 3.5 0.5 17.7 15.5 32.1 32.8 31.2 17.7-0.5 31.6-15.1 31.2-32.8 0-0.9-0.1-1.9-0.2-2.9 0.5-52.5 43.4-95 96-95s95.5 42.5 96 95c-0.1 0.9-0.2 2.2-0.2 2.8-0.5 17.7 13.4 33 31.1 33.4z" p-id="6645" fill="#1296db"></path><path d="M385.1 386.3h0.6c17.7-0.3 31.7-14.9 31.4-32.5l-0.1-2.1c0-105.9 86.1-192 192-192S801 245.8 801 351c0 0.5-0.1 2.3-0.1 2.8-0.3 17.4 13.3 31.2 30.7 31.9 17.6 0.7 32.2-13.2 33.3-30.5 0-0.7 0.1-2.9 0.1-3.6 0-141.2-114.8-256-256-256s-256 114.8-256 256c0 1.2 0.1 2.4 0.1 3.2 0.3 17.5 14.6 31.5 32 31.5z" p-id="6646" fill="#1296db"></path></svg>