<?xml version="1.0" standalone="no"?><!DOCTYPE svg PUBLIC "-//W3C//DTD SVG 1.1//EN" "http://www.w3.org/Graphics/SVG/1.1/DTD/svg11.dtd"><svg t="1692681945723" class="icon" viewBox="0 0 1024 1024" version="1.1" xmlns="http://www.w3.org/2000/svg" p-id="4671" xmlns:xlink="http://www.w3.org/1999/xlink" width="200" height="200"><path d="M89.6 277.312a166.4 166.4 0 1 1 332.8 0 166.4 166.4 0 0 1-332.8 0z m166.4-89.6a89.6 89.6 0 1 0 0 179.2 89.6 89.6 0 0 0 0-179.2zM110.976 661.312a38.4 38.4 0 0 1 38.4-38.4h213.312a38.4 38.4 0 0 1 38.4 38.4v213.376a38.4 38.4 0 0 1-38.4 38.4H149.376a38.4 38.4 0 0 1-38.4-38.4v-213.376z m76.8 38.4v136.576h136.512v-136.576H187.776z" fill="#1296db" p-id="4672"></path><path d="M547.84 238.912a38.4 38.4 0 0 0 0 76.8h309.76V729.6H533.376a38.4 38.4 0 1 0 0 76.8H896a38.4 38.4 0 0 0 38.4-38.4V277.312a38.4 38.4 0 0 0-38.4-38.4H547.84z" fill="#1296db" p-id="4673"></path></svg>