<?xml version="1.0" standalone="no"?><!DOCTYPE svg PUBLIC "-//W3C//DTD SVG 1.1//EN" "http://www.w3.org/Graphics/SVG/1.1/DTD/svg11.dtd"><svg t="1682071412169" class="icon" viewBox="0 0 1024 1024" version="1.1" xmlns="http://www.w3.org/2000/svg" p-id="20884" xmlns:xlink="http://www.w3.org/1999/xlink" width="64" height="64"><path d="M848.935385 444.337231h-49.664L614.006154 88.221538a19.968 19.968 0 0 0-33.870769 0l-124.809847 239.458462a268.996923 268.996923 0 0 0-113.191384-24.969846C200.231385 299.677538 82.550154 413.302154 78.769231 557.016615c3.780923 143.753846 121.462154 257.378462 263.404307 254.306462a268.996923 268.996923 0 0 0 115.515077-25.757539v31.232c0 53.838769 43.126154 97.476923 96.295385 97.476924h294.990769c53.169231 0 96.256-43.638154 96.256-97.476924v-273.014153a98.185846 98.185846 0 0 0-27.529846-70.22277 95.704615 95.704615 0 0 0-68.765538-29.223384zM117.287385 558.276923C120.910769 435.2 218.190769 338.313846 335.005538 341.346462c31.901538 0 63.409231 7.089231 92.475077 20.873846l-98.461538 196.450461a20.558769 20.558769 0 0 0 0.630154 19.219693c3.347692 5.828923 9.334154 9.452308 15.793231 9.452307h205.075692c-18.195692 109.883077-109.725538 189.361231-215.512616 187.076923-116.381538 3.150769-213.464615-93.065846-217.718153-215.748923v-0.393846z m267.224615-11.027692L598.646154 138.988308l212.164923 408.339692H384.512z m0 0L598.646154 138.988308l212.164923 408.339692H384.512z m522.200615 269.548307c0.512 15.832615-5.356308 31.232-16.226461 42.614154-10.909538 11.421538-25.875692 17.841231-41.550769 17.841231h-295.739077c-31.901538 0-57.777231-26.190769-57.777231-58.525538v-55.37477a252.770462 252.770462 0 0 0 108.228923-177.07323h237.607385a19.219692 19.219692 0 0 0 16.30523-9.452308 19.692308 19.692308 0 0 0 0.630154-19.022769l-38.518154-74.476308h29.26277c15.36 0 30.011077 6.144 40.841846 17.132308 10.830769 10.988308 16.935385 25.836308 16.935384 41.353846v274.983384z" fill="#56ACFD" p-id="20885"></path></svg>