<?xml version="1.0" standalone="no"?><!DOCTYPE svg PUBLIC "-//W3C//DTD SVG 1.1//EN" "http://www.w3.org/Graphics/SVG/1.1/DTD/svg11.dtd"><svg t="1537948820439" class="icon" style="" viewBox="0 0 1024 1024" version="1.1" xmlns="http://www.w3.org/2000/svg" p-id="15674" xmlns:xlink="http://www.w3.org/1999/xlink" width="64" height="64"><defs><style type="text/css"></style></defs><path d="M118.46036502 874.47071645c-2.58907614 12.94538311 7.76722963 23.30168889 20.71261276 20.71261154 64.72691317-10.35630577 240.78411852-33.65799466 341.7581037-33.65799466V540.47984238H154.70743703c-2.58907614 98.38490905-25.89076502 269.2639609-36.24707201 333.99087407z m85.43952593-282.20934401h227.83873661v217.48242962c-82.85044978 5.17815349-186.41351111 18.12353539-253.72950164 25.89076625 7.76722963-64.72691317 20.71261275-163.11182222 25.89076503-243.37319587zM905.53963498 149.52928355c2.58907614-12.94538311-7.76722963-23.30168889-20.71261276-20.71261154-64.72691317 10.35630577-240.78411852 33.65799466-341.7581037 33.65799466v318.45641481h328.81272058c0-95.79583169 23.30168889-266.67488355 33.65799588-331.40179793z m-85.43952593 282.20934401h-227.83873661v-217.48242962c82.85044978-5.17815349 186.41351111-18.12353539 253.72950164-25.89076625-7.76722963 64.72691317-20.71261275 163.11182222-25.89076503 243.37319587zM118.46036502 149.52928355c10.35630577 64.72691317 33.65799466 235.60596502 33.65799588 331.40179793h328.81272058V162.47466667c-100.97398518 0-277.03119053-25.89076502-341.7581037-33.65799466-10.35630577-2.58907614-20.71261275 10.35630577-20.71261276 20.71261154z m313.27826254 64.72691439v217.48242962h-227.83873661c-5.17815349-80.26137244-18.12353539-178.64628148-25.89076503-245.96227201 67.31599053 10.35630577 170.87905185 23.30168889 253.72950164 28.47984239zM540.47984238 540.47984238v318.45641481c100.97398518 0 277.03119053 25.89076502 341.7581037 33.65799466 12.94538311 2.58907614 23.30168889-7.76722963 20.71261154-20.71261275-10.35630577-64.72691317-33.65799466-235.60596502-33.65799465-331.40179672H540.47984238z m51.78153006 269.26395968v-217.48242962h227.83873661c5.17815349 80.26137244 18.12353539 178.64628148 25.89076503 245.96227201-67.31599053-10.35630577-170.87905185-23.30168889-253.72950164-28.47984239z" p-id="15675" fill="#ff9933"></path></svg>
