<?xml version="1.0" standalone="no"?><!DOCTYPE svg PUBLIC "-//W3C//DTD SVG 1.1//EN" "http://www.w3.org/Graphics/SVG/1.1/DTD/svg11.dtd"><svg t="1559113718801" class="icon" style="" viewBox="0 0 1024 1024" version="1.1" xmlns="http://www.w3.org/2000/svg" p-id="6225" xmlns:xlink="http://www.w3.org/1999/xlink" width="32" height="32"><defs><style type="text/css"></style></defs><path d="M921.6 686.08H675.84c-10.24 0-20.48-10.24-20.48-20.48s10.24-20.48 20.48-20.48H921.6c10.24 0 20.48 10.24 20.48 20.48s-10.24 20.48-20.48 20.48z m0-122.88H675.84c-10.24 0-20.48-10.24-20.48-20.48s10.24-20.48 20.48-20.48H921.6c10.24 0 20.48 10.24 20.48 20.48s-10.24 20.48-20.48 20.48zM755.2 273.92C752.64 276.48 512 501.76 512 501.76v389.12l-163.84-81.92v-307.2L112.64 281.6c-2.56-2.56-5.12-5.12-7.68-5.12-15.36-15.36-23.04-35.84-23.04-58.88 0-46.08 38.4-84.48 84.48-84.48h527.36c46.08 0 84.48 38.4 84.48 84.48 0 23.04-10.24 43.52-23.04 56.32z m-61.44-94.72H166.4c-20.48 0-38.4 17.92-38.4 38.4 0 10.24 2.56 20.48 10.24 25.6l2.56 2.56L368.64 460.8 384 473.6l2.56 25.6L384 773.12l81.92 40.96V473.6l15.36-12.8 230.4-212.48 2.56-2.56c7.68-7.68 10.24-15.36 10.24-25.6 7.68-23.04-10.24-40.96-30.72-40.96zM675.84 768H921.6c10.24 0 20.48 10.24 20.48 20.48s-10.24 20.48-20.48 20.48H675.84c-10.24 0-20.48-10.24-20.48-20.48 0-12.8 7.68-20.48 20.48-20.48z" p-id="6226" fill="#1296db"></path></svg>