<?xml version="1.0" standalone="no"?><!DOCTYPE svg PUBLIC "-//W3C//DTD SVG 1.1//EN" "http://www.w3.org/Graphics/SVG/1.1/DTD/svg11.dtd"><svg t="1612235426556" class="icon" viewBox="0 0 1024 1024" version="1.1" xmlns="http://www.w3.org/2000/svg" p-id="3766" xmlns:xlink="http://www.w3.org/1999/xlink" width="48" height="48"><defs><style type="text/css"></style></defs><path d="M428.4416 948.5312c-38.3488 0-74.4448-14.9504-101.5296-42.0864l-211.6096-211.6096c-27.136-27.136-42.0864-63.1808-42.0864-101.5296 0-38.3488 14.9504-74.4448 42.0864-101.5296l345.1392-345.1392c17.8688-17.92 41.6768-28.416 66.9184-29.5936l297.5744-13.6704c28.5696-1.3312 56.576 9.5232 76.7488 29.8496s30.8736 48.384 29.3376 77.0048c0 0.3072-0.0512 0.6656-0.0512 0.9728l-26.0608 284.2112c-1.4848 24.832-11.9296 48.1792-29.5424 65.7408l-345.2928 345.2928c-27.1872 27.1872-63.2832 42.0864-101.632 42.0864z m401.3056-794.0608c-0.8192 0-1.6384 0-2.5088 0.0512l-297.5744 13.6704a50.2272 50.2272 0 0 0-33.1264 14.6432l-345.1392 345.1392c-36.0448 36.0448-36.0448 94.6688 0 130.7136l211.6096 211.6096c36.0448 36.0448 94.6688 36.0448 130.7136 0l345.2928-345.2928a50.20672 50.20672 0 0 0 14.6432-32.8192c0-0.3072 0.0512-0.6656 0.0512-0.9728l26.0608-284.16c0.6656-14.2336-4.5056-27.5968-14.5408-37.6832a49.12128 49.12128 0 0 0-35.4816-14.8992z" fill="#1296db" p-id="3767"></path><path d="M621.8752 403.456m-105.6256 0a105.6256 105.6256 0 1 0 211.2512 0 105.6256 105.6256 0 1 0-211.2512 0Z" fill="#1296db" p-id="3768"></path><path d="M621.8752 534.6816c-72.3456 0-131.2256-58.88-131.2256-131.2256s58.88-131.2256 131.2256-131.2256c72.3456 0 131.2256 58.88 131.2256 131.2256s-58.8288 131.2256-131.2256 131.2256z m0-211.2512c-44.1344 0-80.0256 35.8912-80.0256 80.0256s35.8912 80.0256 80.0256 80.0256 80.0256-35.8912 80.0256-80.0256-35.8912-80.0256-80.0256-80.0256z" fill="#1296db" p-id="3769"></path></svg>