<?xml version="1.0" standalone="no"?><!DOCTYPE svg PUBLIC "-//W3C//DTD SVG 1.1//EN" "http://www.w3.org/Graphics/SVG/1.1/DTD/svg11.dtd"><svg t="1558932760692" class="icon" style="" viewBox="0 0 1024 1024" version="1.1" xmlns="http://www.w3.org/2000/svg" p-id="6161" xmlns:xlink="http://www.w3.org/1999/xlink" width="32" height="32"><defs><style type="text/css"></style></defs><path d="M512 64C264.6 64 64 264.6 64 512s200.6 448 448 448 448-200.6 448-448S759.4 64 512 64z m271.5 719.5c-35.3 35.3-76.4 63-122.1 82.3-47.3 20-97.6 30.2-149.5 30.2s-102.2-10.1-149.5-30.2c-45.7-19.3-86.8-47-122.1-82.3s-63-76.4-82.3-122.1c-20-47.3-30.2-97.6-30.2-149.5s10.1-102.2 30.2-149.5c19.3-45.7 47-86.8 82.3-122.1s76.4-63 122.1-82.3c47.3-20 97.6-30.2 149.5-30.2s102.2 10.1 149.5 30.2c35.1 14.8 67.4 34.6 96.5 58.9L486.3 489.6c-12.5 12.5-12.4 32.8 0.1 45.3 6.2 6.2 14.4 9.3 22.6 9.3 8.2 0 16.4-3.1 22.7-9.4L803.5 262c25.9 30.1 46.8 63.8 62.3 100.5 20 47.3 30.2 97.6 30.2 149.5s-10.1 102.2-30.2 149.5c-19.3 45.7-47 86.7-82.3 122z" p-id="6162" fill="#1296db"></path></svg>