<?xml version="1.0" standalone="no"?><!DOCTYPE svg PUBLIC "-//W3C//DTD SVG 1.1//EN" "http://www.w3.org/Graphics/SVG/1.1/DTD/svg11.dtd"><svg t="1532941926783" class="icon" style="" viewBox="0 0 1024 1024" version="1.1" xmlns="http://www.w3.org/2000/svg" p-id="3128" xmlns:xlink="http://www.w3.org/1999/xlink" width="64" height="64"><defs><style type="text/css"></style></defs><path d="M488.384 730.496a236.48 236.48 0 0 1-236.096-236.224 236.352 236.352 0 0 1 236.096-236.032 236.352 236.352 0 0 1 236.096 236.032 236.416 236.416 0 0 1-236.096 236.224m0-434.496a198.528 198.528 0 0 0-198.336 198.336c0 109.44 88.96 198.464 198.336 198.464s198.4-89.024 198.4-198.464a198.656 198.656 0 0 0-198.4-198.336" fill="#1296db" p-id="3129"></path><path d="M752.96 786.24a19.2 19.2 0 0 1-13.12-5.248l-117.504-113.152a18.88 18.88 0 1 1 26.176-27.264l117.568 113.152a18.944 18.944 0 0 1-13.12 32.512" fill="#1296db" p-id="3130"></path><path d="M581.952 513.216H394.816a18.88 18.88 0 1 1 0-37.76h187.136c10.432 0 18.944 8.448 18.944 18.88s-8.512 18.88-18.944 18.88" fill="#1296db" p-id="3131"></path><path d="M488.384 606.72a18.88 18.88 0 0 1-18.88-18.88V400.768a18.944 18.944 0 0 1 37.76 0v187.136a18.752 18.752 0 0 1-18.88 18.816" fill="#1296db" p-id="3132"></path><path d="M335.424 139.136H122.368a18.88 18.88 0 1 1 0-37.76h213.056a18.88 18.88 0 1 1 0 37.76" fill="#1296db" p-id="3133"></path><path d="M122.368 352.256a18.88 18.88 0 0 1-18.88-18.88V120.32a18.88 18.88 0 1 1 37.76 0v213.056a18.88 18.88 0 0 1-18.88 18.88M122.368 922.624a18.816 18.816 0 0 1-18.88-18.88v-212.992a18.816 18.816 0 1 1 37.76 0v212.992a18.816 18.816 0 0 1-18.88 18.88" fill="#1296db" p-id="3134"></path><path d="M335.424 922.624H122.368a18.816 18.816 0 1 1 0-37.76h213.056a18.944 18.944 0 0 1 0 37.76M901.76 922.624h-213.056a18.816 18.816 0 1 1 0-37.76h213.056a18.944 18.944 0 0 1 0 37.76" fill="#1296db" p-id="3135"></path><path d="M901.76 922.624a18.816 18.816 0 0 1-18.88-18.88v-212.992a18.816 18.816 0 1 1 37.76 0v212.992a18.816 18.816 0 0 1-18.88 18.88M901.76 352.128a18.88 18.88 0 0 1-18.88-18.88V120.192a18.88 18.88 0 1 1 37.76 0v213.056a18.816 18.816 0 0 1-18.88 18.88" fill="#1296db" p-id="3136"></path><path d="M901.76 139.072h-213.056a18.88 18.88 0 1 1 0-37.76h213.056a18.88 18.88 0 1 1 0 37.76" fill="#1296db" p-id="3137"></path></svg>
