<?xml version="1.0" standalone="no"?><!DOCTYPE svg PUBLIC "-//W3C//DTD SVG 1.1//EN" "http://www.w3.org/Graphics/SVG/1.1/DTD/svg11.dtd"><svg t="1662213353590" class="icon" viewBox="0 0 1024 1024" version="1.1" xmlns="http://www.w3.org/2000/svg" p-id="1999" xmlns:xlink="http://www.w3.org/1999/xlink" width="200" height="200"><path d="M412.5 806.6C250 806.6 117.9 674.4 117.9 512s132.2-294.6 294.6-294.6S707.1 349.5 707.1 512 575 806.6 412.5 806.6z m0-569.3C261 237.3 137.8 360.5 137.8 512S261 786.7 412.5 786.7 687.2 663.5 687.2 512 564 237.3 412.5 237.3zM641.6 273.6c-2.5 0-4.9-0.9-6.7-2.6-11.6-10.7-22.8-19.7-34.2-27.8-2.3-1.6-3.8-4.1-4.2-6.9-0.3-2.8 0.5-5.6 2.3-7.7l33.9-39.5c1.7-2 4.2-3.2 6.8-3.4 2.7-0.2 5.2 0.7 7.2 2.4l34.4 29.6c4.2 3.6 4.6 9.9 1.1 14l-33.1 38.5c-1.8 2-4.3 3.3-7 3.4h-0.5zM621 233.4c6.6 5 13.2 10.3 19.8 16.1l20-23.2-19.3-16.6-20.5 23.7zM840.6 273.6c-2.5 0-4.9-0.9-6.7-2.6-11.6-10.7-22.8-19.7-34.2-27.8-2.3-1.6-3.8-4.1-4.2-6.9-0.3-2.8 0.5-5.6 2.3-7.7l33.9-39.5c1.7-2 4.2-3.2 6.8-3.4 2.7-0.2 5.2 0.7 7.2 2.4l34.4 29.6c4.2 3.6 4.6 9.9 1.1 14l-33.1 38.5c-1.8 2-4.3 3.3-7 3.4h-0.5z m-20.7-40.2c6.6 5 13.2 10.3 19.8 16.1l20-23.2-19.3-16.6-20.5 23.7z" fill="#1296db" p-id="2000"></path><path d="M611.5 860.2c-34.8 0-69.2-5.2-102.4-15.4-4.2-1.3-7-5.1-7-9.5s2.8-8.2 7-9.5C647.7 783.2 740.8 657.1 740.8 512s-93.1-271.2-231.7-313.8c-4.2-1.3-7-5.1-7-9.5s2.8-8.2 7-9.5c33.1-10.2 67.6-15.4 102.4-15.4 192 0 348.2 156.2 348.2 348.2S803.5 860.2 611.5 860.2z m-65.6-26.5c21.5 4.4 43.5 6.6 65.5 6.6 181 0 328.3-147.3 328.3-328.3S792.5 183.7 611.5 183.7c-22.1 0-44 2.2-65.6 6.6C675.7 243.7 760.7 369.2 760.7 512c0 142.8-85 268.3-214.8 321.7z" fill="#1296db" p-id="2001"></path><path d="M611.5 860.2c-34.8 0-69.2-5.2-102.4-15.4-4.2-1.3-7-5.1-7-9.5s2.8-8.2 7-9.5C647.7 783.2 740.8 657.1 740.8 512s-93.1-271.2-231.7-313.8c-4.2-1.3-7-5.1-7-9.5s2.8-8.2 7-9.5c33.1-10.2 67.6-15.4 102.4-15.4 192 0 348.2 156.2 348.2 348.2S803.5 860.2 611.5 860.2z m-65.6-26.5c21.5 4.4 43.5 6.6 65.5 6.6 181 0 328.3-147.3 328.3-328.3S792.5 183.7 611.5 183.7c-22.1 0-44 2.2-65.6 6.6C675.7 243.7 760.7 369.2 760.7 512c0 142.8-85 268.3-214.8 321.7z" fill="#1296db" p-id="2002"></path><path d="M412.5 860.2C220.5 860.2 64.3 704 64.3 512s156.2-348.2 348.2-348.2S760.7 320 760.7 512 604.5 860.2 412.5 860.2z m0-676.5C231.5 183.7 84.2 331 84.2 512s147.3 328.3 328.3 328.3S740.8 693 740.8 512 593.5 183.7 412.5 183.7z" fill="#1296db" p-id="2003"></path><path d="M595.1 811.1c-1.6 0-3.2-0.1-4.8-0.2l-2.8-0.1c-4.4-0.1-8.2-3.1-9.4-7.4-1.1-4.3 0.7-8.8 4.4-11.1 99.1-60.3 158.2-165.1 158.2-280.4s-59.1-220.2-158.2-280.4c-4.7-2.8-6.2-9-3.3-13.7 2.8-4.7 9-6.2 13.7-3.3C698 278.5 760.7 389.6 760.7 512c0 110.7-51.4 212.3-139 278 141.6-13.4 252.7-133 252.7-278 0-124.1-83.2-234.5-202.4-268.5-5.3-1.5-8.3-7-6.8-12.3 1.5-5.3 7.1-8.4 12.3-6.8C805.1 260.8 894.3 379.1 894.3 512c0 164.9-134.2 299.1-299.2 299.1z" fill="#1296db" p-id="2004"></path></svg>