<?xml version="1.0" standalone="no"?><!DOCTYPE svg PUBLIC "-//W3C//DTD SVG 1.1//EN" "http://www.w3.org/Graphics/SVG/1.1/DTD/svg11.dtd"><svg t="1662213281371" class="icon" viewBox="0 0 1024 1024" version="1.1" xmlns="http://www.w3.org/2000/svg" p-id="1661" xmlns:xlink="http://www.w3.org/1999/xlink" width="200" height="200"><path d="M782 162H242c-30.3 0-55 24.7-55 55v340c0 30.3 24.7 55 55 55h255.9v61.2L348.2 823c-5.9 5.9-5.9 15.4 0 21.2 2.9 2.9 6.8 4.4 10.6 4.4s7.7-1.5 10.6-4.4L498 715.6V847c0 8.3 6.7 15 15 15s15-6.7 15-15V717.5l126.7 126.7c2.9 2.9 6.8 4.4 10.6 4.4s7.7-1.5 10.6-4.4c5.9-5.9 5.9-15.4 0-21.2l-148-148v-63H782c30.3 0 55-24.7 55-55V217c0-30.3-24.7-55-55-55z m25 395c0 13.8-11.2 25-25 25H242c-13.8 0-25-11.2-25-25V217c0-13.8 11.2-25 25-25h540c13.8 0 25 11.2 25 25v340z" fill="#1296db" p-id="1662"></path><path d="M393.3 215H280.7c-19.3 0-35 15.7-35 35v64c0 2.8 2.2 5 5 5s5-2.2 5-5v-64c0-13.8 11.2-25 25-25h112.6c2.8 0 5-2.2 5-5s-2.3-5-5-5zM773.3 465c-2.8 0-5 2.2-5 5v54c0 13.8-11.2 25-25 25H630.7c-2.8 0-5 2.2-5 5s2.2 5 5 5h112.6c19.3 0 35-15.7 35-35v-54c0-2.8-2.3-5-5-5zM892 217c-5.5 0-10 4.5-10 10v320c0 5.5 4.5 10 10 10s10-4.5 10-10V227c0-5.5-4.5-10-10-10zM132 217c-5.5 0-10 4.5-10 10v320c0 5.5 4.5 10 10 10s10-4.5 10-10V227c0-5.5-4.5-10-10-10z" fill="#1296db" p-id="1663"></path></svg>