<?xml version="1.0" encoding="utf-8"?>
<!-- Generator: Adobe Illustrator 15.0.0, SVG Export Plug-In . SVG Version: 6.00 Build 0)  -->
<!DOCTYPE svg PUBLIC "-//W3C//DTD SVG 1.1//EN" "http://www.w3.org/Graphics/SVG/1.1/DTD/svg11.dtd">
<svg version="1.1" id="图层_1" xmlns="http://www.w3.org/2000/svg" xmlns:xlink="http://www.w3.org/1999/xlink" x="0px" y="0px"
	 width="64" height="64" viewBox="0 0 32 32" enable-background="new 0 0 32 32" xml:space="preserve">
<path fill="#0086CC" d="M28.542,14.893C26.861,12.354,22.23,4.75,15.856,4.75c-6.208,0-10.116,6.495-12.286,9.735
	c-0.674,1.008-0.688,3.063-0.146,3.896c2.474,3.816,6.336,9.868,12.432,9.868c7.352,0,11.016-6.677,12.61-9.344
	C29.188,17.695,29.036,15.632,28.542,14.893z M16.02,24.967c-3.26,0-5.904-3.761-5.904-8.401c0-4.638,2.644-8.399,5.904-8.399
	c3.262,0,5.906,3.761,5.906,8.399C21.926,21.204,19.282,24.967,16.02,24.967z M16.02,12.298c1.658,0,3,1.912,3,4.265
	c0,2.358-1.342,4.271-3,4.271c-1.656,0-3-1.913-3-4.271C13.02,14.209,14.364,12.298,16.02,12.298z"/>
</svg>
