<?xml version="1.0" standalone="no"?><!DOCTYPE svg PUBLIC "-//W3C//DTD SVG 1.1//EN" "http://www.w3.org/Graphics/SVG/1.1/DTD/svg11.dtd"><svg t="1672219673016" class="icon" viewBox="0 0 1024 1024" version="1.1" xmlns="http://www.w3.org/2000/svg" p-id="6186" xmlns:xlink="http://www.w3.org/1999/xlink" width="200" height="200"><path d="M64 224h426.667a32 32 0 0 0 0-64H64a32 32 0 0 0 0 64z m0 320h298.667a32 32 0 0 0 0-64H64a32 32 0 0 0 0 64z m426.667 256H64a32 32 0 0 0 0 64h426.667a32 32 0 0 0 0-64z m491.946-438.613L769.28 148.053a32 32 0 0 0-10.453-7.04 31.147 31.147 0 0 0-23.254 0 32 32 0 0 0-10.453 7.04L511.787 361.387a32 32 0 1 0 45.226 45.226l158.72-158.72v605.44a32 32 0 0 0 64 0v-605.44l158.72 158.72a32 32 0 0 0 45.227-45.226z" p-id="6187" fill="#1296db"></path></svg>