<svg xmlns="http://www.w3.org/2000/svg" xmlns:xlink="http://www.w3.org/1999/xlink" fill="none" version="1.1" width="85" height="39" viewBox="0 0 85 39"><defs><filter id="master_svg0_357_15423/357_15592" filterUnits="objectBoundingBox" color-interpolation-filters="sRGB" x="-0.21949077477118725" y="-0.16129032258064516" width="1.3511852396338997" height="1.2580645161290323"><feFlood flood-opacity="0" result="BackgroundImageFix"/><feColorMatrix in="SourceAlpha" type="matrix" values="0 0 0 0 0 0 0 0 0 0 0 0 0 0 0 0 0 0 127 0"/><feOffset dy="-1" dx="-1"/><feGaussianBlur stdDeviation="1"/><feColorMatrix type="matrix" values="0 0 0 0 0.8274509906768799 0 0 0 0 0.8666666746139526 0 0 0 0 0.9333333373069763 0 0 0 0.20000000298023224 0"/><feBlend mode="normal" in2="BackgroundImageFix" result="effect1_dropShadow"/><feBlend mode="normal" in="SourceGraphic" in2="effect1_dropShadow" result="shape"/></filter><linearGradient x1="0.9032667279243469" y1="0.05432771518826485" x2="0.375315105277834" y2="1.0745806545436931" id="master_svg1_215_16570"><stop offset="0%" stop-color="#FFFFFF" stop-opacity="1"/><stop offset="100%" stop-color="#EDEDED" stop-opacity="1"/></linearGradient></defs><g><g transform="matrix(-1,-6.704501487320158e-8,-6.704501487320158e-8,-1,170.00000261475557,78.00000569882627)"><path d="M85,42.2L85,74.8C85,75.92009999999999,85.00226751,76.4928,85.223236,76.9191C85.413433,77.286,85.713957,77.5866,86.08088,77.77680000000001C86.50718,77.99770000000001,87.07989,78,88.2,78L166.8,78C167.9201,78,168.4928,77.99770000000001,168.91910000000001,77.77680000000001C169.286,77.5866,169.5866,77.286,169.77679999999998,76.9191C169.9977,76.4928,170,75.92009999999999,170,74.8L170,42.2C170,41.07989,169.9977,40.50718,169.77679999999998,40.08088C169.5866,39.713957,169.286,39.413433,168.91910000000001,39.223236C168.4928,39.00226751,167.9201,39,166.8,39L88.2,39C87.07989,39,86.50718,39.00226746,86.08088,39.223236C85.713957,39.413433,85.413433,39.713957,85.223236,40.08088C85.00226746,40.50718,85,41.07989,85,42.2Z" fill="#1B2234" fill-opacity="1"/></g><g transform="matrix(-1,-6.704501487320158e-8,-6.704501487320158e-8,1,53.55859401818006,0.0000017954183570978444)" filter="url(#master_svg0_357_15423/357_15592)"><path d="M26.779296875,7.2L26.779296875,31.8C26.779296875,32.920100000000005,26.781564385,33.4928,27.002532875,33.9191C27.192729875,34.286,27.493253875,34.586600000000004,27.860176875,34.7768C28.286476874999998,34.997699999999995,28.859186875,35,29.979296875,35L46.359296875,35C47.479396875,35,48.052096875000004,34.997699999999995,48.478396875,34.7768C48.845296875,34.586600000000004,49.145896875,34.286,49.336096874999996,33.9191C49.556996874999996,33.4928,49.559296875,32.920100000000005,49.559296875,31.8L49.559296875,7.2C49.559296875,6.07989,49.556996874999996,5.50718,49.336096874999996,5.0808800000000005C49.145896875,4.713957,48.845296875,4.413433,48.478396875,4.223236C48.052096875000004,4.00226751,47.479396875,4,46.359296875,4L29.979296875,4C28.859186875,4,28.286476874999998,4.00226746,27.860176875,4.223236C27.493253875,4.413433,27.192729875,4.713957,27.002532875,5.0808800000000005C26.781564335,5.50718,26.779296875,6.07989,26.779296875,7.2Z" fill="#FFFFFF" fill-opacity="1"/><path d="M26.779296875,7.2L26.779296875,31.8C26.779296875,32.920100000000005,26.781564385,33.4928,27.002532875,33.9191C27.192729875,34.286,27.493253875,34.586600000000004,27.860176875,34.7768C28.286476874999998,34.997699999999995,28.859186875,35,29.979296875,35L46.359296875,35C47.479396875,35,48.052096875000004,34.997699999999995,48.478396875,34.7768C48.845296875,34.586600000000004,49.145896875,34.286,49.336096874999996,33.9191C49.556996874999996,33.4928,49.559296875,32.920100000000005,49.559296875,31.8L49.559296875,7.2C49.559296875,6.07989,49.556996874999996,5.50718,49.336096874999996,5.0808800000000005C49.145896875,4.713957,48.845296875,4.413433,48.478396875,4.223236C48.052096875000004,4.00226751,47.479396875,4,46.359296875,4L29.979296875,4C28.859186875,4,28.286476874999998,4.00226746,27.860176875,4.223236C27.493253875,4.413433,27.192729875,4.713957,27.002532875,5.0808800000000005C26.781564335,5.50718,26.779296875,6.07989,26.779296875,7.2ZM27.529296875,7.2L27.529296875,31.8Q27.529296875,33.3056,27.668395875,33.574Q27.851696875000002,33.9276,28.205326875,34.1109Q28.473676875,34.25,29.979296875,34.25L46.359296875,34.25Q47.864896875,34.25,48.133296875,34.1109Q48.486896875,33.9276,48.670196875,33.574Q48.809296875,33.3056,48.809296875,31.8L48.809296875,7.2Q48.809296875,5.69438,48.670196875,5.42603Q48.486896875,5.0724,48.133296875,4.889098Q47.864896875,4.75,46.359296875,4.75L29.979296875,4.75Q28.473676875,4.75,28.205326875,4.889098Q27.851696875000002,5.0724,27.668394875,5.42603Q27.529296875,5.69438,27.529296875,7.2Z" fill-rule="evenodd" fill="url(#master_svg1_215_16570)" fill-opacity="1"/></g></g></svg>