<svg xmlns="http://www.w3.org/2000/svg" xmlns:xlink="http://www.w3.org/1999/xlink" fill="none" version="1.1" width="85" height="39" viewBox="0 0 85 39"><defs><linearGradient x1="0.006261488888412714" y1="0.11117788404226303" x2="1.0492864926683179" y2="0.3219046923813673" id="master_svg0_215_17100"><stop offset="0%" stop-color="#1370FD" stop-opacity="1"/><stop offset="100%" stop-color="#4B8EF5" stop-opacity="1"/></linearGradient><filter id="master_svg1_390_15394/297_05548" filterUnits="objectBoundingBox" color-interpolation-filters="sRGB" x="-0.21945865514432825" y="-0.16129032258064516" width="1.3511338482309252" height="1.2580645161290323"><feFlood flood-opacity="0" result="BackgroundImageFix"/><feColorMatrix in="SourceAlpha" type="matrix" values="0 0 0 0 0 0 0 0 0 0 0 0 0 0 0 0 0 0 127 0"/><feOffset dy="-1" dx="-1"/><feGaussianBlur stdDeviation="1"/><feColorMatrix type="matrix" values="0 0 0 0 0.8274509906768799 0 0 0 0 0.8666666746139526 0 0 0 0 0.9333333373069763 0 0 0 0.20000000298023224 0"/><feBlend mode="normal" in2="BackgroundImageFix" result="effect1_dropShadow"/><feBlend mode="normal" in="SourceGraphic" in2="effect1_dropShadow" result="shape"/></filter><linearGradient x1="0.9032667279243469" y1="0.05432771518826485" x2="0.3751746191930623" y2="1.0745534811299007" id="master_svg2_215_16570"><stop offset="0%" stop-color="#FFFFFF" stop-opacity="1"/><stop offset="100%" stop-color="#EDEDED" stop-opacity="1"/></linearGradient></defs><g><g transform="matrix(-1,0,0,-1,170,78)"><path d="M85,42.2L85,74.8C85,75.92009999999999,85.00226751,76.4928,85.223236,76.9191C85.413433,77.286,85.713957,77.5866,86.08088,77.77680000000001C86.50718,77.99770000000001,87.07989,78,88.2,78L166.8,78C167.9201,78,168.4928,77.99770000000001,168.91910000000001,77.77680000000001C169.286,77.5866,169.5866,77.286,169.77679999999998,76.9191C169.9977,76.4928,170,75.92009999999999,170,74.8L170,42.2C170,41.07989,169.9977,40.50718,169.77679999999998,40.08088C169.5866,39.713957,169.286,39.413433,168.91910000000001,39.223236C168.4928,39.00226751,167.9201,39,166.8,39L88.2,39C87.07989,39,86.50718,39.00226746,86.08088,39.223236C85.713957,39.413433,85.413433,39.713957,85.223236,40.08088C85.00226746,40.50718,85,41.07989,85,42.2Z" fill="url(#master_svg0_215_17100)" fill-opacity="1"/></g><g transform="matrix(-1,0,0,1,162,0)" filter="url(#master_svg1_390_15394/297_05548)"><path d="M81,7.2L81,31.8C81,32.920100000000005,81.00226751,33.4928,81.223236,33.9191C81.413433,34.286,81.713957,34.586600000000004,82.08088,34.7768C82.50718,34.997699999999995,83.07989,35,84.2,35L100.58330000000001,35C101.7034,35,102.2762,34.997699999999995,102.7024,34.7768C103.0694,34.586600000000004,103.3699,34.286,103.5601,33.9191C103.7811,33.4928,103.7833,32.920100000000005,103.7833,31.8L103.7833,7.2C103.7833,6.07989,103.7811,5.50718,103.5601,5.0808800000000005C103.3699,4.713957,103.0694,4.413433,102.7024,4.223236C102.2762,4.00226751,101.7034,4,100.58330000000001,4L84.2,4C83.07989,4,82.50718,4.00226746,82.08088,4.223236C81.713957,4.413433,81.413433,4.713957,81.223236,5.0808800000000005C81.00226746,5.50718,81,6.07989,81,7.2Z" fill="#FFFFFF" fill-opacity="1"/><path d="M81,7.2L81,31.8C81,32.920100000000005,81.00226751,33.4928,81.223236,33.9191C81.413433,34.286,81.713957,34.586600000000004,82.08088,34.7768C82.50718,34.997699999999995,83.07989,35,84.2,35L100.58330000000001,35C101.7034,35,102.2762,34.997699999999995,102.7024,34.7768C103.0694,34.586600000000004,103.3699,34.286,103.5601,33.9191C103.7811,33.4928,103.7833,32.920100000000005,103.7833,31.8L103.7833,7.2C103.7833,6.07989,103.7811,5.50718,103.5601,5.0808800000000005C103.3699,4.713957,103.0694,4.413433,102.7024,4.223236C102.2762,4.00226751,101.7034,4,100.58330000000001,4L84.2,4C83.07989,4,82.50718,4.00226746,82.08088,4.223236C81.713957,4.413433,81.413433,4.713957,81.223236,5.0808800000000005C81.00226746,5.50718,81,6.07989,81,7.2ZM81.75,7.2L81.75,31.8Q81.75,33.3056,81.889099,33.574Q82.0724,33.9276,82.42603,34.1109Q82.69438,34.25,84.2,34.25L100.58330000000001,34.25Q102.089,34.25,102.3573,34.1109Q102.7109,33.9276,102.8942,33.574Q103.0333,33.3056,103.0333,31.8L103.0333,7.2Q103.0333,5.69438,102.8942,5.42603Q102.7109,5.0724,102.3573,4.889098Q102.089,4.75,100.58330000000001,4.75L84.2,4.75Q82.69438,4.75,82.42603,4.889098Q82.0724,5.0724,81.889098,5.42603Q81.75,5.69438,81.75,7.2Z" fill-rule="evenodd" fill="url(#master_svg2_215_16570)" fill-opacity="1"/></g></g></svg>