<?xml version="1.0" standalone="no"?><!DOCTYPE svg PUBLIC "-//W3C//DTD SVG 1.1//EN" "http://www.w3.org/Graphics/SVG/1.1/DTD/svg11.dtd"><svg t="1681963918278" class="icon" viewBox="0 0 1024 1024" version="1.1" xmlns="http://www.w3.org/2000/svg" p-id="2460" xmlns:xlink="http://www.w3.org/1999/xlink" width="200" height="200"><path d="M423.77 731.22c-12.74 0-25.47-3.35-37.08-10.05-23.22-13.4-37.08-37.41-37.08-64.22V357.16c0-26.81 13.86-50.81 37.08-64.22 23.22-13.4 50.94-13.4 74.15 0l259.62 149.89c23.22 13.4 37.08 37.41 37.08 64.22 0 26.81-13.86 50.81-37.08 64.22l-259.62 149.9c-11.6 6.7-24.34 10.05-37.07 10.05z m0.08-390.27c-3.73 0-6.68 1.37-8.16 2.22-2.43 1.4-8.08 5.57-8.08 13.99v299.79c0 8.42 5.65 12.59 8.08 13.99 2.43 1.4 8.86 4.21 16.15 0l259.62-149.89c7.29-4.21 8.08-11.18 8.08-13.99s-0.79-9.78-8.08-13.99l-259.62-149.9c-2.86-1.65-5.59-2.22-7.99-2.22z" p-id="2461" fill="#1296db"></path><path d="M514.29 989.78c-65.15 0-128.38-12.77-187.91-37.95-57.49-24.31-109.11-59.12-153.43-103.44-44.32-44.32-79.13-95.94-103.44-153.43-25.18-59.53-37.95-122.75-37.95-187.91s12.77-128.38 37.95-187.91c24.31-57.49 59.12-109.11 103.44-153.43 44.32-44.32 95.94-79.13 153.43-103.44 59.53-25.18 122.75-37.95 187.91-37.95s128.37 12.78 187.9 37.96c57.49 24.31 109.11 59.12 153.43 103.44 44.32 44.32 79.13 95.94 103.44 153.43 25.18 59.53 37.95 122.75 37.95 187.91s-12.77 128.38-37.95 187.91c-24.31 57.49-59.12 109.11-103.44 153.43-44.32 44.32-95.94 79.13-153.43 103.44-59.53 25.17-122.75 37.94-187.9 37.94z m0-907.45c-234.19 0-424.72 190.53-424.72 424.72 0 234.19 190.53 424.72 424.72 424.72 234.19 0 424.72-190.53 424.72-424.72 0-234.19-190.53-424.72-424.72-424.72z" p-id="2462" fill="#1296db"></path></svg>