<?xml version="1.0" standalone="no"?><!DOCTYPE svg PUBLIC "-//W3C//DTD SVG 1.1//EN" "http://www.w3.org/Graphics/SVG/1.1/DTD/svg11.dtd"><svg t="1681817326677" class="icon" viewBox="0 0 1024 1024" version="1.1" xmlns="http://www.w3.org/2000/svg" p-id="2657" xmlns:xlink="http://www.w3.org/1999/xlink" width="64" height="64"><path d="M864 32a64 64 0 0 1 64 64v544a64 64 0 0 1-64 64h-64V224a64 64 0 0 0-59.2-63.84L736 160H352V96a64 64 0 0 1 64-64h448z" fill="#1296db" opacity=".7" p-id="2658"></path><path d="M672 224a64 64 0 0 1 64 64v640a64 64 0 0 1-64 64H160a64 64 0 0 1-64-64V288a64 64 0 0 1 64-64h512z m-112 448h-288a48 48 0 0 0 0 96h288a48 48 0 0 0 0-96z m0-224h-288a48 48 0 0 0 0 96h288a48 48 0 0 0 0-96z" fill="#1296db" opacity=".9" p-id="2659"></path></svg>