<?xml version="1.0" standalone="no"?><!DOCTYPE svg PUBLIC "-//W3C//DTD SVG 1.1//EN" "http://www.w3.org/Graphics/SVG/1.1/DTD/svg11.dtd"><svg t="1527831268257" class="icon" style="" viewBox="0 0 1024 1024" version="1.1" xmlns="http://www.w3.org/2000/svg" p-id="12416" xmlns:xlink="http://www.w3.org/1999/xlink" width="64" height="64"><defs><style type="text/css"></style></defs><path d="M142 892.9h729.8c28.8 0 52.1-23.2 52.1-51.8V115.7c0-28.6-23.3-51.8-52.1-51.8H142c-28.4 0-51.4 22.6-52 50.6v727.8c0.7 28 23.6 50.6 52 50.6z m0-725.4c0-28.6 23.3-51.8 52.1-51.8h625.6c28.8 0 52.1 23.2 52.1 51.8v621.7c0 28.6-23.3 51.8-52.1 51.8H194.2c-28.8 0-52.1-23.2-52.1-51.8V167.5z" fill="#7a7a7a" p-id="12417"></path></svg>
