<?xml version="1.0" standalone="no"?><!DOCTYPE svg PUBLIC "-//W3C//DTD SVG 1.1//EN" "http://www.w3.org/Graphics/SVG/1.1/DTD/svg11.dtd"><svg t="1527831178156" class="icon" style="" viewBox="0 0 1024 1024" version="1.1" xmlns="http://www.w3.org/2000/svg" p-id="12051" xmlns:xlink="http://www.w3.org/1999/xlink" width="64" height="64"><defs><style type="text/css"></style></defs><path d="M823.4 959.6H198.6c-74.6 0-135.3-60.8-135.3-135.7v-624c0-74.8 60.7-135.7 135.3-135.7h624.7c74.6 0 135.3 60.8 135.3 135.7v624c0.1 74.8-60.6 135.7-135.2 135.7zM198.6 155.4c-24.3 0-44.1 20-44.1 44.5v624c0 24.5 19.8 44.4 44.1 44.4h624.7c24.3 0 44.1-20 44.1-44.4v-624c0-24.5-19.8-44.5-44.1-44.5H198.6z" fill="#1296db" p-id="12052" data-spm-anchor-id="a313x.7781069.0.i1" class=""></path><path d="M743.4 691.4c0 28.8-23.2 51.9-51.7 51.9H330.4c-28.6 0-51.7-23.2-51.7-51.9v-359c0-28.8 23.2-51.9 51.7-51.9h361.3c28.6 0 51.7 23.2 51.7 51.9v359z" fill="#1296db" p-id="12053" data-spm-anchor-id="a313x.7781069.0.i2" class=""></path></svg>
