<?xml version="1.0" standalone="no"?><!DOCTYPE svg PUBLIC "-//W3C//DTD SVG 1.1//EN" "http://www.w3.org/Graphics/SVG/1.1/DTD/svg11.dtd"><svg t="1527831378099" class="icon" style="" viewBox="0 0 1024 1024" version="1.1" xmlns="http://www.w3.org/2000/svg" p-id="13557" xmlns:xlink="http://www.w3.org/1999/xlink" width="64" height="64"><defs><style type="text/css"></style></defs><path d="M849.4 262.7l-17.3-39.6c-205.4 125-354.3 282.3-421.4 361.5L247.1 457l-72.6 57.8 283 286.1c49.1-123.8 203.4-366 391.9-538.2z m0 0" fill="#1296db" p-id="13558"></path><path d="M117.5 960h788.8c31.1 0 56.3-25.1 56.3-56V120c0-30.9-25.2-56-56.3-56H117.5C86.9 64 62 88.4 61.3 118.7v786.6c0.7 30.3 25.5 54.7 56.2 54.7z m0-784c0-30.9 25.2-56 56.3-56H850c31.1 0 56.3 25.1 56.3 56v672c0 30.9-25.2 56-56.3 56H173.9c-31.1 0-56.3-25.1-56.3-56V176z" fill="#1296db" p-id="13559"></path></svg>
