<?xml version="1.0" standalone="no"?><!DOCTYPE svg PUBLIC "-//W3C//DTD SVG 1.1//EN" "http://www.w3.org/Graphics/SVG/1.1/DTD/svg11.dtd"><svg t="1696932796777" class="icon" viewBox="0 0 1024 1024" version="1.1" xmlns="http://www.w3.org/2000/svg" p-id="6817" xmlns:xlink="http://www.w3.org/1999/xlink" width="64" height="64"><path d="M512 1024a512 512 0 1 1 512-512 512 512 0 0 1-512 512z m259.072-680.192a42.752 42.752 0 0 0-60.672-60.16l-183.296 183.296-183.04-183.296a43.008 43.008 0 0 0-30.208-12.544 41.984 41.984 0 0 0-30.208 12.544 42.496 42.496 0 0 0 0 60.16l183.552 183.808-183.296 183.552a42.752 42.752 0 0 0 60.416 60.16L527.104 588.8l183.296 183.296a42.752 42.752 0 0 0 60.672-60.16L588.8 527.616l183.296-183.808z" fill="#FF4040" p-id="6818"></path></svg>