<?xml version="1.0" standalone="no"?><!DOCTYPE svg PUBLIC "-//W3C//DTD SVG 1.1//EN" "http://www.w3.org/Graphics/SVG/1.1/DTD/svg11.dtd"><svg t="1528253228651" class="icon" style="" viewBox="0 0 1024 1024" version="1.1" xmlns="http://www.w3.org/2000/svg" p-id="7003" xmlns:xlink="http://www.w3.org/1999/xlink" width="64" height="64"><defs><style type="text/css"></style></defs><path d="M785.338645 126.47012h-567.075697c-53.035857 0-93.832669 40.796813-93.832669 93.832669v32.63745h754.741036v-32.63745c0-48.956175-40.796813-93.832669-93.83267-93.832669z m-163.187251-61.19522l12.239044 101.992032h-265.179283l12.239044-101.992032h240.701195z m8.159363-65.2749h-252.940239c-24.478088 0-48.956175 20.398406-53.035857 48.956175l-20.398406 134.629482c-4.079681 24.478088 16.318725 48.956175 40.796813 48.956176h314.135458c24.478088 0 44.876494-20.398406 40.796813-48.956176l-20.398407-134.629482c0-28.557769-24.478088-48.956175-48.956175-48.956175z m171.346614 318.215139h-599.713148c-32.63745 0-61.195219 28.557769-57.115538 65.274901l53.035857 575.23506c4.079681 36.717131 32.63745 65.2749 69.354582 65.2749h473.243027c32.63745 0 65.2749-28.557769 69.354582-65.2749l53.035857-575.23506c0-36.717131-24.478088-65.2749-61.195219-65.274901z m-424.286853 575.23506h-93.832669l-32.637451-444.685259h126.47012v444.685259z m187.665339 0h-126.47012V448.76494h126.47012v444.685259z m159.107569 0h-93.832669V448.76494h126.470119l-32.63745 444.685259z" fill="#0086CC" p-id="7004"></path></svg>
