<?xml version="1.0" encoding="UTF-8"?>
<svg width="22px" height="24px" viewBox="0 0 22 24" version="1.1" xmlns="http://www.w3.org/2000/svg" xmlns:xlink="http://www.w3.org/1999/xlink">
    <title>DeleteOutline 4</title>
    <g id="第二版" stroke="none" stroke-width="1" fill="none" fill-rule="evenodd">
        <g id="收起菜单栏" transform="translate(-220.000000, -178.000000)" fill="#FFFFFF" fill-rule="nonzero">
            <g id="编组-21" transform="translate(32.000000, 165.776903)">
                <g id="DeleteOutline" transform="translate(188.000000, 12.223097)">
                    <path d="M15.5724756,0.444929177 L15.5724756,0.444929177 C16.4734734,0.444929177 17.2038775,1.17533331 17.2038775,2.0763311 L17.2038775,3.70773302 L20.7929617,3.70773302 C20.9125978,3.70773302 21.0104819,3.80561714 21.0104819,3.92525319 L21.0104819,5.12161375 L21.0104819,5.12161375 C21.0104819,5.24174687 20.9130948,5.33913392 20.7929617,5.33913392 L19.9228815,5.33913392 L19.9228815,20.0217512 L19.9228815,20.0217512 C19.9228815,21.8237468 18.4620733,23.2845551 16.6600777,23.2845551 L4.69647211,23.2845551 L4.69647197,23.2845551 C2.89447639,23.2845551 1.43366813,21.8237468 1.43366813,20.0217512 C1.43366813,20.0217512 1.43366813,20.0217512 1.43366813,20.0217512 L1.43366813,5.33913392 L0.563587953,5.33913392 L0.563587943,5.33913392 C0.44345482,5.33913392 0.346067772,5.24174687 0.346067772,5.12161375 C0.346067772,5.12161375 0.346067772,5.12161375 0.346067772,5.12161375 L0.346067772,3.92525319 C0.346067772,3.80561714 0.443951887,3.70773302 0.563587943,3.70773302 L4.15267217,3.70773302 L4.15267217,2.0763311 L4.15267217,2.07633134 C4.15267203,1.17533355 4.8830763,0.444929177 5.78407409,0.444929177 L15.5724856,0.444929177 L15.5724756,0.444929177 Z M18.2914873,5.33913494 L3.06507791,5.33913494 L3.06507791,20.0217522 L3.06507791,20.0218429 C3.06507791,20.8857008 3.73848748,21.5998087 4.60086183,21.6504408 L4.69648034,21.6531545 L16.6600859,21.6531545 L16.6600859,21.6531545 C17.5239438,21.6531545 18.23809,20.9798316 18.288768,20.1174624 L18.2914873,20.0217534 L18.2914873,5.33913494 L18.2914873,5.33913494 Z M8.28556406,8.60193878 C8.40520011,8.60193878 8.50308423,8.6998229 8.50308423,8.81945895 L8.50308423,18.1728215 L8.50308423,18.1728215 C8.50308423,18.2929546 8.40569718,18.3903416 8.28556406,18.3903416 C8.28556405,18.3903416 8.28556404,18.3903416 8.28556403,18.3903416 L7.08920347,18.3903416 L7.08920346,18.3903416 C6.96907034,18.3903416 6.87168329,18.2929546 6.87168329,18.1728215 L6.87168329,8.81945895 C6.87168329,8.6998229 6.96956741,8.60193878 7.08920346,8.60193878 L8.28556402,8.60193878 L8.28556406,8.60193878 Z M14.8111717,8.60193878 C14.9308078,8.60193878 15.0286919,8.6998229 15.0286919,8.81945895 L15.0286919,18.1728215 L15.0286919,18.1728215 C15.0286919,18.2929546 14.9313049,18.3903416 14.8111717,18.3903416 C14.8111717,18.3903416 14.8111717,18.3903416 14.8111717,18.3903416 L13.6148112,18.3903416 L13.6148111,18.3903416 C13.494678,18.3903416 13.397291,18.2929546 13.397291,18.1728215 L13.397291,8.81945895 C13.397291,8.6998229 13.4951751,8.60193878 13.6148111,8.60193878 L14.8111717,8.60193878 L14.8111717,8.60193878 Z M15.5724935,2.0763311 L5.78408196,2.0763311 L5.78408196,3.70773302 L15.5724935,3.70773302 L15.5724935,2.0763311 Z" id="形状"></path>
                </g>
            </g>
        </g>
    </g>
</svg>