<?xml version="1.0" standalone="no"?><!DOCTYPE svg PUBLIC "-//W3C//DTD SVG 1.1//EN" "http://www.w3.org/Graphics/SVG/1.1/DTD/svg11.dtd"><svg t="1595395503731" class="icon" viewBox="0 0 1024 1024" version="1.1" xmlns="http://www.w3.org/2000/svg" p-id="8577" xmlns:xlink="http://www.w3.org/1999/xlink" width="48" height="48"><defs><style type="text/css"></style></defs><path d="M192 640a96 96 0 0 1 84.736 141.12C340.224 801.92 384 845.568 384 896c0 70.72-85.952 128-192 128s-192-57.28-192-128c0-50.432 43.776-94.08 107.328-114.944A96 96 0 0 1 192 640z m640 0a96 96 0 0 1 84.736 141.12C980.224 801.92 1024 845.568 1024 896c0 70.72-85.952 128-192 128s-192-57.28-192-128c0-50.432 43.776-94.08 107.328-114.944A96 96 0 0 1 832 640zM544 414.464V480H832a32 32 0 0 1 31.488 26.24L864 512v100.672a112 112 0 0 0-64 0V544h-576v68.672a112 112 0 0 0-64.064 0L160 512a32 32 0 0 1 26.24-31.488L192 480h288V414.464a337.216 337.216 0 0 0 64 0zM512 0a96 96 0 0 1 84.736 141.12C660.224 161.92 704 205.568 704 256c0 70.72-85.952 128-192 128s-192-57.28-192-128c0-50.432 43.776-94.08 107.328-114.944A96 96 0 0 1 512 0z" p-id="8578" fill="#F79B3F"></path></svg>