<?xml version="1.0" standalone="no"?><!DOCTYPE svg PUBLIC "-//W3C//DTD SVG 1.1//EN" "http://www.w3.org/Graphics/SVG/1.1/DTD/svg11.dtd"><svg t="1710739946600" class="icon" viewBox="0 0 1024 1024" version="1.1" xmlns="http://www.w3.org/2000/svg" p-id="5997" xmlns:xlink="http://www.w3.org/1999/xlink" width="64" height="64"><path d="M604.16 614.4l86.016 182.272c4.096 10.24 0 22.528-10.24 26.624l-73.728 34.816c-10.24 4.096-22.528 0-26.624-10.24L491.52 661.504l-106.496 106.496c-4.096 4.096-8.192 6.144-14.336 6.144-12.288 0-20.48-8.192-20.48-20.48V235.52c0-4.096 2.048-10.24 6.144-14.336 8.192-8.192 20.48-8.192 28.672-2.048l380.928 346.112c4.096 4.096 6.144 8.192 6.144 14.336 0 12.288-8.192 20.48-18.432 22.528l-149.504 12.288z" p-id="5998" fill="#1296db"></path></svg>