<?xml version="1.0" standalone="no"?><!DOCTYPE svg PUBLIC "-//W3C//DTD SVG 1.1//EN" "http://www.w3.org/Graphics/SVG/1.1/DTD/svg11.dtd"><svg t="1602672994222" class="icon" viewBox="0 0 1024 1024" version="1.1" xmlns="http://www.w3.org/2000/svg" p-id="5703" width="48" height="48" xmlns:xlink="http://www.w3.org/1999/xlink"><defs><style type="text/css"></style></defs><path d="M727.168 421.376a217.152 217.152 0 1 0-434.368-0.256 217.152 217.152 0 0 0 434.368 0.256z m-373.056 0a155.904 155.904 0 1 1 311.808-0.192 155.904 155.904 0 0 1-311.808 0.192z m256.768 0a100.864 100.864 0 1 0-201.792 0 100.864 100.864 0 0 0 201.792 0z m-140.608 0a39.616 39.616 0 1 1 79.04 0 39.616 39.616 0 0 1-78.976 0h-0.064z m152 465.92v-91.008A405.76 405.76 0 1 0 106.304 406.08a395.84 395.84 0 0 0 301.44 391.552v91.2l-1.28-0.064h-2.496c-90.176 15.232-178.24 43.2-178.24 103.68a31.04 31.04 0 0 0 30.208 31.488 29.76 29.76 0 0 0 30.4-29.824c6.08-14.72 84.48-51.84 233.856-51.84 149.376 0 227.904 37.12 233.728 50.496a30.656 30.656 0 0 0 61.312 0c0-64-97.472-93.888-192.832-105.472h-0.128zM165.12 406.08a344.96 344.96 0 1 1 689.856-0.32 344.96 344.96 0 0 1-689.92 0.32z m396.032 476.032a743.68 743.68 0 0 0-91.968 0.832V812.16h91.968v69.952z" p-id="5704" fill="#1296db"></path></svg>