<?xml version="1.0" standalone="no"?><!DOCTYPE svg PUBLIC "-//W3C//DTD SVG 1.1//EN" "http://www.w3.org/Graphics/SVG/1.1/DTD/svg11.dtd"><svg t="1600401105487" class="icon" viewBox="0 0 1024 1024" version="1.1" xmlns="http://www.w3.org/2000/svg" p-id="3074" xmlns:xlink="http://www.w3.org/1999/xlink" width="48" height="48"><defs><style type="text/css"></style></defs><path d="M510.484836 568.687958a50.183511 50.183511 0 0 1 35.620453 14.759856l352.662162 352.662163a50.370469 50.370469 0 1 1-71.231066 71.231065L510.484836 690.309173l-317.05155 317.041709A50.370469 50.370469 0 0 1 122.20222 936.119817l352.662163-352.672003a50.183511 50.183511 0 0 1 35.620453-14.759856z m0 0" p-id="3075" fill="#1296db"></path><path d="M511.360587 454.299073a50.183511 50.183511 0 0 1-35.620453-14.759856L123.077972 86.877054a50.370469 50.370469 0 1 1 71.231066-71.191706l317.041709 317.04171 317.05155-317.04171a50.371453 50.371453 0 0 1 71.240906 71.231066l-352.662163 352.662163a50.183511 50.183511 0 0 1-35.620453 14.759856z m0 0" p-id="3076" fill="#1296db"></path></svg>