<?xml version="1.0" encoding="UTF-8" standalone="no"?>
<svg
   t="1714297757323"
   class="icon"
   viewBox="0 0 1024 1024"
   version="1.1"
   p-id="5406"
   width="200"
   height="200"
   id="svg4"
   sodipodi:docname="file_dec.svg"
   inkscape:version="1.3 (0e150ed6c4, 2023-07-21)"
   xmlns:inkscape="http://www.inkscape.org/namespaces/inkscape"
   xmlns:sodipodi="http://sodipodi.sourceforge.net/DTD/sodipodi-0.dtd"
   xmlns="http://www.w3.org/2000/svg"
   xmlns:svg="http://www.w3.org/2000/svg">
  <defs
     id="defs4" />
  <sodipodi:namedview
     id="namedview4"
     pagecolor="#ffffff"
     bordercolor="#000000"
     borderopacity="0.25"
     inkscape:showpageshadow="2"
     inkscape:pageopacity="0.0"
     inkscape:pagecheckerboard="0"
     inkscape:deskcolor="#d1d1d1"
     inkscape:zoom="6.025"
     inkscape:cx="99.917012"
     inkscape:cy="99.917012"
     inkscape:window-width="2468"
     inkscape:window-height="1395"
     inkscape:window-x="69"
     inkscape:window-y="27"
     inkscape:window-maximized="0"
     inkscape:current-layer="svg4" />
  <path
     d="M543.829 890.849H215.922V132.717h397.719v187.922h196.23v312.378c36.986 26.948 63.363 66.487 72.109 111.923V256.277L673.228 63.868H143.813v895.829h531.68c-53.344-4.915-100.276-30.764-131.664-68.848zM881.981 811.31c-15.25 79.226-84.102 140.535-169.331 148.388h169.331V811.31z"
     fill="#819292"
     p-id="5407"
     id="path1" />
  <path
     d="m 265.90092,365.63086 h 434.981 v 67.128 h -434.981 z m 0,160.104 h 218.64 v 67.128 h -218.64 z m 0,160.104 h 137.512 v 67.128 h -137.512 z"
     fill="#819292"
     p-id="5408"
     id="path2" />
  <path
     d="m 888.14632,804.16632 c 2.48668,-12.44137 3.79603,-25.26076 3.79603,-38.36339 0,-13.10262 -1.31055,-25.92202 -3.79603,-38.36339 -10.49639,-52.52611 -42.15239,-98.23502 -86.54063,-129.38816 -38.56279,-27.0642 -86.72306,-43.14942 -138.97701,-43.14942 -126.64679,0 -229.31366,94.42354 -229.31366,210.90097 0,49.18861 18.31048,94.44204 49.00277,130.31415 37.66988,44.02687 93.99468,73.90951 158.01476,79.59262 7.33763,0.65086 14.77248,0.99536 22.29613,0.99536 7.52366,0 14.95851,-0.34335 22.29614,-0.99536 102.28882,-9.07958 184.91942,-79.95447 203.2215,-171.54338 z m -85.18208,48.49383 -45.89562,42.21072 -94.43994,-86.85723 -94.43993,86.85607 -45.89561,-42.21072 94.43993,-86.85722 -94.43993,-86.85721 45.89561,-42.21071 94.43993,86.85722 94.43994,-86.85722 45.89562,42.21071 -94.43994,86.85721 z"
     fill="#bd3c20"
     p-id="5409"
     id="path3"
     style="stroke-width:1.17788" />
  <path
     d="m 803.35586,678.37474 -46.02374,-42.48827 -94.70356,87.42836 -94.70354,-87.42836 -46.02254,42.48827 94.70356,87.42836 -94.70356,87.42835 46.02254,42.4871 94.70354,-87.42836 94.70356,87.42836 46.02374,-42.4871 -94.70356,-87.42835 z"
     fill="#ffffff"
     p-id="5410"
     id="path4"
     style="fill:none;stroke-width:1.1834" />
</svg>
