<?xml version="1.0" encoding="UTF-8" standalone="no"?>
<svg
   t="1714297739836"
   class="icon"
   viewBox="0 0 1024 1024"
   version="1.1"
   p-id="4318"
   width="200"
   height="200"
   id="svg4"
   sodipodi:docname="file_add.svg"
   inkscape:version="1.3 (0e150ed6c4, 2023-07-21)"
   xmlns:inkscape="http://www.inkscape.org/namespaces/inkscape"
   xmlns:sodipodi="http://sodipodi.sourceforge.net/DTD/sodipodi-0.dtd"
   xmlns="http://www.w3.org/2000/svg"
   xmlns:svg="http://www.w3.org/2000/svg">
  <defs
     id="defs4" />
  <sodipodi:namedview
     id="namedview4"
     pagecolor="#ffffff"
     bordercolor="#000000"
     borderopacity="0.25"
     inkscape:showpageshadow="2"
     inkscape:pageopacity="0.0"
     inkscape:pagecheckerboard="0"
     inkscape:deskcolor="#d1d1d1"
     inkscape:zoom="5.935"
     inkscape:cx="99.915754"
     inkscape:cy="100"
     inkscape:window-width="2468"
     inkscape:window-height="1395"
     inkscape:window-x="1"
     inkscape:window-y="50"
     inkscape:window-maximized="0"
     inkscape:current-layer="svg4" />
  <path
     d="M668.633 64.223H150.701v896h722.158V256.669L668.633 64.223z m17.258 893.418c-58.012 0-109.851-25.797-144.138-66.279H221.246V133.085h389.093v187.958h191.974V632.42c42.965 33.432 70.506 84.949 70.506 142.752 0.001 100.775-83.69 182.469-186.928 182.469z"
     fill="#819292"
     p-id="4319"
     id="path1" />
  <path
     d="m 248.95218,349.72568 h 425.547 v 67.14 h -425.547 z m 0,160.135 h 213.898 v 67.14 h -213.898 z m 0,160.135 h 134.529 v 67.14 h -134.529 z"
     fill="#819292"
     p-id="4320"
     id="path2" />
  <path
     d="m 797.55058,585.85044 c -37.61503,-29.27 -85.26506,-46.77265 -137.10761,-46.77265 -121.58111,0 -220.14214,96.20921 -220.14214,214.88852 0,51.98976 18.91586,99.66687 50.39401,136.83321 40.37786,47.67475 101.4275,78.05531 169.74813,78.05531 121.5811,0 220.14214,-96.20921 220.14214,-214.88852 -10e-4,-68.07331 -32.43678,-128.74374 -83.03453,-168.11587 z M 819.8134,789.31902 H 691.59726 V 914.47556 H 629.2875 V 789.31902 H 501.07136 V 728.49667 H 629.2875 V 603.34013 h 62.30976 V 728.49667 H 819.8134 Z"
     fill="#287cb0"
     p-id="4321"
     id="path3"
     style="stroke-width:1.17768" />
  <path
     d="M 691.70327,728.28739 V 603.27436 h -62.5216 V 728.28739 H 500.52961 V 789.04 h 128.65206 v 125.01303 h 62.5216 V 789.04 h 128.65205 v -60.75261 z"
     fill="#ffffff"
     p-id="4322"
     id="path4"
     style="stroke-width:1.179" />
</svg>
