<?xml version="1.0" standalone="no"?><!DOCTYPE svg PUBLIC "-//W3C//DTD SVG 1.1//EN" "http://www.w3.org/Graphics/SVG/1.1/DTD/svg11.dtd"><svg t="1689131005400" class="icon" viewBox="0 0 1024 1024" version="1.1" xmlns="http://www.w3.org/2000/svg" p-id="18073" xmlns:xlink="http://www.w3.org/1999/xlink" width="64" height="64"><path d="M884.736 641.536c-15.36 0-28.16 12.8-28.16 28.16v75.776c0 29.184-23.552 52.736-52.736 52.736H220.16c-29.184 0-52.736-23.552-52.736-52.736v-75.776c0-15.36-12.8-28.16-28.16-28.16s-28.16 12.8-28.16 28.16v75.776c0 59.904 48.64 109.056 109.056 109.056h583.68c59.904 0 109.056-48.64 109.056-109.056v-75.776c0-15.872-12.8-28.16-28.16-28.16z" p-id="18074" fill="#ffffff"></path><path d="M336.384 394.752c7.168 0 14.336-2.56 19.968-8.192L483.84 259.072V721.92c0 15.36 12.8 28.16 28.16 28.16s28.16-12.8 28.16-28.16V258.56l127.488 127.488c10.752 10.752 28.672 10.752 39.936 0 10.752-10.752 10.752-28.672 0-39.936l-161.28-161.28c-9.216-9.216-21.504-14.336-34.304-14.336s-25.088 5.12-34.304 14.336l-161.28 161.792c-10.752 10.752-10.752 28.672 0 39.936 5.632 5.12 12.8 8.192 19.968 8.192z" p-id="18075" fill="#ffffff"></path></svg>