<?xml version="1.0" standalone="no"?><!DOCTYPE svg PUBLIC "-//W3C//DTD SVG 1.1//EN" "http://www.w3.org/Graphics/SVG/1.1/DTD/svg11.dtd"><svg t="1682661538058" class="icon" viewBox="0 0 1024 1024" version="1.1" xmlns="http://www.w3.org/2000/svg" p-id="2298" xmlns:xlink="http://www.w3.org/1999/xlink" width="64" height="64"><path d="M928 431.2h-108V296.8c1.6-19.2-12.8-36-32-37.6H472.8L356 126.4c-1.6-1.6-3.2-2.4-5.6-2.4H96c-19.2 1.6-33.6 18.4-32 37.6v701.6c-1.6 19.2 12.8 36 32 37.6h697.6c13.6-0.8 25.6-10.4 29.6-24l133.6-393.6c1.6-4.8 2.4-9.6 2.4-14.4 2.4-19.2-12-36-31.2-37.6M136 208.8h188.8l120 135.2h304v87.2H238.4c-13.6 0.8-25.6 10.4-29.6 24l-72 212V208.8z m635.2 606.4H159.2L262.4 512h612l-103.2 303.2z" fill="#1296db" p-id="2299"></path></svg>