<?xml version="1.0" encoding="UTF-8"?>
<svg width="24px" height="24px" viewBox="0 0 24 24" version="1.1" xmlns="http://www.w3.org/2000/svg" xmlns:xlink="http://www.w3.org/1999/xlink">
    <title>UserCircleOutline</title>
    <g id="第二版" stroke="none" stroke-width="1" fill="none" fill-rule="evenodd">
        <g id="收起菜单栏" transform="translate(-1731.000000, -14.000000)" fill="#FFFFFF" fill-rule="nonzero">
            <g id="UserCircleOutline" transform="translate(1731.000000, 14.000000)">
                <path d="M12.0000146,0.476192514 C18.3643077,0.476192514 23.5238294,5.63571414 23.5238294,12.0000073 C23.5238294,18.3643004 18.3643077,23.523822 12.0000146,23.523822 C5.63572151,23.523822 0.47619988,18.3643004 0.47619988,12.0000073 C0.47619988,5.63571414 5.63572151,0.476192514 12.0000146,0.476192514 Z M12.2619205,5.71428566 L12.2619207,5.71428566 C10.2917693,5.71453188 8.67608842,7.27577922 8.60834504,9.24477415 L8.60624978,9.36996485 L8.60624978,11.4872046 L8.60624965,11.4873936 C8.60538118,12.7449283 9.25156491,13.9144482 10.316651,14.5830133 L10.435032,14.6547753 L11.1138899,15.0476329 L11.1138899,15.0476329 C11.178489,15.0849286 11.2183888,15.1537558 11.218652,15.2283474 L11.2212711,17.0061582 L11.2212711,17.0061233 C11.2212711,17.0835406 11.1785817,17.1546493 11.1102542,17.1910468 L6.80401926,19.4931923 L5.98582701,19.93005 C6.33782742,20.1846217 6.60654202,20.3684791 6.7924938,20.4826705 L6.7924931,20.4826701 C8.35830073,21.4463694 10.1614189,21.9552649 12.000017,21.9524091 C14.0193051,21.9524091 15.89768,21.3510622 17.4665078,20.3181094 C17.6377937,20.2054901 17.8855567,20.0247749 18.2113658,19.7770143 L17.4392704,19.3605853 L13.4132658,17.1909629 L13.4132658,17.1909629 C13.345503,17.1543859 13.3032646,17.0835861 13.3032656,17.0065818 L13.3053609,15.2282456 L13.3053609,15.2282472 C13.3056235,15.1536556 13.3455227,15.0848279 13.4101215,15.047532 L14.0889794,14.6546744 L14.0889797,14.6546742 C15.1777134,14.0270523 15.8674166,12.8838809 15.9149819,11.6280993 L15.9176009,11.4871943 L15.9176009,9.36995453 L15.9176009,9.36995404 C15.9176009,7.35098272 14.2809021,5.71428566 12.2619382,5.71428566 L12.2619205,5.71428566 Z M12.0000146,2.04762291 C6.50366671,2.04762291 2.04763028,6.5036839 2.04763028,12.0000073 C2.04763028,14.3047727 2.83072561,16.4262111 4.14548986,18.1128715 C4.25339483,18.2516811 4.41629888,18.4428719 4.63368173,18.688015 L4.63368171,18.688015 C4.69799839,18.7602716 4.80342075,18.7791047 4.88877643,18.7335865 L5.56292007,18.3737289 L9.64863911,16.1904891 L9.64811528,16.0150127 L9.64811528,16.0150127 C8.03031541,15.0813497 7.03396715,13.3550966 7.03482653,11.487206 L7.03482653,9.3699663 C7.03482654,6.48324866 9.37520938,4.14287317 12.2619197,4.14287317 C15.1486373,4.14287317 17.4890128,6.48325603 17.4890128,9.3699663 L17.4890128,11.487206 L17.489013,11.487775 C17.4896579,13.3556606 16.4931337,15.0818082 14.8752332,16.0153115 L14.8752332,16.1905036 L18.7173805,18.2443632 L19.2778582,18.5439834 L19.2778582,18.5439834 C19.3651818,18.5907847 19.4733507,18.5700249 19.5371442,18.4942216 C19.7571444,18.2333641 19.9205732,18.0290782 20.0295249,17.8813637 L20.0295246,17.8813641 C21.2819178,16.1764677 21.9557496,14.1154802 21.9524129,12.0000157 C21.9524129,6.50366781 17.4963395,2.04762291 12.0000162,2.04762291 L12.0000146,2.04762291 Z" id="形状"></path>
            </g>
        </g>
    </g>
</svg>