<?xml version="1.0" standalone="no"?><!DOCTYPE svg PUBLIC "-//W3C//DTD SVG 1.1//EN" "http://www.w3.org/Graphics/SVG/1.1/DTD/svg11.dtd"><svg t="1630658620731" class="icon" viewBox="0 0 1024 1024" version="1.1" xmlns="http://www.w3.org/2000/svg" p-id="7800" xmlns:xlink="http://www.w3.org/1999/xlink" width="48" height="48"><defs><style type="text/css"></style></defs><path d="M928 384h-96v-64c0-17.67-14.33-32-32-32H96c-17.67 0-32 14.33-32 32v384c0 17.67 14.33 32 32 32h704c17.67 0 32-14.33 32-32v-64h96c17.67 0 32-14.33 32-32V416c0-17.67-14.33-32-32-32zM768 672H128V352h640v320z m128-96h-64V448h64v128z" p-id="7801" fill="#d81e06"></path></svg>