<?xml version="1.0" standalone="no"?><!DOCTYPE svg PUBLIC "-//W3C//DTD SVG 1.1//EN" "http://www.w3.org/Graphics/SVG/1.1/DTD/svg11.dtd"><svg t="1528081487016" class="icon" style="" viewBox="0 0 1024 1024" version="1.1" xmlns="http://www.w3.org/2000/svg" p-id="1924" xmlns:xlink="http://www.w3.org/1999/xlink" width="64" height="64"><defs><style type="text/css"></style></defs><path d="M511.386005 0.00038C229.103212 0.34338-0.33962 230.300211 0.00038 512.615005 0.34338 794.896798 230.298211 1024.34063 512.615005 1023.99963c282.282793-0.341 511.726625-230.296831 511.384625-512.612625C1023.65763 229.103212 793.701799-0.34062 511.386005 0.00038z m318.189767 338.569752l-385.739717 386.626717c-11.059992 11.092992-28.979979 11.092992-40.072971 0.034L194.185238 516.164002c-11.059992-11.058992-11.092992-28.978979-0.034-40.037971 11.059992-11.092992 28.979979-11.092992 40.07197-0.034l189.507862 189.063862 365.738732-366.589732c11.059992-11.059992 28.979979-11.094992 40.07297-0.036 11.059992 11.025992 11.092992 28.945979 0.034 40.039971z m0 0" fill="#0086CC" p-id="1925"></path></svg>
