<?xml version="1.0" encoding="UTF-8"?>
<svg width="21px" height="21px" viewBox="0 0 21 21" version="1.1" xmlns="http://www.w3.org/2000/svg" xmlns:xlink="http://www.w3.org/1999/xlink">
    <title>canshupeizhi 2</title>
    <defs>
        <polygon id="path-1" points="0.00171308899 0.0205570679 19.896929 0.0205570679 19.896929 18.2729778 0.00171308899 18.2729778"></polygon>
    </defs>
    <g id="第二版" stroke="none" stroke-width="1" fill="none" fill-rule="evenodd">
        <g id="收起菜单栏" transform="translate(-251.000000, -181.000000)">
            <g id="编组-21" transform="translate(32.000000, 165.776903)">
                <g id="canshupeizhi" transform="translate(219.000000, 15.223097)">
                    <g id="编组">
                        <mask id="mask-2" fill="#0086CC">
                            <use xlink:href="#path-1"></use>
                        </mask>
                        <g id="Clip-2"></g>
                        <path d="M19.3692691,2.13559384 L5.2717744,2.13559384 C4.98166278,2.13559384 4.74411444,2.37314218 4.74411444,2.6632538 C4.74411444,2.95333686 4.98166278,3.1908852 5.2717744,3.1908852 L19.3692691,3.1908852 C19.6593807,3.1908852 19.896929,2.95333686 19.896929,2.6632538 C19.896929,2.37314218 19.6593807,2.13559384 19.3692691,2.13559384 Z" id="Fill-1" fill="#0086CC" mask="url(#mask-2)"></path>
                        <path d="M2.64044116,5.30369496 C1.18320201,5.30369496 0,4.11826593 0,2.6632538 C0,1.20835587 1.18320201,0.0205570679 2.64044116,0.0205570679 C4.09770886,0.0205570679 5.28091087,1.20601465 5.28091087,2.66099823 C5.28091087,4.11601036 4.09545329,5.30369496 2.64044116,5.30369496 Z M2.64044116,1.07807545 C1.76562372,1.07807545 1.05529137,1.78852201 1.05529137,2.6632538 C1.05529137,3.53807124 1.76562372,4.24840359 2.64044116,4.24840359 C3.51528716,4.24840359 4.22561951,3.53807124 4.22561951,2.6632538 C4.22561951,1.78852201 3.51294593,1.07807545 2.64044116,1.07807545 Z M15.1345131,17.2176864 L1.05529137,17.2176864 C0.7652083,17.2176864 0.527631408,17.4552633 0.527631408,17.7453464 C0.527631408,18.0354294 0.7652083,18.2729778 1.05529137,18.2729778 L15.1345131,18.2729778 C15.4245961,18.2729778 15.662173,18.0354294 15.662173,17.7453464 C15.662173,17.4552633 15.4245961,17.2176864 15.1345131,17.2176864 Z" id="Fill-3" fill="#0086CC" mask="url(#mask-2)"></path>
                    </g>
                    <path d="M17.7841193,20.3857875 C16.3268801,20.3857875 15.1436496,19.2003585 15.1436496,17.7453464 C15.1436496,16.2903342 16.3292213,15.1048766 17.7841193,15.1048766 C19.2391314,15.1048766 20.4245604,16.2903342 20.4245604,17.7453464 C20.4245604,19.2003585 19.2414726,20.3857875 17.7841193,20.3857875 Z M17.7841193,16.160168 C16.9092733,16.160168 16.1989409,16.8705004 16.1989409,17.7453464 C16.1989409,18.6201638 16.9092733,19.3304961 17.7841193,19.3304961 C18.6589653,19.3304961 19.3692691,18.6201638 19.3692691,17.7453464 C19.3692691,16.8705004 18.6589653,16.160168 17.7841193,16.160168 Z" id="Fill-4" fill="#0086CC"></path>
                    <path d="M10.2122945,12.8458547 C8.75505534,12.8458547 7.57182478,11.6604257 7.57182478,10.2054136 C7.57182478,8.75051566 8.75505534,7.56271685 10.2122945,7.56271685 C11.6695336,7.56271685 12.8527357,8.74817443 12.8527357,10.2031866 C12.8527357,11.6581987 11.6695336,12.8458547 10.2122945,12.8458547 Z M10.2122945,8.62023524 C9.3374485,8.62023524 8.62711615,9.33056759 8.62711615,10.2054136 C8.62711615,11.080231 9.3374485,11.7905634 10.2122945,11.7905634 C11.0871119,11.7905634 11.7974443,11.080231 11.7974443,10.2054136 C11.7974443,9.33056759 11.0871119,8.62023524 10.2122945,8.62023524 Z" id="Fill-5" fill="#0086CC"></path>
                    <path d="M19.8831958,10.733045 L12.3251042,10.733045 C12.0327656,10.733045 11.7974443,10.4954967 11.7974443,10.2054136 C11.7974443,9.91307495 12.0350212,9.67775362 12.3251042,9.67775362 L19.8831958,9.67775362 C20.1756486,9.67775362 20.4108557,9.91533051 20.4108557,10.2054136 C20.4108557,10.4954967 20.1733074,10.733045 19.8831958,10.733045 Z M8.09948474,10.733045 L0.607604113,10.733045 C0.315179822,10.733045 0.0799727043,10.4954967 0.0799727043,10.2054136 C0.0799727043,9.91307495 0.317521044,9.67775362 0.607604113,9.67775362 L8.09948474,9.67775362 C8.39190903,9.67775362 8.62711615,9.91533051 8.62711615,10.2054136 C8.62711615,10.4954967 8.39190903,10.733045 8.09948474,10.733045 Z" id="Fill-6" fill="#0086CC"></path>
                </g>
            </g>
        </g>
    </g>
</svg>