<?xml version="1.0" standalone="no"?><!DOCTYPE svg PUBLIC "-//W3C//DTD SVG 1.1//EN" "http://www.w3.org/Graphics/SVG/1.1/DTD/svg11.dtd"><svg t="1529916451750" class="icon" style="" viewBox="0 0 1024 1024" version="1.1" xmlns="http://www.w3.org/2000/svg" p-id="3178" xmlns:xlink="http://www.w3.org/1999/xlink" width="64" height="64"><defs><style type="text/css"></style></defs><path d="M586.97 702.44l234.99 258.93 115.29-119.52-246.87-246.6-103.41 107.19zM774.17 821.15l47.79-36 47.79 36-18.27 58.23h-59.13l-18.18-58.23zM349.010 446.66l75.42 78.21 101.97-105.75-78.39-81.18c82.8-196.11-155.16-272.61-155.16-272.61-44.28-12.24-35.46 22.95-35.46 22.95 93.15 79.65 78.3 105.66 78.3 105.66-11.79 91.98-88.65 127.17-88.65 127.17-76.86 33.66-140.4-78.12-140.4-78.12-25.11-4.59-22.14 24.57-22.14 24.57 62.010 283.32 264.51 179.1 264.51 179.1zM773.18 212.39c0 0-79.83 9.18-73.89-76.59l-63.54-65.88-115.29 119.43 56.16 58.23c0 0 138.96 6.030 90.18 124.020l-208.44 217.53-39.96-6.12-237.96 246.6c0 0-16.29 59.76 25.11 96.48 0 0 26.64 33.75 82.8 32.13l233.55-251.19 4.41-41.31 237.96-245.070c0 0 13.32-21.42 35.46-1.53 0 0 63.54 29.070 59.13 179.19l45.81 47.43c0 0 48.78-116.37 31.050-215.91 0.090 0-1.44-93.42-162.54-217.44z" p-id="3179" fill="#0086CC"></path></svg>
