<?xml version="1.0" standalone="no"?><!DOCTYPE svg PUBLIC "-//W3C//DTD SVG 1.1//EN" "http://www.w3.org/Graphics/SVG/1.1/DTD/svg11.dtd"><svg t="1550835949982" class="icon" style="" viewBox="0 0 1024 1024" version="1.1" xmlns="http://www.w3.org/2000/svg" p-id="3112" xmlns:xlink="http://www.w3.org/1999/xlink" width="32" height="32"><defs><style type="text/css"></style></defs><path d="M512 512m-352 0a352 352 0 1 0 704 0 352 352 0 1 0-704 0Z" fill="#3194FF" p-id="3113"></path><path d="M512 896c-211.2 0-384-172.8-384-384s172.8-384 384-384 384 172.8 384 384-172.8 384-384 384zM512 192C332.8 192 192 332.8 192 512s140.8 320 320 320 320-140.8 320-320-140.8-320-320-320z" fill="#208BFF" p-id="3114"></path><path d="M518.4 320c38.4 0 70.4 12.8 89.6 32 19.2 19.2 32 51.2 32 89.6 0 25.6-6.4 51.2-19.2 70.4-6.4 6.4-25.6 25.6-51.2 44.8-12.8 12.8-19.2 25.6-25.6 38.4-6.4 12.8-12.8 25.6-12.8 44.8v12.8h-44.8V640c0-19.2 6.4-38.4 12.8-51.2 6.4-25.6 25.6-44.8 57.6-76.8 6.4-6.4 12.8-19.2 19.2-19.2 12.8-12.8 19.2-32 19.2-51.2 0-25.6-6.4-44.8-19.2-57.6-19.2-12.8-38.4-19.2-64-19.2-32 0-51.2 12.8-64 32-12.8 12.8-19.2 38.4-19.2 64H384c0-38.4 12.8-76.8 32-102.4 25.6-25.6 57.6-38.4 102.4-38.4z m-12.8 377.6c12.8 0 19.2 0 25.6 12.8 6.4 6.4 12.8 12.8 12.8 25.6s-6.4 19.2-12.8 25.6-12.8 6.4-25.6 6.4-19.2-6.4-25.6-12.8c-6.4-6.4-12.8-12.8-12.8-25.6s0-19.2 12.8-25.6c12.8-6.4 19.2-6.4 25.6-6.4z" fill="#FFFFFF" p-id="3115"></path></svg>