<?xml version="1.0" standalone="no"?><!DOCTYPE svg PUBLIC "-//W3C//DTD SVG 1.1//EN" "http://www.w3.org/Graphics/SVG/1.1/DTD/svg11.dtd"><svg t="1559284480411" class="icon" style="" viewBox="0 0 1024 1024" version="1.1" xmlns="http://www.w3.org/2000/svg" p-id="3189" xmlns:xlink="http://www.w3.org/1999/xlink" width="32" height="32"><defs><style type="text/css"></style></defs><path d="M269.4 756.2h490.3V265.9H269.4v490.3zM323.6 319h382.3v382.3H323.6V319z m635.1 353.8v175.4c0 61.9-50.2 112-112 112H670.8v-56h175.9c30.9 0 56-25.1 56-56V672.8h56z m-112-552.9H670.8v-56h175.9c61.8 0 112 50.1 112 112V350h-56V175.9c0-30.9-25.1-56-56-56z m-782 231.4V175.9c0-61.9 50.2-112 112-112h175.9v56H176.8c-30.9 0-56 25.1-56 56v175.4H64.7z m112.1 552.9h175.9v56H176.8c-61.8 0-112-50.1-112-112V674.1h56v174.1c0 30.9 25 56 56 56z" fill="#1296db" p-id="3190"></path></svg>