<?xml version="1.0" standalone="no"?><!DOCTYPE svg PUBLIC "-//W3C//DTD SVG 1.1//EN" "http://www.w3.org/Graphics/SVG/1.1/DTD/svg11.dtd"><svg t="1566903645687" class="icon" viewBox="0 0 1024 1024" version="1.1" xmlns="http://www.w3.org/2000/svg" p-id="2074" xmlns:xlink="http://www.w3.org/1999/xlink" width="32" height="32"><defs><style type="text/css"></style></defs><path d="M513.4 912.6c220.7 0 399.6-179 399.6-399.6S734.1 113.4 513.4 113.4 113.8 292.3 113.8 513s178.9 399.6 399.6 399.6z m0 47.9C266.2 960.5 65.8 760.1 65.8 513S266.2 65.4 513.4 65.4 960.9 265.8 960.9 513 760.5 960.5 513.4 960.5zM132.5 325.4l-19.5-14 28-39 19.5 14c26.5 19 63.6 34.1 111.3 45 35.9-111.7 108.6-195.1 217.6-248.9V69.4h48v17.1c104.7 53.8 174.8 135.8 209.9 244.8 47.3-10.9 84.2-25.9 110.6-44.9l19.5-14 28 39-19.5 14c-31.4 22.5-73.4 39.9-126.1 52.2 9.2 42.3 13.9 88 13.9 137.3 0 41.8-3.3 81.1-10 117.8 54.6 12.3 98.1 29.6 130.5 52.1l19.7 13.7-27.4 39.4-19.7-13.7c-27.1-18.9-65-33.8-113.7-44.7-32.8 118.6-104.8 207-215.6 263.9v13.1H519l-1.9 4-7.4-3.6-7.4 3.6-1.9-4h-10.8v-9.2c-115.2-56.8-189.8-146.6-223.3-267.9-48.9 10.9-87.1 25.9-114.3 44.9L132.3 738l-27.4-39.4 19.7-13.7c32.5-22.6 76.2-40 131.1-52.3-6.6-36.7-10-75.9-10-117.7 0-49.2 4.6-94.9 13.8-137.2-53.2-12.3-95.4-29.7-127-52.3z m404.9 285c67.8 1 127.5 5.4 179.1 13.5 6.1-33.8 9.1-70 9.1-108.9 0-46.3-4.3-89-12.9-128.1-50.5 8.2-108.9 12.7-175.3 13.7v209.8z m162.4-270c-29.2-86.6-83.3-152.7-162.4-199.2v211.5c61.8-1 115.9-5.1 162.4-12.3zM306.4 387c-8.6 39.1-12.9 81.7-12.9 128 0 38.8 3 75.1 9.1 108.8 53.6-8.4 115.8-12.8 186.9-13.5V400.7c-69.7-0.7-130.7-5.2-183.1-13.7z m183-250.2c-83.4 46.7-140 114.3-170.2 203.7 48.4 7.5 105.1 11.6 170.2 12.3v-216z m48 751.9c84.8-49.8 140.8-122.1 168.3-218-48-7.3-104.1-11.5-168.3-12.4v230.4z m-224-218.1c28.3 98.8 86.9 172.6 176 222.5V658.2c-67.4 0.7-126.1 4.9-176 12.4z" fill="#1296db" p-id="2075"></path></svg>