<?xml version="1.0" encoding="UTF-8"?>
<svg width="16px" height="16px" viewBox="0 0 16 16" version="1.1" xmlns="http://www.w3.org/2000/svg" xmlns:xlink="http://www.w3.org/1999/xlink">
    <title>AddOutline 2</title>
    <g id="第二版" stroke="none" stroke-width="1" fill="none" fill-rule="evenodd">
        <g id="收起菜单栏" transform="translate(-1761.000000, -74.000000)" fill="#FFFFFF" fill-rule="nonzero">
            <g id="编组-6" transform="translate(1621.000000, 66.000000)">
                <g id="AddOutline" transform="translate(140.000000, 8.000000)">
                    <path d="M8.50285682,0 C8.60342819,0 8.68571391,0.0822857194 8.68571391,0.182857083 L8.68571391,7.3142861 L15.8171429,7.3142861 C15.9177143,7.3142861 16,7.39657182 16,7.49714318 L16,8.50285682 L16,8.50285682 C16,8.60384604 15.9181321,8.6857139 15.8171429,8.6857139 L8.68571391,8.6857139 L8.68571391,15.8171429 L8.68571391,15.8171429 C8.68571391,15.9181321 8.60384605,16 8.50285682,16 L7.49714319,16 L7.49714318,16 C7.39615396,16 7.3142861,15.9181321 7.3142861,15.8171429 L7.3142861,8.6857139 L0.182857091,8.6857139 L0.182857083,8.6857139 C0.0818678622,8.6857139 0,8.60384604 0,8.50285682 L0,7.49714318 C0,7.39657182 0.0822857193,7.3142861 0.182857083,7.3142861 L7.31428609,7.3142861 L7.31428609,0.182857083 C7.31428609,0.0822857194 7.39657181,0 7.49714318,0 L8.50285681,0 L8.50285682,0 Z" id="路径"></path>
                </g>
            </g>
        </g>
    </g>
</svg>