<?xml version="1.0" encoding="UTF-8"?>
<svg width="32px" height="32px" viewBox="0 0 32 32" version="1.1" xmlns="http://www.w3.org/2000/svg" xmlns:xlink="http://www.w3.org/1999/xlink">
    <title>电池备份</title>
    <g id="第二版" stroke="none" stroke-width="1" fill="none" fill-rule="evenodd">
        <g id="收起菜单栏" transform="translate(-280.000000, -174.000000)" fill-rule="nonzero">
            <g id="编组-21" transform="translate(32.000000, 165.776903)">
                <g id="电池备份" transform="translate(248.000000, 8.223097)">
                    <rect id="矩形" fill="#000000" opacity="0" x="0" y="0" width="31.3343349" height="31.3343349"></rect>
                    <path d="M4.17791131,20.8895566 L26.3730652,20.8895566 L26.3730652,10.4447783 L4.17791131,10.4447783 L4.17791131,20.8895566 Z M28.9842598,13.0559729 L28.9842598,10.4447783 C28.9842598,9.00862132 27.8092222,7.83358373 26.3730652,7.83358373 L4.17791131,7.83358373 C2.74175431,7.83358373 1.56671675,9.00862129 1.56671675,10.4447783 L1.56671675,20.8895566 C1.56671675,22.3257136 2.74175431,23.5007512 4.17791131,23.5007512 L26.3730652,23.5007512 C27.8092222,23.5007512 28.9842598,22.3257136 28.9842598,20.8895566 L28.9842598,18.278362 C29.7023383,18.278362 30.2898571,17.6908432 30.2898571,16.9727647 L30.2898571,14.3615702 C30.2898571,13.6434917 29.7023383,13.0559729 28.9842598,13.0559729 Z M27.6786625,14.3615702 L27.6786625,16.9727647 L27.6786625,20.8895566 C27.6786625,21.6076351 27.0911437,22.1951539 26.3730652,22.1951539 L4.17791131,22.1951539 C3.45983279,22.1951539 2.87231401,21.6076351 2.87231401,20.8895566 L2.87231401,10.4447783 C2.87231401,9.72669978 3.45983279,9.139181 4.17791131,9.139181 L26.3730652,9.139181 C27.0911437,9.139181 27.6786625,9.72669978 27.6786625,10.4447783 L27.6786625,14.3615702 Z" id="形状" fill="#FFFFFF"></path>
                </g>
            </g>
        </g>
    </g>
</svg>