<?xml version="1.0" standalone="no"?><!DOCTYPE svg PUBLIC "-//W3C//DTD SVG 1.1//EN" "http://www.w3.org/Graphics/SVG/1.1/DTD/svg11.dtd"><svg t="1689063382981" class="icon" viewBox="0 0 1024 1024" version="1.1" xmlns="http://www.w3.org/2000/svg" p-id="4332" xmlns:xlink="http://www.w3.org/1999/xlink" width="64" height="64"><path d="M62 62m450 0l0 0q450 0 450 450l0 0q0 450-450 450l0 0q-450 0-450-450l0 0q0-450 450-450Z" fill="#CCE4F1" p-id="4333"></path><path d="M225.69 508.69a34.95 34.95 0 1 0 0-49.43 34.95 34.95 0 0 0 0 49.43z" fill="#3999D0" p-id="4334"></path><path d="M209.07 542.6a9.09 9.09 0 0 1-6.36-15.52l21.9-21.91a9.11 9.11 0 0 1 12.89 12.89L215.6 540a9 9 0 0 1-6.53 2.65z" fill="#374155" p-id="4335"></path><path d="M340.3 549.33a9.18 9.18 0 0 1-9.16-9.16v-28.58a9.17 9.17 0 1 1 18.33 0v28.58a9.18 9.18 0 0 1-9.17 9.16z" fill="#374155" p-id="4336"></path><path d="M232.61 512c0 154.24 125 279.28 279.27 279.28S791.16 666.24 791.16 512s-125-279.28-279.28-279.28c-154.24 0-279.27 125.04-279.27 279.28z" fill="#8BC1E9" p-id="4337"></path><path d="M174.46 396.76h675.07v230.33H174.46z" fill="#FFFFFF" p-id="4338"></path><path d="M211.71 430.89h600.46v162.2H211.71z" fill="#8BC1E9" p-id="4339"></path><path d="M726.61 482.52a24.14 24.14 0 1 0-6.26-23.32 24.15 24.15 0 0 0 6.26 23.32z" fill="#3999D0" p-id="4340"></path><path d="M849.39 635H174.46a8 8 0 0 1-8-8V396.75a8 8 0 0 1 8-8h675.08a8 8 0 0 1 8 8v230.33a8.08 8.08 0 0 1-8.09 8z m-667.11-15.8h659.15V404.71H182.28z" fill="#4570B6" p-id="4341"></path><path d="M812.16 601.05H211.72a8 8 0 0 1-8-8V430.91a8 8 0 0 1 8-8h600.44a8 8 0 0 1 8 8v162.18a8 8 0 0 1-8 7.96z m-592.62-15.92h584.65V438.87H219.54z" fill="#4570B6" p-id="4342"></path><path d="M267.85 549.92A38.2 38.2 0 1 1 306 511.71a38.26 38.26 0 0 1-38.15 38.21z m0-60.59a22.4 22.4 0 1 0 22.4 22.4 22.41 22.41 0 0 0-22.4-22.4z m95 60.59A38.2 38.2 0 1 1 401 511.71a38.25 38.25 0 0 1-38.14 38.21z m0-60.59a22.4 22.4 0 1 0 22.4 22.4 22.42 22.42 0 0 0-22.39-22.4z m395.36 30.49a32.12 32.12 0 1 1 32.11-32.13 32.19 32.19 0 0 1-32.1 32.13z m0-48.3a16.2 16.2 0 1 0 16.18 16.21 16.23 16.23 0 0 0-16.17-16.21z" fill="#4570B6" p-id="4343"></path><path d="M471.32 560.08a15.52 15.52 0 1 0-4-15 15.51 15.51 0 0 0 4 15z" fill="#4570B6" p-id="4344"></path><path d="M531.88 564.23a15.52 15.52 0 1 0-11.3-10.64 15.53 15.53 0 0 0 11.3 10.64z" fill="#4570B6" p-id="4345"></path><path d="M585.07 564.2a15.52 15.52 0 1 0-11.3-10.64 15.52 15.52 0 0 0 11.3 10.64z" fill="#4570B6" p-id="4346"></path><path d="M638.26 564.2a15.52 15.52 0 1 0-11.51-18.72 15.53 15.53 0 0 0 11.51 18.72z" fill="#4570B6" p-id="4347"></path><path d="M701.25 517.66h-278.5a8 8 0 0 1-8-8v-43.83a8 8 0 0 1 8-8h278.37a8 8 0 0 1 8 8v43.87a7.87 7.87 0 0 1-7.76 8h-0.07z m-270.54-15.84h262.58v-28.06H430.71z" fill="#4570B6" p-id="4348"></path><path d="M782.31 495.7h-24.14a8 8 0 0 1-0.08-15.92h24.22a8 8 0 0 1 0 15.92z" fill="#4570B6" p-id="4349"></path><path d="M166.5 370.61h690.99v25.15H166.5z" fill="#4570B6" p-id="4350"></path><path d="M166.5 622.49h690.99v25.15H166.5z" fill="#4570B6" p-id="4351"></path></svg>