<?xml version="1.0" encoding="UTF-8"?>
<svg width="32px" height="34px" viewBox="0 0 32 34" version="1.1" xmlns="http://www.w3.org/2000/svg" xmlns:xlink="http://www.w3.org/1999/xlink">
    <title>编组 5</title>
    <g id="第二版" stroke="none" stroke-width="1" fill="none" fill-rule="evenodd">
        <g id="收起菜单栏" transform="translate(-353.000000, -250.000000)">
            <g id="编组-21" transform="translate(32.000000, 165.776903)">
                <g id="编组-16" transform="translate(311.000000, 8.223097)">
                    <g id="编组-5" transform="translate(10.000000, 76.000000)">
                        <g id="a-1qujiantiaodu" fill="#FF512A">
                            <path d="M22.9242087,0.0315233506 C27.023334,0.0315233506 30.2113955,3.21970163 30.2113955,7.16681431 L30.2113955,20.6785786 C28.9968903,19.4639177 27.478788,18.7048666 25.6569718,18.7048666 C24.8979207,18.7048666 24.2905708,18.8567235 23.5315196,19.0084637 L23.5315196,16.7313102 C24.4424666,16.2758562 25.0496219,15.2130523 25.0496219,14.1504429 C25.0496219,13.087639 24.4424666,12.0249907 23.5315196,11.5695367 L23.5315196,8.22961824 C23.5315196,7.47056709 22.7725074,6.71136027 22.0133006,6.71136027 C21.2542494,6.71136027 20.4951983,7.31871016 20.4951983,8.22961824 L20.4951983,11.8731338 C19.5842902,12.3285878 19.1288362,13.3913918 19.1288362,14.3022999 C19.1288362,15.2130523 19.7361471,16.2758562 20.4951983,16.7313102 L20.4951983,21.2857339 C19.7361471,22.3485378 19.2806931,23.563043 19.2806931,24.9294051 C19.2806931,27.2065586 20.4951983,29.3319718 22.4687546,30.3947758 L7.43904374,30.3947758 C3.33991846,30.3947758 0,27.2065586 0,23.2594459 L0,7.16681431 C0,3.21970163 3.33991846,0.0315233506 7.28718681,0.0315233506 L22.9242087,0.0315233506 Z M8.19809489,6.71136027 C7.74264085,6.71136027 7.43904374,6.8632172 7.13532987,7.16681431 C6.83173277,7.47056709 6.52813566,7.7741642 6.52813566,8.22961824 L6.52813566,11.8731338 C5.61722758,12.3285878 5.16177354,13.3913918 5.16177354,14.3022999 C5.16177354,15.2130523 5.76892884,16.2758562 6.52813566,16.7313102 L6.52813566,22.6521349 C6.52813566,23.4111861 7.28718681,24.1702372 8.04623795,24.1702372 C8.8052891,24.1702372 9.56449592,23.563043 9.56449592,22.6521349 L9.56449592,16.8830115 C10.4752483,16.4277131 11.0825982,15.3649481 11.0825982,14.3022999 C11.0825982,13.2394959 10.6271053,12.1768866 9.71619718,11.5695367 L9.71619718,8.22961824 C9.71619718,7.31871016 8.95714603,6.71136027 8.19809489,6.71136027 Z M14.8779707,6.71136027 C13.9670626,6.71136027 13.3598684,7.31871016 13.3598684,8.22961824 L13.3598684,16.1239993 C12.4489603,16.5794533 11.9935063,17.6422183 11.9935063,18.5531264 C11.9935063,19.6157746 12.6006616,20.5266827 13.3598684,20.9821757 L13.3598684,22.5002391 C13.3598684,23.2594459 14.1189196,24.018497 14.8779707,24.018497 C15.6370219,24.018497 16.3962287,23.4111861 16.3962287,22.5002391 L16.3962287,20.9821757 C17.3069811,20.5266827 17.9142921,19.4639177 17.9142921,18.4012695 C17.9142921,17.3385044 17.3069811,16.2758562 16.3962287,15.8204021 L16.3962287,8.22961824 C16.3962287,7.31871016 15.7888788,6.71136027 14.8779707,6.71136027 Z" id="Fill-1"></path>
                            <path d="M25.505076,20.2231245 C28.0859822,20.2231245 30.3632524,22.3485378 30.3632524,24.9294051 C30.3632524,25.9920534 29.9077984,27.0548573 29.3004874,27.9656097 L29.4523443,28.1174666 C28.8450334,27.5103113 28.3895793,27.0548573 28.0859822,26.2956505 C28.6932932,25.2330022 28.9968903,24.018497 29.1487472,22.6521349 L29.1487472,22.1966809 L26.1124259,22.1966809 L26.1124259,21.7411879 L22.3170145,21.7411879 L22.3170145,22.1966809 L22.7725074,22.1966809 L22.7725074,27.0548573 C22.4687546,27.0548573 22.3170145,27.0548573 22.0133006,27.2065586 L22.1651575,27.8139085 C23.0760656,27.6620126 23.9870126,27.5103113 24.7460248,27.3584155 L24.7460248,28.5729207 L25.3533747,28.5729207 L25.3533747,27.2065586 C25.6569718,27.2065586 25.8086731,27.0548573 26.1124259,27.0548573 L26.1124259,26.4475074 C25.8086731,26.4475074 25.6569718,26.5993643 25.3533747,26.5993643 L25.3533747,22.1966809 L25.96053,22.1966809 L25.96053,22.6521349 L26.2641271,22.6521349 C26.416023,24.018497 26.7195812,25.2330022 27.3269311,26.2956505 C26.871477,27.0548573 26.416023,27.6620126 25.6569718,28.1174666 L26.1124259,28.5729207 C26.7195812,28.1174666 27.1750741,27.5103113 27.6305282,26.9029615 C27.9340864,27.3584155 28.2378391,27.8139085 28.6932932,28.2693625 L28.8450334,28.4210638 C27.9340864,29.1802706 26.871477,29.6357246 25.505076,29.6357246 C22.9242087,29.6357246 20.6470552,27.5103113 20.6470552,24.9294051 C20.6470552,22.3485378 22.9242087,20.2231245 25.505076,20.2231245 Z M24.7460248,25.6884563 L24.7460248,26.7511045 C24.2905708,26.9029615 23.8351168,26.9029615 23.3796627,27.0548573 L23.3796627,25.6884563 L24.7460248,25.6884563 Z M28.5414362,22.6521349 C28.3895793,23.8666401 28.0859822,24.7775482 27.6305282,25.6884563 C27.1750741,24.7775482 26.871477,23.7147443 26.871477,22.6521349 L28.5414362,22.6521349 Z M23.3796627,25.2330022 L24.7460248,25.2330022 L24.7460248,24.018497 L23.3796627,24.018497 L23.3796627,25.2330022 Z M23.3796627,23.4111861 L24.7460248,23.4111861 L24.7460248,22.1966809 L23.3796627,22.1966809 L23.3796627,23.4111861 Z" id="Fill-2"></path>
                        </g>
                        <circle id="椭圆形" fill="#FF512A" cx="26.0526316" cy="25.1842105" r="5.21052632"></circle>
                        <text id="R" font-family="PingFangSC-Medium, PingFang SC" font-size="11.0730806" font-weight="400" fill="#171C26">
                            <tspan x="22.5789474" y="29.3684211">R</tspan>
                        </text>
                    </g>
                </g>
            </g>
        </g>
    </g>
</svg>