<?xml version="1.0" encoding="UTF-8"?>
<svg width="18px" height="11px" viewBox="0 0 18 11" version="1.1" xmlns="http://www.w3.org/2000/svg" xmlns:xlink="http://www.w3.org/1999/xlink">
    <title>DownOutline 2</title>
    <g id="第二版" stroke="none" stroke-width="1" fill="none" fill-rule="evenodd">
        <g id="收起菜单栏" transform="translate(-1861.000000, -134.000000)" fill="#FFFFFF" fill-rule="nonzero">
            <g id="编组-11" transform="translate(1634.000000, 126.000000)">
                <g id="DownOutline-3" transform="translate(227.000000, 8.000000)">
                    <g id="DownOutline" transform="translate(9.000000, 5.500000) scale(-1, -1) translate(-9.000000, -5.500000) ">
                        <path d="M0.343002726,2.01438374 L8.38676209,10.3478173 L8.38676207,10.3478173 C8.63665787,10.5991289 9.03695736,10.6184068 9.30984576,10.3922756 L9.35888756,10.3478173 L17.6547234,2.01485639 L17.6547234,2.01485639 C17.6890963,1.98044525 17.7083485,1.93378565 17.7083485,1.88514798 L17.7083485,0.452396309 L17.7083485,0.452393576 C17.7083485,0.351141252 17.6264089,0.268918464 17.5251566,0.268918464 C17.4764482,0.268918464 17.4297269,0.288227989 17.3953046,0.322689675 L8.90009357,8.85502578 L0.606535092,0.33184203 L0.606535095,0.331842033 C0.536006966,0.259193393 0.419939428,0.257474427 0.347291434,0.328002556 C0.311685767,0.362569022 0.291660276,0.410092729 0.291660276,0.459717181 L0.291660276,1.88696884 L0.291660276,1.88696694 C0.291660276,1.934487 0.310015121,1.98016949 0.342992407,2.01438426 L0.343002726,2.01438374 Z" id="路径"></path>
                    </g>
                </g>
            </g>
        </g>
    </g>
</svg>