<?xml version="1.0" encoding="UTF-8"?>
<svg width="24px" height="24px" viewBox="0 0 24 24" version="1.1" xmlns="http://www.w3.org/2000/svg" xmlns:xlink="http://www.w3.org/1999/xlink">
    <title>警告</title>
    <g id="第二版" stroke="none" stroke-width="1" fill="none" fill-rule="evenodd">
        <g id="收起菜单栏" transform="translate(-384.000000, -497.000000)" fill="#7A7A7A" fill-rule="nonzero">
            <g id="编组-21" transform="translate(32.000000, 165.776903)">
                <g id="编组-16" transform="translate(311.000000, 8.223097)">
                    <g id="警告" transform="translate(41.021578, 323.149572)">
                        <path d="M22.1626357,11.27936 C22.1626357,5.28828981 17.2854831,0.396084263 11.27936,0.396084263 C5.28828981,0.396084263 0.396084263,5.27323687 0.396084263,11.27936 C0.396084263,17.2704302 5.27323687,22.1626357 11.27936,22.1626357 C17.2704302,22.1626357 22.1626357,17.2704302 22.1626357,11.27936 Z M10.5116601,5.30334275 C10.5116601,4.88186043 10.8578777,4.53564281 11.27936,4.53564281 C11.7008423,4.53564281 12.0470599,4.88186043 12.0470599,5.30334275 L12.0470599,13.4018246 C12.0470599,13.6125657 11.9717952,13.793201 11.8212658,13.9437304 C11.6707364,14.0942598 11.4901012,14.1695245 11.27936,14.1695245 C10.8578777,14.1695245 10.5116601,13.8233069 10.5116601,13.4018246 L10.5116601,5.30334275 L10.5116601,5.30334275 Z M11.27936,18.0230772 C10.6320836,18.0230772 10.1052307,17.4962243 10.1052307,16.8489479 C10.1052307,16.2016714 10.6320836,15.6748185 11.27936,15.6748185 C11.9266364,15.6748185 12.4534893,16.2016714 12.4534893,16.8489479 C12.4534893,17.4962243 11.9266364,18.0230772 11.27936,18.0230772 L11.27936,18.0230772 Z" id="形状"></path>
                    </g>
                </g>
            </g>
        </g>
    </g>
</svg>