<?xml version="1.0" encoding="UTF-8"?>
<svg width="28px" height="32px" viewBox="0 0 28 32" version="1.1" xmlns="http://www.w3.org/2000/svg" xmlns:xlink="http://www.w3.org/1999/xlink">
    <title>base-station-full</title>
    <defs>
        <polygon id="path-1" points="0.00229527794 0.0306037059 27.4209588 0.0306037059 27.4209588 31.3687603 0.00229527794 31.3687603"></polygon>
    </defs>
    <g id="第二版" stroke="none" stroke-width="1" fill="none" fill-rule="evenodd">
        <g id="收起菜单栏" transform="translate(-355.000000, -642.000000)">
            <g id="base-station-full" transform="translate(355.000000, 642.000000)">
                <mask id="mask-2" fill="white">
                    <use xlink:href="#path-1"></use>
                </mask>
                <g id="Clip-2"></g>
                <path d="M18.5427472,4.52012911 L16.9330687,5.63414226 C17.3828285,6.2860012 17.6277729,7.05721458 17.6277729,7.86519068 C17.6277729,8.67316677 17.3828285,9.44422714 16.9330687,10.0962008 L18.5427472,11.210061 C19.2008416,10.2614608 19.5863718,9.10770114 19.5863718,7.86519068 C19.5863718,6.62264196 19.2008416,5.46888225 18.5427472,4.52012911 Z M8.87805858,4.52012911 C8.22011715,5.46888225 7.83458697,6.62264196 7.83458697,7.86519068 C7.83458697,9.10770114 8.22011715,10.2614608 8.87805858,11.210061 L10.48789,10.0962008 C10.037939,9.44422714 9.79318589,8.67316677 9.79318589,7.86519068 C9.79318589,7.05721458 10.037939,6.2860012 10.48789,5.63414226 L8.87805858,4.52012911 Z M21.37359,2.55839331 L19.7639115,3.67240646 C20.0424435,4.079474 20.277939,4.51102451 20.4708571,4.9700801 C20.8595242,5.88505439 21.0552732,6.8582905 21.0552732,7.86519068 C21.0552732,8.86891572 20.8595242,9.84215182 20.4708571,10.760263 C20.277939,11.2161817 20.0424435,11.6509074 19.7639115,12.0577836 L21.37359,13.171835 C22.40811,11.660012 23.0140634,9.8328942 23.0140634,7.86519068 C23.0140634,5.89729588 22.40811,4.0703694 21.37359,2.55839331 Z M7.53467065,3.58977645 L5.92483921,2.47591632 C4.85072564,3.99998087 4.22323491,5.86053317 4.22323491,7.86519068 C4.22323491,9.8696569 4.85072564,11.7304005 5.92185535,13.2576019 L7.53153377,12.1435888 C7.22863359,11.712 6.9714477,11.2499605 6.76345726,10.760263 C6.37777406,9.84215182 6.1820251,8.86891572 6.1820251,7.86519068 C6.1820251,6.86131261 6.37777406,5.88505439 6.76644112,4.9700801 C6.9714477,4.48038255 7.22863359,4.01819008 7.53467065,3.58977645 Z M25.0276342,0.0306037059 L23.4179558,1.14461686 C23.8586491,1.78733293 24.2350747,2.47591632 24.5411118,3.19812552 C25.1531859,4.64568081 25.4653437,6.18497071 25.4653437,7.77326479 C25.4653437,9.36175015 25.1563228,10.8979032 24.5411118,12.3485953 C24.2136904,13.1198087 23.8096067,13.8481387 23.3323419,14.5276175 L24.9420203,15.6384937 C26.5058314,13.4106204 27.4209588,10.6990173 27.4209588,7.77326479 C27.4209588,4.89969157 26.5364734,2.23414704 25.0276342,0.0306037059 Z M1.95859892,7.77326479 C1.95859892,6.18497071 2.26777286,4.64568081 2.88283084,3.19812552 C3.1888679,2.47277944 3.56529348,1.78733293 4.00598685,1.14461686 L2.39317155,0.0306037059 C0.884485356,2.23414704 0,4.89969157 0,7.77326479 C0,10.6990173 0.918111178,13.4136043 2.47893843,15.6384937 L4.08861686,14.5244806 C3.61116079,13.8451548 3.20726838,13.1166718 2.87984698,12.3456115 C2.26777286,10.8979032 1.95859892,9.36175015 1.95859892,7.77326479 Z M14.573523,7.51014943 C14.2032182,6.82156605 13.2177406,6.82156605 12.8474357,7.51014943 L0.0152253437,31.3687603 L1.82398087,31.3687603 C2.08411237,31.3687603 2.3259199,31.264746 2.50644351,31.0903814 C2.58295278,31.0138721 2.65031919,30.9251213 2.69920861,30.8270747 L3.89585176,28.4307663 L23.5280909,28.4307663 L24.724734,30.8270747 C24.7737764,30.9281052 24.8409898,31.0168559 24.9174991,31.0903814 C25.0980227,31.264746 25.339792,31.3687603 25.5999617,31.3687603 L27.408679,31.3687603 L14.573523,7.51014943 Z M4.87207173,26.4721674 L5.92483921,24.5135684 L6.65630604,23.1547639 L14.3592206,18.6375804 L9.08624029,18.6375804 L10.1389695,16.6789815 L17.2819892,16.6789815 L17.3828285,16.8656258 L18.3102355,18.5917131 L18.2305894,18.6375804 L8.21101255,24.5135684 L21.4961195,24.5135684 L22.5488488,26.4721674 L4.87207173,26.4721674 Z" id="Fill-1" fill="#FF2C2C" mask="url(#mask-2)"></path>
            </g>
        </g>
    </g>
</svg>