<?xml version="1.0" encoding="UTF-8"?>
<svg width="34px" height="31px" viewBox="0 0 34 31" version="1.1" xmlns="http://www.w3.org/2000/svg" xmlns:xlink="http://www.w3.org/1999/xlink">
    <title>chongdianzhuang备份</title>
    <g id="第二版" stroke="none" stroke-width="1" fill="none" fill-rule="evenodd">
        <g id="收起菜单栏" transform="translate(-1599.000000, -252.000000)" fill="#FFB912">
            <g id="编组-21" transform="translate(32.000000, 165.776903)">
                <g id="编组-12备份" transform="translate(1556.000000, 8.223097)">
                    <g id="chongdianzhuang备份-2" transform="translate(11.000000, 78.000000)">
                        <path d="M32.692318,10.3333207 L31.384636,10.3333207 L31.384636,22.6041438 C31.384636,25.1009486 29.3355907,27.125071 26.8077682,27.125071 C24.279984,27.125071 22.2307854,25.1009486 22.2307854,22.6041438 L22.2307854,9.04170293 C22.2307854,8.32830851 21.6453111,7.7500473 20.9231034,7.7500473 L20.9231034,28.4167266 L23.5384291,28.4167266 L23.5384291,31 L0,31 L0,28.4167266 L2.61536399,28.4167266 L2.61536399,2.58331126 C2.61536399,1.89814685 2.89101429,1.24109893 3.38143814,0.756685494 C3.87182368,0.272120694 4.53721555,0 5.23084291,0 L18.3077395,0 C19.0014051,0 19.6666054,0.272120694 20.1570293,0.756685494 C20.6475681,1.24109893 20.9231034,1.89814685 20.9231034,2.58331126 L20.9231034,5.16673604 C23.089803,5.16673604 24.8462644,6.9015575 24.8462644,9.04170293 L24.8462644,22.6041438 C24.8462644,23.6741976 25.7244376,24.5417597 26.8077682,24.5417597 C27.8911371,24.5417597 28.7693103,23.6741976 28.7693103,22.6041438 L28.7693103,10.3333207 L27.4616283,10.3333207 C26.7393824,10.3333207 26.1539464,9.75505952 26.1539464,9.04170293 L26.1539464,6.45839167 C26.1539464,5.74499725 26.7393824,5.16673604 27.4616283,5.16673604 L27.4616283,4.52077578 C27.4616283,4.16407857 27.7543272,3.87492905 28.1154502,3.87492905 C28.4765732,3.87492905 28.7693103,4.16407857 28.7693103,4.52077578 L28.7693103,5.16673604 L31.384636,5.16673604 L31.384636,4.52077578 C31.384636,4.16407857 31.6773732,3.87492905 32.0384962,3.87492905 C32.3995808,3.87492905 32.692318,4.16407857 32.692318,4.52077578 L32.692318,5.16673604 C33.414564,5.16673604 34,5.74499725 34,6.45839167 L34,9.04170293 C34,9.75505952 33.414564,10.3333207 32.692318,10.3333207 Z M10.4615326,24.5417597 L15.6924138,19.3750237 L11.7692146,19.3750237 L11.7692146,15.5000946 L7.84620689,20.6666793 L11.7692146,20.6666793 L10.4615326,24.5417597 Z M5.23084291,11.6249763 L18.3077395,11.6249763 L18.3077395,3.87492905 L5.23084291,3.87492905 L5.23084291,11.6249763 Z M31.384636,6.45839167 L28.7693103,6.45839167 C28.0470644,6.45839167 27.4616283,7.03665288 27.4616283,7.7500473 C27.4616283,8.46340389 28.0470644,9.04170293 28.7693103,9.04170293 L31.384636,9.04170293 C32.106882,9.04170293 32.692318,8.46340389 32.692318,7.7500473 C32.692318,7.03665288 32.106882,6.45839167 31.384636,6.45839167 Z" id="chongdianzhuang备份"></path>
                    </g>
                </g>
            </g>
        </g>
    </g>
</svg>