<?xml version="1.0" encoding="UTF-8"?>
<svg width="29px" height="31px" viewBox="0 0 29 31" version="1.1" xmlns="http://www.w3.org/2000/svg" xmlns:xlink="http://www.w3.org/1999/xlink">
    <title>zhongduanguanli 2</title>
    <g id="第二版" stroke="none" stroke-width="1" fill="none" fill-rule="evenodd">
        <g id="收起菜单栏" transform="translate(-1288.000000, -642.000000)" fill="#77EDFF">
            <g id="zhongduanguanli-2" transform="translate(1288.000000, 642.000000)">
                <path d="M24.1665552,0 L4.83328744,0 C2.16905766,0 0.00708006852,2.18351712 0,4.88164418 L0,26.1150895 C0.00538871882,28.8146107 2.16764165,31 4.83328744,31 L24.1665552,31 C26.832201,31 28.9946506,28.8146107 29,26.1150895 L29,4.88164418 C28.9928019,2.18351712 26.8309817,0 24.1665552,0 Z M8.18923992,25.8768847 C8.18923992,26.0933403 8.10443644,26.3007538 7.95339497,26.4536748 C7.80219618,26.6067951 7.59738553,26.6926763 7.38368546,26.6926763 L4.54166729,26.6926763 C4.32808522,26.6926763 4.12311724,26.6067951 3.97207578,26.4536748 C3.82107365,26.3007538 3.73607349,26.0933403 3.73607349,25.8768847 L3.73607349,23.0052824 C3.73607349,22.7889861 3.82107365,22.5814532 3.97207578,22.4284923 C4.12311724,22.2755314 4.32808522,22.1894909 4.54166729,22.1894909 L7.38215145,22.1894909 C7.59569418,22.1894909 7.80066216,22.2755314 7.95170362,22.4284923 C8.10274509,22.5814532 8.18770591,22.7889861 8.18770591,23.0052824 L8.18770591,25.8768847 L8.18923992,25.8768847 Z M16.6251022,25.8768847 C16.6251022,26.0933403 16.5401414,26.3007538 16.3890999,26.4536748 C16.2380585,26.6067951 16.0330905,26.6926763 15.8195478,26.6926763 L12.9758382,26.6926763 C12.7622562,26.6926763 12.5572882,26.6067951 12.4062467,26.4536748 C12.2552053,26.3007538 12.1702445,26.0933403 12.1702445,25.8768847 L12.1702445,23.0052824 C12.1702445,22.7889861 12.2552053,22.5814532 12.4062467,22.4284923 C12.5572882,22.2755314 12.7622562,22.1894909 12.9758382,22.1894909 L15.8162831,22.1894909 C16.0298651,22.1894909 16.2348331,22.2755314 16.3858746,22.4284923 C16.536916,22.5814532 16.6218769,22.7889861 16.6218769,23.0052824 L16.6218769,25.8768847 L16.6251022,25.8768847 Z M25.0575818,25.8768847 C25.0575818,26.0933403 24.9727784,26.3007538 24.8215796,26.4536748 C24.6705381,26.6067951 24.4657274,26.6926763 24.251988,26.6926763 L21.4099699,26.6926763 C21.1964271,26.6926763 20.9914592,26.6067951 20.8404177,26.4536748 C20.6893762,26.3007538 20.6044154,26.0933403 20.6044154,25.8768847 L20.6044154,23.0052824 C20.6044154,22.7889861 20.6893762,22.5814532 20.8404177,22.4284923 C20.9914592,22.2755314 21.1964271,22.1894909 21.4099699,22.1894909 L24.250454,22.1894909 C24.4640361,22.1894909 24.6690041,22.2755314 24.8200455,22.4284923 C24.971087,22.5814532 25.0560478,22.7889861 25.0560478,23.0052824 L25.0560478,25.8768847 L25.0575818,25.8768847 Z M25.0575818,16.301093 C25.0525078,16.5506901 24.9495715,16.7879787 24.7716257,16.9605378 C24.593562,17.1332562 24.3550817,17.227104 24.108656,17.2213282 L4.68193131,17.2213282 C4.16937369,17.2314459 3.74531691,16.8200448 3.73300546,16.301093 L3.73300546,6.78417528 C3.74606426,6.26586083 4.17000302,5.8555352 4.68193131,5.86549359 L24.108656,5.86549359 C24.3548064,5.85987706 24.59309,5.95340628 24.7710357,6.12564665 C24.9489421,6.29804636 25.0520358,6.53489678 25.0575818,6.78417528 L25.0575818,16.301093 Z" id="zhongduanguanli"></path>
            </g>
        </g>
    </g>
</svg>