<?xml version="1.0" encoding="UTF-8"?>
<svg width="18px" height="17px" viewBox="0 0 18 17" version="1.1" xmlns="http://www.w3.org/2000/svg" xmlns:xlink="http://www.w3.org/1999/xlink">
    <title>形状 2</title>
    <g id="第二版" stroke="none" stroke-width="1" fill="none" fill-rule="evenodd">
        <g id="收起菜单栏" transform="translate(-1642.000000, -73.000000)" fill="#FFFFFF" fill-rule="nonzero">
            <g id="编组-6" transform="translate(1621.000000, 66.000000)">
                <g id="形状-2" transform="translate(21.000000, 7.000000)">
                    <path d="M18,8.49999292 C18,12.3628191 15.1217056,15.5605145 11.3712744,16.1074887 L12.1332756,16.8618633 L12.1332756,16.8618633 C12.1652326,16.8932414 12.1654879,16.9443688 12.133846,16.9760595 C12.1183103,16.9916192 12.0970687,17.0002552 12.0749898,16.9999943 L10.7044174,16.9999943 L10.7044174,16.9999943 C10.6610784,16.9999943 10.6194817,16.9830705 10.588703,16.9528133 L8.72998678,15.1138416 L8.72998678,15.1138416 C8.69802972,15.0824635 8.69777439,15.0313361 8.72941636,14.9996454 C8.7449521,14.9840858 8.76619364,14.9754497 8.78827259,14.9757169 L10.2274158,14.9757169 C13.842425,14.9757169 16.7725699,12.076371 16.7725699,8.49958272 C16.7725699,5.21688076 14.3039968,2.50495962 11.1038517,2.08082351 L10.181566,1.16877547 L10.1078517,1.09610058 L10.1078517,1.09610058 C10.0418142,1.03046945 10.0419317,0.924177239 10.1081145,0.858689946 C10.1397864,0.827350889 10.1826813,0.809650926 10.2274232,0.809650926 C14.5200043,0.809650926 18,4.25300266 18,8.50002161 L18,8.49999292 Z M1.22742347,8.5 C1.22742347,11.7826949 3.69599664,14.494616 6.89614174,14.9187521 L7.78757027,15.8006265 L7.88657034,15.8983765 L7.88657034,15.8983765 C7.95379295,15.9644911 7.95424054,16.072128 7.88757019,16.1387913 C7.85513802,16.1712197 7.81091163,16.1893426 7.76485591,16.1890799 C7.62985581,16.188227 7.54628433,16.1873771 7.51414145,16.186102 C3.34113181,16.0513772 0,12.6615887 0,8.5 C0,4.63675013 2.87829444,1.43947305 6.62872564,0.892498826 L5.86715435,0.137699902 L5.86715435,0.137699905 C5.83543737,0.106083138 5.83557156,0.0549553121 5.86745398,0.0235027007 C5.88274408,0.00841873509 5.90344416,0 5.92501143,0 L7.29558382,0 C7.33929814,0 7.38086953,0.0170000705 7.41129819,0.0471750342 L9.27001445,1.88614675 L9.27001445,1.88614675 C9.30197151,1.91752486 9.30222684,1.96865228 9.27058487,2.00034296 C9.25504914,2.01590258 9.23380759,2.02453864 9.21172865,2.02427149 L7.77258545,2.02427149 C4.15757621,2.0238465 1.22743129,4.92276072 1.22743129,8.49998726 L1.22742347,8.5 Z" id="形状"></path>
                </g>
            </g>
        </g>
    </g>
</svg>