<?xml version="1.0" encoding="UTF-8"?>
<svg width="32px" height="32px" viewBox="0 0 32 32" version="1.1" xmlns="http://www.w3.org/2000/svg" xmlns:xlink="http://www.w3.org/1999/xlink">
    <title>kongzhiquanguanli-01</title>
    <defs>
        <polygon id="path-1" points="0 0 32 0 32 32 0 32"></polygon>
    </defs>
    <g id="第二版" stroke="none" stroke-width="1" fill="none" fill-rule="evenodd">
        <g id="收起菜单栏" transform="translate(-50.000000, -451.000000)">
            <g id="编组-21" transform="translate(32.000000, 165.776903)">
                <g id="kongzhiquanguanli-01" transform="translate(18.000000, 285.223097)">
                    <mask id="mask-2" fill="white">
                        <use xlink:href="#path-1"></use>
                    </mask>
                    <g id="Clip-2"></g>
                    <path d="M29.9163161,21.3457816 L27.7066687,21.3457816 C27.7072936,21.3350151 27.7077102,21.3242485 27.7077102,21.3134819 L27.7077102,15.9889214 C27.7077102,15.9531888 27.7058355,15.9174043 27.7021905,15.882452 C27.6489202,15.357855 27.2052619,14.9486735 26.6662588,14.9486735 L17.0786052,14.9486735 L17.0786052,10.6542184 L19.249771,10.6542184 C20.400054,10.6542184 21.3326737,9.72267643 21.3326737,8.57372269 L21.3326737,2.08049568 C21.3326737,0.93154194 20.400054,0 19.249771,0 L12.7490314,0 C11.5987483,0 10.6661286,0.93154194 10.6661286,2.08049568 L10.6661286,8.57372269 C10.6661286,9.72267643 11.5987483,10.6542184 12.7490314,10.6542184 L14.9957024,10.6542184 L14.9957024,14.9486735 L5.33296015,14.9486735 C4.75771447,14.9486735 4.29150875,15.4143405 4.29150875,15.9889214 C4.29150875,15.9976594 4.29213362,16.0059814 4.29255021,16.0143554 C4.29255021,16.0226774 4.29150875,16.0314155 4.29150875,16.0397375 L4.29150875,21.3457816 L2.08290279,21.3457816 C0.932619722,21.3457816 0,22.2775836 0,23.4262773 L0,29.9195043 C0,31.0684581 0.932619722,32 2.08290279,32 L8.58364238,32 C9.73392544,32 10.6665452,31.0684581 10.6665452,29.9195043 L10.6665452,23.4262773 C10.6665452,22.2775836 9.73392544,21.3457816 8.58364238,21.3457816 L6.37503641,21.3457816 L6.37503641,17.0291692 L25.6251719,17.0291692 L25.6251719,21.3134819 C25.6251719,21.3242485 25.6255885,21.3350151 25.626005,21.3457816 L23.4164097,21.3457816 C22.2663349,21.3457816 21.3335069,22.2775836 21.3335069,23.4262773 L21.3335069,29.9195043 C21.3335069,31.0684581 22.2663349,32 23.4164097,32 L29.9170972,32 C31.0673803,32 32,31.0684581 32,29.9195043 L32,23.4262773 C31.9992189,22.2775836 31.0669637,21.3457816 29.9163161,21.3457816 Z" id="Fill-1" fill="#21B6FE" mask="url(#mask-2)"></path>
                </g>
            </g>
        </g>
    </g>
</svg>