<?xml version="1.0" encoding="UTF-8"?>
<svg width="35px" height="35px" viewBox="0 0 35 35" version="1.1" xmlns="http://www.w3.org/2000/svg" xmlns:xlink="http://www.w3.org/1999/xlink">
    <title>路由器备份</title>
    <defs>
        <filter id="filter-1">
            <feColorMatrix in="SourceGraphic" type="matrix" values="0 0 0 0 0.129412 0 0 0 0 0.713725 0 0 0 0 0.996078 0 0 0 1.000000 0"></feColorMatrix>
        </filter>
    </defs>
    <g id="第二版" stroke="none" stroke-width="1" fill="none" fill-rule="evenodd">
        <g id="收起菜单栏" transform="translate(-90.000000, -449.000000)">
            <g id="编组-21" transform="translate(32.000000, 165.776903)">
                <g id="路由器备份" transform="translate(58.000000, 283.223097)" filter="url(#filter-1)">
                    <g>
                        <rect id="矩形" fill="#000000" fill-rule="nonzero" opacity="0" x="0" y="0" width="34.1463906" height="34.1463906"></rect>
                        <path d="M30.8117822,31.1207611 L3.33460846,31.1207611 C1.49295506,31.1207611 0,29.6321671 0,27.7958934 L0,20.6141793 C0,18.7779057 1.49295506,17.2893117 3.33460846,17.2893117 L30.8117822,17.2893117 C32.6534356,17.2893117 34.1463906,18.7779057 34.1463906,20.6141793 L34.1463906,27.7958934 C34.1463906,29.6321671 32.6534356,31.1207611 30.8117822,31.1207611 L30.8117822,31.1207611 Z M3.33460846,19.9492058 C2.96627777,19.9492058 2.66768675,20.2469246 2.66768675,20.6141793 L2.66768675,27.7958934 C2.66768675,28.1631482 2.96627779,28.4608669 3.33460846,28.4608669 L30.8117822,28.4608669 C31.1801128,28.4608669 31.4787039,28.1631482 31.4787039,27.7958934 L31.4787039,20.6141793 C31.4787039,20.2469246 31.1801128,19.9492058 30.8117822,19.9492058 L3.33460846,19.9492058 Z" id="形状" fill="#000000" fill-rule="nonzero"></path>
                        <path d="M7.3099886,34.1463906 L6.97642292,34.1463906 C5.13419057,34.1463906 3.64076617,32.6534864 3.64076617,30.8118958 L3.64076617,30.4117564 C3.64076617,29.6751201 4.23813594,29.0779584 4.97502886,29.0779584 C5.71192179,29.0779584 6.30929154,29.6751201 6.30929156,30.4117564 L6.30929156,30.8118958 C6.30929156,31.1802139 6.60797644,31.4787947 6.97642292,31.4787947 L7.3099886,31.4787947 C7.67843507,31.4787947 7.97711993,31.1802139 7.97711993,30.8118958 L7.97711993,30.4117564 C7.97711993,29.6751201 8.57448969,29.0779584 9.31138264,29.0779584 C10.0482756,29.0779584 10.6456453,29.6751201 10.6456453,30.4117564 L10.6456453,30.8118958 C10.6456453,32.6534864 9.15222095,34.1463906 7.3099886,34.1463906 L7.3099886,34.1463906 Z M27.1571462,34.1463906 L26.8235806,34.1463906 C24.9813482,34.1463906 23.4879238,32.6534864 23.4879238,30.8118958 L23.4879238,30.4117564 C23.4879238,29.6751201 24.0852936,29.0779584 24.8221865,29.0779584 C25.5590794,29.0779584 26.1564492,29.6751201 26.1564492,30.4117564 L26.1564492,30.8118958 C26.1564492,31.1802139 26.4551341,31.4787947 26.8235806,31.4787947 L27.1571462,31.4787947 C27.3340805,31.4787947 27.5037679,31.4085324 27.6288793,31.2834646 C27.7539907,31.1583967 27.8242776,30.9887684 27.8242776,30.8118958 L27.8242776,30.4117564 C27.8242776,29.6751201 28.4216474,29.0779584 29.1585403,29.0779584 C29.8954332,29.0779584 30.492803,29.6751201 30.492803,30.4117564 L30.492803,30.8118958 C30.492803,32.6534864 28.9993786,34.1463906 27.1571462,34.1463906 L27.1571462,34.1463906 Z M28.7249049,26.2436378 C27.9798649,26.2435147 27.3088856,25.7929875 27.0269885,25.1035766 C26.7450914,24.4141657 26.908264,23.622795 27.4398978,23.1010092 C27.9715315,22.5792233 28.7660384,22.4306543 29.4504015,22.7250545 C30.1347646,23.0194546 30.5730623,23.6983531 30.5595161,24.4430106 C30.5413281,25.4428397 29.7252478,26.2438031 28.7249049,26.2436378 Z M24.321838,26.2436378 C23.576798,26.2435147 22.9058187,25.7929875 22.6239216,25.1035766 C22.3420245,24.4141657 22.5051971,23.622795 23.0368309,23.1010092 C23.5684646,22.5792233 24.3629715,22.4306543 25.0473346,22.7250545 C25.7316977,23.0194546 26.1699954,23.6983531 26.1564492,24.4430106 C26.1382612,25.4428397 25.3221809,26.2438031 24.321838,26.2436378 Z M19.9521277,26.2436378 C19.2070876,26.2435147 18.5361084,25.7929875 18.2542112,25.1035766 C17.9723141,24.4141657 18.1354868,23.622795 18.6671206,23.1010092 C19.1987543,22.5792233 19.9932612,22.4306543 20.6776243,22.7250545 C21.3619873,23.0194546 21.8002851,23.6983531 21.7867389,24.4430106 C21.7685509,25.4428398 20.9524706,26.2438031 19.9521277,26.2436378 L19.9521277,26.2436378 Z M16.0160527,14.6729406 C15.4822473,14.6654446 15.0042968,14.3405924 14.8010304,13.8471176 C14.5977641,13.3536427 14.7083155,12.7865506 15.0820688,12.4054841 C16.1885267,11.3032323 17.978399,11.3032323 19.0848569,12.4054841 C19.4244958,12.7450047 19.5571399,13.2398667 19.4328234,13.7036604 C19.308507,14.1674542 18.9461166,14.5297183 18.4821612,14.6539915 C18.0182059,14.7782646 17.5231714,14.6456668 17.1835326,14.3061462 L16.9500366,14.3061462 C16.6983138,14.5452427 16.3632648,14.6768232 16.0160527,14.6729406 L16.0160527,14.6729406 Z" id="形状" fill="#000000" fill-rule="nonzero"></path>
                        <path d="M12.984644,11.6437329 C12.4513251,11.6363186 11.9738102,11.3150121 11.7707291,10.8269233 C11.567648,10.3388345 11.6780987,9.77793207 12.0515114,9.40102478 C14.817583,6.66360171 19.3166153,6.66360171 22.082687,9.40102478 C22.6072446,9.92014954 22.6072446,10.7618171 22.082687,11.2809418 C21.5581293,11.8000666 20.7076532,11.8000666 20.1830956,11.2809418 C18.450135,9.56592978 15.6507371,9.56592978 13.9177766,11.2809418 C13.6662832,11.5174287 13.3315396,11.647573 12.984644,11.6437329 L12.984644,11.6437329 Z" id="路径" fill="#000000" fill-rule="nonzero"></path>
                        <path d="M24.1783291,8.21242306 C23.8242921,8.2074806 23.4865885,8.06563007 23.2387734,7.8177678 C19.7489952,4.39742201 14.0109945,4.39742201 10.5212162,7.8177678 C9.99304787,8.33542777 9.13671773,8.33542777 8.60854935,7.8177678 C8.08038097,7.30010783 8.08038097,6.46081519 8.60854935,5.94315521 C13.1682701,1.4768106 20.558164,1.4768106 25.1178847,5.94315521 C25.4938677,6.318999 25.6050786,6.87831881 25.4005997,7.36503038 C25.1961207,7.85174195 24.7153189,8.17214183 24.1783291,8.17953512 L24.1783291,8.21242306 Z" id="路径" fill="#000000" fill-rule="nonzero"></path>
                    </g>
                </g>
            </g>
        </g>
    </g>
</svg>