<?xml version="1.0" encoding="UTF-8"?>
<svg width="32px" height="30px" viewBox="0 0 32 30" version="1.1" xmlns="http://www.w3.org/2000/svg" xmlns:xlink="http://www.w3.org/1999/xlink">
    <title>jiqiren</title>
    <defs>
        <polygon id="path-1" points="0.00234146341 0 31.9687415 0 31.9687415 29.9683902 0.00234146341 29.9683902"></polygon>
    </defs>
    <g id="第二版" stroke="none" stroke-width="1" fill="none" fill-rule="evenodd">
        <g id="收起菜单栏" transform="translate(-50.000000, -246.000000)">
            <g id="编组-21" transform="translate(32.000000, 165.776903)">
                <g id="jiqiren" transform="translate(18.000000, 80.223097)">
                    <mask id="mask-2" fill="white">
                        <use xlink:href="#path-1"></use>
                    </mask>
                    <g id="Clip-2"></g>
                    <path d="M26.7737756,27.3066927 L5.19496585,27.3066927 C4.39574634,27.3066927 3.86294634,27.8394927 3.86294634,28.6387122 C3.86294634,29.4379707 4.39574634,29.9707317 5.19496585,29.9707317 L26.7737756,29.9707317 C27.5730341,29.9707317 28.1059512,29.4379707 28.1059512,28.6387122 C28.1059512,27.8394927 27.439922,27.3066927 26.7737756,27.3066927 Z M1.33201951,13.4535024 C0.532760976,13.4535024 0,13.9862634 0,14.785522 L0,20.1137171 C0,20.9129756 0.532760976,21.4457366 1.33201951,21.4457366 C2.13123902,21.4457366 2.66403902,20.9129756 2.66403902,20.1137171 L2.66403902,14.785522 C2.66403902,13.9862634 2.13123902,13.4535024 1.33201951,13.4535024 Z M30.636722,13.4535024 C29.8375024,13.4535024 29.3047415,13.9862634 29.3047415,14.785522 L29.3047415,20.1137171 C29.3047415,20.9129756 29.8375024,21.4457366 30.636722,21.4457366 C31.4359805,21.4457366 31.9687415,20.9129756 31.9687415,20.1137171 L31.9687415,14.785522 C31.9687415,13.9862634 31.4359805,13.4535024 30.636722,13.4535024 Z M19.9804878,8.65822439 L17.3164488,8.65822439 L17.3164488,6.3937561 C18.515239,5.86099512 19.3144976,4.66204878 19.3144976,3.33002927 C19.3144976,1.46524878 17.8492488,0 15.9844683,0 C14.1194927,0 12.6542829,1.59847805 12.6542829,3.33002927 C12.6542829,4.66204878 13.4535024,5.86099512 14.6522927,6.3937561 L14.6522927,8.65822439 L11.9882537,8.65822439 C7.19297561,8.65822439 3.33002927,12.5210537 3.33002927,17.3164488 C3.33002927,22.1117268 7.19297561,25.9747122 11.9882537,25.9747122 L19.9804878,25.9747122 C24.7757659,25.9747122 28.6387122,22.1117268 28.6387122,17.3164488 C28.6387122,12.5210537 24.7757659,8.65822439 19.9804878,8.65822439 Z M11.3222634,19.9804878 C9.85701463,19.9804878 8.65822439,18.7816976 8.65822439,17.3164488 C8.65822439,15.851239 9.85701463,14.6522927 11.3222634,14.6522927 C12.7875122,14.6522927 13.9862634,15.851239 13.9862634,17.3164488 C13.9862634,18.9147707 12.7875122,19.9804878 11.3222634,19.9804878 Z M20.646478,19.9804878 C19.1812683,19.9804878 17.982478,18.7816976 17.982478,17.3164488 C17.982478,15.851239 19.1812683,14.6522927 20.646478,14.6522927 C22.1117268,14.6522927 23.3105171,15.851239 23.3105171,17.3164488 C23.3105171,18.9147707 22.1117268,19.9804878 20.646478,19.9804878 Z" id="Fill-1" fill="#00FFF6" mask="url(#mask-2)"></path>
                </g>
            </g>
        </g>
    </g>
</svg>