<?xml version="1.0" encoding="UTF-8"?>
<svg width="36px" height="36px" viewBox="0 0 36 36" version="1.1" xmlns="http://www.w3.org/2000/svg" xmlns:xlink="http://www.w3.org/1999/xlink">
    <title>编组 17</title>
    <defs>
        <polygon id="path-1" points="0.00262542887 0.0326865894 35.8458117 0.0326865894 35.8458117 35.8371478 0.00262542887 35.8371478"></polygon>
    </defs>
    <g id="第二版" stroke="none" stroke-width="1" fill="none" fill-rule="evenodd">
        <g id="收起菜单栏" transform="translate(-664.000000, -247.000000)">
            <g id="编组-21" transform="translate(32.000000, 165.776903)">
                <g id="编组-19" transform="translate(623.000000, 8.223097)">
                    <g id="编组-17" transform="translate(9.000000, 73.000000)">
                        <g id="xinpian">
                            <g id="编组">
                                <mask id="mask-2" fill="white">
                                    <use xlink:href="#path-1"></use>
                                </mask>
                                <g id="Clip-2"></g>
                                <path d="M9.28110984,3.70058575 L9.28110984,0.922356919 C9.26968922,0.42772612 8.86528566,0.0326865894 8.37043608,0.0326865894 C7.87558649,0.0326865894 7.47135796,0.42772612 7.45971856,0.922356919 L7.45971856,3.70058575 L9.28110984,3.70058575 Z M13.8189011,3.70058575 L13.8189011,0.922356919 C13.8074367,0.42772612 13.4030332,0.0326865894 12.9081836,0.0326865894 C12.4133778,0.0326865894 12.0091055,0.42772612 11.9975098,0.922356919 L11.9975098,3.70058575 L13.8189011,3.70058575 Z M18.3561235,3.70058575 L18.3561235,0.922356919 C18.3446591,0.42772612 17.9402556,0.0326865894 17.4454498,0.0326865894 C16.9506002,0.0326865894 16.5463716,0.42772612 16.5347322,0.922356919 L16.5347322,3.70058575 L18.3561235,3.70058575 Z M22.893871,3.70058575 L22.893871,0.922356919 C22.8824066,0.42772612 22.4780031,0.0326865894 21.9831973,0.0326865894 C21.4883477,0.0326865894 21.0841191,0.42772612 21.0724797,0.922356919 L21.0724797,3.70058575 L22.893871,3.70058575 Z M27.4311372,3.70058575 L27.4311372,0.922356919 C27.4196728,0.42772612 27.0152693,0.0326865894 26.5204197,0.0326865894 C26.0257451,0.0326865894 25.6213416,0.42772612 25.6098772,0.922356919 L25.6098772,3.70058575 L27.4311372,3.70058575 Z M25.6104023,32.1697738 L25.6104023,34.9474775 C25.6218666,35.4421521 26.0260952,35.8371478 26.5209448,35.8371478 C27.0157506,35.8371478 27.4201979,35.4421521 27.4316185,34.9474775 L27.4316185,32.1697738 L25.6104023,32.1697738 Z M21.0724797,32.1697738 L21.0724797,34.9474775 C21.0841191,35.4421521 21.4883477,35.8371478 21.9831973,35.8371478 C22.4780031,35.8371478 22.8824066,35.4421521 22.893871,34.9474775 L22.893871,32.1697738 L21.0724797,32.1697738 Z M16.5347322,32.1697738 L16.5347322,34.9474775 C16.5463716,35.4421521 16.9506002,35.8371478 17.4454498,35.8371478 C17.9402556,35.8371478 18.3446591,35.4421521 18.3561235,34.9474775 L18.3561235,32.1697738 L16.5347322,32.1697738 Z M11.9975098,32.1697738 L11.9975098,34.9474775 C12.0091055,35.4421521 12.4133778,35.8371478 12.9081836,35.8371478 C13.4030332,35.8371478 13.8074367,35.4421521 13.8189011,34.9474775 L13.8189011,32.1697738 L11.9975098,32.1697738 Z M7.45971856,32.1697738 L7.45971856,34.9474775 C7.47135796,35.4421521 7.87558649,35.8371478 8.37043608,35.8371478 C8.86528566,35.8371478 9.26968922,35.4421521 9.28110984,34.9474775 L9.28110984,32.1697738 L7.45971856,32.1697738 Z M32.1577405,9.77000845 L34.935488,9.77000845 C35.4383452,9.77000845 35.8458117,9.36236686 35.8458117,8.85968475 C35.8458117,8.35682761 35.4383452,7.94914226 34.935488,7.94914226 L32.1577405,7.94914226 L32.1577405,9.77000845 Z M32.1577405,14.3077997 L34.935488,14.3077997 C35.4301188,14.2963353 35.8251584,13.8919318 35.8251584,13.3970822 C35.8251584,12.9022326 35.4301188,12.4980041 34.935488,12.4865397 L32.1577405,12.4865397 L32.1577405,14.3077997 Z M32.1577405,18.8455472 L34.935488,18.8455472 C35.4301188,18.8340828 35.8251584,18.4296793 35.8251584,17.9348297 C35.8251584,17.4400239 35.4301188,17.0357516 34.935488,17.024331 L32.1577405,17.024331 L32.1577405,18.8455472 Z M32.1577405,23.3832947 L34.935488,23.3832947 C35.4301188,23.3718303 35.8251584,22.9674268 35.8251584,22.4725772 C35.8251584,21.9777714 35.4301188,21.5734991 34.935488,21.5620785 L32.1577405,21.5620785 L32.1577405,23.3832947 Z M32.1577405,27.9210422 L34.935488,27.9210422 C35.4301188,27.9095778 35.8251584,27.5051743 35.8251584,27.0103247 C35.8251584,26.5155189 35.4301188,26.1112903 34.935488,26.099826 L32.1577405,26.099826 L32.1577405,27.9210422 Z M3.68859629,26.099826 L0.910367461,26.099826 C0.415692904,26.1112903 0.0206971309,26.5155189 0.0206971309,27.0103247 C0.0206971309,27.5051743 0.415692904,27.9095778 0.910367461,27.9210422 L3.68859629,27.9210422 L3.68859629,26.099826 Z M3.68859629,21.5615534 L0.910367461,21.5615534 C0.415692904,21.5730178 0.0206971309,21.9774213 0.0206971309,22.4720959 C0.0206971309,22.9669017 0.415692904,23.3713053 0.910367461,23.3827696 L3.68859629,23.3827696 L3.68859629,21.5615534 Z M3.68859629,17.024331 L0.910367461,17.024331 C0.415692904,17.0357516 0.0206971309,17.4400239 0.0206971309,17.9348297 C0.0206971309,18.4296793 0.415692904,18.8340828 0.910367461,18.8455472 L3.68859629,18.8455472 L3.68859629,17.024331 Z M3.68859629,12.4865397 L0.910367461,12.4865397 C0.415692904,12.4980041 0.0206971309,12.9022326 0.0206971309,13.3970822 C0.0206971309,13.8919318 0.415692904,14.2963353 0.910367461,14.3077997 L3.68859629,14.3077997 L3.68859629,12.4865397 Z M3.68859629,7.94914226 L0.910367461,7.94914226 C0.407641589,7.94914226 0,8.35682761 0,8.85968475 C0,9.36236686 0.407641589,9.77000845 0.910367461,9.77000845 L3.68859629,9.77000845 L3.68859629,7.94914226 Z M26.3621501,16.0139784 C26.1672995,15.8570653 25.8601243,15.7787838 25.4403182,15.7787838 L23.8363562,15.7787838 L23.8363562,17.849722 L25.4403182,17.849722 C25.8601243,17.849722 26.1672995,17.7610263 26.3621501,17.5837661 C26.5568256,17.4065059 26.6542728,17.1284292 26.6542728,16.7494486 C26.6542728,16.4149689 26.5568256,16.1698414 26.3621501,16.0139784 Z" id="Fill-1" fill="#2DA250" mask="url(#mask-2)"></path>
                            </g>
                            <path d="M29.6617016,4.26894734 L6.18463527,4.26894734 C5.12011138,4.26894734 4.25708916,5.13192581 4.25708916,6.19662473 L4.25708916,29.6737348 C4.25708916,30.7382587 5.12011138,31.6012371 6.18463527,31.6012371 L29.6617016,31.6012371 C30.7262254,31.6012371 31.5894227,30.7382587 31.5894227,29.6737348 L31.5894227,6.19662473 C31.5894227,5.13192581 30.7262254,4.26894734 29.6617016,4.26894734 Z M20.7586535,21.0583462 L21.5662792,21.0583462 L21.5662792,15.090265 L20.7586535,15.090265 L20.7586535,21.0583462 Z M14.6398289,15.090265 L15.4479797,15.090265 L15.4479797,17.5383024 L18.5617384,17.5383024 L18.5617384,15.090265 L19.3698891,15.090265 L19.3698891,21.0583462 L18.5622634,21.0583462 L18.5622634,18.2529442 L15.4485048,18.2529442 L15.4485048,21.0583462 L14.640354,21.0583462 L14.6398289,15.090265 Z M9.11995226,15.7821968 C9.62775397,15.2128288 10.3092715,14.9278823 11.1642425,14.927576 C11.8383651,14.927576 12.3919805,15.100898 12.8249575,15.4474984 C13.2578907,15.7941425 13.5177207,16.271883 13.6043598,16.880895 L12.8254388,16.880895 C12.7495639,16.4855492 12.5663527,16.1802993 12.2752364,15.9651017 C11.9843389,15.749904 11.6101715,15.6423927 11.1529531,15.6423927 C10.5541803,15.6423927 10.077665,15.8621849 9.7234946,16.302163 C9.36932425,16.7419223 9.1924141,17.3342191 9.19311422,18.0783969 C9.19311422,18.8693073 9.35785988,19.4714495 9.68743872,19.8849545 C10.0169738,20.2985908 10.4947143,20.5055621 11.1207916,20.5062622 C11.5819919,20.5062622 11.9663985,20.3635264 12.27388,20.0782736 C12.5811864,19.7928019 12.7842633,19.387392 12.8827169,18.8619561 L13.662163,18.8619561 C13.5594212,19.5983014 13.2772314,20.1750206 12.8155497,20.59172 C12.353868,21.0085943 11.7699727,21.217666 11.0639073,21.2190224 C10.240179,21.2190224 9.58434687,20.9354324 9.09671722,20.368296 C8.60904381,19.8013346 8.36479141,19.0373348 8.36375972,18.0765153 C8.36085326,17.1169648 8.61298195,16.3522212 9.12047735,15.7821968 L9.11995226,15.7821968 Z M26.9971538,18.062163 C26.670988,18.3814589 26.2182328,18.5411287 25.6389757,18.5411287 C24.8785202,18.5385471 24.2775158,18.5413038 23.8360062,18.5494864 L23.8360062,21.0583462 L23.0289056,21.0583462 L23.0289056,15.090265 L25.639457,15.090265 C26.2187579,15.090265 26.6715131,15.2357575 26.9976351,15.5266551 C27.3239322,15.8175526 27.48684,16.2202934 27.4864905,16.7346149 C27.4864905,17.300001 27.3236259,17.7425608 26.9976351,18.062163 L26.9971538,18.062163 Z" id="Fill-3" fill="#2DA250"></path>
                            <rect id="矩形" fill="#2DA250" x="6.46153846" y="11.0769231" width="22.1538462" height="12.9230769"></rect>
                        </g>
                        <circle id="椭圆形" fill="#171C26" cx="18" cy="18" r="6"></circle>
                    </g>
                </g>
            </g>
        </g>
    </g>
</svg>