<?xml version="1.0" encoding="UTF-8"?>
<svg width="23px" height="23px" viewBox="0 0 23 23" version="1.1" xmlns="http://www.w3.org/2000/svg" xmlns:xlink="http://www.w3.org/1999/xlink">
    <title>确认</title>
    <defs>
        <filter id="filter-1">
            <feColorMatrix in="SourceGraphic" type="matrix" values="0 0 0 0 0.129412 0 0 0 0 0.713725 0 0 0 0 1.000000 0 0 0 1.000000 0"></feColorMatrix>
        </filter>
    </defs>
    <g id="第二版" stroke="none" stroke-width="1" fill="none" fill-rule="evenodd">
        <g id="收起菜单栏" transform="translate(-71.000000, -506.000000)">
            <g id="编组-21" transform="translate(32.000000, 165.776903)">
                <g id="编组-5备份-2" transform="translate(16.743501, 326.721370)">
                    <g id="确认" transform="translate(22.603727, 11.720451)" filter="url(#filter-1)">
                        <g transform="translate(0.000000, 2.511525)">
                            <rect id="矩形" fill="#000000" fill-rule="nonzero" opacity="0" x="0" y="0" width="21.7665515" height="21.7665515"></rect>
                            <path d="M10.8832757,21.0863467 C5.24811962,21.0863467 0.680204733,16.5184319 0.680204733,10.8832757 C0.680204733,5.24811962 5.24811962,0.680204733 10.8832757,0.680204733 C16.5184319,0.680204733 21.0863467,5.24811962 21.0863467,10.8832757 C21.0863467,16.5184319 16.5184319,21.0863467 10.8832757,21.0863467 Z M16.8527525,7.63461793 C16.5949549,7.37682033 16.176629,7.37682033 15.9188314,7.63461793 L9.5130033,14.040446 L5.86744603,10.3948887 C5.61509007,10.1421927 5.20560683,10.1421927 4.95325087,10.3948887 C4.70055481,10.6472447 4.70055481,11.0567279 4.95325087,11.3090839 L8.92054498,15.276378 C8.95149429,15.3382766 8.98482432,15.3994951 9.03651988,15.4511906 C9.29397738,15.7089882 9.71230329,15.7089882 9.97010088,15.4511906 L16.8527525,8.56853903 C17.1105501,8.31074143 17.1105501,7.89241552 16.8527525,7.63461793 Z" id="形状" fill="#000000" fill-rule="nonzero"></path>
                        </g>
                    </g>
                </g>
            </g>
        </g>
    </g>
</svg>