<?xml version="1.0" encoding="UTF-8"?>
<svg width="37px" height="26px" viewBox="0 0 37 26" version="1.1" xmlns="http://www.w3.org/2000/svg" xmlns:xlink="http://www.w3.org/1999/xlink">
    <title>yanjing-tianchong</title>
    <defs>
        <polygon id="path-1" points="0.00264227642 0.0322798103 36.0758367 0.0322798103 36.0758367 25.5859993 0.00264227642 25.5859993"></polygon>
    </defs>
    <g id="第二版" stroke="none" stroke-width="1" fill="none" fill-rule="evenodd">
        <g id="收起菜单栏" transform="translate(-1285.000000, -254.000000)">
            <g id="编组-21" transform="translate(32.000000, 165.776903)">
                <g id="编组-20" transform="translate(1245.000000, 8.223097)">
                    <g id="yanjing-tianchong" transform="translate(8.000000, 80.000000)">
                        <g id="编组">
                            <mask id="mask-2" fill="white">
                                <use xlink:href="#path-1"></use>
                            </mask>
                            <g id="Clip-2"></g>
                            <path d="M18.0380285,0.0322798103 C4.28405488,0.0322798103 0,12.8091396 0,12.8091396 C0,12.8091396 4.73495935,25.5859993 18.0380285,25.5859993 C31.3409214,25.5859993 36.0758367,12.8091396 36.0758367,12.8091396 C36.0758367,12.8091396 31.791958,0.0322798103 18.0380285,0.0322798103 Z M18.0380285,18.8218598 C14.7310434,18.8218598 12.0252642,16.1161247 12.0252642,12.8091396 C12.0252642,9.50215447 14.7310434,6.79659553 18.0380285,6.79659553 C21.3447934,6.79659553 24.0505725,9.50215447 24.0505725,12.8091396 C24.0505725,16.1161247 21.3447934,18.8218598 18.0380285,18.8218598 Z" id="Fill-1" fill="#B36FDF" mask="url(#mask-2)"></path>
                        </g>
                        <path d="M13.5284112,12.8091396 C13.5284112,15.2997053 15.5474627,17.3187127 18.0380285,17.3187127 C20.528374,17.3187127 22.5474255,15.2997053 22.5474255,12.8091396 C22.5474255,10.3185738 20.528374,8.29974255 18.0380285,8.29974255 C15.5474627,8.29974255 13.5284112,10.3185738 13.5284112,12.8091396 Z" id="Fill-3" fill="#D8BBEA"></path>
                    </g>
                </g>
            </g>
        </g>
    </g>
</svg>