<?xml version="1.0" standalone="no"?><!DOCTYPE svg PUBLIC "-//W3C//DTD SVG 1.1//EN" "http://www.w3.org/Graphics/SVG/1.1/DTD/svg11.dtd"><svg t="1536210227295" class="icon" style="" viewBox="0 0 1024 1024" version="1.1" xmlns="http://www.w3.org/2000/svg" p-id="39989" xmlns:xlink="http://www.w3.org/1999/xlink" width="64" height="64"><defs><style type="text/css"></style></defs><path d="M1023.977423 864.004939H576.007055v-31.992239h415.989417V32.014816h-831.978833v159.995062H128.014111V0.011289h895.963312zM256.016933 864.004939H128.014111V512.011289h32.003528v320.001411h95.999294z" p-id="39990" fill="#1296db"></path><path d="M896.019755 336.042685h-63.984478v-48.022224a64.007055 64.007055 0 0 0-64.007055-63.995767H64.018344a63.995767 63.995767 0 0 0-63.995767 63.995767v127.991533a63.995767 63.995767 0 0 0 63.995767 63.995767h704.009878a64.007055 64.007055 0 0 0 64.007055-63.995767v-47.965781h63.984478v127.968956c0 1.095006-1.602999 3.025378-2.675427 3.228575l-464.542211 90.106581c-16.131584 3.036666-28.774953 18.253864-28.774954 34.667666v82.057723a64.007055 64.007055 0 0 0-48.010935 61.92993v191.998589a64.007055 64.007055 0 0 0 128.01411 0V768.005644a63.939323 63.939323 0 0 0-47.988358-61.896064v-82.0803c0-1.095006 1.602999-3.014089 2.675427-3.217286l464.542212-90.106581c16.142873-3.025378 28.774953-18.253864 28.774953-34.678955V368.046213a32.07126 32.07126 0 0 0-32.014817-32.003528z m-95.988005 79.969309a32.037394 32.037394 0 0 1-32.003528 32.003528H64.018344a32.037394 32.037394 0 0 1-32.003528-32.003528V288.009172a32.037394 32.037394 0 0 1 32.003528-32.003528h704.009878a32.037394 32.037394 0 0 1 32.003528 32.003528v128.002822zM448.015522 768.005644v191.998589a32.014816 32.014816 0 0 1-64.007055 0V768.005644a32.059971 32.059971 0 0 1 30.56986-31.992239h1.467533a32.014816 32.014816 0 0 1 31.969662 31.992239z" p-id="39991" fill="#1296db"></path></svg>
