<?xml version="1.0" standalone="no"?><!DOCTYPE svg PUBLIC "-//W3C//DTD SVG 1.1//EN" "http://www.w3.org/Graphics/SVG/1.1/DTD/svg11.dtd"><svg t="1536203986071" class="icon" style="" viewBox="0 0 1024 1024" version="1.1" xmlns="http://www.w3.org/2000/svg" p-id="3599" xmlns:xlink="http://www.w3.org/1999/xlink" width="64" height="64"><defs><style type="text/css"></style></defs><path d="M260.8 490h500c44.1 0 80-36.7 80-80.8v-306.8H181v306.8c0 44.1 35.7 80.8 79.8 80.8z m-40-385.1H801v304.3c0 22.1-18.1 40-40.2 40h-500c-22.1 0-40-17.9-40-40v-304.3z" fill="#1296db" p-id="3600"></path><path d="M140.8 922c-22.5 0-40.8-18.3-40.8-40.8v-738c0-22.5 18.3-41.2 40.8-41.2h40v-37.1h660v37.1h40c22.5 0 41.2 18.7 41.2 41.2V577h38V143.2c0-43.7-35.5-79.2-79.2-79.2h-740c-43.7 0-78.8 35.5-78.8 79.2v738c0 43.7 35.1 78.8 78.8 78.8h562v-38h-562z" fill="#1296db" p-id="3601"></path><path d="M180.8 64.9h660v37.5h-660zM669 190.2h40V383h-40zM402.2 728.2h500V770l-500-0.2z" fill="#1296db" p-id="3602"></path><path d="M929.937 776.479L802.659 649.2l28.284-28.284 127.278 127.278z" fill="#1296db" p-id="3603"></path><path d="M802.7 847L930 719.7l28.2 28.5L831 875.5z" fill="#1296db" p-id="3604"></path></svg>
