<?xml version="1.0" standalone="no"?><!DOCTYPE svg PUBLIC "-//W3C//DTD SVG 1.1//EN" "http://www.w3.org/Graphics/SVG/1.1/DTD/svg11.dtd"><svg t="1557128745719" class="icon" style="" viewBox="0 0 1024 1024" version="1.1" xmlns="http://www.w3.org/2000/svg" p-id="2218" xmlns:xlink="http://www.w3.org/1999/xlink" width="32" height="32"><defs><style type="text/css"></style></defs><path d="M927.959444 0.09983h-831.918888C76.842428 0.09983 57.6443 19.297958 57.6443 38.496087v947.107657c0 19.198128 19.198128 38.396256 38.396256 38.396256h825.519512c19.198128 0 38.396256-19.198128 38.396256-38.396256V38.496087c6.399376-19.198128-12.798752-38.396256-31.99688-38.396257z m19.198128 985.503914c0 12.798752-6.399376 19.198128-19.198128 19.198128h-831.918888c-12.798752 0-19.198128-6.399376-19.198128-19.198128V38.496087c0-12.798752 6.399376-19.198128 19.198128-19.198129h825.519512c12.798752 0 19.198128 6.399376 19.198128 19.198129v947.107657z" p-id="2219" fill="#1296db"></path><path d="M627.188769 108.889223L153.634941 0.09983C108.839308 0.09983 57.6443-6.299546 70.443052 83.291719v851.117016c0 89.591265 38.396256 83.191889 83.191889 83.191889l492.751956-108.789393c51.195008-6.399376 70.393137-38.396256 70.393137-83.191889V179.28236c0-38.396256-38.396256-63.993761-89.591265-70.393137z m70.393137 729.528871c0 19.198128-12.798752 44.795632-44.795633 51.195009l-499.151332 115.188769c-89.591265 0-76.792513 0-76.792513-51.195009V70.492967c0-51.195008 0-51.195008 63.99376-51.195009l505.550709 115.18877c25.597504 6.399376 51.195008 25.597504 51.195009 51.195008v652.736358z" p-id="2220" fill="#1296db"></path><path d="M550.396256 460.854907c12.798752 0 19.198128 12.798752 19.198129 31.99688s-6.399376 31.99688-19.198129 31.99688c-12.798752 0-19.198128-12.798752-19.198128-31.99688s6.399376-31.99688 19.198128-31.99688z" p-id="2221" fill="#1296db"></path></svg>