<?xml version="1.0" standalone="no"?><!DOCTYPE svg PUBLIC "-//W3C//DTD SVG 1.1//EN" "http://www.w3.org/Graphics/SVG/1.1/DTD/svg11.dtd"><svg t="1601369522666" class="icon" viewBox="0 0 1026 1024" version="1.1" xmlns="http://www.w3.org/2000/svg" p-id="8317" xmlns:xlink="http://www.w3.org/1999/xlink" width="32.0625" height="32"><defs><style type="text/css"></style></defs><path d="M650.606 405.615c10.705-6.907 13.783-21.163 6.862-31.855-6.916-10.706-21.163-13.774-31.85-6.867l-139.519 90.04 23.423 39.753 141.084-91.07z" p-id="8318" fill="#d4237a"></path><path d="M952.367 320.615L827.366 126.958c-20.714-32.094-63.49-41.315-95.603-20.606L499.37 256.332c-32.099 20.718-41.319 63.491-20.606 95.59l25.002 38.726 38.723-24.997-24.998-38.732c-6.903-10.696-3.825-24.961 6.854-31.86l232.411-149.967c10.679-6.916 24.998-3.829 31.874 6.867l125.01 193.649c6.871 10.687 3.802 24.952-6.876 31.86L674.352 527.48c-10.696 6.845-24.97 3.771-31.869-6.872l-24.993-38.722-38.754 24.993 25.025 38.736c20.718 32.09 63.49 41.301 95.584 20.596l232.412-150.007c32.103-20.723 41.323-63.509 20.61-95.589zM347.976 614.771c-8.019 9.877-6.516 24.395 3.375 32.409 9.914 8.023 24.39 6.502 32.427-3.375L488.39 514.844l-34.632-30.501-105.782 130.428z" p-id="8319" fill="#d4237a"></path><path d="M527.999 612.386l-35.802-29.039-29.03 35.807 35.802 29.025c9.869 8.019 11.399 22.532 3.375 32.413L328.077 895.379c-7.996 9.886-22.54 11.42-32.409 3.393L116.65 753.583c-9.864-8.028-11.376-22.541-3.379-32.436l174.249-214.821c8.023-9.833 22.55-11.363 32.422-3.384l35.793 29.029 29.061-35.788-35.824-29.048c-29.664-24.048-73.184-19.525-97.25 10.147L77.463 692.122c-24.061 29.668-19.516 73.192 10.134 97.249L266.63 934.572c29.66 24.057 73.192 19.517 97.258-10.134l174.236-214.803c24.07-29.672 19.539-73.192-10.125-97.249zM416.539 106.132l31.97 10.118-49.623 111.52-31.95-10.121 49.603-111.517zM114.734 369.448l142.176-51.535 12.274 33.466-142.23 51.567-12.22-33.498z m118.643-221.35l27.233-23.561 40.311 125.487-27.246 23.573-40.298-125.5z" p-id="8320" fill="#d4237a"></path></svg>