<?xml version="1.0" standalone="no"?><!DOCTYPE svg PUBLIC "-//W3C//DTD SVG 1.1//EN" "http://www.w3.org/Graphics/SVG/1.1/DTD/svg11.dtd"><svg t="1602226268768" class="icon" viewBox="0 0 1024 1024" version="1.1" xmlns="http://www.w3.org/2000/svg" p-id="5947" xmlns:xlink="http://www.w3.org/1999/xlink" width="32" height="32"><defs><style type="text/css"></style></defs><path d="M263.168 0H18.432C8.192 0 0 8.704 0 19.456v242.688C0 272.896 8.192 281.6 18.432 281.6h244.736c10.24 0 18.432-8.704 18.432-19.456V19.456C281.6 8.704 273.408 0 263.168 0zM634.368 0H389.632c-10.24 0-18.432 8.704-18.432 19.456v242.688c0 10.752 8.192 19.456 18.432 19.456h244.736c10.24 0 18.432-8.704 18.432-19.456V19.456c0-10.752-8.192-19.456-18.432-19.456zM1005.568 0h-244.736c-10.24 0-18.432 8.704-18.432 19.456v242.688c0 10.752 8.192 19.456 18.432 19.456h244.736c10.24 0 18.432-8.704 18.432-19.456V19.456c0-10.752-8.192-19.456-18.432-19.456zM263.168 371.2H18.432c-10.24 0-18.432 8.704-18.432 19.456v242.688c0 10.752 8.192 19.456 18.432 19.456h244.736c10.24 0 18.432-8.704 18.432-19.456V390.656c0-10.752-8.192-19.456-18.432-19.456zM634.368 371.2H389.632c-10.24 0-18.432 8.704-18.432 19.456v242.688c0 10.752 8.192 19.456 18.432 19.456h244.736c10.24 0 18.432-8.704 18.432-19.456V390.656c0-10.752-8.192-19.456-18.432-19.456zM1005.568 371.2h-244.736c-10.24 0-18.432 8.704-18.432 19.456v242.688c0 10.752 8.192 19.456 18.432 19.456h244.736c10.24 0 18.432-8.704 18.432-19.456V390.656c0-10.752-8.192-19.456-18.432-19.456zM263.168 742.4H18.432c-10.24 0-18.432 8.704-18.432 19.456v242.688c0 10.752 8.192 19.456 18.432 19.456h244.736c10.24 0 18.432-8.704 18.432-19.456v-242.688c0-10.752-8.192-19.456-18.432-19.456zM634.368 742.4H389.632c-10.24 0-18.432 8.704-18.432 19.456v242.688c0 10.752 8.192 19.456 18.432 19.456h244.736c10.24 0 18.432-8.704 18.432-19.456v-242.688c0-10.752-8.192-19.456-18.432-19.456zM1005.568 742.4h-244.736c-10.24 0-18.432 8.704-18.432 19.456v242.688c0 10.752 8.192 19.456 18.432 19.456h244.736c10.24 0 18.432-8.704 18.432-19.456v-242.688c0-10.752-8.192-19.456-18.432-19.456z" fill="#ffffff" p-id="5948"></path></svg>