<?xml version="1.0" standalone="no"?><!DOCTYPE svg PUBLIC "-//W3C//DTD SVG 1.1//EN" "http://www.w3.org/Graphics/SVG/1.1/DTD/svg11.dtd"><svg t="1536203690893" class="icon" style="" viewBox="0 0 1024 1024" version="1.1" xmlns="http://www.w3.org/2000/svg" p-id="2846" xmlns:xlink="http://www.w3.org/1999/xlink" width="64" height="64"><defs><style type="text/css"></style></defs><path d="M691.2 409.6c15.36 0 25.6-10.24 25.6-25.6v-204.8c0-15.36-10.24-25.6-25.6-25.6s-25.6 10.24-25.6 25.6v204.8c0 15.36 10.24 25.6 25.6 25.6z" fill="#1296db" p-id="2847"></path><path d="M880.64 51.2H143.36C92.16 51.2 51.2 92.16 51.2 143.36v737.28c0 51.2 40.96 92.16 92.16 92.16h737.28c51.2 0 92.16-40.96 92.16-92.16V143.36c0-51.2-40.96-92.16-92.16-92.16zM256 102.4h512v307.2c0 30.72-25.6 51.2-51.2 51.2H307.2c-30.72 0-51.2-25.6-51.2-51.2V102.4z m665.6 773.12c0 25.6-20.48 46.08-46.08 46.08H148.48c-25.6 0-46.08-20.48-46.08-46.08V148.48c0-25.6 20.48-46.08 46.08-46.08H204.8v307.2c0 56.32 46.08 102.4 102.4 102.4h409.6c56.32 0 102.4-46.08 102.4-102.4V102.4h56.32c25.6 0 46.08 20.48 46.08 46.08v727.04z" fill="#1296db" p-id="2848"></path></svg>
