<?xml version="1.0" standalone="no"?><!DOCTYPE svg PUBLIC "-//W3C//DTD SVG 1.1//EN" "http://www.w3.org/Graphics/SVG/1.1/DTD/svg11.dtd"><svg t="1679041795337" class="icon" viewBox="0 0 1024 1024" version="1.1" xmlns="http://www.w3.org/2000/svg" p-id="2482" xmlns:xlink="http://www.w3.org/1999/xlink" width="200" height="200"><path d="M906.453333 378.453333a32 32 0 0 1-32-32v-185.6a32 32 0 1 1 64 0v185.6a32 32 0 0 1-32 32z" fill="#1296db" p-id="2483"></path><path d="M906.453333 378.453333h-185.813333a32 32 0 0 1 0-64h185.813333a32 32 0 1 1 0 64z" fill="#1296db" p-id="2484"></path><path d="M513.28 969.6a458.88 458.88 0 1 1 414.506667-655.36A32 32 0 1 1 869.973333 341.333333a394.666667 394.666667 0 1 0 35.413334 214.613334 32.426667 32.426667 0 0 1 35.413333-28.16 32 32 0 0 1 28.16 35.413333 458.24 458.24 0 0 1-455.68 406.4z" fill="#1296db" p-id="2485"></path><path d="M408.533333 697.173333a14.293333 14.293333 0 0 1-6.613333-1.493333 13.653333 13.653333 0 0 1-7.253333-13.013333V341.333333a13.44 13.44 0 0 1 7.466666-12.16 13.866667 13.866667 0 0 1 14.08 0l249.813334 170.666667a14.506667 14.506667 0 0 1 5.973333 11.52 14.08 14.08 0 0 1-5.973333 11.306667l-249.813334 170.666666a14.72 14.72 0 0 1-7.68 3.84z" fill="#1296db" p-id="2486"></path></svg>