<?xml version="1.0" standalone="no"?><!DOCTYPE svg PUBLIC "-//W3C//DTD SVG 1.1//EN" "http://www.w3.org/Graphics/SVG/1.1/DTD/svg11.dtd"><svg t="1521619717144" class="icon" style="" viewBox="0 0 1024 1024" version="1.1" xmlns="http://www.w3.org/2000/svg" p-id="20538" xmlns:xlink="http://www.w3.org/1999/xlink" width="64" height="64"><defs><style type="text/css"></style></defs><path d="M512 960c-246.4 0-448-201.6-448-448s201.6-448 448-448 448 201.6 448 448-201.6 448-448 448z m0-64c211.2 0 384-172.8 384-384s-172.8-384-384-384-384 172.8-384 384 172.8 384 384 384z m-6.4-307.2l204.8-204.8c12.8-12.8 32-12.8 44.8 0s12.8 32 0 44.8l-227.2 227.2c-6.4 6.4-16 9.6-22.4 9.6-6.4 0-16-3.2-22.4-9.6l-182.4-182.4c-12.8-12.8-12.8-32 0-44.8s32-12.8 44.8 0l160 160z" p-id="20539" fill="#1296db"></path></svg>
