<?xml version="1.0" standalone="no"?><!DOCTYPE svg PUBLIC "-//W3C//DTD SVG 1.1//EN" "http://www.w3.org/Graphics/SVG/1.1/DTD/svg11.dtd"><svg t="1521619395933" class="icon" style="" viewBox="0 0 1024 1024" version="1.1" xmlns="http://www.w3.org/2000/svg" p-id="15915" xmlns:xlink="http://www.w3.org/1999/xlink" width="64" height="64"><defs><style type="text/css"></style></defs><path d="M674.2365 727.563544c76.452229-89.245603 150.528342-215.313857 150.528342-355.301122 0-172.752506-140.033313-312.786843-312.766376-312.786843-172.752506 0-312.785819 140.034337-312.785819 312.786843 0 139.989311 74.079182 266.059612 150.534482 355.306238C277.349237 752.888326 230.810295 795.051611 230.810295 843.684238c0 79.236646 123.514081 141.312446 281.18817 141.312446 157.673066 0 281.189194-62.075801 281.189194-141.312446C793.187659 795.049564 746.642576 752.884232 674.2365 727.563544zM511.998465 231.469815c77.737502 0 140.753721 63.036685 140.753721 140.792607 0 77.717036-63.016219 140.754744-140.753721 140.754744-77.756945 0-140.773164-63.037708-140.773164-140.754744C371.225301 294.507524 434.24152 231.469815 511.998465 231.469815zM511.998465 944.03783c-141.573389 0-240.229317-52.897767-240.229317-100.353592 0-30.591739 40.998763-63.437821 108.050901-82.925664 61.189617 63.882959 117.801986 101.844549 132.178415 101.844549 14.370289 0 70.977541-37.963637 132.166135-101.848643 67.060325 19.48682 108.065228 52.336996 108.065228 82.929758C752.229828 891.140063 653.572878 944.03783 511.998465 944.03783z" p-id="15916" fill="#1296db"></path></svg>
