<?xml version="1.0" standalone="no"?><!DOCTYPE svg PUBLIC "-//W3C//DTD SVG 1.1//EN" "http://www.w3.org/Graphics/SVG/1.1/DTD/svg11.dtd"><svg t="1521703374315" class="icon" style="" viewBox="0 0 1024 1024" version="1.1" xmlns="http://www.w3.org/2000/svg" p-id="4656" xmlns:xlink="http://www.w3.org/1999/xlink" width="64" height="64"><defs><style type="text/css"></style></defs><path d="M148.567863 875.432137c-198.090484-198.090484-198.090484-523.981279 0-722.071763s523.981279-198.090484 722.071763 0 198.090484 523.981279 0 722.071763S353.048362 1073.522621 148.567863 875.432137zM832.299532 191.700468C653.379095 19.170047 372.218409 19.170047 193.297972 191.700468S20.767551 651.781591 193.297972 830.702028s460.081123 172.530421 632.611544 0S1004.829953 370.620905 832.299532 191.700468z" p-id="4657" fill="#1296db"></path><path d="M646.98908 690.121685l-319.50078-319.50078C321.098284 364.230889 321.098284 345.060842 333.878315 332.280811 346.658346 319.50078 365.828393 319.50078 378.608424 332.280811l319.50078 319.50078c12.780031 12.780031 12.780031 31.950078 0 44.730109S659.769111 702.901716 646.98908 690.121685z" p-id="4658" fill="#1296db"></path><path d="M333.878315 690.121685c-12.780031-12.780031-12.780031-31.950078 0-44.730109l319.50078-319.50078c12.780031-12.780031 31.950078-12.780031 44.730109 0s12.780031 31.950078 0 44.730109l-319.50078 319.50078C365.828393 702.901716 346.658346 702.901716 333.878315 690.121685z" p-id="4659" fill="#1296db"></path></svg>
