<?xml version="1.0" standalone="no"?><!DOCTYPE svg PUBLIC "-//W3C//DTD SVG 1.1//EN" "http://www.w3.org/Graphics/SVG/1.1/DTD/svg11.dtd"><svg t="1539843017217" class="icon" style="" viewBox="0 0 1024 1024" version="1.1" xmlns="http://www.w3.org/2000/svg" p-id="2194" xmlns:xlink="http://www.w3.org/1999/xlink" width="64" height="64"><defs><style type="text/css"></style></defs><path d="M512 64C264.6 64 64 264.6 64 512s200.6 448 448 448 448-200.6 448-448S759.4 64 512 64z m196 447.4c0 54.8-22.2 104.3-58.1 140-16.6-18.9-40.8-30.8-67.9-30.8-48.9 0-88.7 39-90 87.6-100.6-9.3-179.3-93.9-179.3-196.8 0-109.2 88.5-197.7 197.7-197.7 47.7 0 91.4 16.9 125.6 45l-96.5 96.1c-8.3-3.9-17.6-6.2-27.3-6.2-34.9 0-63.3 28.3-63.3 63.3s28.3 63.3 63.3 63.3 63.3-28.3 63.3-63.3c0-9.3-2-18-5.6-26l96.5-96.1c26 33.6 41.6 75.8 41.6 121.6zM512 897.3c-212.8 0-385.2-172.5-385.2-385.2S299.2 126.7 512 126.7c99.1 0 189.3 37.4 257.6 98.9l-88 87.7c-47.2-40.4-107.3-62.6-169.6-62.5-144.3 0-261.2 116.9-261.2 261.2S367.7 773.2 512 773.2c1.7 0 3.2 0 4.9-0.1 16.5 17.1 39.5 27.8 65.1 27.8 47.2 0 85.8-36.2 89.8-82.3C733.5 670.8 773.2 596 773.2 512c0.1-61.4-21.6-121-61-167.9l88-87.7c60.3 68 97.1 157.5 97.1 255.6-0.1 212.8-172.5 385.3-385.3 385.3z" p-id="2195" fill="#d4237a"></path></svg>
