<?xml version="1.0" standalone="no"?><!DOCTYPE svg PUBLIC "-//W3C//DTD SVG 1.1//EN" "http://www.w3.org/Graphics/SVG/1.1/DTD/svg11.dtd"><svg t="1710911357570" class="icon" viewBox="0 0 1024 1024" version="1.1" xmlns="http://www.w3.org/2000/svg" p-id="6137" xmlns:xlink="http://www.w3.org/1999/xlink" width="64" height="64"><path d="M674.523429 203.142095h138.191238v138.142476h48.761904V178.761143a24.380952 24.380952 0 0 0-24.380952-24.380953h-162.57219v48.761905zM162.523429 666.38019v162.523429a24.380952 24.380952 0 0 0 24.380952 24.380952h162.57219v-48.761904H211.285333v-138.142477h-48.761904zM162.523429 178.809905V341.333333h48.761904V203.190857h138.191238v-48.761905H186.904381a24.380952 24.380952 0 0 0-24.380952 24.380953zM674.523429 804.571429h138.191238v-138.142477h48.761904V828.952381a24.380952 24.380952 0 0 1-24.380952 24.380952h-162.57219v-48.761904zM406.332952 503.856762a105.667048 105.667048 0 1 1 211.334096 0 105.667048 105.667048 0 0 1-211.334096 0zM512 446.951619a56.905143 56.905143 0 1 0 0 113.761524 56.905143 56.905143 0 0 0 0-113.761524z" p-id="6138" fill="#1296db"></path><path d="M856.892952 518.046476l-0.048762 0.097524-0.097523 0.146286-0.390096 0.487619-1.414095 1.950476a619.666286 619.666286 0 0 1-24.966095 30.817524c-17.017905 19.651048-41.642667 45.982476-72.167619 72.313905C697.490286 675.937524 610.596571 731.428571 512 731.428571c-98.596571 0-185.490286-55.442286-245.76-107.52a709.193143 709.193143 0 0 1-91.964952-96.304761 409.063619 409.063619 0 0 1-5.217524-6.826667l-1.414095-1.950476-0.390096-0.487619-0.097523-0.146286-0.048762-0.097524a24.429714 24.429714 0 0 1 0-28.42819l19.797333 14.238476-19.797333-14.238476 0.048762-0.048762 0.097523-0.146286 0.390096-0.536381 1.414095-1.901714 5.217524-6.826667A708.803048 708.803048 0 0 1 266.24 383.804952C326.509714 331.678476 413.403429 276.23619 512 276.23619c98.645333 0 185.539048 55.442286 245.857524 107.52a708.510476 708.510476 0 0 1 91.867428 96.304762l5.266286 6.875429 1.414095 1.901714 0.390096 0.487619 0.097523 0.195048v0.048762a24.478476 24.478476 0 0 1 0 28.42819z m-625.956571 1.609143c15.847619 18.383238 38.814476 42.910476 67.145143 67.291429C355.425524 636.537905 431.055238 682.666667 512 682.666667c80.944762 0 156.574476-46.128762 213.918476-95.622096a660.089905 660.089905 0 0 0 80.359619-83.139047 660.382476 660.382476 0 0 0-80.359619-83.139048C668.574476 371.175619 592.944762 325.046857 512 325.046857c-80.944762 0-156.574476 46.128762-213.918476 95.670857a660.284952 660.284952 0 0 0-80.359619 83.139048c3.559619 4.437333 7.996952 9.752381 13.165714 15.798857z m606.110476-15.798857l19.846095-14.238476-19.797333 14.238476z m0 0l19.846095 14.189714-19.797333-14.189714z" p-id="6139" fill="#1296db"></path></svg>