<?xml version="1.0" standalone="no"?><!DOCTYPE svg PUBLIC "-//W3C//DTD SVG 1.1//EN" "http://www.w3.org/Graphics/SVG/1.1/DTD/svg11.dtd"><svg t="1532498689955" class="icon" style="" viewBox="0 0 1024 1024" version="1.1" xmlns="http://www.w3.org/2000/svg" p-id="3684" xmlns:xlink="http://www.w3.org/1999/xlink" width="64" height="64"><defs><style type="text/css"></style></defs><path d="M778.657503 302.697547c0-18.578953-15.040105-33.621578-33.619058-33.621578L244.649346 269.075968c-18.576432 0-33.617797 15.043886-33.617797 33.621578 0 18.575172 15.042625 33.617797 33.617797 33.617797L745.038446 336.315344C763.916084 336.314084 778.657503 321.272719 778.657503 302.697547L778.657503 302.697547M976.791412 817.767573 843.671236 817.767573c-10.446408 0-19.046514 8.601367-19.046514 19.046514l0 132.917272c0 10.446408 8.600107 19.046514 19.046514 19.046514l133.120176 0c10.445147 0 19.046514-8.600107 19.046514-19.046514L995.837927 836.814087C995.633763 826.166036 987.23656 817.767573 976.791412 817.767573L976.791412 817.767573M957.539473 950.679804l-94.822983 0 0-94.821723 94.822983 0L957.539473 950.679804M244.824524 481.844174c-18.580213 0-33.622839 15.042625-33.622839 33.621578 0 18.575172 15.043886 33.619058 33.622839 33.619058l274.60983 0c18.581473 0 33.621578-15.043886 33.621578-33.619058 0-18.578953-15.042625-33.621578-33.621578-33.621578L244.824524 481.844174M976.791412 608.668024 843.671236 608.668024c-10.446408 0-19.046514 8.601367-19.046514 19.046514l0 132.917272c0 10.446408 8.600107 19.046514 19.046514 19.046514l133.120176 0c10.445147 0 19.046514-8.600107 19.046514-19.046514L995.837927 627.714538C995.633763 617.269391 987.23656 608.668024 976.791412 608.668024L976.791412 608.668024M957.539473 741.581515l-94.822983 0 0-94.821723 94.822983 0L957.539473 741.581515M767.485178 817.767573 634.365002 817.767573c-10.446408 0-19.046514 8.601367-19.046514 19.046514l0 132.917272c0 10.446408 8.600107 19.046514 19.046514 19.046514l133.120176 0c10.445147 0 19.046514-8.600107 19.046514-19.046514L786.531693 836.814087C786.531693 826.166036 778.13701 817.767573 767.485178 817.767573L767.485178 817.767573M748.438664 950.679804l-94.822983 0 0-94.821723 94.822983 0L748.438664 950.679804M767.485178 608.668024 634.365002 608.668024c-10.446408 0-19.046514 8.601367-19.046514 19.046514l0 132.917272c0 10.446408 8.600107 19.046514 19.046514 19.046514l133.120176 0c10.445147 0 19.046514-8.600107 19.046514-19.046514L786.531693 627.714538C786.531693 617.269391 778.13701 608.668024 767.485178 608.668024L767.485178 608.668024M748.438664 741.581515l-94.822983 0 0-94.821723 94.822983 0L748.438664 741.581515M897.135822 154.566252l0.13737 381.837686 63.171213 0.028986 0.167616-396.760585C960.61202 62.462939 897.943657 0 820.735517 0L168.034795 0C90.825395 0 28.157032 62.462939 28.157032 139.672339l0 744.655323c0 77.2094 62.668363 139.672339 139.877763 139.672339l419.432906 0L587.718496 959.069446l-406.629787-0.180219c-49.351053 0-89.455478-40.108206-89.455478-89.454218L91.633231 154.566252c0-49.352313 40.108206-89.454218 89.455478-89.454218l626.393771 0C857.025095 65.306116 897.135822 105.21898 897.135822 154.566252L897.135822 154.566252 897.135822 154.566252M897.135822 154.566252" p-id="3685" fill="#1296db"></path></svg>
