<svg xmlns="http://www.w3.org/2000/svg" viewBox="0 0 642.56 470.47"><defs><style>.cls-1{fill:#8e8e8e;}.cls-2,.cls-4{opacity:0.5;}.cls-3,.cls-4{fill:#999;}.cls-5{fill:#686868;}</style></defs><g id="图层_2" data-name="图层 2"><g id="图层_1-2" data-name="图层 1"><path class="cls-1" d="M27.42,136.54h-20a5.76,5.76,0,1,0,0,11.52H10v14.26H24.9V148.06h2.52a5.76,5.76,0,0,0,0-11.52Zm-6.7,19.86H14.15v-10h2.4v8.1h4.17Z"/><path class="cls-1" d="M626,387.76h-1.51v2.75H626a1.36,1.36,0,0,0,1-.36,1.41,1.41,0,0,0,.35-1,1.42,1.42,0,0,0-.35-1A1.36,1.36,0,0,0,626,387.76Z"/><path class="cls-1" d="M635.76,376h-20a5.76,5.76,0,0,0-5.76,5.76h0a5.76,5.76,0,0,0,5.76,5.76h2.53V401.8h14.92V387.53h2.53a5.76,5.76,0,0,0,5.76-5.76h0A5.76,5.76,0,0,0,635.76,376Zm-5.66,19.86h-2.57l-1.75-3.52h-1.3v3.52h-2.4v-9.95H626a4.39,4.39,0,0,1,2.77.78,2.67,2.67,0,0,1,1,2.22,3.26,3.26,0,0,1-.42,1.73,3,3,0,0,1-1.32,1.1l2.08,4Z"/><path class="cls-1" d="M32.46,466.37,25.8,456.2a3.14,3.14,0,0,0-2.63-1.43H4.62a2.65,2.65,0,0,0-2.21,4.1l6.66,10.18a3.16,3.16,0,0,0,2.63,1.42H30.25A2.65,2.65,0,0,0,32.46,466.37Zm-21.23-5.12a4.27,4.27,0,0,0,1.23.55,7.65,7.65,0,0,1,1.46.61,2.45,2.45,0,0,1,1.38,2.2,2.07,2.07,0,0,1-.85,1.76,3.77,3.77,0,0,1-2.31.64,4.57,4.57,0,0,1-1.88-.38,2.7,2.7,0,0,1-1.26-1,2.58,2.58,0,0,1-.43-1.49h2.06a1.28,1.28,0,0,0,.36,1,1.66,1.66,0,0,0,1.15.33,1.32,1.32,0,0,0,.81-.22.74.74,0,0,0,.29-.62.82.82,0,0,0-.32-.7,3.81,3.81,0,0,0-1.12-.52,10.65,10.65,0,0,1-1.31-.53,2.47,2.47,0,0,1-1.66-2.23,2,2,0,0,1,.41-1.25,2.66,2.66,0,0,1,1.17-.85,4.6,4.6,0,0,1,1.7-.3,4,4,0,0,1,1.65.33,2.61,2.61,0,0,1,1.13.93,2.47,2.47,0,0,1,.41,1.39H13.25a1,1,0,0,0-.32-.81,1.25,1.25,0,0,0-.87-.29,1.38,1.38,0,0,0-.87.25.74.74,0,0,0-.32.61A.76.76,0,0,0,11.23,461.25Zm11-1.3H18.41v1.79h3.23v1.53H18.41v2h3.82v1.58H16.35v-8.53h5.89Zm6.46,6.94H23.07v-8.53h2.05v6.95H28.7Z"/><path class="cls-1" d="M639.91,454.77h-21.2a3.14,3.14,0,0,0-2.63,1.43l-6.66,10.17a2.65,2.65,0,0,0,2.21,4.1h21.2a3.16,3.16,0,0,0,2.63-1.42l1.41-2.16H635l-.5-1.6h-2.82l-.49,1.6H629l3.13-8.53h1.94l3,8.16,5-7.65A2.65,2.65,0,0,0,639.91,454.77Zm-22.2,6.48a4.27,4.27,0,0,0,1.23.55,7.65,7.65,0,0,1,1.46.61,2.45,2.45,0,0,1,1.38,2.2,2.09,2.09,0,0,1-.84,1.76,3.83,3.83,0,0,1-2.32.64,4.61,4.61,0,0,1-1.88-.38,2.7,2.7,0,0,1-1.26-1,2.66,2.66,0,0,1-.43-1.49h2.07a1.28,1.28,0,0,0,.35,1,1.66,1.66,0,0,0,1.15.33,1.32,1.32,0,0,0,.81-.22.72.72,0,0,0,.29-.62.82.82,0,0,0-.32-.7,3.81,3.81,0,0,0-1.12-.52,10.65,10.65,0,0,1-1.31-.53,2.47,2.47,0,0,1-1.66-2.23,2,2,0,0,1,.42-1.25,2.57,2.57,0,0,1,1.16-.85,4.6,4.6,0,0,1,1.7-.3,3.92,3.92,0,0,1,1.65.33,2.64,2.64,0,0,1,1.14.93,2.46,2.46,0,0,1,.4,1.39h-2a1,1,0,0,0-.32-.81,1.24,1.24,0,0,0-.86-.29,1.35,1.35,0,0,0-.87.25.71.71,0,0,0-.32.61A.74.74,0,0,0,617.71,461.25Zm11.82-1.3H627v6.94h-2.05V460H622.4v-1.59h7.13Z"/><polygon class="cls-1" points="634.05 463.71 633.13 460.75 632.22 463.71 634.05 463.71"/><path class="cls-1" d="M24.22,217.25h-3.7v-3.7a1.45,1.45,0,0,0-1.45-1.45H15.8a1.45,1.45,0,0,0-1.45,1.45v3.7h-3.7A1.45,1.45,0,0,0,9.2,218.7V222a1.45,1.45,0,0,0,1.45,1.45h3.7v3.7a1.45,1.45,0,0,0,1.45,1.45h3.27a1.45,1.45,0,0,0,1.45-1.45v-3.7h3.7A1.45,1.45,0,0,0,25.67,222V218.7A1.45,1.45,0,0,0,24.22,217.25Z"/><path class="cls-1" d="M14,207.3l3-4.09a.63.63,0,0,1,.9,0l3,4.09a.64.64,0,0,1-.45,1.09h-6A.64.64,0,0,1,14,207.3Z"/><path class="cls-1" d="M24.22,370.86h-3.7v3.7A1.45,1.45,0,0,1,19.07,376H15.8a1.45,1.45,0,0,1-1.45-1.45v-3.7h-3.7a1.45,1.45,0,0,1-1.45-1.45v-3.27a1.45,1.45,0,0,1,1.45-1.45h3.7V361a1.45,1.45,0,0,1,1.45-1.45h3.27A1.45,1.45,0,0,1,20.52,361v3.7h3.7a1.45,1.45,0,0,1,1.45,1.45v3.27A1.45,1.45,0,0,1,24.22,370.86Z"/><path class="cls-1" d="M14,380.8l3,4.1a.63.63,0,0,0,.9,0l3-4.1a.63.63,0,0,0-.45-1.08h-6A.63.63,0,0,0,14,380.8Z"/><path class="cls-1" d="M24.22,264.79h-3.7v-3.7a1.45,1.45,0,0,0-1.45-1.45H15.8a1.45,1.45,0,0,0-1.45,1.45v3.7h-3.7a1.45,1.45,0,0,0-1.45,1.45v3.27A1.45,1.45,0,0,0,10.65,271h3.7v3.7a1.45,1.45,0,0,0,1.45,1.45h3.27a1.45,1.45,0,0,0,1.45-1.45V271h3.7a1.45,1.45,0,0,0,1.45-1.45v-3.27A1.45,1.45,0,0,0,24.22,264.79Z"/><path class="cls-1" d="M4.28,271.31l-4.09-3a.63.63,0,0,1,0-.9l4.09-3a.64.64,0,0,1,1.09.45v6A.64.64,0,0,1,4.28,271.31Z"/><path class="cls-1" d="M10.65,317h3.7v-3.7a1.45,1.45,0,0,1,1.45-1.45h3.27a1.45,1.45,0,0,1,1.45,1.45V317h3.7a1.45,1.45,0,0,1,1.45,1.45v3.26a1.45,1.45,0,0,1-1.45,1.46h-3.7v3.7a1.45,1.45,0,0,1-1.45,1.45H15.8a1.45,1.45,0,0,1-1.45-1.45v-3.7h-3.7a1.45,1.45,0,0,1-1.45-1.46V318.4A1.45,1.45,0,0,1,10.65,317Z"/><path class="cls-1" d="M30.59,323.46l4.09-3a.63.63,0,0,0,0-.9l-4.09-3a.64.64,0,0,0-1.09.45v6A.64.64,0,0,0,30.59,323.46Z"/><path class="cls-1" d="M625.77,286.56a15.75,15.75,0,1,0,15.75,15.75A15.75,15.75,0,0,0,625.77,286.56Zm2.33,20.84-.58-1.86h-3.29l-.58,1.86h-2.56l3.65-9.95H627l3.67,9.95Z"/><polygon class="cls-1" points="624.8 303.69 626.94 303.69 625.87 300.24 624.8 303.69"/><path class="cls-1" d="M626.88,249.94a1,1,0,0,0,.33-.83,1.09,1.09,0,0,0-.36-.91,2,2,0,0,0-1.17-.27H624.5v2.3h1.26A1.75,1.75,0,0,0,626.88,249.94Z"/><path class="cls-1" d="M626.19,251.8H624.5v2.39h1.58a1.51,1.51,0,0,0,1-.3,1.05,1.05,0,0,0,.34-.84A1.1,1.1,0,0,0,626.19,251.8Z"/><path class="cls-1" d="M625.77,235.2a15.75,15.75,0,1,0,15.75,15.74A15.75,15.75,0,0,0,625.77,235.2Zm3.12,20.09a4.41,4.41,0,0,1-2.74.74h-4v-9.95h3.57a5.11,5.11,0,0,1,2.92.7,2.62,2.62,0,0,1,.65,3.37,2.09,2.09,0,0,1-1,.8,2.15,2.15,0,0,1,1.2.77,2.21,2.21,0,0,1,.42,1.37A2.64,2.64,0,0,1,628.89,255.29Z"/><path class="cls-1" d="M625.77,183.83a15.75,15.75,0,1,0,15.75,15.74A15.75,15.75,0,0,0,625.77,183.83Zm1.71,20.84-1.68-3.37-1.67,3.37h-2.76l2.85-5-2.78-4.94h2.74L625.8,198l1.63-3.31h2.74l-2.78,4.94,2.86,5Z"/><path class="cls-1" d="M625.77,133.73a15.75,15.75,0,1,0,15.75,15.75A15.75,15.75,0,0,0,625.77,133.73ZM627.12,151v3.58h-2.44V151l-3.2-6.37h2.58l1.84,4.32,1.83-4.32h2.59Z"/><path class="cls-1" d="M621.65,77h-1.51v2.74h1.51a1.36,1.36,0,0,0,1-.36,1.4,1.4,0,0,0,.35-1,1.45,1.45,0,0,0-.35-1A1.36,1.36,0,0,0,621.65,77Z"/><path class="cls-1" d="M631.64,79a1,1,0,0,0,.34-.83,1,1,0,0,0-.37-.9,1.89,1.89,0,0,0-1.16-.28h-1.18v2.3h1.25A1.73,1.73,0,0,0,631.64,79Z"/><path class="cls-1" d="M631,80.89h-1.68v2.39h1.57a1.48,1.48,0,0,0,1-.3,1.06,1.06,0,0,0,.35-.84A1.11,1.11,0,0,0,631,80.89Z"/><path class="cls-1" d="M629.29,69.1H612A1.94,1.94,0,0,0,610,71V91A1.94,1.94,0,0,0,612,93h27.62A1.94,1.94,0,0,0,641.52,91V81.34A12.24,12.24,0,0,0,629.29,69.1Zm-3.53,16h-2.57l-1.75-3.53h-1.3v3.53h-2.4v-10h3.91a4.33,4.33,0,0,1,2.77.79,2.64,2.64,0,0,1,1,2.22A3.25,3.25,0,0,1,625,79.9a3,3,0,0,1-1.31,1.1l2.07,4Zm7.9-.75a4.44,4.44,0,0,1-2.75.75h-4v-10h3.58a5.05,5.05,0,0,1,2.92.71,2.59,2.59,0,0,1,.64,3.36,2.09,2.09,0,0,1-1,.81,2,2,0,0,1,1.19.76,2.23,2.23,0,0,1,.42,1.37A2.66,2.66,0,0,1,633.66,84.38Z"/><path class="cls-1" d="M622.14,7.91h-1.52v2.74h1.52a1.36,1.36,0,0,0,1-.36,1.38,1.38,0,0,0,.34-1,1.4,1.4,0,0,0-.34-1A1.39,1.39,0,0,0,622.14,7.91Z"/><path class="cls-1" d="M639.58,0H612A1.94,1.94,0,0,0,610,1.94v20A1.94,1.94,0,0,0,612,23.86h17.33a12.24,12.24,0,0,0,12.23-12.23V1.94A1.94,1.94,0,0,0,639.58,0ZM626.25,16h-2.57l-1.76-3.52h-1.3V16h-2.4V6.07h3.92a4.41,4.41,0,0,1,2.77.78,2.69,2.69,0,0,1,1,2.22,3.22,3.22,0,0,1-.42,1.72,2.94,2.94,0,0,1-1.32,1.11l2.08,4Zm8.58-8.1h-3V16h-2.4V7.92h-2.93V6.07h8.32Z"/><path class="cls-1" d="M22.34,80.66a1,1,0,0,0,.34-.83,1.09,1.09,0,0,0-.36-.91,2,2,0,0,0-1.17-.28H20V81h1.25A1.77,1.77,0,0,0,22.34,80.66Z"/><path class="cls-1" d="M21.65,82.52H20V84.9h1.57a1.47,1.47,0,0,0,1-.29,1.06,1.06,0,0,0,.35-.84A1.1,1.1,0,0,0,21.65,82.52Z"/><path class="cls-1" d="M31.24,69.1H13.92A12.23,12.23,0,0,0,1.69,81.34V91A1.94,1.94,0,0,0,3.63,93H31.24A1.94,1.94,0,0,0,33.18,91V71A1.94,1.94,0,0,0,31.24,69.1ZM16.56,86.75H10v-10h2.4v8.1h4.18Zm7.8-.75a4.44,4.44,0,0,1-2.75.75h-4v-10h3.58a5.06,5.06,0,0,1,2.92.7,2.34,2.34,0,0,1,1,2,2.39,2.39,0,0,1-.35,1.31,2.06,2.06,0,0,1-1,.81,2.1,2.1,0,0,1,1.2.77,2.26,2.26,0,0,1,.41,1.36A2.65,2.65,0,0,1,24.36,86Z"/><path class="cls-1" d="M31.24,0H3.63A1.94,1.94,0,0,0,1.69,1.94v9.69A12.23,12.23,0,0,0,13.92,23.86H31.24a1.94,1.94,0,0,0,1.94-1.94v-20A1.94,1.94,0,0,0,31.24,0ZM17.58,16H11V6.07h2.4v8.1h4.18ZM25,7.92H22V16h-2.4V7.92H16.68V6.07H25Z"/><path class="cls-1" d="M259.81,124.13,245.24,114a29.41,29.41,0,0,0-27.76-3.1l-50.95,20.59a17.61,17.61,0,0,0-10.13,13l-.42,2.39s54-16.49,72.76-18.78S259.81,124.13,259.81,124.13Z"/><path class="cls-1" d="M165.78,126.77l48.69-19.68a1.22,1.22,0,0,0,.37-2c-1.36-1.23-4.68-2.76-12.79-2.72-7,0-15.84.52-22.75,1a13.87,13.87,0,0,0-12.81,11.8L164.85,126A.68.68,0,0,0,165.78,126.77Z"/><path class="cls-1" d="M483.53,146.89l-.42-2.39a17.61,17.61,0,0,0-10.13-13L422,110.9a29.39,29.39,0,0,0-27.75,3.1L379.7,124.13s12.26,1.7,31.07,4S483.53,146.89,483.53,146.89Z"/><path class="cls-1" d="M425,107.09l48.69,19.68a.68.68,0,0,0,.93-.73L473,115.11a13.88,13.88,0,0,0-12.82-11.8c-6.9-.46-15.74-.94-22.74-1-8.11,0-11.43,1.49-12.8,2.72A1.22,1.22,0,0,0,425,107.09Z"/><path class="cls-1" d="M294.42,148.32a3.14,3.14,0,0,0-2.63-1.43H273.25A2.65,2.65,0,0,0,271,151l6.67,10.18a3.16,3.16,0,0,0,2.63,1.42h18.54a2.65,2.65,0,0,0,2.21-4.1Z"/><path class="cls-1" d="M358.5,162.59a3.16,3.16,0,0,0,2.63-1.42L367.79,151a2.65,2.65,0,0,0-2.21-4.1H347a3.14,3.14,0,0,0-2.63,1.43l-6.67,10.17a2.65,2.65,0,0,0,2.22,4.1Z"/><circle class="cls-1" cx="196.69" cy="205.24" r="38.53" transform="translate(-68.2 308.42) rotate(-67.5)"/><circle class="cls-1" cx="410.41" cy="208.85" r="16.01" transform="translate(-28.15 68.44) rotate(-9.22)"/><circle class="cls-1" cx="446.17" cy="175.56" r="16.01" transform="translate(6.54 366.91) rotate(-45)"/><circle class="cls-1" cx="446.17" cy="243.77" r="16.01" transform="translate(-41.69 386.89) rotate(-45)"/><path class="cls-1" d="M289.37,267.11h-15.9v-15.9a6.24,6.24,0,0,0-6.24-6.24h-14a6.24,6.24,0,0,0-6.24,6.24v15.9h-15.9a6.24,6.24,0,0,0-6.24,6.24v14a6.24,6.24,0,0,0,6.24,6.24H247v15.9a6.24,6.24,0,0,0,6.24,6.24h14a6.24,6.24,0,0,0,6.24-6.24v-15.9h15.9a6.24,6.24,0,0,0,6.24-6.24v-14A6.24,6.24,0,0,0,289.37,267.11Z"/><circle class="cls-1" cx="480.35" cy="208.85" r="16.01"/><circle class="cls-1" cx="378.44" cy="279.62" r="38.53"/><path class="cls-1" d="M506.7,429.42c-6.6,0-13-2.81-19-8.39-9.05-8.4-30.54-29.24-47-45.25a75.56,75.56,0,0,0-52.12-21.51L323,353.48c-37.09-.44-73.58.78-73.95.79a75.53,75.53,0,0,0-52.13,21.51c-16.43,16-37.92,36.85-47,45.25-7.05,6.55-14.59,9.28-22.43,8.13-12.1-1.77-24.12-12.69-35.72-32.45-8.73-14.86-8.94-44.35-.61-87.64a613.53,613.53,0,0,1,15.09-60.58c11.07-33.33,20.83-59.76,29.85-80.83a39.61,39.61,0,0,1,25.72-24.16c28-8.34,53-14.24,76.42-18.06a207.33,207.33,0,0,1,33.27-2.63h94.6a207.11,207.11,0,0,1,33.26,2.63c23.38,3.82,48.37,9.72,76.42,18.06a39.65,39.65,0,0,1,25.74,24.2c9,21,18.77,47.46,29.83,80.78a613.41,613.41,0,0,1,15.1,60.59c8.32,43.29,8.12,72.78-.61,87.64-11.61,19.76-23.62,30.68-35.72,32.45A24.05,24.05,0,0,1,506.7,429.42ZM323,351.48l65.64.79a77.54,77.54,0,0,1,53.48,22.08c16.43,16,37.9,36.83,46.94,45.22,6.58,6.11,13.57,8.67,20.77,7.61,11.48-1.68,23-12.27,34.29-31.49,20.28-34.52-14.31-145.48-14.66-146.6-11-33.24-20.79-59.63-29.79-80.65a37.65,37.65,0,0,0-24.45-23c-28-8.32-52.88-14.21-76.17-18a204.37,204.37,0,0,0-32.94-2.61h-94.6a204.5,204.5,0,0,0-33,2.61c-23.28,3.79-48.2,9.68-76.17,18a37.61,37.61,0,0,0-24.43,23c-9,21.06-18.76,47.45-29.81,80.71-.35,1.1-34.94,112.06-14.66,146.58,11.28,19.22,22.82,29.81,34.29,31.49,7.21,1.06,14.2-1.5,20.78-7.61,9-8.39,30.51-29.22,46.93-45.22A77.56,77.56,0,0,1,249,352.27C249.36,352.26,285.89,351,323,351.48Z"/><g class="cls-2"><path class="cls-3" d="M190,104.26a3.5,3.5,0,0,1-3.5-3.5V18.18a2.75,2.75,0,0,0-2.75-2.75H43.72a3.5,3.5,0,0,1,0-7H183.79a9.76,9.76,0,0,1,9.75,9.75v82.58A3.5,3.5,0,0,1,190,104.26Z"/></g><g class="cls-2"><path class="cls-3" d="M156.9,139.77H72.67A9.77,9.77,0,0,1,62.91,130V87.29a2.76,2.76,0,0,0-2.75-2.76H43.72a3.5,3.5,0,0,1,0-7H60.16a9.76,9.76,0,0,1,9.75,9.76V130a2.77,2.77,0,0,0,2.76,2.76H156.9a3.5,3.5,0,0,1,0,7Z"/></g><g class="cls-2"><path class="cls-3" d="M449.46,104.26a3.5,3.5,0,0,1-3.5-3.5V18.18a9.77,9.77,0,0,1,9.76-9.75H595.79a3.5,3.5,0,0,1,0,7H455.72A2.76,2.76,0,0,0,453,18.18v82.58A3.5,3.5,0,0,1,449.46,104.26Z"/></g><g class="cls-2"><path class="cls-3" d="M566.84,139.77H482.61a3.5,3.5,0,0,1,0-7h84.23A2.77,2.77,0,0,0,569.6,130V87.29a9.76,9.76,0,0,1,9.75-9.76h16.44a3.5,3.5,0,0,1,0,7H579.35a2.76,2.76,0,0,0-2.75,2.76V130A9.77,9.77,0,0,1,566.84,139.77Z"/></g><g class="cls-2"><path class="cls-3" d="M158,208.73a3.56,3.56,0,0,1-1.91-.56H72.67a9.77,9.77,0,0,1-9.76-9.76V155.84a2.75,2.75,0,0,0-2.82-2.75l-16.29.4a3.5,3.5,0,0,1-.17-7l16.29-.4a9.75,9.75,0,0,1,10,9.75v42.57a2.77,2.77,0,0,0,2.76,2.76h88.81v4.06A3.5,3.5,0,0,1,158,208.73Z"/></g><path class="cls-4" d="M69.91,276.44v-50a9.76,9.76,0,0,0-9.75-9.76h-.07l-16.4.12a3.5,3.5,0,0,0-3.47,3.53,3.46,3.46,0,0,0,3.52,3.47l16.4-.12h0a2.75,2.75,0,0,1,2.75,2.76v135a2.75,2.75,0,0,1-2.75,2.75H43.72a3.5,3.5,0,0,0,0,7H60.16a9.76,9.76,0,0,0,9.75-9.75V283.44H223.3a3.5,3.5,0,0,0,5.4-2.94v-4.06Z"/><g class="cls-2"><path class="cls-3" d="M294.08,466.12H43.72a3.5,3.5,0,0,1,0-7H294.08a4,4,0,0,0,3.94-3.94V163.27a3.5,3.5,0,1,1,7,0V455.18A11,11,0,0,1,294.08,466.12Z"/></g><g class="cls-2"><path class="cls-3" d="M597.06,466.12H341a11,11,0,0,1-10.94-10.94V163.27a3.5,3.5,0,0,1,7,0V455.18a3.94,3.94,0,0,0,3.94,3.94h256a3.5,3.5,0,0,1,0,7Z"/></g><path class="cls-4" d="M597.06,298.81H577.59a1.44,1.44,0,0,1-1.45-1.44v-143a1.45,1.45,0,0,1,1.45-1.44h19.47a3.5,3.5,0,0,0,0-7H577.59a8.46,8.46,0,0,0-8.45,8.44v50.47H496.36a3.5,3.5,0,0,0,0,7h72.78v85.48a8.46,8.46,0,0,0,8.45,8.44h19.47a3.5,3.5,0,0,0,0-7Z"/><g class="cls-2"><path class="cls-3" d="M597.06,392.4H577a8.44,8.44,0,0,1-8.44-8.44V339.64a1.45,1.45,0,0,0-1.45-1.44H381.71a6.78,6.78,0,0,1-6.77-6.77V318.15a3.5,3.5,0,0,1,7,0V331.2H567.06a8.46,8.46,0,0,1,8.45,8.44V384A1.43,1.43,0,0,0,577,385.4h20.11a3.5,3.5,0,0,1,0,7Z"/></g><circle class="cls-5" cx="301.52" cy="163.27" r="6.87"/><circle class="cls-5" cx="190.04" cy="100.76" r="6.87"/><circle class="cls-5" cx="449.47" cy="100.76" r="6.87"/><circle class="cls-5" cx="156.9" cy="136.27" r="6.87"/><circle class="cls-5" cx="480.35" cy="136.27" r="6.87"/><circle class="cls-5" cx="157.98" cy="205.23" r="6.87"/><circle class="cls-5" cx="225.2" cy="280.5" r="6.87"/><circle class="cls-5" cx="333.04" cy="163.27" r="6.87"/><circle class="cls-5" cx="496.36" cy="208.39" r="6.87"/><circle class="cls-5" cx="378.44" cy="318.15" r="6.87"/></g></g></svg>