<?xml version="1.0" standalone="no"?><!DOCTYPE svg PUBLIC "-//W3C//DTD SVG 1.1//EN" "http://www.w3.org/Graphics/SVG/1.1/DTD/svg11.dtd"><svg t="1597975600665" class="icon" viewBox="0 0 1024 1024" version="1.1" xmlns="http://www.w3.org/2000/svg" p-id="11413" xmlns:xlink="http://www.w3.org/1999/xlink" width="48" height="48"><defs><style type="text/css"></style></defs><path d="M810.535385 679.778462a315.076923 315.076923 0 0 0 3.938461-47.261539v-25.206154h66.166154a57.501538 57.501538 0 1 0 0-115.003077h-66.166154v-25.206154a300.110769 300.110769 0 0 0-5.513846-46.473846 222.129231 222.129231 0 0 0 129.181538-201.64923 56.713846 56.713846 0 0 0-57.501538-57.501539 57.501538 57.501538 0 0 0-57.501538 57.501539 109.489231 109.489231 0 0 1-66.953847 100.036923 236.307692 236.307692 0 0 0-66.166153-51.987693V259.938462a177.230769 177.230769 0 0 0-53.563077-127.606154A181.956923 181.956923 0 0 0 326.892308 259.938462a22.055385 22.055385 0 0 0 0 7.08923 226.067692 226.067692 0 0 0-66.953846 51.987693 108.701538 108.701538 0 0 1-65.378462-99.249231 57.501538 57.501538 0 0 0-57.501538-58.289231 58.289231 58.289231 0 0 0-58.289231 58.289231 219.766154 219.766154 0 0 0 129.181538 200.861538 300.110769 300.110769 0 0 0-5.513846 46.473846v25.206154h-66.166154a58.289231 58.289231 0 1 0 0 115.79077h66.166154v69.316923A222.129231 222.129231 0 0 0 78.769231 880.64a58.289231 58.289231 0 0 0 58.289231 58.289231 57.501538 57.501538 0 0 0 57.501538-58.289231A110.276923 110.276923 0 0 1 245.76 787.692308a305.624615 305.624615 0 0 0 405.661538 113.427692A307.2 307.2 0 0 0 771.150769 787.692308a107.126154 107.126154 0 0 1 51.987693 91.372307 59.864615 59.864615 0 0 0 16.541538 40.96 56.713846 56.713846 0 0 0 40.96 16.541539 57.501538 57.501538 0 0 0 57.501538-57.501539 221.341538 221.341538 0 0 0-127.606153-199.286153zM451.347692 359.975385v454.498461A192.196923 192.196923 0 0 1 315.076923 630.153846V467.101538a107.126154 107.126154 0 0 1 111.064615-107.126153z m115.003077 0h25.206154a107.126154 107.126154 0 0 1 107.126154 107.913846V630.153846a190.621538 190.621538 0 0 1-132.332308 181.956923z m6.301539-115.003077H444.258462a66.166154 66.166154 0 0 1 63.803076-50.412308 67.741538 67.741538 0 0 1 64.59077 50.412308z" p-id="11414" fill="#1296db"></path></svg>