<svg xmlns="http://www.w3.org/2000/svg" xmlns:xlink="http://www.w3.org/1999/xlink" fill="none" version="1.1" width="17.416671752929688" height="15.483121871948242" viewBox="0 0 17.416671752929688 15.483121871948242"><g><path d="M3.87046,11.4082L0.791667,11.4082C0.354441,11.4082,0,10.9978,0,10.4916L0,4.99156C0,4.4853,0.354441,4.07489,0.791667,4.07489L3.87046,4.07489L8.06154,0.103894C8.17991,-0.00847101,8.34362,-0.0317455,8.48195,0.0441251C8.62028,0.119996,8.70844,0.281412,8.70833,0.458644L8.70833,15.0245C8.70844,15.2017,8.62028,15.3631,8.48195,15.439C8.34362,15.5149,8.17991,15.4916,8.06154,15.3792L3.87046,11.4082L3.87046,11.4082ZM14.5714,15.1977L13.4504,13.8997C14.9684,12.3358,15.8358,10.0943,15.8333,7.74156C15.8353,5.26534,14.8747,2.91958,13.2177,1.35423L14.3418,0.0525607C16.2943,1.96651,17.4192,4.77943,17.4167,7.74156C17.4167,10.696,16.3194,13.3534,14.5714,15.1977ZM11.7665,11.95L10.6408,10.6465C11.4198,9.95292,11.8759,8.87935,11.875,7.74156C11.875,6.43073,11.2812,5.28031,10.3867,4.63223L11.5259,3.31314C12.742,4.34901,13.4596,5.99342,13.4583,7.74156C13.4583,9.43006,12.8013,10.9407,11.7665,11.95Z" fill="#1296db" fill-opacity="1"/></g></svg>