<?xml version="1.0" standalone="no"?><!DOCTYPE svg PUBLIC "-//W3C//DTD SVG 1.1//EN" "http://www.w3.org/Graphics/SVG/1.1/DTD/svg11.dtd"><svg t="1602221067623" class="icon" viewBox="0 0 1024 1024" version="1.1" xmlns="http://www.w3.org/2000/svg" p-id="3926" xmlns:xlink="http://www.w3.org/1999/xlink" width="32" height="32"><defs><style type="text/css"></style></defs><path d="M843 62.2H395.5c-1.4 0-2.9 0.1-4.3 0.3h-0.4c-1.7 0.2-3.3 0.5-4.9 1-1.7 0.5-3.3 1-4.9 1.7h-0.1c-0.8 0.3-1.6 0.7-2.3 1.1-0.7 0.4-1.5 0.8-2.2 1.2-0.1 0.1-0.2 0.1-0.3 0.2-0.6 0.4-1.3 0.8-1.9 1.3-0.1 0-0.1 0.1-0.2 0.1-0.6 0.5-1.3 1-1.9 1.5-0.1 0.1-0.3 0.2-0.4 0.4-0.6 0.5-1.2 1.1-1.8 1.6L157.5 285.2c-0.6 0.6-1.1 1.2-1.6 1.8-0.1 0.1-0.2 0.3-0.4 0.4-0.5 0.6-1 1.2-1.5 1.9-0.1 0.1-0.1 0.1-0.1 0.2-0.4 0.6-0.9 1.2-1.3 1.9-0.1 0.1-0.1 0.2-0.2 0.3-0.4 0.7-0.9 1.4-1.2 2.1v0.1c-0.4 0.7-0.8 1.5-1.1 2.3v0.1c-0.7 1.6-1.3 3.2-1.7 4.9v0.1c-0.4 1.6-0.8 3.2-1 4.9 0 0.1 0 0.3-0.1 0.4-0.1 0.8-0.2 1.6-0.2 2.4v615.4c0 19.9 16.1 36 36 36h321.2c19.9 0 36-16.1 36-36s-16.1-36-36-36H219V346.7h176.5c19.9 0 36-16.1 36-36V134.2H807v314.1c0 19.9 16.1 36 36 36s36-16.1 36-36V98.2c0-19.9-16.1-36-36-36zM359.5 274.7h-89.6l89.6-89.6v89.6z" fill="#1296db" p-id="3927"></path><path d="M723 465.2H343.6c-19.9 0-36-16.1-36-36s16.1-36 36-36H723c19.9 0 36 16.1 36 36s-16.1 36-36 36zM474 627.7H343.6c-19.9 0-36 16.1-36 36s16.1 36 36 36h113.1c2.5-25.2 8.4-49.3 17.3-72zM727.3 493.5c-128.7 0-233 104.3-233 233s104.3 233 233 233 233-104.3 233-233-104.3-233-233-233zM723 907.3c-19.9 0-36-16.1-36-36s16.1-36 36-36 36 16.1 36 36-16.1 36-36 36z m105.8-232.9c-3 19.5-11.7 37.7-25.4 52.8-7.2 8-14.9 14-21.7 19.3-4.7 3.7-9.2 7.2-12.2 10.4-6.5 6.9-10.2 17-9.6 26.4 1.2 19.8-13.9 36.9-33.8 38.1-0.7 0-1.5 0.1-2.2 0.1-18.9 0-34.8-14.7-35.9-33.9-1.8-29.5 8.9-58.7 29.2-80.2 6.8-7.2 13.9-12.7 20.2-17.7 5-3.9 9.6-7.5 12.7-10.9 11.7-12.9 7.3-25.9 5.7-29.6-2.3-5.2-8.4-14-23-14-17.1 0-23.2 6.1-25.3 8.2-9 9.1-10.8 25.7-10.8 28.6 0.1 19.9-15.9 36.1-35.8 36.2h-0.2c-19.8 0-35.9-16-36-35.8 0-4.9 0.6-48.4 31.8-79.8 13.3-13.4 37.4-29.4 76.3-29.4 39.2 0 73.2 21.8 88.8 56.8 7.5 17.1 10.1 35.9 7.2 54.4z" fill="#1296db" p-id="3928"></path></svg>