<?xml version="1.0" standalone="no"?><!DOCTYPE svg PUBLIC "-//W3C//DTD SVG 1.1//EN" "http://www.w3.org/Graphics/SVG/1.1/DTD/svg11.dtd"><svg t="1528853023710" class="icon" style="" viewBox="0 0 1029 1024" version="1.1" xmlns="http://www.w3.org/2000/svg" p-id="7991" xmlns:xlink="http://www.w3.org/1999/xlink" width="64" height="64"><defs><style type="text/css"></style></defs><path d="M744.796587 390.001067l284.997546-121.961387-514.897066-220.45696L0 268.03968l284.98688 121.961387L0 512.0384l284.98688 121.950293-284.98688 122.059094 514.897067 220.36992 514.897066-220.36992-284.997546-122.059094 284.997546-121.950293-284.997546-122.037333zM139.450453 268.03968l375.446614-160.768427 375.424426 160.768427-375.424426 160.681387L139.450453 268.03968z m375.446614 404.680107L139.450453 512.0384l215.266987-92.203947 160.179627 68.575147 160.179626-68.575147 215.2448 92.203947-375.424426 160.681387z m375.424426 83.328l-375.424426 160.67072-375.446614-160.67072 215.266987-92.203947 160.179627 68.575147 160.179626-68.575147 215.2448 92.203947z" p-id="7992" fill="#0086CC"></path></svg>
