<?xml version="1.0" standalone="no"?><!DOCTYPE svg PUBLIC "-//W3C//DTD SVG 1.1//EN" "http://www.w3.org/Graphics/SVG/1.1/DTD/svg11.dtd"><svg t="1681964068651" class="icon" viewBox="0 0 1024 1024" version="1.1" xmlns="http://www.w3.org/2000/svg" p-id="3179" xmlns:xlink="http://www.w3.org/1999/xlink" width="200" height="200"><path d="M512 960C264.576 960 64 759.424 64 512S264.576 64 512 64s448 200.576 448 448-200.576 448-448 448z m0-64c212.064 0 384-171.936 384-384S724.064 128 512 128 128 299.936 128 512s171.936 384 384 384z m-192-511.712A64.32 64.32 0 0 1 384.288 320h255.424A64.32 64.32 0 0 1 704 384.288v255.424A64.32 64.32 0 0 1 639.712 704H384.32A64.32 64.32 0 0 1 320 639.712V384.32z m64 31.616v192.192c0 17.408 14.272 31.904 31.904 31.904h192.192c17.408 0 31.904-14.272 31.904-31.904v-192.192c0-17.408-14.272-31.904-31.904-31.904h-192.192c-17.408 0-31.904 14.272-31.904 31.904z" fill="#1296db" p-id="3180"></path></svg>