<?xml version="1.0" standalone="no"?><!DOCTYPE svg PUBLIC "-//W3C//DTD SVG 1.1//EN" "http://www.w3.org/Graphics/SVG/1.1/DTD/svg11.dtd"><svg t="1663221310468" class="icon" viewBox="0 0 1024 1024" version="1.1" xmlns="http://www.w3.org/2000/svg" p-id="5525" xmlns:xlink="http://www.w3.org/1999/xlink" width="64" height="64"><path d="M831.2 384V191h-129V64H64v674h129v127h191v-64H257.1V255h510.1v129h64zM193 191v483h-65V128h510.1v63H193z" fill="#1296db" p-id="5526"></path><path d="M960 714v-64h-78.6c-5.1-31.9-17.7-61.2-35.8-86.3l55.6-55.6-45.2-45.3-55.6 55.6c-25.1-18.2-54.5-30.8-86.3-35.9V404h-64v78.6c-31.9 5.1-61.2 17.7-86.3 35.8l-55.6-55.6-45.4 45.2 55.6 55.6c-18.2 25.1-30.8 54.5-35.9 86.3H404v64h78.6c5.1 31.9 17.7 61.2 35.8 86.3l-55.6 55.6L508 901l55.6-55.6c25.1 18.2 54.5 30.8 86.3 35.9V960h64v-78.6c31.9-5.1 61.2-17.7 86.3-35.8l55.6 55.6L901 856l-55.6-55.6c18.2-25.1 30.8-54.5 35.9-86.3H960z m-140-32c0 76.1-61.9 138-138 138s-138-61.9-138-138 61.9-138 138-138 138 61.9 138 138z" fill="#1296db" p-id="5527"></path></svg>