<?xml version="1.0" standalone="no"?><!DOCTYPE svg PUBLIC "-//W3C//DTD SVG 1.1//EN" "http://www.w3.org/Graphics/SVG/1.1/DTD/svg11.dtd"><svg t="1698660535165" class="icon" viewBox="0 0 1024 1024" version="1.1" xmlns="http://www.w3.org/2000/svg" p-id="8137" xmlns:xlink="http://www.w3.org/1999/xlink" width="64" height="64"><path d="M508.296143 61.083194c-248.65522 0-450.915783 202.260563-450.915783 450.915783 0 248.614288 202.260563 450.91783 450.915783 450.91783 248.614288 0 450.916806-202.303542 450.916806-450.91783C959.21295 263.343757 756.910431 61.083194 508.296143 61.083194zM508.296143 899.629411c-213.756385 0-387.628388-173.914982-387.628388-387.630435 0-213.756385 173.873026-387.629411 387.628388-387.629411 213.716476 0 387.630435 173.873026 387.630435 387.629411C895.925554 725.71443 722.011596 899.629411 508.296143 899.629411z" p-id="8138" fill="#1296db"></path><path d="M313.162908 452.668707c-32.755008 0-59.33027 26.53433-59.33027 59.33027 0 32.757055 26.575262 59.332317 59.33027 59.332317 32.756031 0 59.331293-26.575262 59.331293-59.332317C372.494201 479.202013 345.918939 452.668707 313.162908 452.668707z" p-id="8139" fill="#1296db"></path><path d="M508.296143 452.668707c-32.755008 0-59.33027 26.53433-59.33027 59.33027 0 32.757055 26.575262 59.332317 59.33027 59.332317 32.757055 0 59.331293-26.575262 59.331293-59.332317C567.627437 479.202013 541.052175 452.668707 508.296143 452.668707z" p-id="8140" fill="#1296db"></path><path d="M703.430402 452.668707c-32.756031 0-59.33027 26.53433-59.33027 59.33027 0 32.757055 26.575262 59.332317 59.33027 59.332317 32.755008 0 59.33027-26.575262 59.33027-59.332317C762.761696 479.202013 736.18541 452.668707 703.430402 452.668707z" p-id="8141" fill="#1296db"></path></svg>