<?xml version="1.0" standalone="no"?><!DOCTYPE svg PUBLIC "-//W3C//DTD SVG 1.1//EN" "http://www.w3.org/Graphics/SVG/1.1/DTD/svg11.dtd"><svg t="1681963942187" class="icon" viewBox="0 0 1024 1024" version="1.1" xmlns="http://www.w3.org/2000/svg" p-id="2835" xmlns:xlink="http://www.w3.org/1999/xlink" width="200" height="200"><path d="M512 960C264.576 960 64 759.424 64 512S264.576 64 512 64s448 200.576 448 448-200.576 448-448 448z m0-64c212.064 0 384-171.936 384-384S724.064 128 512 128 128 299.936 128 512s171.936 384 384 384z m-128-543.936a31.968 31.968 0 1 1 64 0v319.872a31.968 31.968 0 1 1-64 0v-319.872z m192 0a31.968 31.968 0 1 1 64 0v319.872a31.968 31.968 0 1 1-64 0v-319.872z" fill="#1296db" p-id="2836"></path></svg>