<svg xmlns="http://www.w3.org/2000/svg" xmlns:xlink="http://www.w3.org/1999/xlink" fill="none" version="1.1" width="32" height="32" viewBox="0 0 32 32"><g><g><ellipse cx="16" cy="16" rx="16" ry="16" fill="#4F86DE" fill-opacity="1"/></g><g><path d="M14.171875953674316,7.31428640209961L14.171875953674316,18.74264340209961C14.171875953674316,18.995143402099607,14.376545953674317,19.199743402099607,14.629018953674317,19.199743402099607L17.828575953674317,19.199743402099607C18.081045953674316,19.199743402099607,18.285715953674316,18.995143402099607,18.285715953674316,18.74264340209961L18.285715953674316,7.31428640209961C18.285715953674316,7.0618134020996095,18.081045953674316,6.857143402099609,17.828575953674317,6.857143402099609L14.629018953674317,6.857143402099609C14.376545953674317,6.857143402099609,14.171875953674316,7.0618134020996095,14.171875953674316,7.31428640209961ZM14.171875953674316,21.485743402099608L14.171875953674316,24.68574340209961C14.171875953674316,24.93814340209961,14.376545953674317,25.142843402099608,14.629018953674317,25.142843402099608L17.829015953674315,25.142843402099608C18.081495953674317,25.142843402099608,18.286165953674317,24.93814340209961,18.286165953674317,24.68574340209961L18.286165953674317,21.485743402099608C18.286165953674317,21.23324340209961,18.081495953674317,21.028543402099608,17.829015953674315,21.028543402099608L14.629018953674317,21.028543402099608C14.376545953674317,21.028543402099608,14.171875953674316,21.23324340209961,14.171875953674316,21.485743402099608Z" fill="#FFFFFF" fill-opacity="1"/></g></g></svg>