<?xml version="1.0" standalone="no"?><!DOCTYPE svg PUBLIC "-//W3C//DTD SVG 1.1//EN" "http://www.w3.org/Graphics/SVG/1.1/DTD/svg11.dtd"><svg t="1701913540668" class="icon" viewBox="0 0 1024 1024" version="1.1" xmlns="http://www.w3.org/2000/svg" p-id="11499" xmlns:xlink="http://www.w3.org/1999/xlink" width="64" height="64"><path d="M960.42793 531.18976c-6.38976 38.4-19.21024 83.18976-38.42048 121.58976-12.8 19.21024-25.6 25.6-44.81024 19.21024-19.21024-12.8-25.62048-25.6-19.21024-44.81024 19.21024-38.4 32.01024-76.77952 38.42048-115.17952 25.6-102.4 19.21024-198.38976 12.8-255.97952L512.22313 70.4512 115.25929 256.02048c-6.41024 57.58976-12.82048 147.18976 12.8 255.97952 44.81024 211.16928 179.28192 358.35904 384.16384 447.95904 64.04096-25.6 115.26144-57.58976 166.48192-95.98976 12.8-12.8 32.01024-6.41024 44.83072 6.38976 12.8 12.8 6.38976 32.01024-6.41024 44.78976-57.63072 44.81024-121.6512 76.8-192.08192 108.78976h-25.62048C262.51049 927.9488 115.25929 761.56928 64.01833 524.8a973.1072 973.1072 0 0 1-12.8-294.37952c6.41024-12.8 12.8-19.18976 19.21024-25.6L499.42313 0.06144h25.62048l428.99456 204.75904c12.8 6.41024 19.21024 12.8 19.21024 25.6 6.38976 57.58976 12.8 166.4-12.82048 300.76928z m-435.38432 191.97952c-51.22048 0-108.8512-25.6-147.27168-63.97952-83.23072-83.18976-83.23072-211.18976 0-294.37952 83.23072-83.18976 211.29216-83.18976 294.52288 0 70.43072 70.38976 76.84096 185.58976 19.21024 268.77952l134.47168 134.38976c12.8 12.8 12.8 31.98976 0 44.78976-6.41024 6.38976-12.8 6.38976-25.62048 6.38976-12.8 0-19.21024 0-25.6-6.38976l-128.06144-128c-38.42048 25.6-76.84096 38.4-121.6512 38.4zM627.48457 409.6c-25.62048-31.98976-64.04096-44.78976-102.44096-44.78976-38.42048 0-76.84096 19.21024-102.46144 44.78976-57.61024 57.61024-57.61024 147.18976 0 204.77952 57.63072 51.2 147.27168 51.2 204.9024 0 57.63072-57.58976 57.63072-147.16928 0-204.77952z" fill="#1296db" p-id="11500"></path></svg>