<?xml version="1.0" standalone="no"?><!DOCTYPE svg PUBLIC "-//W3C//DTD SVG 1.1//EN" "http://www.w3.org/Graphics/SVG/1.1/DTD/svg11.dtd"><svg t="1583315226424" class="icon" viewBox="0 0 1092 1024" version="1.1" xmlns="http://www.w3.org/2000/svg" p-id="4147" xmlns:xlink="http://www.w3.org/1999/xlink" width="51.1875" height="48"><defs><style type="text/css"></style></defs><path d="M545.860267 893.952l454.656-451.447467a54.0672 54.0672 0 0 1 75.639466 0h0.068267a52.8384 52.8384 0 0 1 0 75.229867l-492.475733 489.0624a53.589333 53.589333 0 0 1-77.141334-1.501867L15.5648 517.7344a53.179733 53.179733 0 0 1 0-75.093333v-0.136534a53.589333 53.589333 0 0 1 75.776 0l454.519467 451.447467z m0-425.642667l454.656-451.447466a54.0672 54.0672 0 0 1 75.639466 0.068266 52.906667 52.906667 0 0 1 0.068267 75.1616L583.748267 581.290667a53.384533 53.384533 0 0 1-37.888 15.428266 52.565333 52.565333 0 0 1-37.751467-15.428266L15.5648 92.091733A53.179733 53.179733 0 0 1 53.4528 1.365333c14.199467 0 27.784533 5.597867 37.819733 15.5648l454.656 451.447467z" fill="#1296db" p-id="4148"></path></svg>