<?xml version="1.0" standalone="no"?><!DOCTYPE svg PUBLIC "-//W3C//DTD SVG 1.1//EN" "http://www.w3.org/Graphics/SVG/1.1/DTD/svg11.dtd"><svg t="1610682099005" class="icon" viewBox="0 0 1024 1024" version="1.1" xmlns="http://www.w3.org/2000/svg" p-id="6708" xmlns:xlink="http://www.w3.org/1999/xlink" width="48" height="48"><defs><style type="text/css"></style></defs><path d="M512 90.906c56.848 0 111.973 11.102 163.844 33.018 50.148 21.246 95.129 51.584 133.889 90.248 38.664 38.664 69.098 83.74 90.248 133.889 22.012 51.967 33.113 107.092 33.113 163.939s-11.102 111.973-33.018 163.844c-21.246 50.148-51.584 95.129-90.248 133.889-38.664 38.664-83.74 69.098-133.889 90.248-51.966 22.011-107.091 33.113-163.939 33.113s-111.973-11.102-163.844-33.018c-50.148-21.246-95.129-51.584-133.889-90.248-38.664-38.664-69.098-83.74-90.248-133.889C102.008 623.973 90.906 568.848 90.906 512s11.102-111.973 33.018-163.844c21.246-50.148 51.584-95.129 90.248-133.889 38.664-38.664 83.74-69.098 133.889-90.248C400.027 102.008 455.152 90.906 512 90.906M512 22C241.352 22 22 241.352 22 512s219.352 490 490 490 490-219.352 490-490S782.648 22 512 22z" fill="#d81e06" p-id="6709"></path><path d="M794.42 180.963L180.867 794.324l48.809 48.713 613.457-613.361" fill="#d81e06" p-id="6710"></path></svg>