<?xml version="1.0" standalone="no"?><!DOCTYPE svg PUBLIC "-//W3C//DTD SVG 1.1//EN" "http://www.w3.org/Graphics/SVG/1.1/DTD/svg11.dtd"><svg t="1699427174032" class="icon" viewBox="0 0 1024 1024" version="1.1" xmlns="http://www.w3.org/2000/svg" p-id="10080" xmlns:xlink="http://www.w3.org/1999/xlink" width="64" height="64"><path d="M855.04 463.872l-322.56-331.776a29.0304 29.0304 0 0 0-40.96 0L168.96 463.872c-9.216 9.728-2.56 26.112 10.752 26.112H327.68v243.712c0 1.536 1.536 3.072 3.072 3.072h362.496c1.536 0 3.072-1.536 3.072-3.072V489.984h147.968a15.36 15.36 0 0 0 10.752-26.112zM685.568 825.344H338.432a10.24 10.24 0 0 1-10.24-10.24v-34.304c0-5.632 4.608-10.24 10.24-10.24h347.136c5.632 0 10.24 4.608 10.24 10.24v34.304a10.24 10.24 0 0 1-10.24 10.24zM686.08 896H337.92a9.728 9.728 0 0 1-9.728-9.728v-18.432c0-5.12 4.096-9.728 9.728-9.728h348.16c5.12 0 9.728 4.096 9.728 9.728v18.432c0 5.12-4.096 9.728-9.728 9.728z" p-id="10081" fill="#1096db"></path></svg>