<?xml version="1.0" standalone="no"?><!DOCTYPE svg PUBLIC "-//W3C//DTD SVG 1.1//EN" "http://www.w3.org/Graphics/SVG/1.1/DTD/svg11.dtd"><svg t="1714121443052" class="icon" viewBox="0 0 1024 1024" version="1.1" xmlns="http://www.w3.org/2000/svg" p-id="17692" xmlns:xlink="http://www.w3.org/1999/xlink" width="200" height="200"><path d="M617.813333 597.333333l327.68 64.853334c15.36 3.413333 18.773333 22.186667 6.826667 30.72l-66.56 44.373333c-8.533333 6.826667-10.24 18.773333-3.413333 25.6L972.8 853.333333c6.826667 6.826667 6.826667 17.066667 0 23.893334L878.933333 972.8c-6.826667 6.826667-17.066667 6.826667-23.893333 0l-90.453333-90.453333c-6.826667-6.826667-20.48-6.826667-25.6 3.413333l-44.373334 66.56c-8.533333 11.946667-27.306667 8.533333-30.72-6.826667L597.333333 617.813333c-1.706667-11.946667 8.533333-22.186667 20.48-20.48z" fill="#1196db" p-id="17693"></path><path d="M890.88 34.133333H133.12C78.506667 34.133333 34.133333 78.506667 34.133333 133.12v757.76C34.133333 945.493333 78.506667 989.866667 133.12 989.866667h305.493333c18.773333 0 32.426667-15.36 32.426667-32.426667s-15.36-32.426667-32.426667-32.426667H133.12c-18.773333 0-32.426667-15.36-32.426667-32.426666V133.12c0-18.773333 15.36-32.426667 32.426667-32.426667h757.76c18.773333 0 32.426667 15.36 32.426667 32.426667v329.386667c0 18.773333 15.36 32.426667 32.426666 32.426666s32.426667-15.36 32.426667-32.426666V133.12C989.866667 78.506667 945.493333 34.133333 890.88 34.133333z" fill="#1196db" p-id="17694"></path></svg>