<?xml version="1.0" standalone="no"?><!DOCTYPE svg PUBLIC "-//W3C//DTD SVG 1.1//EN" "http://www.w3.org/Graphics/SVG/1.1/DTD/svg11.dtd"><svg t="1692674434727" class="icon" viewBox="0 0 1024 1024" version="1.1" xmlns="http://www.w3.org/2000/svg" p-id="1454" xmlns:xlink="http://www.w3.org/1999/xlink" width="200" height="200"><path d="M885.76 517.12c-46.08-30.72-102.4-46.08-143.36-46.08H276.48c-25.6 0-66.56-10.24-97.28-30.72-30.72-20.48-56.32-51.2-56.32-102.4s25.6-81.92 56.32-102.4c30.72-20.48 71.68-30.72 97.28-30.72h460.8c15.36 51.2 61.44 87.04 117.76 87.04 66.56 0 122.88-56.32 122.88-122.88C977.92 102.4 921.6 46.08 855.04 46.08c-56.32 0-102.4 35.84-117.76 87.04h-460.8c-40.96 0-92.16 10.24-143.36 46.08C87.04 209.92 46.08 261.12 46.08 343.04c0 76.8 40.96 133.12 87.04 163.84 46.08 30.72 102.4 46.08 143.36 46.08h471.04c25.6 0 66.56 10.24 97.28 30.72 30.72 20.48 56.32 51.2 56.32 102.4s-25.6 81.92-56.32 102.4c-30.72 20.48-71.68 30.72-97.28 30.72h-460.8c-15.36-51.2-61.44-87.04-117.76-87.04C102.4 732.16 46.08 788.48 46.08 855.04c0 66.56 56.32 122.88 122.88 122.88 56.32 0 102.4-35.84 117.76-87.04h460.8c40.96 0 92.16-10.24 143.36-46.08 46.08-30.72 87.04-87.04 87.04-163.84 0-76.8-40.96-133.12-92.16-163.84z m-30.72-394.24c25.6 0 46.08 20.48 46.08 46.08s-20.48 46.08-46.08 46.08-46.08-20.48-46.08-46.08 20.48-46.08 46.08-46.08zM168.96 901.12c-25.6 0-46.08-20.48-46.08-46.08s20.48-46.08 46.08-46.08 46.08 20.48 46.08 46.08-20.48 46.08-46.08 46.08z" fill="#1296db" opacity=".9" p-id="1455"></path></svg>