<?xml version="1.0" standalone="no"?><!DOCTYPE svg PUBLIC "-//W3C//DTD SVG 1.1//EN" "http://www.w3.org/Graphics/SVG/1.1/DTD/svg11.dtd"><svg t="1532949987127" class="icon" style="" viewBox="0 0 1024 1024" version="1.1" xmlns="http://www.w3.org/2000/svg" p-id="3880" xmlns:xlink="http://www.w3.org/1999/xlink" width="64" height="64"><defs><style type="text/css"></style></defs><path d="M769.33 725.055c66.673-76.896 107.301-176.978 107.301-286.741C876.631 196.239 680.388 0 438.314 0S0 196.239 0 438.313 196.24 876.63 438.314 876.63c109.763 0 209.846-40.628 286.741-107.299L979.724 1024 1024 979.721 769.33 725.055z m-331.016 88.958c-207.491 0-375.699-168.209-375.699-375.7S230.824 62.616 438.314 62.616c207.494 0 375.702 168.206 375.702 375.697s-168.208 375.7-375.702 375.7zM250.465 469.621h375.699v-62.616H250.465v62.616z" p-id="3881" fill="#1296db"></path></svg>
