<?xml version="1.0" standalone="no"?><!DOCTYPE svg PUBLIC "-//W3C//DTD SVG 1.1//EN" "http://www.w3.org/Graphics/SVG/1.1/DTD/svg11.dtd"><svg t="1555406587619" class="icon" style="" viewBox="0 0 1024 1024" version="1.1" xmlns="http://www.w3.org/2000/svg" p-id="6331" xmlns:xlink="http://www.w3.org/1999/xlink" width="32" height="32"><defs><style type="text/css"></style></defs><path d="M128 597.333333a42.666667 42.666667 0 0 0 0 85.333334 128 128 0 0 1 128 128 42.666667 42.666667 0 0 0 85.333333 0 213.333333 213.333333 0 0 0-213.333333-213.333334z m-30.293333 183.04a42.666667 42.666667 0 1 0 60.586666 0 42.666667 42.666667 0 0 0-60.586666 0zM810.666667 170.666667H213.333333a128 128 0 0 0-128 128 42.666667 42.666667 0 0 0 85.333334 0 42.666667 42.666667 0 0 1 42.666666-42.666667h597.333334a42.666667 42.666667 0 0 1 42.666666 42.666667v426.666666a42.666667 42.666667 0 0 1-42.666666 42.666667h-170.666667a42.666667 42.666667 0 0 0 0 85.333333h170.666667a128 128 0 0 0 128-128V298.666667a128 128 0 0 0-128-128zM128 426.666667a42.666667 42.666667 0 0 0 0 85.333333 298.666667 298.666667 0 0 1 298.666667 298.666667 42.666667 42.666667 0 0 0 85.333333 0 384 384 0 0 0-384-384z" p-id="6332" fill="#1296db"></path></svg>