<?xml version="1.0" standalone="no"?><!DOCTYPE svg PUBLIC "-//W3C//DTD SVG 1.1//EN" "http://www.w3.org/Graphics/SVG/1.1/DTD/svg11.dtd"><svg t="1536303299969" class="icon" style="" viewBox="0 0 1190 1024" version="1.1" xmlns="http://www.w3.org/2000/svg" p-id="32484" xmlns:xlink="http://www.w3.org/1999/xlink" width="64" height="64"><defs><style type="text/css"></style></defs><path d="M920.994083 739.218935v9.088757c0 3.029586-3.029586 6.059172-3.029586 12.118344 0 3.029586-3.029586 6.059172-6.059172 9.088757-3.029586 3.029586-3.029586 6.059172-6.059171 6.059171s-6.059172 3.029586-6.059172 3.029586h-6.059171c-3.029586 0-6.059172 0-9.088758-3.029586h-9.088757c-3.029586 0-6.059172 0-9.088758 3.029586-3.029586 0-6.059172 3.029586-9.088757 6.059172-6.059172 6.059172-9.088757 12.118343-9.088757 18.177515 0 6.059172 0 12.118343 3.029585 21.2071 3.029586 3.029586 3.029586 9.088757 0 12.118343 0 3.029586-3.029586 3.029586-6.059171 6.059172s-6.059172 3.029586-9.088758 6.059172h-21.2071c-3.029586 0-3.029586 0-6.059172-3.029586-3.029586 0-3.029586-3.029586-3.029586-6.059172-3.029586-6.059172-6.059172-12.118343-12.118343-18.177515-6.059172-6.059172-12.118343-6.059172-21.2071-6.059171-6.059172 0-15.147929 3.029586-21.207101 6.059171-6.059172 6.059172-9.088757 9.088757-12.118343 18.177515 0 3.029586-3.029586 3.029586-6.059172 6.059172-3.029586 0-3.029586 3.029586-6.059171 3.029586s-6.059172 0-9.088758-3.029586c-3.029586 0-6.059172-3.029586-12.118343-3.029586-3.029586-3.029586-6.059172-3.029586-9.088757-6.059172-3.029586-3.029586-6.059172-3.029586-6.059172-6.059171 0 0-3.029586-3.029586-3.029586-6.059172s0-6.059172 3.029586-9.088757c3.029586-6.059172 3.029586-12.118343 3.029586-18.177515 0-6.059172-3.029586-12.118343-9.088757-18.177515-3.029586-3.029586-6.059172-6.059172-12.118344-6.059171h-12.118343c-3.029586 0-9.088757 0-15.147929 3.029585H636.213018c-3.029586 0-6.059172-3.029586-6.059172-6.059171-3.029586-3.029586-3.029586-6.059172-6.059171-9.088757-3.029586-3.029586-3.029586-9.088757-3.029586-12.118344v-9.088757c0-6.059172 3.029586-9.088757 6.059171-9.088757 6.059172-3.029586 12.118343-6.059172 18.177515-12.118344 6.059172-6.059172 9.088757-12.118343 9.088758-21.2071 0-6.059172-3.029586-15.147929-9.088758-21.207101-6.059172-6.059172-12.118343-9.088757-18.177515-12.118343-3.029586 0-3.029586-3.029586-6.059171-6.059172 0-3.029586-3.029586-6.059172-3.029586-9.088757v-9.088757c0-3.029586 3.029586-6.059172 3.029586-9.088758 0-3.029586 3.029586-6.059172 6.059171-9.088757 3.029586-3.029586 3.029586-6.059172 6.059172-6.059172h12.118343c6.059172 3.029586 12.118343 3.029586 21.207101 3.029586 6.059172 0 12.118343-3.029586 18.177515-9.088757 3.029586-3.029586 3.029586-6.059172 6.059171-9.088758 0-3.029586 3.029586-6.059172 3.029586-12.118343v-9.088757-6.059172-3.029586-3.029586c0-3.029586 3.029586-6.059172 6.059172-9.088757 3.029586-3.029586 6.059172-3.029586 12.118343-6.059172 3.029586 0 9.088757-3.029586 12.118343-3.029585h9.088757c3.029586 0 6.059172 0 6.059172 3.029585 3.029586 3.029586 3.029586 3.029586 3.029586 6.059172 3.029586 6.059172 6.059172 12.118343 12.118343 15.147929 6.059172 3.029586 12.118343 6.059172 18.177515 6.059172 6.059172 0 15.147929-3.029586 21.2071-6.059172 6.059172-3.029586 9.088757-9.088757 12.118343-15.147929 0-3.029586 3.029586-3.029586 3.029586-6.059172 3.029586-3.029586 3.029586-3.029586 6.059172-3.029585h9.088757c3.029586 0 6.059172 3.029586 9.088758 3.029585 3.029586 0 6.059172 3.029586 9.088757 6.059172 3.029586 3.029586 6.059172 6.059172 6.059172 9.088757V575.621302c-3.029586 6.059172-3.029586 12.118343-3.029586 21.2071 0 6.059172 3.029586 12.118343 9.088757 18.177515 6.059172 6.059172 12.118343 9.088757 18.177515 9.088758 6.059172 0 15.147929 0 21.207101-3.029586h6.059171c3.029586 0 6.059172 0 6.059172 3.029586 3.029586 3.029586 6.059172 9.088757 9.088757 15.147929 3.029586 6.059172 3.029586 12.118343 6.059172 18.177514 0 3.029586 0 6.059172-3.029586 9.088758-3.029586 3.029586-3.029586 3.029586-6.059172 3.029586-6.059172 3.029586-12.118343 6.059172-18.177514 12.118343-6.059172 6.059172-6.059172 12.118343-6.059172 21.2071 0 6.059172 3.029586 15.147929 6.059172 18.177515 3.029586 6.059172 9.088757 9.088757 15.147929 12.118343l3.029585 3.029586c9.088757 0 9.088757 0 9.088758 3.029586z m-148.449704 30.295858c9.088757 0 18.177515-3.029586 27.266272-6.059172 9.088757-3.029586 15.147929-9.088757 21.2071-15.147929 6.059172-6.059172 12.118343-15.147929 15.147929-21.2071 3.029586-9.088757 6.059172-18.177515 6.059172-27.266272 0-9.088757-3.029586-18.177515-6.059172-27.266273-3.029586-9.088757-9.088757-15.147929-15.147929-21.2071-6.059172-6.059172-15.147929-12.118343-21.2071-15.147929-9.088757-3.029586-18.177515-6.059172-27.266272-6.059172-9.088757 0-18.177515 3.029586-27.266272 6.059172-9.088757 3.029586-15.147929 9.088757-21.207101 15.147929-6.059172 6.059172-12.118343 15.147929-15.147929 21.2071-3.029586 9.088757-6.059172 18.177515-6.059172 27.266273 0 9.088757 3.029586 18.177515 6.059172 27.266272 3.029586 9.088757 9.088757 15.147929 15.147929 21.2071 6.059172 6.059172 15.147929 12.118343 21.207101 15.147929 6.059172 6.059172 15.147929 6.059172 27.266272 6.059172z m0 0" p-id="32485" fill="#1296db"></path><path d="M515.029586 833.136095c9.088757 9.088757 27.266272 9.088757 36.355029 0 0 0 18.177515-24.236686 42.414202-60.591716-3.029586-3.029586-3.029586-9.088757-3.029586-12.118343v-12.118344c0-6.059172 3.029586-9.088757 9.088757-12.118343 9.088757-3.029586 15.147929-9.088757 21.207101-15.147929 6.059172-6.059172 9.088757-15.147929 9.088757-24.236686 0-9.088757-3.029586-18.177515-9.088757-24.236687-6.059172-6.059172-12.118343-12.118343-21.207101-15.147929-3.029586 0-3.029586-3.029586-6.059171-6.059171s-3.029586-6.059172-3.029586-9.088758c0-3.029586 0-6.059172 3.029586-12.118343 0-3.029586 3.029586-9.088757 3.029585-12.118343 3.029586-3.029586 3.029586-6.059172 6.059172-12.118343l6.059172-6.059172c3.029586 0 3.029586-3.029586 6.059171-3.029586s3.029586 0 6.059172 3.029586c6.059172 6.059172 15.147929 6.059172 21.2071 6.059172 9.088757 0 15.147929-6.059172 21.207101-12.118343 3.029586-3.029586 6.059172-6.059172 6.059172-12.118344s3.029586-9.088757 3.029585-12.118343v-12.118343-9.088757-6.059172-6.059172c3.029586-3.029586 3.029586-6.059172 9.088758-9.088757 3.029586-3.029586 9.088757-6.059172 12.118343-6.059172 6.059172-3.029586 9.088757-3.029586 15.147929-3.029585h12.118343c3.029586 0 6.059172 0 9.088758 3.029585 3.029586 3.029586 3.029586 3.029586 3.029585 6.059172 3.029586 6.059172 6.059172 12.118343 12.118344 18.177515 9.088757-15.147929 15.147929-27.266272 18.177514-36.35503 12.118343-27.266272 12.118343-51.502959 15.147929-78.769231V424.142012c-3.029586-133.301775-112.094675-242.366864-245.396449-242.366864-136.331361 0-245.39645 109.065089-245.39645 245.39645 0 27.266272 3.029586 51.502959 15.147929 81.798816 18.177515 51.502959 212.071006 324.16568 212.071006 324.165681z m18.177515-548.35503c78.769231 0 142.390533 63.621302 142.390532 142.390533s-63.621302 142.390533-142.390532 142.390532-142.390533-63.621302-142.390533-142.390532 63.621302-142.390533 142.390533-142.390533z" p-id="32486" fill="#1296db"></path></svg>
