<?xml version="1.0" standalone="no"?><!DOCTYPE svg PUBLIC "-//W3C//DTD SVG 1.1//EN" "http://www.w3.org/Graphics/SVG/1.1/DTD/svg11.dtd"><svg t="1539162113114" class="icon" style="" viewBox="0 0 1024 1024" version="1.1" xmlns="http://www.w3.org/2000/svg" p-id="1435" xmlns:xlink="http://www.w3.org/1999/xlink" width="64" height="64"><defs><style type="text/css"></style></defs><path d="M1010.501818 944.407273l-158.254545-158.254546A372.363636 372.363636 0 1 0 189.44 605.090909H186.181818v46.545455h12.101818a372.363636 372.363636 0 0 0 588.334546 200.610909l158.254545 158.254545a46.545455 46.545455 0 0 0 65.629091-65.629091zM558.545455 837.818182a279.272727 279.272727 0 0 1-262.981819-186.181818H372.363636v-46.545455H283.461818A279.272727 279.272727 0 0 1 605.090909 283.461818V465.454545h46.545455V295.563636A279.272727 279.272727 0 0 1 558.545455 837.818182zM0 0h46.545455v186.181818H0zM93.090909 0h186.181818v46.545455H93.090909zM372.363636 0h186.181819v46.545455H372.363636zM605.090909 0h46.545455v186.181818h-46.545455zM0 279.272727h46.545455v186.181818H0zM46.545455 558.545455H0v93.090909h93.090909v-46.545455H46.545455v-46.545454z" fill="#1296db" p-id="1436"></path><path d="M605.090909 605.090909h-139.636364v46.545455h186.181819v-93.090909h-46.545455v46.545454z" fill="#1296db" p-id="1437"></path></svg>
