<?xml version="1.0" standalone="no"?><!DOCTYPE svg PUBLIC "-//W3C//DTD SVG 1.1//EN" "http://www.w3.org/Graphics/SVG/1.1/DTD/svg11.dtd"><svg t="1532941878733" class="icon" style="" viewBox="0 0 1024 1024" version="1.1" xmlns="http://www.w3.org/2000/svg" p-id="2280" xmlns:xlink="http://www.w3.org/1999/xlink" width="64" height="64"><defs><style type="text/css"></style></defs><path d="M1012.425685 1014.217285C999.514776 1026.900689 978.584316 1026.900689 965.673408 1014.217285L700.914464 753.041545C627.032216 812.192845 532.958898 847.740501 430.411019 847.740501 193.066428 847.740501 0.597199 657.944455 0.597199 423.841811 0.597199 189.739166 193.066428-4.0e-06 430.411019-4.0e-06 667.75561-4.0e-06 860.22484 189.739166 860.22484 423.841811 860.22484 533.328592 817.738282 632.748277 748.690514 707.938679L1012.425685 968.090646C1025.336594 980.830926 1025.336594 1001.477005 1012.425685 1014.217285ZM794.077762 423.841811C794.077762 225.741832 631.241058 65.180179 430.411019 65.180179 229.580981 65.180179 66.744277 225.741832 66.744277 423.841811 66.744277 621.941789 229.580981 782.503443 430.411019 782.503443 631.241058 782.503443 794.077762 621.941789 794.077762 423.841811ZM591.939569 461.152631 464.309264 461.152631 464.309264 589.237945C464.309264 606.926459 450.033326 621.259274 432.458564 621.259274 414.826927 621.259274 400.550988 606.926459 400.550988 589.237945L400.550988 461.152631 272.920683 461.152631C255.345922 461.152631 241.069983 438.288378 241.069983 420.599864 241.069983 402.911351 255.345922 397.109973 272.920683 397.109973L400.550988 397.109973 400.550988 269.024658C400.550988 251.336145 414.826927 237.00333 432.458564 237.00333 450.033326 237.00333 464.309264 251.336145 464.309264 269.024658L464.309264 397.109973 591.939569 397.109973C609.514331 397.109973 623.847146 411.442788 623.847146 429.131302 623.847146 446.819816 609.514331 461.152631 591.939569 461.152631Z" p-id="2281" fill="#1296db"></path></svg>
