<?xml version="1.0" standalone="no"?><!DOCTYPE svg PUBLIC "-//W3C//DTD SVG 1.1//EN" "http://www.w3.org/Graphics/SVG/1.1/DTD/svg11.dtd"><svg t="1725335228273" class="icon" viewBox="0 0 1024 1024" version="1.1" xmlns="http://www.w3.org/2000/svg" p-id="10156" xmlns:xlink="http://www.w3.org/1999/xlink" width="200" height="200"><path d="M1024 800v102c0 67.272-54.768 122-122.088 122H800a40 40 0 1 1 0-80h101.912c23.208 0 42.088-18.84 42.088-42V800a40 40 0 1 1 80 0z m-35.312-762.832C965.464 13.2 934.64 0 901.912 0H800a40 40 0 1 0 0 80h101.912c22.816 0 42.088 20.152 42.088 44v102a40 40 0 1 0 80 0V124c0-32.488-12.544-63.328-35.312-86.832zM226 944H122.088C98.88 944 80 925.16 80 902V800a40 40 0 1 0-80 0v102C0 969.272 54.768 1024 122.088 1024H226a40 40 0 1 0 0-80z m0-944H122.088C89.352 0 58.536 13.2 35.312 37.168 12.544 60.672 0 91.512 0 124v102a40 40 0 1 0 80 0V124c0-23.848 19.28-44 42.088-44H226a40 40 0 1 0 0-80zM592 472h-40v-40a40 40 0 1 0-80 0v40h-40a40 40 0 1 0 0 80h40v40a40 40 0 1 0 80 0v-40h40a40 40 0 1 0 0-80z" fill="#1296db" p-id="10157"></path></svg>