<?xml version="1.0" standalone="no"?><!DOCTYPE svg PUBLIC "-//W3C//DTD SVG 1.1//EN" "http://www.w3.org/Graphics/SVG/1.1/DTD/svg11.dtd"><svg t="1537948353144" class="icon" style="" viewBox="0 0 1024 1024" version="1.1" xmlns="http://www.w3.org/2000/svg" p-id="5756" xmlns:xlink="http://www.w3.org/1999/xlink" width="64" height="64"><defs><style type="text/css"></style></defs><path d="M854.661856 554.479304c-2.45863-1.240098-4.921573-1.859069-7.403927-1.859069-5.344285 0-10.052346 2.051015-14.154376 6.161672l-39.411408 39.404938c-3.683632 3.698729-5.534074 8.208374-5.534075 13.550502v156.38828c0 27.098848-9.625321 50.281141-28.932036 69.583544-19.291619 19.291619-42.489009 28.938507-69.583544 28.938507H177.337318c-27.096691 0-50.291924-9.646888-69.583543-28.938507-19.295932-19.300246-28.938507-42.482539-28.938507-69.583544V255.831239c0-27.092378 9.642574-50.285454 28.938507-69.583544 19.291619-19.293776 42.486852-28.938507 69.583543-28.938507H689.646804c9.03223 0 18.26719 1.231472 27.707035 3.696572 2.4651 0.81523 4.311229 1.231472 5.527604 1.231472 5.344285 0 10.067443-2.046702 14.169473-6.150888l30.172135-30.172136c4.921573-4.919417 6.776329-10.876203 5.534075-17.848791-1.231472-6.569287-4.9302-11.292445-11.087559-14.163003-22.153551-10.248605-46.179111-15.396631-72.040017-15.396632H177.337318c-48.849097 0-90.619927 17.344125-125.308177 52.032376C17.345204 165.230722 0.001078 206.995082 0.001078 255.846336v512.307328c0 48.842627 17.344125 90.6113 52.030219 125.299551 34.68825 34.696877 76.459081 52.041002 125.308178 52.041003h512.303015c48.842627 0 90.61777-17.344125 125.306021-52.041003 34.690407-34.68825 52.049629-76.454767 52.049629-125.299551v-195.821255c-0.004313-8.613832-4.130067-14.561991-12.336284-17.853105z" fill="#ff9933" p-id="5757"></path><path d="M1009.225575 201.038296l-67.739571-67.739571c-9.851774-9.849617-21.558303-14.775504-35.108806-14.775504-13.533249 0-25.248405 4.925887-35.091552 14.775504L472.888372 531.693842l-161.933138-161.943922c-9.85393-9.856087-21.556147-14.775504-35.098022-14.775503-13.544032 0-25.241935 4.919417-35.098022 14.775503l-67.730944 67.730945c-9.851774 9.851774-14.781974 21.55399-14.781974 35.104492 0 13.544032 4.9302 25.241935 14.781974 35.098022l264.770731 264.770731c9.85393 9.858244 21.556147 14.775504 35.098022 14.775504 13.541875 0 25.241935-4.915103 35.098022-14.775504l501.224083-501.221926c9.845304-9.849617 14.781974-21.55399 14.781974-35.098023s-4.92373-25.246248-14.775503-35.095865z" fill="#ff9933" p-id="5758"></path></svg>
