<?xml version="1.0" standalone="no"?><!DOCTYPE svg PUBLIC "-//W3C//DTD SVG 1.1//EN" "http://www.w3.org/Graphics/SVG/1.1/DTD/svg11.dtd"><svg t="1537947604824" class="icon" style="" viewBox="0 0 1024 1024" version="1.1" xmlns="http://www.w3.org/2000/svg" p-id="2183" xmlns:xlink="http://www.w3.org/1999/xlink" width="64" height="64"><defs><style type="text/css"></style></defs><path d="M1024.528186 165.271215a165.50975 165.50975 0 0 0-165.271214-165.271215H165.271215A165.50975 165.50975 0 0 0 0 165.271215v346.796938a25.557404 25.557404 0 0 0 25.557404 25.557404h184.81411a25.557404 25.557404 0 0 0 25.557404-25.557404v-20.139235a25.557404 25.557404 0 0 0-9.831081-20.122196A68.902762 68.902762 0 0 1 199.347754 414.02995a69.737637 69.737637 0 0 1 66.65371-66.449251 69.447987 69.447987 0 0 1 45.509218 124.174908 25.557404 25.557404 0 0 0-9.831081 20.122197v20.139234a25.557404 25.557404 0 0 0 25.557404 25.557405h159.597471v118.910083A120.61391 120.61391 0 0 0 296.891847 759.906822a120.494642 120.494642 0 0 0 189.942629 93.710482v144.825292a25.557404 25.557404 0 0 0 25.557404 25.557404h346.745824a165.492712 165.492712 0 0 0 165.271214-165.271215V513.567521v-1.516406z m-165.271214-114.156406a114.343827 114.343827 0 0 1 114.156406 114.156406v321.069151H814.088519a25.557404 25.557404 0 0 0-25.557404 25.557404v20.122197a25.932246 25.932246 0 0 0 9.899234 20.292579 69.993211 69.993211 0 0 1 18.605791 21.979367 69.482063 69.482063 0 0 1-109.521997 82.703761 69.976173 69.976173 0 0 1-14.329185-19.559934 69.635408 69.635408 0 0 1 19.832546-85.191347 25.557404 25.557404 0 0 0 9.831082-20.139235v-20.054043a25.744825 25.744825 0 0 0-25.642596-25.710749h-159.171514v-118.637471a119.83015 119.83015 0 0 0 69.039068 21.689717h0.425957a120.579834 120.579834 0 0 0 120.477604-125.384625 121.159135 121.159135 0 0 0-115.212779-115.655774Q609.97005 148.232945 607.346156 148.232945a121.090982 121.090982 0 0 0-69.31168 21.808985V51.114809zM486.49371 486.510749h-119.080465a120.61391 120.61391 0 0 0-103.422297-189.959667 120.511681 120.511681 0 0 0-93.710482 189.959667H51.114809V165.271215a114.343827 114.343827 0 0 1 114.156406-114.156406h321.171381v159.256705a25.557404 25.557404 0 0 0 25.557404 25.557404h20.548153a25.557404 25.557404 0 0 0 20.139235-9.831081 68.681265 68.681265 0 0 1 53.517204-26.750083h3.952879A69.754676 69.754676 0 0 1 676.419301 266.001464a69.175374 69.175374 0 0 1-123.748952 45.509218 25.557404 25.557404 0 0 0-20.139234-9.831081h-20.48a25.557404 25.557404 0 0 0-25.557405 25.557404zM859.137704 972.885191H537.949285v-159.30782a25.557404 25.557404 0 0 0-25.557405-25.557404h-20.122196a25.557404 25.557404 0 0 0-20.139235 9.831081 68.817571 68.817571 0 0 1-57.827887 26.698969 69.754676 69.754676 0 0 1-66.329983-66.585558 69.430948 69.430948 0 0 1 124.15787-45.509218 25.557404 25.557404 0 0 0 20.139235 9.814044h20.122196a25.557404 25.557404 0 0 0 25.557405-25.557405v-159.103361h118.995274a120.733178 120.733178 0 0 0 98.702696 190.044859c1.618636 0 3.254309 0 4.889983-0.10223a121.142097 121.142097 0 0 0 115.655774-115.212779 120.971714 120.971714 0 0 0-14.209917-62.138569 122.232546 122.232546 0 0 0-7.735375-12.591281h119.097505V858.728785a114.326789 114.326789 0 0 1-114.207521 114.156406z" fill="#ff9933" p-id="2184"></path></svg>
