<?xml version="1.0" standalone="no"?><!DOCTYPE svg PUBLIC "-//W3C//DTD SVG 1.1//EN" "http://www.w3.org/Graphics/SVG/1.1/DTD/svg11.dtd"><svg t="1547710353543" class="icon" style="" viewBox="0 0 1024 1024" version="1.1" xmlns="http://www.w3.org/2000/svg" p-id="11680" xmlns:xlink="http://www.w3.org/1999/xlink" width="32" height="32"><defs><style type="text/css"></style></defs><path d="M496.7 497.7c-47.9 0-86.8-39-86.8-86.8s38.9-86.8 86.8-86.8 86.8 39 86.8 86.8-39 86.8-86.8 86.8z m0-135.8c-27 0-49 22-49 49s22 49 49 49 49-22 49-49-22-49-49-49z" fill="#1296db" p-id="11681"></path><path d="M496.7 741.5c-13.6 0-26.4-5.9-35.1-16.3C391.5 642.3 274 489.6 274 397.3c0-122.8 99.9-222.7 222.7-222.7s222.7 99.9 222.7 222.7c0 92.4-117.5 245.1-187.5 327.9-8.9 10.3-21.7 16.3-35.2 16.3z m0-529.1c-101.9 0-184.8 82.9-184.8 184.8 0 85.7 136.7 253.9 178.6 303.5 2.1 2.5 4.8 2.9 6.2 2.9 1.4 0 4.1-0.4 6.3-2.9 41.9-49.5 178.6-217.8 178.6-303.4-0.1-101.9-83-184.9-184.9-184.9zM608.8 855.4h-216c-23.6 0-42.9-19.2-42.9-42.9v-6.4c0-23.6 19.2-42.9 42.9-42.9h216c23.6 0 42.9 19.2 42.9 42.9v6.4c0 23.6-19.2 42.9-42.9 42.9zM392.9 801c-2.7 0-5.1 2.3-5.1 5.1v6.4c0 2.8 2.3 5.1 5.1 5.1h216c2.7 0 5.1-2.3 5.1-5.1v-6.4c0-2.8-2.3-5.1-5.1-5.1h-216z" fill="#1296db" p-id="11682"></path></svg>