<?xml version="1.0" standalone="no"?><!DOCTYPE svg PUBLIC "-//W3C//DTD SVG 1.1//EN" "http://www.w3.org/Graphics/SVG/1.1/DTD/svg11.dtd"><svg t="1629195092631" class="icon" viewBox="0 0 1024 1024" version="1.1" xmlns="http://www.w3.org/2000/svg" p-id="9255" xmlns:xlink="http://www.w3.org/1999/xlink" width="48" height="48"><defs><style type="text/css"></style></defs><path d="M950.784 442.88c0-243.2-197.12-440.32-440.32-440.32S70.144 199.68 70.144 442.88c0 153.6 78.336 288.256 197.632 367.104L510.464 1016.32l242.688-206.336c118.784-78.848 197.632-214.016 197.632-367.104z" fill="#1296db" p-id="9256" data-spm-anchor-id="a313x.7781069.0.i12" class="selected"></path><path d="M480 609.28h194.144c18.704 0 41.856-20.064 41.856-42.288v-228.48c0-36.832-4-42.72-42.768-42.72h-56.4a16 16 0 0 1-13.712-7.76l-24.96-41.504a16 16 0 0 0-13.712-7.744H480v120.48c2.608-0.32 5.28-0.464 8-0.464 17.968 0 33.424 6.544 46.064 19.136a62.944 62.944 0 0 1 19.136 46.064c0 17.968-6.496 33.424-19.136 46.064-12.64 12.64-28.096 19.136-46.064 19.136-2.72 0-5.392-0.16-8-0.448v120.528z" fill="#FFFFFF" p-id="9257"></path><path d="M487.744 609.28H289.536c-18.08 0-30.176-7.024-30.176-29.248V338.512c0-36.832 3.872-42.72 41.392-42.72h54.128a16 16 0 0 0 13.824-7.952l23.936-41.12a16 16 0 0 1 13.824-7.936h81.28v120.48a66.096 66.096 0 0 0-7.744-0.464c-17.392 0-32.336 6.544-44.576 19.136-12.24 12.592-18.512 28.096-18.512 46.064s6.272 33.424 18.512 46.064 27.2 19.136 44.576 19.136c2.64 0 5.216-0.16 7.744-0.448v120.528z" fill="#FFFFFF" p-id="9258"></path><path d="M720.736 371.696a16 16 0 0 1 14.528 0l143.36 73.024a16 16 0 0 1 8.72 14.256v142.752a16 16 0 0 1-8.736 14.24l-144.08 73.408a16 16 0 0 1-13.312 0.56l-142.624-58.336a16 16 0 0 1-9.936-14.816v-152.896a24 24 0 0 1 13.104-21.392l138.976-70.8z" fill="#EB5696" p-id="9259"></path><path d="M721.856 405.152a16 16 0 0 1 14.528 0l115.344 58.768a16 16 0 0 1 8.736 14.24v114.208a16 16 0 0 1-8.752 14.272l-115.328 58.752a16 16 0 0 1-14.528 0l-115.36-58.752a16 16 0 0 1-8.72-14.272v-114.192a16 16 0 0 1 8.736-14.256l115.344-58.768z" fill="#FFFFFF" p-id="9260"></path><path d="M716.576 635.792v-98.064l-94.512-47.056v96.464l94.512 48.656zM740.8 636.24v-98.224l95.36-47.36v96.48l-95.36 49.104zM639.904 472.832l89.216-44.608 89.2 44.608-89.2 44.592-89.216-44.592z" fill="#EB5696" p-id="9261"></path></svg>