<?xml version="1.0" standalone="no"?><!DOCTYPE svg PUBLIC "-//W3C//DTD SVG 1.1//EN" "http://www.w3.org/Graphics/SVG/1.1/DTD/svg11.dtd"><svg t="1555406269508" class="icon" style="" viewBox="0 0 1024 1024" version="1.1" xmlns="http://www.w3.org/2000/svg" p-id="4543" xmlns:xlink="http://www.w3.org/1999/xlink" width="32" height="32"><defs><style type="text/css"></style></defs><path d="M292.544 292.544V32a32 32 0 0 1 32-32h9.152a32 32 0 0 1 32 32V333.696a32 32 0 0 1-32 32H32a32 32 0 0 1-32-32v-9.152a32 32 0 0 1 32-32h260.544z m73.152 406.912V992a32 32 0 0 1-32 32h-9.152a32 32 0 0 1-32-32v-260.544H32a32 32 0 0 1-32-32v-9.152a32 32 0 0 1 32-32h301.696a32 32 0 0 1 32 32v9.152z m365.76 32V992a32 32 0 0 1-32 32h-9.152a32 32 0 0 1-32-32V690.304a32 32 0 0 1 32-32H992a32 32 0 0 1 32 32v9.152a32 32 0 0 1-32 32h-260.544zM658.304 324.48V32a32 32 0 0 1 32-32h9.152a32 32 0 0 1 32 32v260.544H992a32 32 0 0 1 32 32v9.152a32 32 0 0 1-32 32h-301.696a32 32 0 0 1-32-32v-9.152zM512 585.152a73.152 73.152 0 1 1 0-146.304 73.152 73.152 0 0 1 0 146.304z" p-id="4544" fill="#1296db"></path></svg>