<?xml version="1.0" encoding="utf-8"?>
<!-- Generator: Adobe Illustrator 15.0.0, SVG Export Plug-In . SVG Version: 6.00 Build 0)  -->
<!DOCTYPE svg PUBLIC "-//W3C//DTD SVG 1.1//EN" "http://www.w3.org/Graphics/SVG/1.1/DTD/svg11.dtd">
<svg version="1.1" id="图层_1" xmlns="http://www.w3.org/2000/svg" xmlns:xlink="http://www.w3.org/1999/xlink" x="0px" y="0px"
	 width="64" height="64" viewBox="0 0 32 32" enable-background="new 0 0 32 32" xml:space="preserve">
<path fill="#0086CC" d="M13.498,6.083c0.748-0.225,1.529-0.379,2.367-0.379c5.967,0,10.298,7.082,11.872,9.447
	c0.462,0.692,0.604,2.613-0.072,3.742c-0.541,0.902-1.35,2.297-2.473,3.708l-3.694-5.219c0.015-0.225,0.048-0.442,0.048-0.672
	c0-4.321-2.475-7.824-5.525-7.824c-0.167,0-0.326,0.051-0.488,0.07L13.498,6.083z M16.668,24.44
	c-0.215,0.037-0.427,0.092-0.647,0.092c-3.053,0-5.526-3.503-5.526-7.825c0-0.308,0.04-0.6,0.064-0.899l-3.459-4.881
	c-1.115,1.394-2.027,2.802-2.729,3.846c-0.632,0.94-0.644,2.852-0.138,3.627c2.315,3.554,5.929,9.19,11.633,9.19
	c0.997,0,1.904-0.158,2.762-0.389L16.668,24.44z M25.125,29.481c0.366-0.518,0.366-1.359,0-1.875L7.923,3.247
	c-0.365-0.516-0.958-0.516-1.323,0l0,0c-0.365,0.517-0.365,1.356,0,1.873l17.202,24.361C24.168,29.996,24.759,29.996,25.125,29.481
	L25.125,29.481z"/>
</svg>
