<?xml version="1.0" standalone="no"?><!DOCTYPE svg PUBLIC "-//W3C//DTD SVG 1.1//EN" "http://www.w3.org/Graphics/SVG/1.1/DTD/svg11.dtd"><svg t="1672219679970" class="icon" viewBox="0 0 1024 1024" version="1.1" xmlns="http://www.w3.org/2000/svg" p-id="6365" xmlns:xlink="http://www.w3.org/1999/xlink" width="200" height="200"><path d="M64 224h426.667a32 32 0 0 0 0-64H64a32 32 0 0 0 0 64z m0 320h298.667a32 32 0 0 0 0-64H64a32 32 0 0 0 0 64z m426.667 256H64a32 32 0 0 0 0 64h426.667a32 32 0 0 0 0-64z m491.946-182.613a32 32 0 0 0-45.226 0l-158.72 158.72v-605.44a32 32 0 0 0-64 0v605.44l-158.72-158.72a32 32 0 0 0-45.227 45.226l213.333 213.334a32 32 0 0 0 10.454 7.04 31.147 31.147 0 0 0 23.253 0 32 32 0 0 0 10.453-7.04l213.334-213.334a32 32 0 0 0 1.066-45.226z" p-id="6366" fill="#1296db"></path></svg>