<?xml version="1.0" standalone="no"?><!DOCTYPE svg PUBLIC "-//W3C//DTD SVG 1.1//EN" "http://www.w3.org/Graphics/SVG/1.1/DTD/svg11.dtd"><svg t="1630046493683" class="icon" viewBox="0 0 1024 1024" version="1.1" xmlns="http://www.w3.org/2000/svg" p-id="1844" width="48" height="48" xmlns:xlink="http://www.w3.org/1999/xlink"><defs><style type="text/css"></style></defs><path d="M512.46 155.68a128.2 128.2 0 1 0 128.2 128.2 128.34 128.34 0 0 0-128.2-128.2z" fill="#1296db" p-id="1845"></path><path d="M520.82 14.84H504.1c-147.22 0-266.57 119.35-266.57 266.57v311.13c0 139.51 107.18 254 243.69 265.58v98.55H357.54a31.24 31.24 0 0 0 0 62.49h309.84a31.24 31.24 0 0 0 0-62.49H543.71v-98.55C680.22 846.51 787.4 732.05 787.4 592.54V281.41C787.39 134.18 668 14.84 520.82 14.84z m-8.36 721.77a52.07 52.07 0 1 1 52.07-52.07 52.07 52.07 0 0 1-52.07 52.07z m0-262c-105.14 0-190.68-85.54-190.68-190.68S407.32 93.19 512.46 93.19s190.68 85.54 190.68 190.68-85.53 190.69-190.68 190.69z" fill="#1296db" p-id="1846"></path></svg>