<?xml version="1.0" standalone="no"?><!DOCTYPE svg PUBLIC "-//W3C//DTD SVG 1.1//EN" "http://www.w3.org/Graphics/SVG/1.1/DTD/svg11.dtd"><svg t="1527669660162" class="icon" style="" viewBox="0 0 1024 1024" version="1.1" xmlns="http://www.w3.org/2000/svg" p-id="5897" xmlns:xlink="http://www.w3.org/1999/xlink" width="64" height="64"><defs><style type="text/css"></style></defs><path d="M1024 979.211197l-44.788803 44.788803-211.403149-211.339165-211.403149 211.339165-44.788803-44.788803 211.339165-211.403149L511.616096 556.404899l44.788803-44.788803 211.403149 211.339165 211.403149-211.339165 44.788803 44.788803-211.339165 211.403149L1024 979.211197zM895.776056 127.968008l-767.808048 0 0 767.808048 255.936016 0 0 127.968008-255.936016 0c-70.63834 0-127.968008-57.329668-127.968008-127.968008l0-767.808048c0-70.63834 57.329668-127.968008 127.968008-127.968008l767.808048 0c70.63834 0 127.968008 57.329668 127.968008 127.968008l0 255.936016-127.968008 0L895.776056 127.968008z" p-id="5898" fill="#0086CC"></path></svg>
