<?xml version="1.0" standalone="no"?><!DOCTYPE svg PUBLIC "-//W3C//DTD SVG 1.1//EN" "http://www.w3.org/Graphics/SVG/1.1/DTD/svg11.dtd"><svg t="1564479752033" class="icon" viewBox="0 0 1024 1024" version="1.1" xmlns="http://www.w3.org/2000/svg" p-id="15096" xmlns:xlink="http://www.w3.org/1999/xlink" width="32" height="32"><defs><style type="text/css"></style></defs><path d="M1024 578.604522c0 99.795478-211.122087 312.676174-512 312.676174-293.220174 0-512-209.363478-512-312.676174 0-103.290435 219.714783-312.32 512-312.32 303.237565 0 512.066783 209.051826 512 312.32zM512.445217 323.31687c-136.258783 0-246.717217 114.376348-246.717217 255.465739 0 141.089391 110.458435 255.465739 246.717217 255.465739 136.303304 0 246.784-114.376348 246.784-255.465739 0-141.089391-110.480696-255.465739-246.784-255.465739z m-0.445217 92.382608c86.77287 0 157.094957 72.793043 157.094957 162.660174 0 89.822609-70.322087 162.682435-157.094957 162.682435-86.77287 0-157.117217-72.859826-157.117217-162.682435 0-89.84487 70.344348-162.682435 157.117217-162.682435zM269.846261 172.78887c16.072348 0 31.610435 8.169739 40.514782 22.817391l52.20174 86.372174a47.193043 47.193043 0 0 1-16.072348 64.868174 47.282087 47.282087 0 0 1-64.868174-16.072348l-52.201739-86.372174a47.193043 47.193043 0 0 1 40.425739-71.613217z m487.401739 0a47.237565 47.237565 0 0 1 40.314435 71.724521l-52.201739 86.372174a47.237565 47.237565 0 1 1-80.829218-48.929391l52.179479-86.372174a47.259826 47.259826 0 0 1 40.514782-22.79513zM514.82713 111.304348c26.089739 0 47.282087 21.192348 47.282087 47.282087V267.130435a47.304348 47.304348 0 0 1-94.564174 0V158.586435c0-26.089739 21.192348-47.282087 47.282087-47.282087zM545.391304 623.304348a77.913043 77.913043 0 1 0 0-155.826087 77.913043 77.913043 0 0 0 0 155.826087z" p-id="15097" fill="#1296db"></path></svg>