<?xml version="1.0" standalone="no"?><!DOCTYPE svg PUBLIC "-//W3C//DTD SVG 1.1//EN" "http://www.w3.org/Graphics/SVG/1.1/DTD/svg11.dtd"><svg t="1526959256000" class="icon" style="" viewBox="0 0 1025 1024" version="1.1" xmlns="http://www.w3.org/2000/svg" p-id="7813" xmlns:xlink="http://www.w3.org/1999/xlink" width="64" height="64"><defs><style type="text/css"></style></defs><path d="M351.901696 736.308326 736.521626 351.688356C755.187302 333.022659 755.187302 302.517576 736.521626 283.851878 717.855949 265.186181 687.350784 265.186181 668.685107 283.851878L284.065178 668.471849C265.399501 687.137546 265.399501 717.642629 284.065178 736.308326 302.624154 754.974003 333.236019 754.974003 351.901696 736.308326ZM478.828339 669.751788C485.548032 679.137956 486.721331 689.057444 486.721331 694.603817 486.721331 701.216809 485.121434 714.016154 474.348544 724.78892L272.759194 926.378414C261.986304 937.151181 249.293619 938.751099 242.574131 938.751099 235.961139 938.751099 223.161754 937.151181 212.388864 926.378414L97.728307 811.717714C86.955418 800.944947 85.35552 788.252283 85.35552 781.532631 85.35552 774.812979 86.955418 762.120315 97.728307 751.347528L299.317658 549.758034C310.090547 538.985267 322.783232 537.385349 329.502925 537.385349 334.195917 537.385349 341.875507 538.238628 349.661798 542.398423L410.885325 481.174938C360.754586 439.790428 285.878477 442.563625 238.947533 489.387848L37.357978 690.977341C-12.452659 740.788081-12.452659 822.170522 37.357978 871.981261L152.018739 986.64194C201.829581 1036.45268 283.211981 1036.45268 333.022618 986.64194L534.612173 785.052447C582.716416 736.948285 584.316314 659.19234 539.411866 609.061601L478.828339 669.751788ZM986.748518 152.018739 872.087962 37.35806C822.27712-12.45268 740.89472-12.45268 691.084083 37.35806L489.494528 238.947553C442.670285 285.771776 439.897088 360.647885 481.281638 410.885263L542.505165 349.661798C538.345267 341.768868 537.49207 334.089257 537.49207 329.502843 537.49207 322.889851 539.091968 310.090506 549.864653 299.31774L751.454208 97.728246C762.226893 86.955479 774.919578 85.355561 781.63927 85.355561 788.252262 85.355561 801.051648 86.955479 811.824333 97.728246L926.485094 212.388946C937.257779 223.161713 938.857677 235.854377 938.857677 242.574029 938.857677 249.187021 937.257779 261.986345 926.485094 272.759132L724.895539 474.348626C714.122854 485.121393 701.43017 486.721311 694.710477 486.721311 689.164083 486.721311 679.244595 485.548052 669.858406 478.828401L609.27488 539.411907C659.405619 584.316232 737.054925 582.822973 785.265869 534.612152L986.855219 333.022659C1036.55936 283.211919 1036.55936 201.722819 986.748518 152.018739Z" p-id="7814" fill="#1296db"></path></svg>
