<?xml version="1.0" standalone="no"?><!DOCTYPE svg PUBLIC "-//W3C//DTD SVG 1.1//EN" "http://www.w3.org/Graphics/SVG/1.1/DTD/svg11.dtd"><svg t="1526959274263" class="icon" style="" viewBox="0 0 1157 1024" version="1.1" xmlns="http://www.w3.org/2000/svg" p-id="1631" xmlns:xlink="http://www.w3.org/1999/xlink" width="72.3125" height="64"><defs><style type="text/css"></style></defs><path d="M1087.841 618.409l-328.56 113.734c-8.142 2.825-16.338 2.706-24.538 3.329L685.24 601.526l27.685-9.605c8.525 25.836 36.457 39.478 62.383 30.517l234.665-81.255c25.925-8.963 39.99-37.152 31.466-62.987l-61.841-186.932c-8.544-25.807-36.476-39.449-62.401-30.486L682.55 342c-25.923 8.963-40.008 37.182-31.466 62.988l-34.115 11.796-48.074-130.153c10.014-9.422 21.99-17.063 35.805-21.885l328.494-113.697c51.849-17.926 107.718 9.36 124.802 60.975l92.758 280.437c17.087 51.615-11.092 108.004-62.913 125.948zM608.06 18.576l41.074 20.553-91.074 140.263-41.074-20.552L608.06 18.576zM419.735 640.27c-17.127-20.91-14.092-51.675 6.76-68.716l63.708-52.093 64.607 73.52-66.282 54.183c-20.843 17.09-51.646 13.987-68.793-6.894z m356.104-174.295c8.543 25.806-5.542 54.024-31.464 62.988l-76.182 26.382-34.145-92.356 79.438-27.51c25.894-8.985 53.858 4.678 62.353 30.496zM433.253 502.84c-17.118-20.864-47.92-23.965-68.792-6.896L175.63 650.366c-20.87 17.071-23.885 47.807-6.74 68.688l124.064 151.218c17.108 20.939 47.93 24.012 68.754 6.953l188.876-154.433c20.853-17.042 23.869-47.777 6.742-68.686l29.803-24.395 90.01 102.382c-6.009 13.287-14.722 25.586-26.784 35.457L385.967 983.745c-41.676 34.105-103.319 27.957-137.545-13.843L62.334 742.996C28.07 701.253 5.385 682.292 47.088 648.21l293.116-258.785c7.415-6.061 15.972-9.314 24.368-12.883L457.9 482.7l-24.646 20.14zM143.125 310.138l203.468-39.253 9.418 47.939-203.515 39.261-9.37-47.947zM351.19 36.072l41.899-26.05 27.616 178.484-41.927 26.033L351.19 36.072z" p-id="1632" fill="#1296db"></path></svg>
