<?xml version="1.0" standalone="no"?><!DOCTYPE svg PUBLIC "-//W3C//DTD SVG 1.1//EN" "http://www.w3.org/Graphics/SVG/1.1/DTD/svg11.dtd"><svg t="1521703528445" class="icon" style="" viewBox="0 0 1024 1024" version="1.1" xmlns="http://www.w3.org/2000/svg" p-id="6947" xmlns:xlink="http://www.w3.org/1999/xlink" width="48" height="48"><defs><style type="text/css"></style></defs><path d="M930.837457 883.21865l-19.046555 0L911.790901 868.940458l-171.339177-128.498606-228.451213 171.332157-228.451213-85.666078-171.339177 107.082854 0 7.138584L100.789557 940.329369l-45.692494 28.555359 0-28.555359 0-28.554336L55.097063 340.667843 55.097063 283.558148l228.451213-142.775774 228.451213 85.666078L740.451724 55.115272l228.451213 171.332157 0 57.110719 0 571.106166 0 28.554336 0 28.555359L930.837457 883.21865zM911.789878 240.724597 740.451724 112.225991 511.999488 283.558148l-228.451213-85.666078-171.339177 107.082854 0 571.105143 171.339177-107.081831 228.451213 85.666078 228.451213-171.332157 171.339177 128.498606L911.789878 240.724597zM740.451724 312.112484c0-15.769149 12.771385-28.555359 28.556529-28.555359 15.784122 0 28.555506 12.786211 28.555506 28.555359l0 228.442876c0 15.783475-12.771385 28.554336-28.555506 28.554336-15.785145 0-28.556529-12.770861-28.556529-28.554336L740.451724 312.112484zM540.557041 654.775774c-15.770818 0-28.556529-12.770861-28.556529-28.555359L512.000512 454.889281c0-15.770172 12.785712-28.555359 28.556529-28.555359 15.784122 0 28.555506 12.786211 28.555506 28.555359l0 171.331133C569.112547 642.004913 556.340139 654.775774 540.557041 654.775774zM312.104805 683.332157c-15.769795 0-28.556529-12.771885-28.556529-28.555359L283.548276 369.223203c0-15.770172 12.786735-28.555359 28.556529-28.555359 15.770818 0 28.556529 12.786211 28.556529 28.555359l0 285.552571C340.661335 670.559249 327.875623 683.332157 312.104805 683.332157z" p-id="6948" fill="#0086CC"></path></svg>
