<?xml version="1.0" standalone="no"?><!DOCTYPE svg PUBLIC "-//W3C//DTD SVG 1.1//EN" "http://www.w3.org/Graphics/SVG/1.1/DTD/svg11.dtd"><svg t="1697619472247" class="icon" viewBox="0 0 1024 1024" version="1.1" xmlns="http://www.w3.org/2000/svg" p-id="5696" width="64" height="64" xmlns:xlink="http://www.w3.org/1999/xlink"><path d="M732.17 201.08a167.64 167.64 0 0 1 53.83 8.67 173.94 173.94 0 0 1 46.74 24.59C862 255.72 888 287.07 910 327.52c21.23 39 37.83 84.41 49.36 135.12A675.67 675.67 0 0 1 976 610c0 65.27-10.21 123.28-28.75 163.34-8.14 17.58-17.8 31.26-27.94 39.57-8.33 6.82-16.78 10-26.6 10-8.66 0-22.85-2.18-45.93-21-20.52-16.73-41.88-41.39-64.49-67.5C719.52 662 641.4 571.79 512 571.79S304.48 662 241.71 734.41c-22.61 26.11-44 50.77-64.49 67.5-23.08 18.83-37.27 21-45.93 21-9.82 0-18.27-3.18-26.6-10-10.14-8.31-19.8-22-27.94-39.57C58.21 733.29 48 675.28 48 610a675.67 675.67 0 0 1 16.62-147.36c11.53-50.71 28.13-96.17 49.38-135.12 22-40.45 48-71.8 77.25-93.18A173.94 173.94 0 0 1 238 209.75a167.64 167.64 0 0 1 53.86-8.67c49.5 0 67.29 14.75 91.92 35.16 27.34 22.65 61.36 50.84 128.25 50.84s100.91-28.19 128.25-50.84c24.63-20.41 42.42-35.16 91.92-35.16m0-48c-127.29 0-115.82 86-220.17 86s-92.88-86-220.17-86c-333.69 0-372.68 717.84-160.54 717.84 125 0 186.91-251.13 380.71-251.13s255.69 251.13 380.68 251.13c212.14 0 173.15-717.84-160.54-717.84zM272 344a56 56 0 1 1-56 56 56.06 56.06 0 0 1 56-56m0-24a80 80 0 1 0 80 80 80 80 0 0 0-80-80z" fill="#1196db" p-id="5697" data-spm-anchor-id="a313x.search_index.0.i0.7cff3a81xETiMb" class="selected"></path><path d="M776 336a24 24 0 1 1-24-24 24 24 0 0 1 24 24z m-24 104a24 24 0 1 0 24 24 24 24 0 0 0-24-24z m64-64a24 24 0 1 0 24 24 24 24 0 0 0-24-24z m-128 0a24 24 0 1 0 24 24 24 24 0 0 0-24-24z" fill="#1196db" p-id="5698"></path></svg>