<?xml version="1.0" standalone="no"?><!DOCTYPE svg PUBLIC "-//W3C//DTD SVG 1.1//EN" "http://www.w3.org/Graphics/SVG/1.1/DTD/svg11.dtd"><svg t="1521703162311" class="icon" style="" viewBox="0 0 1037 1024" version="1.1" xmlns="http://www.w3.org/2000/svg" p-id="2340" xmlns:xlink="http://www.w3.org/1999/xlink" width="64" height="64"><defs><style type="text/css"></style></defs><path d="M512.144286 892.582925c-215.006865 0-442.904319-166.612669-508.024455-371.380332-1.989307-6.300496-1.989307-13.077853 0.020466-19.357883 65.389266-204.249871 293.14141-370.427634 507.692904-370.427634 218.653929 0 441.785845 163.130358 508.002966 371.401822 1.989307 6.28003 1.989307 13.057387-0.020466 19.337417C953.348893 729.867006 730.342844 892.582925 512.144286 892.582925zM68.017116 511.585561c66.259076 190.239785 281.059234 317.328275 444.12717 317.328275 185.534624 0 382.261147-141.099598 443.795619-316.499397C894.63363 336.558246 697.761798 195.086164 511.833201 195.086164 349.117282 195.086164 134.50439 321.822636 68.017116 511.585561zM511.376807 759.297292c-138.550543 0-251.275907-112.726388-251.275907-251.275907s112.726388-251.275907 251.275907-251.275907c138.571009 0 251.297396 112.726388 251.297396 251.275907S649.947815 759.297292 511.376807 759.297292zM511.376807 341.635891c-91.75168 0-166.384471 74.632791-166.384471 166.384471s74.632791 166.384471 166.384471 166.384471 166.404937-74.632791 166.404937-166.384471S603.12951 341.635891 511.376807 341.635891zM395.480216 529.243733c-11.730159 0-21.223371-9.492188-21.223371-21.223371 0-75.627445 61.512982-137.140427 137.119961-137.140427 11.731182 0 21.223371 9.492188 21.223371 21.223371 0 11.730159-9.492188 21.223371-21.223371 21.223371-52.208059 0-94.674243 42.487673-94.674243 94.694709C416.703587 519.751544 407.210375 529.243733 395.480216 529.243733z" p-id="2341" fill="#1296db"></path></svg>
