<?xml version="1.0" standalone="no"?><!DOCTYPE svg PUBLIC "-//W3C//DTD SVG 1.1//EN" "http://www.w3.org/Graphics/SVG/1.1/DTD/svg11.dtd"><svg t="1708928597443" class="icon" viewBox="0 0 1024 1024" version="1.1" xmlns="http://www.w3.org/2000/svg" p-id="1489" xmlns:xlink="http://www.w3.org/1999/xlink" width="200" height="200"><path d="M868.0448 808.8576l-40.96-465.92-15.36-10.24c-20.48-10.24-40.96-15.36-61.44-20.48-66.56-15.36-133.12-20.48-199.68-20.48v-35.84h240.64c25.6 0 51.2-20.48 51.2-51.2v-40.96c0-20.48-20.48-35.84-40.96-30.72-15.36 0-30.72 15.36-30.72 30.72v15.36c0 5.12-5.12 10.24-10.24 10.24h-496.64c-5.12 0-10.24-5.12-10.24-10.24v-15.36c0-20.48-20.48-35.84-40.96-30.72-15.36 0-30.72 15.36-30.72 30.72v46.08c0 25.6 20.48 51.2 51.2 51.2h240.64v35.84c-66.56 0-133.12 5.12-199.68 20.48-20.48 5.12-40.96 10.24-61.44 20.48l-15.36 10.24-46.08 465.92c0 20.48 5.12 46.08 20.48 61.44 15.36 15.36 35.84 25.6 61.44 25.6h547.84c20.48 0 46.08-10.24 61.44-25.6 20.48-20.48 25.6-46.08 25.6-66.56z m-71.68 15.36l-5.12 5.12h-547.84c-5.12 0-10.24-5.12-10.24-10.24l40.96-424.96c163.84-35.84 327.68-35.84 491.52 0l40.96 424.96c-10.24 0-10.24 0-10.24 5.12z" fill="#1296db" p-id="1490"></path><path d="M632.5248 470.9376c-35.84-30.72-76.8-51.2-122.88-51.2-46.08 0-87.04 20.48-117.76 51.2-30.72 30.72-51.2 71.68-51.2 117.76 0 46.08 15.36 92.16 51.2 122.88 30.72 35.84 76.8 51.2 122.88 51.2 97.28 0 174.08-76.8 174.08-174.08-5.12-40.96-25.6-87.04-56.32-117.76z m-10.24 122.88c0 30.72-10.24 56.32-30.72 76.8-40.96 40.96-112.64 40.96-153.6 0-20.48-20.48-30.72-46.08-30.72-76.8 0-61.44 46.08-112.64 107.52-112.64s107.52 46.08 107.52 112.64c0-5.12 0 0 0 0z" fill="#1296db" p-id="1491"></path><path d="M530.1248 532.3776l-30.72 25.6c-5.12 5.12-10.24 15.36-10.24 20.48 0 10.24 5.12 15.36 10.24 20.48 5.12 5.12 15.36 10.24 20.48 10.24 10.24 0 15.36-5.12 20.48-10.24l30.72-25.6c5.12-5.12 10.24-15.36 10.24-20.48 0-10.24-5.12-15.36-10.24-20.48-10.24-10.24-30.72-10.24-40.96 0z" fill="#1296db" p-id="1492"></path></svg>