<?xml version="1.0" standalone="no"?><!DOCTYPE svg PUBLIC "-//W3C//DTD SVG 1.1//EN" "http://www.w3.org/Graphics/SVG/1.1/DTD/svg11.dtd"><svg t="1533864077791" class="icon" style="" viewBox="0 0 1024 1024" version="1.1" xmlns="http://www.w3.org/2000/svg" p-id="1994" xmlns:xlink="http://www.w3.org/1999/xlink" width="64" height="64"><defs><style type="text/css"></style></defs><path d="M959.825 191.94c0-70.692-57.308-128-128-128H191.94c-70.692 0-128 57.308-128 128v639.885c0 70.692 57.308 128 128 128h639.885c70.692 0 128-57.308 128-128V191.94z m-813.11-45.275a63.839 63.839 0 0 1 45.373-18.785h639.824a64.038 64.038 0 0 1 63.973 64.121v288.092s0.029 0 0 0h-50.527l-54.765-54.71a31.97 31.97 0 0 0-52.933 12.506l-39.581 118.788-93.483-186.966a31.97 31.97 0 0 0-58.28 2.424l-93.27 233.169L350.74 247.217a31.97 31.97 0 0 0-59.33-5.52l-119.265 238.27-44.264 0.126V192.001a63.778 63.778 0 0 1 18.836-45.336z m730.436 730.536a63.456 63.456 0 0 1-45.253 18.677h-639.81c-17.112 0-33.27-6.575-45.372-18.677S127.88 849.111 127.88 832V544.033l64.136-0.18a32.024 32.024 0 0 0 28.538-17.669l91.26-182.395L417.238 712.78a31.977 31.977 0 0 0 29.112 23.145q0.824 0.043 1.644 0.043a31.974 31.974 0 0 0 29.676-20.096l101.56-253.9 96.163 192.323a31.97 31.97 0 0 0 58.927-4.187l47.651-142.951 27.552 27.523a31.97 31.97 0 0 0 22.603 9.352h63.76c0.029 0 0 0 0 0V832a63.398 63.398 0 0 1-18.72 45.21z" fill="#1296db" p-id="1995"></path></svg>
