<?xml version="1.0" standalone="no"?><!DOCTYPE svg PUBLIC "-//W3C//DTD SVG 1.1//EN" "http://www.w3.org/Graphics/SVG/1.1/DTD/svg11.dtd"><svg t="1537149879546" class="icon" style="" viewBox="0 0 1024 1024" version="1.1" xmlns="http://www.w3.org/2000/svg" p-id="2444" xmlns:xlink="http://www.w3.org/1999/xlink" width="64" height="64"><defs><style type="text/css"></style></defs><path d="M512 473.6c-8.533333 0-17.066667 0-25.6-4.266667L157.866667 307.2C140.8 298.666667 128 277.333333 128 256s12.8-42.666667 34.133333-51.2l328.533334-157.866667c17.066667-8.533333 34.133333-8.533333 51.2 0l328.533333 157.866667c12.8 12.8 25.6 29.866667 25.6 51.2s-12.8 42.666667-34.133333 51.2l-328.533334 157.866667c-4.266667 4.266667-12.8 8.533333-21.333333 8.533333zM512 85.333333h-8.533333L179.2 243.2C170.666667 247.466667 170.666667 256 170.666667 256c0 4.266667 0 8.533333 8.533333 12.8l328.533333 157.866667c4.266667 4.266667 8.533333 4.266667 12.8 0l328.533334-157.866667c4.266667-4.266667 4.266667-8.533333 4.266666-12.8 0-4.266667 0-8.533333-8.533333-12.8L520.533333 85.333333H512zM426.666667 981.333333c-8.533333 0-17.066667 0-25.6-4.266666l-294.4-140.8c-17.066667-8.533333-29.866667-29.866667-29.866667-51.2V422.4c0-21.333333 8.533333-38.4 25.6-51.2 17.066667-8.533333 34.133333-8.533333 51.2 0l294.4 140.8c17.066667 8.533333 29.866667 29.866667 29.866667 51.2v358.4c0 21.333333-8.533333 38.4-25.6 51.2-8.533333 4.266667-17.066667 8.533333-25.6 8.533333zM132.266667 409.6c-4.266667 0-4.266667 0 0 0-8.533333 0-12.8 4.266667-12.8 12.8v358.4c0 4.266667 4.266667 12.8 8.533333 12.8L422.4 938.666667h8.533333c4.266667 0 8.533333-4.266667 8.533334-12.8v-358.4c0-4.266667-4.266667-12.8-8.533334-12.8L136.533333 409.6h-4.266666zM597.333333 981.333333c-8.533333 0-17.066667-4.266667-25.6-8.533333-17.066667-8.533333-25.6-29.866667-25.6-51.2v-358.4c0-21.333333 12.8-42.666667 29.866667-51.2l298.666667-140.8c17.066667-8.533333 34.133333-8.533333 51.2 0 17.066667 8.533333 25.6 29.866667 25.6 51.2v358.4c0 21.333333-12.8 42.666667-29.866667 51.2l-298.666667 140.8c-8.533333 8.533333-17.066667 8.533333-25.6 8.533333z m294.4-571.733333L588.8 554.666667c-4.266667 0-4.266667 8.533333-4.266667 12.8v358.4c0 8.533333 4.266667 12.8 8.533334 12.8h8.533333l294.4-140.8c4.266667 0 4.266667-8.533333 4.266667-12.8V422.4c0-8.533333-4.266667-12.8-8.533334-12.8 4.266667 0 4.266667 0 0 0z" p-id="2445" fill="#1296db"></path></svg>
