<?xml version="1.0" standalone="no"?><!DOCTYPE svg PUBLIC "-//W3C//DTD SVG 1.1//EN" "http://www.w3.org/Graphics/SVG/1.1/DTD/svg11.dtd"><svg t="1535025570850" class="icon" style="" viewBox="0 0 1024 1024" version="1.1" xmlns="http://www.w3.org/2000/svg" p-id="1564" xmlns:xlink="http://www.w3.org/1999/xlink" width="64" height="64"><defs><style type="text/css"></style></defs><path d="M632.470588 0l301.176471 280.636235v592.655059c0 50.236235-40.779294 91.015529-91.01553 91.01553H181.368471A91.075765 91.075765 0 0 1 90.352941 873.291294V91.075765C90.352941 40.779294 131.132235 0 181.368471 0H632.470588z m240.941177 873.291294V348.16h-158.298353c-74.691765 0-135.529412-60.837647-135.529412-135.529412V60.596706L181.368471 60.235294A30.840471 30.840471 0 0 0 150.588235 91.075765v782.215529c0 16.986353 13.793882 30.780235 30.780236 30.780235h661.263058a30.780235 30.780235 0 0 0 30.780236-30.780235zM639.819294 89.208471V212.630588c0 41.502118 33.792 75.294118 75.294118 75.294118h137.938823l-213.232941-198.716235z m8.854588 273.889882c24.274824-6.625882 44.032 6.746353 44.032 29.696v279.009882c0 36.141176-38.550588 69.872941-86.13647 75.294118-47.585882 5.541647-86.136471-17.347765-86.136471-53.609412 0-36.141176 38.550588-69.872941 86.136471-75.294117 32.346353-3.674353 50.416941 6.144 50.416941 6.144V487.303529c0-17.167059-19.636706-10.902588-19.636706-10.902588l-177.392941 52.404706s-20.359529 6.927059-20.35953 23.009882v170.586353c0 36.141176-34.876235 69.571765-82.462117 75.896471-47.585882 6.384941-86.076235-15.721412-86.076235-51.862588 0-36.201412 38.490353-70.656 86.076235-77.101177 32.346353-4.276706 46.923294 4.999529 46.923294 4.99953V474.473412c0-22.949647 19.696941-46.863059 43.971765-53.428706l200.643764-57.946353z" p-id="1565" fill="#1296db"></path></svg>
