<?xml version="1.0" standalone="no"?><!DOCTYPE svg PUBLIC "-//W3C//DTD SVG 1.1//EN" "http://www.w3.org/Graphics/SVG/1.1/DTD/svg11.dtd"><svg t="1529896524981" class="icon" style="" viewBox="0 0 1024 1024" version="1.1" xmlns="http://www.w3.org/2000/svg" p-id="2449" xmlns:xlink="http://www.w3.org/1999/xlink" width="64" height="64"><defs><style type="text/css"></style></defs><path d="M511.998 0C229.23 0 0 229.228 0 512c0 282.77 229.23 512 511.998 512C794.77 1024 1024 794.77 1024 512 1024 229.228 794.77 0 511.998 0z m0 993.808C245.904 993.808 30.192 778.094 30.192 512c0-266.096 215.712-481.808 481.806-481.808 266.1 0 481.81 215.712 481.81 481.808 0 266.094-215.71 481.808-481.81 481.808z" fill="#1296db" p-id="2450"></path><path d="M785.96 746.65H238.04c-17.6 0-32-14.4-32-32v-181c0-17.6 14.4-32 32-32h547.92c17.6 0 32 14.4 32 32v181c0 17.6-14.4 32-32 32z" fill="#1296db" p-id="2451"></path><path d="M583 578.65h-4c-24.2 0-44-19.8-44-44v-122c0-24.2 19.8-44 44-44h4c24.2 0 44 19.8 44 44v122c0 24.2-19.8 44-44 44z" fill="#1296db" p-id="2452"></path><path d="M257 564.65h60v60h-60zM357 564.65h60v60h-60z" fill="#1296db" p-id="2453"></path><path d="M415.002 413.872c0-91.68 74.32-166 166-166s166 74.32 166 166h22.522c0-104.118-84.404-188.522-188.522-188.522s-188.522 84.404-188.522 188.522h22.522z" fill="#1296db" p-id="2454"></path><path d="M581 315.872c54.124 0 98 43.876 98 98h22.666c0-66.642-54.024-120.666-120.666-120.666s-120.666 54.024-120.666 120.666H483c0-54.124 43.876-98 98-98z" fill="#1296db" p-id="2455"></path></svg>
