<?xml version="1.0" standalone="no"?><!DOCTYPE svg PUBLIC "-//W3C//DTD SVG 1.1//EN" "http://www.w3.org/Graphics/SVG/1.1/DTD/svg11.dtd"><svg t="1556010029154" class="icon" style="" viewBox="0 0 1024 1024" version="1.1" xmlns="http://www.w3.org/2000/svg" p-id="8853" xmlns:xlink="http://www.w3.org/1999/xlink" width="32" height="32"><defs><style type="text/css"></style></defs><path d="M905.6 928H118.4c-44.8 0-83.2-38.4-83.2-83.2V284.8c0-44.8 38.4-83.2 83.2-83.2h176l51.2-83.2c0-12.8 28.8-19.2 41.6-19.2h249.6c12.8 0 41.6 9.6 41.6 19.2l51.2 83.2h176c44.8 0 83.2 38.4 83.2 83.2v560c0 44.8-35.2 83.2-83.2 83.2zM512 284.8c-150.4 0-268.8 121.6-268.8 268.8 0 150.4 121.6 268.8 268.8 268.8 150.4 0 268.8-121.6 268.8-268.8 0-150.4-118.4-268.8-268.8-268.8z m0 454.4c-102.4 0-185.6-83.2-185.6-185.6 0-102.4 83.2-185.6 185.6-185.6s185.6 83.2 185.6 185.6c0 102.4-83.2 185.6-185.6 185.6z" fill="#1296db" p-id="8854"></path></svg>