<?xml version="1.0" standalone="no"?><!DOCTYPE svg PUBLIC "-//W3C//DTD SVG 1.1//EN" "http://www.w3.org/Graphics/SVG/1.1/DTD/svg11.dtd"><svg t="1521701717664" class="icon" style="" viewBox="0 0 1024 1024" version="1.1" xmlns="http://www.w3.org/2000/svg" p-id="2954" xmlns:xlink="http://www.w3.org/1999/xlink" width="64" height="64"><defs><style type="text/css"></style></defs><path d="M876.1 118.2c-5.9 0-11.9 1-17.8 3.2l-197.6 71.8c-5.7 2.1-11.8 3.1-17.8 3.1-6.6 0-13.1-1.2-19.3-3.7l-223.1-89.3c-6.2-2.5-12.7-3.7-19.3-3.7-6 0-12 1-17.8 3.1l-233.1 84.8c-20.6 7.5-34.2 27-34.2 48.9v617.3c0 29.8 24.4 52 51.9 52 5.9 0 11.9-1 17.8-3.2l197.6-71.8c5.7-2.1 11.8-3.1 17.8-3.1 6.6 0 13.1 1.2 19.3 3.7l223.1 89.3c6.2 2.5 12.8 3.7 19.3 3.7 6 0 12-1 17.8-3.1l233.1-84.8c20.6-7.5 34.2-27 34.2-48.9V170.2c0-29.7-24.4-52-51.9-52zM148 853.8V236.4l208-75.6v618c-3.5 0.9-7 1.9-10.4 3.2L148 853.8z m260-74.6V162.4l196.3 78.5c3.9 1.5 7.8 2.8 11.7 3.9v616.8l-196.3-78.5c-3.8-1.6-7.7-2.9-11.7-3.9z m468 8.4l-208 75.6v-618c3.5-0.9 7-1.9 10.4-3.2L876 170.2v617.4z" p-id="2955" fill="#1296db"></path></svg>
