<?xml version="1.0" standalone="no"?><!DOCTYPE svg PUBLIC "-//W3C//DTD SVG 1.1//EN" "http://www.w3.org/Graphics/SVG/1.1/DTD/svg11.dtd"><svg t="1529895125541" class="icon" style="" viewBox="0 0 1024 1024" version="1.1" xmlns="http://www.w3.org/2000/svg" p-id="2141" xmlns:xlink="http://www.w3.org/1999/xlink" width="64" height="64"><defs><style type="text/css"></style></defs><path d="M64 64l384 0 0 384-384 0 0-384Z" p-id="2142" fill="#1296db"></path><path d="M576 64l384 0 0 384-384 0 0-384Z" p-id="2143" fill="#1296db"></path><path d="M64 576l384 0 0 384-384 0 0-384Z" p-id="2144" fill="#1296db"></path><path d="M960 896c0 16.378-6.248 32.758-18.746 45.254C928.758 953.752 912.378 960 896 960L640 960c-16.378 0-32.758-6.248-45.254-18.746C582.248 928.758 576 912.378 576 896L576 640c0-16.378 6.248-32.758 18.746-45.254C607.242 582.248 623.622 576 640 576l256 0c16.378 0 32.758 6.248 45.254 18.746C953.752 607.242 960 623.62 960 640L960 896zM898.56 669.438c0-8.19-3.126-16.378-9.374-22.626s-14.438-9.374-22.626-9.374L669.44 637.438c-8.19 0-16.378 3.126-22.626 9.374s-9.374 14.438-9.374 22.626l0 197.122c0 8.19 3.126 16.378 9.374 22.626s14.438 9.374 22.626 9.374l197.122 0c8.19 0 16.378-3.126 22.626-9.374s9.374-14.438 9.374-22.626L898.562 669.438z" p-id="2145" fill="#1296db"></path></svg>
