<?xml version="1.0" standalone="no"?><!DOCTYPE svg PUBLIC "-//W3C//DTD SVG 1.1//EN" "http://www.w3.org/Graphics/SVG/1.1/DTD/svg11.dtd"><svg t="1557128725345" class="icon" style="" viewBox="0 0 1024 1024" version="1.1" xmlns="http://www.w3.org/2000/svg" p-id="2034" xmlns:xlink="http://www.w3.org/1999/xlink" width="32" height="32"><defs><style type="text/css"></style></defs><path d="M 518.469 379.024 c 23.4961 0 42.5337 -17.8086 42.5337 -39.779 c 0 -21.9683 -19.0386 -39.7636 -42.5337 -39.7636 c -23.4798 0 -41.3354 17.7943 -41.3354 39.7636 C 477.134 361.216 494.99 379.024 518.469 379.024 Z M 178.479 951.205 l 90.9596 0 L 269.439 71.9579 L 178.479 71.9579 L 178.479 951.205 Z M 496.84 208.437 l 30.3052 0 L 527.145 97.0647 l 60.6268 42.1326 L 587.772 109.412 l -75.7697 -52.6583 L 436.229 109.412 l 0 29.7854 l 60.6104 -42.1326 l 0 111.373 L 496.84 208.437 Z M 314.919 784.451 l 394.161 0 l 0 -545.739 L 314.919 238.712 L 314.919 784.451 Z M 345.24 269.029 l 333.521 0 l 0 485.102 L 345.24 754.132 L 345.24 269.029 Z M 754.56 71.9579 l 0 879.247 l 90.9607 0 L 845.521 71.9579 L 754.56 71.9579 Z M 573.677 392.201 L 445.438 392.201 c 0 0 -18.6538 -2.20522 -24.4867 13.2641 l 0 119.988 c 0 0 0.503467 12.2858 13.4718 12.2858 c 0 0 14.4348 0.074701 14.4348 -12.9684 l 0 -72.5698 c 0 0 8.00942 -16.507 13.9906 0.828878 l 0.073678 257.326 c 0 0 -0.502443 13.1914 13.4872 13.1914 l 14.4931 0.207731 c 0 0 13.6949 -0.149403 13.6949 -13.3981 L 504.597 590.917 c 0 0 0.518816 -6.7661 7.80169 -6.7661 c 0 0 6.41101 2.41296 6.41101 7.04649 l 0 120.269 c 0 0 0 12.0812 13.9896 12.0812 l 14.0653 0 c 0 0 13.9906 -0.827855 13.9906 -12.0812 L 560.856 451.994 c 0 0 5.03364 -15.322 13.9906 -0.207731 l 0.458441 73.5174 c 0 0 -3.25718 12.7176 14.4215 12.7176 c 13.2938 0 12.8804 -12.1548 12.8804 -12.1548 l 0.147356 -120.402 C 602.752 405.465 595.839 392.201 573.677 392.201 Z M 527.144 814.726 L 496.84 814.726 l 0 111.372 l -60.6104 -42.1326 l 0 29.7864 l 75.7707 52.6573 l 75.7697 -52.6573 l 0 -29.7864 l -60.6268 42.1326 L 527.144 814.726 L 527.144 814.726 Z" p-id="2035" fill="#1296db"></path></svg>