<?xml version="1.0" standalone="no"?><!DOCTYPE svg PUBLIC "-//W3C//DTD SVG 1.1//EN" "http://www.w3.org/Graphics/SVG/1.1/DTD/svg11.dtd"><svg t="1603163755012" class="icon" viewBox="0 0 1024 1024" version="1.1" xmlns="http://www.w3.org/2000/svg" p-id="4188" xmlns:xlink="http://www.w3.org/1999/xlink" width="48" height="48"><defs><style type="text/css"></style></defs><path d="M870.6048 180.8384l-110.3872 0L760.2176 94.4128c0-40.7552-33.1776-73.9328-73.9328-73.9328L344.064 20.48c-40.7552 0-73.9328 33.1776-73.9328 73.9328l0 86.4256L159.744 180.8384c-74.752 0-135.3728 60.8256-135.3728 135.3728l0 550.5024c0 74.752 60.8256 135.3728 135.3728 135.3728l710.8608 0c74.752 0 135.3728-60.8256 135.3728-135.3728L1005.9776 316.2112C1005.9776 241.4592 945.152 180.8384 870.6048 180.8384L870.6048 180.8384zM325.4272 94.4128c0-10.24 8.192-18.432 18.432-18.432l342.2208 0c10.24 0 18.432 8.192 18.432 18.432l0 85.4016L325.4272 179.8144 325.4272 94.4128 325.4272 94.4128zM79.6672 459.5712l0-59.392 0-84.1728c0-44.032 35.84-80.0768 80.0768-80.0768l710.8608 0c44.032 0 80.0768 35.84 80.0768 80.0768l0 84.1728 0 59.392 0 55.296-156.672 0 0-77.4144c0-23.7568-19.2512-43.008-43.008-43.008l-116.3264 0c-23.7568 0-43.008 19.2512-43.008 43.008l0 77.4144-163.0208 0 0-77.4144c0-23.7568-19.2512-43.008-43.008-43.008l-116.3264 0c-23.7568 0-43.008 19.2512-43.008 43.008l0 77.4144L79.6672 514.8672 79.6672 459.5712 79.6672 459.5712zM738.5088 449.9456l0 185.5488-91.7504 0 0-185.5488L738.5088 449.9456 738.5088 449.9456zM372.9408 449.9456l0 185.5488-91.7504 0 0-185.5488L372.9408 449.9456 372.9408 449.9456zM870.6048 946.5856 159.744 946.5856c-44.032 0-80.0768-35.84-80.0768-80.0768L79.6672 570.368l146.0224 0 0 77.4144c0 23.7568 19.2512 43.008 43.008 43.008l116.3264 0c23.7568 0 43.008-19.2512 43.008-43.008l0-77.4144 163.0208 0 0 77.4144c0 23.7568 19.2512 43.008 43.008 43.008l116.3264 0c23.7568 0 43.008-19.2512 43.008-43.008l0-77.4144 156.672 0 0 296.1408C950.4768 910.7456 914.6368 946.5856 870.6048 946.5856L870.6048 946.5856z" p-id="4189" fill="#1296db"></path></svg>