<svg id="图层_1" data-name="图层 1" xmlns="http://www.w3.org/2000/svg" viewBox="0 0 50 50"><defs><style>.cls-1{fill:#8e8e8e;}</style></defs><path class="cls-1" d="M43.12,16.76H33.24V6.88A3.88,3.88,0,0,0,29.36,3H20.64a3.88,3.88,0,0,0-3.88,3.88v9.88H6.88A3.88,3.88,0,0,0,3,20.64v8.72a3.88,3.88,0,0,0,3.88,3.88h9.88v9.88A3.88,3.88,0,0,0,20.64,47h8.72a3.88,3.88,0,0,0,3.88-3.88V33.24h9.88A3.88,3.88,0,0,0,47,29.36V20.64A3.88,3.88,0,0,0,43.12,16.76ZM11.39,28a.64.64,0,0,1-1.09.45l-4.1-3a.65.65,0,0,1,0-.9l4.1-3a.64.64,0,0,1,1.09.45Zm17,10.72-3,4.09a.63.63,0,0,1-.9,0l-3-4.09A.64.64,0,0,1,22,37.61h6A.64.64,0,0,1,28.43,38.7ZM28,12.39H22a.64.64,0,0,1-.45-1.09l3-4.09a.63.63,0,0,1,.9,0l3,4.09A.64.64,0,0,1,28,12.39ZM43.8,25.45l-4.1,3A.64.64,0,0,1,38.61,28V22a.64.64,0,0,1,1.09-.45l4.1,3A.65.65,0,0,1,43.8,25.45Z"/></svg>