<svg id="图层_1" data-name="图层 1" xmlns="http://www.w3.org/2000/svg" viewBox="0 0 50 50"><defs><style>.cls-1{fill:#8e8e8e;}</style></defs><path class="cls-1" d="M31.86,24.48a1.44,1.44,0,0,0,.46-1.16,1.49,1.49,0,0,0-.5-1.27,2.7,2.7,0,0,0-1.63-.39H28.54v3.22h1.75A2.53,2.53,0,0,0,31.86,24.48Z"/><path class="cls-1" d="M30.89,27.07H28.54v3.34h2.2A2.06,2.06,0,0,0,32.13,30a1.43,1.43,0,0,0,.49-1.17A1.55,1.55,0,0,0,30.89,27.07Z"/><path class="cls-1" d="M44.29,8.33H20.09A17.09,17.09,0,0,0,3,25.42V39a2.71,2.71,0,0,0,2.71,2.71H44.29A2.71,2.71,0,0,0,47,39V11A2.71,2.71,0,0,0,44.29,8.33ZM23.78,33H14.59V19.08h3.35V30.41h5.84Zm10.89-1.05A6.22,6.22,0,0,1,30.84,33H25.19V19.08h5a7.12,7.12,0,0,1,4.08,1,3.29,3.29,0,0,1,1.4,2.86,3.31,3.31,0,0,1-.5,1.84,2.89,2.89,0,0,1-1.46,1.13A2.92,2.92,0,0,1,35.38,27,3.1,3.1,0,0,1,36,28.87,3.68,3.68,0,0,1,34.67,31.94Z"/></svg>