<svg id="图层_1" data-name="图层 1" xmlns="http://www.w3.org/2000/svg" viewBox="0 0 50 50"><defs><style>.cls-1{fill:#8e8e8e;}.cls-2{fill:#4c4c4c;opacity:0.6;}</style></defs><path class="cls-1" d="M24.88,20.63H22.76v3.83h2.12A1.89,1.89,0,0,0,26.32,24a1.93,1.93,0,0,0,.48-1.4,1.94,1.94,0,0,0-.49-1.41A1.88,1.88,0,0,0,24.88,20.63Z"/><path class="cls-1" d="M25,3A22,22,0,1,0,47,25,22,22,0,0,0,25,3Zm5.61,29H27L24.56,27H22.75V32H19.39V18.05h5.48a6.09,6.09,0,0,1,3.86,1.09,3.74,3.74,0,0,1,1.4,3.11,4.54,4.54,0,0,1-.59,2.4A4.15,4.15,0,0,1,27.7,26.2l2.91,5.61Z"/><circle class="cls-2" cx="32.32" cy="18.05" r="10.44"/></svg>