<svg id="图层_1" data-name="图层 1" xmlns="http://www.w3.org/2000/svg" viewBox="0 0 50 50"><defs><style>.cls-1{fill:#8e8e8e;}</style></defs><path class="cls-1" d="M25.31,26.41H23.19v3.83h2.12a1.92,1.92,0,0,0,1.44-.5,2.31,2.31,0,0,0,0-2.82A1.92,1.92,0,0,0,25.31,26.41Z"/><path class="cls-1" d="M39,18H11.05a8,8,0,0,0-8,8H3a8,8,0,0,0,8.05,8h3.52V44H35.43V34.08H39a8,8,0,0,0,8-8h0A8,8,0,0,0,39,18Zm-7.9,19.74H27.46L25,32.82H23.19v4.91H19.84V23.83h5.47a6.06,6.06,0,0,1,3.87,1.1,3.71,3.71,0,0,1,1.4,3.1,4.52,4.52,0,0,1-.59,2.4A4.21,4.21,0,0,1,28.15,32l2.9,5.61Z"/><path class="cls-1" d="M20.39,15.36V9.94H18.54a.57.57,0,0,1-.3-1.06l6.1-3.73a1.3,1.3,0,0,1,1.32,0l6.1,3.73a.57.57,0,0,1-.3,1.06H29.61v5.42A.62.62,0,0,1,29,16H21A.62.62,0,0,1,20.39,15.36Z"/></svg>