<svg id="图层_1" data-name="图层 1" xmlns="http://www.w3.org/2000/svg" viewBox="0 0 50 50"><defs><style>.cls-1{fill:#8e8e8e;}</style></defs><path class="cls-1" d="M19.25,27.19H17.13V31h2.12a1.89,1.89,0,0,0,1.44-.51,2.28,2.28,0,0,0,0-2.81A1.88,1.88,0,0,0,19.25,27.19Z"/><path class="cls-1" d="M33.2,30a1.39,1.39,0,0,0,.47-1.16,1.5,1.5,0,0,0-.5-1.26,2.73,2.73,0,0,0-1.64-.39H29.89v3.22h1.75A2.43,2.43,0,0,0,33.2,30Z"/><path class="cls-1" d="M32.24,32.6H29.89v3.34h2.2a2.06,2.06,0,0,0,1.39-.42A1.45,1.45,0,0,0,34,34.35,1.55,1.55,0,0,0,32.24,32.6Z"/><path class="cls-1" d="M29.91,17.86H5.71A2.71,2.71,0,0,0,3,20.57V41.3A2.71,2.71,0,0,0,5.71,44H44.29A2.71,2.71,0,0,0,47,41.3V35A17.09,17.09,0,0,0,29.91,17.86ZM25,38.51H21.4L19,33.6H17.13v4.91H13.78V24.61h5.47a6.06,6.06,0,0,1,3.87,1.1,3.7,3.7,0,0,1,1.39,3.1,4.54,4.54,0,0,1-.58,2.4,4.26,4.26,0,0,1-1.84,1.55L25,38.37Zm11-1a6.19,6.19,0,0,1-3.84,1H26.54V24.61h5a7.16,7.16,0,0,1,4.09,1,3.63,3.63,0,0,1,.9,4.7,2.89,2.89,0,0,1-1.46,1.13,3,3,0,0,1,1.67,1.07,3.1,3.1,0,0,1,.58,1.91A3.7,3.7,0,0,1,36,37.47Z"/><path class="cls-1" d="M20.39,5.58V11H18.54a.57.57,0,0,0-.3,1.06l6.1,3.72a1.26,1.26,0,0,0,1.32,0l6.1-3.72a.57.57,0,0,0-.3-1.06H29.61V5.58A.61.61,0,0,0,29,5H21A.61.61,0,0,0,20.39,5.58Z"/></svg>