<svg id="图层_1" data-name="图层 1" xmlns="http://www.w3.org/2000/svg" viewBox="0 0 50 50"><defs><style>.cls-1{fill:#8e8e8e;}</style></defs><path class="cls-1" d="M19.93,19.39H17.81v3.83h2.12a1.92,1.92,0,0,0,1.44-.5,2,2,0,0,0,.48-1.41,1.94,1.94,0,0,0-.49-1.41A1.88,1.88,0,0,0,19.93,19.39Z"/><path class="cls-1" d="M44.29,8.33H5.71A2.71,2.71,0,0,0,3,11V39a2.71,2.71,0,0,0,2.71,2.71h24.2A17.09,17.09,0,0,0,47,24.58V11A2.71,2.71,0,0,0,44.29,8.33ZM25.67,30.72H22.08L19.62,25.8H17.81v4.92H14.46V16.81h5.47a6.12,6.12,0,0,1,3.87,1.1A3.7,3.7,0,0,1,25.19,21a4.4,4.4,0,0,1-.59,2.4A4.18,4.18,0,0,1,22.77,25l2.9,5.61Zm12-11.32H33.48V30.72H30.13V19.4H26V16.81H37.66Z"/></svg>