<svg id="图层_1" data-name="图层 1" xmlns="http://www.w3.org/2000/svg" viewBox="0 0 50 50"><defs><style>.cls-1{fill:#8e8e8e;}</style></defs><path class="cls-1" d="M25,15C12.85,15,3,20.3,3,26.83s9.85,11.82,22,11.82,22-5.29,22-11.82S37.15,15,25,15Zm2.39,15.64-2.34-2.53-2.34,2.53H18.85l4-3.76L19,23.18h3.82l2.28,2.49,2.27-2.49h3.83l-3.89,3.71,4,3.76Z"/><path class="cls-1" d="M25,39.35C13.85,39.35,5.06,35,3.3,30.13a.16.16,0,0,0-.3.06v4.39a8.65,8.65,0,0,0,1.42,4.93c6.91,10.13,35.41,10,41.53-.62a8.49,8.49,0,0,0,1-4.28V30a.12.12,0,0,0-.24,0C45.13,35.13,36.29,39.35,25,39.35Z"/><path class="cls-1" d="M20.39,3.63V9H18.54a.57.57,0,0,0-.3,1.06l6.1,3.73a1.26,1.26,0,0,0,1.32,0l6.1-3.73A.57.57,0,0,0,31.46,9H29.61V3.63A.61.61,0,0,0,29,3H21A.61.61,0,0,0,20.39,3.63Z"/></svg>