<?xml version="1.0" standalone="no"?><!DOCTYPE svg PUBLIC "-//W3C//DTD SVG 1.1//EN" "http://www.w3.org/Graphics/SVG/1.1/DTD/svg11.dtd"><svg t="1747016617353" class="icon" viewBox="0 0 1024 1024" version="1.1" xmlns="http://www.w3.org/2000/svg" p-id="25056" xmlns:xlink="http://www.w3.org/1999/xlink" width="200" height="200"><path d="M340.7 288.4c45.9-32.7 101.2-50.8 159.5-50.8 168.3 0 301.4 150.9 271.4 324.7-18.3 105.7-99.6 193-203.7 218.4-141.5 34.4-277.1-42.8-325.3-169.1-12.8-33.6-55.1-47.4-86.3-23.3-19.9 15.4-24.3 43.5-15.1 66.9 57.8 145.9 199.2 243.9 359 243.9 232.4 0 416.9-205.5 381.5-444.7-23.5-158.7-147.3-288.6-304.8-319.5-111.2-21.8-220.5 4.9-305.7 67.7L238.3 162c-12-14.8-35.6-10.3-41.2 7.9l-49.6 159c-6.5 21 10.4 41.9 32.3 39.8l165.9-15.4c18.9-1.8 28.3-23.9 16.3-38.7l-21.3-26.2z" fill="#3259CE" p-id="25057"></path></svg>