<?xml version="1.0" standalone="no"?><!DOCTYPE svg PUBLIC "-//W3C//DTD SVG 1.1//EN" "http://www.w3.org/Graphics/SVG/1.1/DTD/svg11.dtd"><svg t="1533707628164" class="icon" style="" viewBox="0 0 1024 1024" version="1.1" xmlns="http://www.w3.org/2000/svg" p-id="3181" xmlns:xlink="http://www.w3.org/1999/xlink" width="64" height="64"><defs><style type="text/css"></style></defs><path d="M922.16 64l-0.12 0L448 64l0 128 448 0 0 512L320 704l0 127.999L384 832l0 60.107c0 0-191.618 67.893-67.831 67.893l453.112 0c105.78 0-18.762-49.578-57.227-64L704 893.025 704 832l192 0c105 0 128-64.093 128-106.265L1024 165.871C1024 109.854 978.177 64 922.16 64z" p-id="3182" fill="#1296db"></path><path d="M334 0l-28 0c-27.614 0-50 22.386-50 50l0 142L128 192 128 50c0-27.614-22.386-50-50-50L50 0C22.386 0 0 22.386 0 50l0 46 0 110 0 36 0 28 0 18c0 17.673 14.327 32 32 32 2.757 0 5.433-0.349 7.985-1.005C43.221 319.653 46.57 320 50 320l78 0 0 590c0 27.614 22.386 50 50 50l28 0c27.614 0 50-22.386 50-50L256 320l78 0c3.43 0 6.779-0.347 10.015-1.005 2.553 0.656 5.228 1.005 7.985 1.005 17.673 0 32-14.327 32-32l0-18 0-28 0-36L384 96 384 50C384 22.386 361.614 0 334 0z" p-id="3183" fill="#1296db"></path></svg>
