<?xml version="1.0" standalone="no"?><!DOCTYPE svg PUBLIC "-//W3C//DTD SVG 1.1//EN" "http://www.w3.org/Graphics/SVG/1.1/DTD/svg11.dtd"><svg t="1533708446530" class="icon" style="" viewBox="0 0 1024 1024" version="1.1" xmlns="http://www.w3.org/2000/svg" p-id="16880" data-spm-anchor-id="a313x.7781069.0.i32" xmlns:xlink="http://www.w3.org/1999/xlink" width="64" height="64"><defs><style type="text/css"></style></defs><path d="M223.991 395.658l-37.154-44.537c-2.114-2.534-1.77-6.337 0.764-8.451 2.534-2.114 6.337-1.77 8.451 0.764l37.154 44.537c2.114 2.534 1.77 6.337-0.764 8.451-2.534 2.114-6.337 1.77-8.451-0.764zM279.628 496.324l-25.981-51.855c-1.478-2.95-0.274-6.574 2.677-8.052 2.95-1.478 6.574-0.274 8.052 2.677l25.981 51.855c1.478 2.95 0.274 6.574-2.677 8.052-2.95 1.478-6.573 0.273-8.052-2.677zM799.811 270.228l-17.07 12.872c-2.635 1.987-6.416 1.457-8.403-1.178s-1.457-6.416 1.178-8.403l17.071-12.872c2.635-1.987 6.416-1.457 8.403 1.178 1.986 2.635 1.456 6.416-1.179 8.403z" fill="#FFFFFF" p-id="16881"></path><path d="M244 416.5m-6.5 0a6.5 6.5 0 1 0 13 0 6.5 6.5 0 1 0-13 0Z" fill="#FFFFFF" p-id="16882"></path><path d="M508.763 245.961m-6.5 0a6.5 6.5 0 1 0 13 0 6.5 6.5 0 1 0-13 0Z" fill="#FFFFFF" p-id="16883"></path><path d="M927.995 445.667c-7.678 0-15.355-2.929-21.213-8.787-53.267-53.267-115.542-94.576-185.095-122.78-67.016-27.176-137.738-40.956-210.204-40.957-72.459 0-143.181 13.78-210.201 40.957-69.552 28.205-131.827 69.514-185.093 122.78-11.716 11.716-30.711 11.716-42.427 0-11.715-11.716-11.715-30.711 0-42.427 58.976-58.975 127.938-104.717 204.972-135.956 74.216-30.094 152.523-45.354 232.749-45.354 80.231 0.001 158.54 15.261 232.75 45.355 77.035 31.238 145.999 76.98 204.974 135.956 11.716 11.716 11.716 30.711 0 42.427-5.856 5.857-13.534 8.786-21.212 8.786z" fill="#e6e6e6" p-id="16884" data-spm-anchor-id="a313x.7781069.0.i33" class="selected"></path><path d="M218.083 568.773c-7.678 0-15.355-2.929-21.213-8.787-11.716-11.716-11.716-30.71 0-42.426 42.41-42.411 91.966-75.29 147.29-97.725 53.334-21.627 109.631-32.594 167.326-32.594 57.696 0 113.993 10.967 167.326 32.594 55.324 22.435 104.88 55.314 147.291 97.725 11.716 11.715 11.716 30.71 0 42.426-11.715 11.717-30.711 11.717-42.426 0-36.702-36.701-79.57-65.148-127.412-84.548-46.138-18.709-94.849-28.196-144.779-28.196-49.93 0-98.641 9.487-144.779 28.197-47.842 19.401-90.709 47.847-127.411 84.548-5.858 5.858-13.535 8.786-21.213 8.786z" fill="#e6e6e6" p-id="16885" data-spm-anchor-id="a313x.7781069.0.i31" class="selected"></path><path d="M681.782 691.879c-7.678 0-15.355-2.929-21.213-8.787-82.205-82.203-215.962-82.203-298.167 0-11.715 11.717-30.71 11.715-42.426 0-11.716-11.716-11.715-30.711 0-42.426 51.155-51.154 119.167-79.326 191.51-79.326 72.343 0 140.356 28.172 191.509 79.326 11.716 11.716 11.716 30.71 0 42.426-5.857 5.858-13.535 8.787-21.213 8.787z" fill="#e6e6e6" p-id="16886" data-spm-anchor-id="a313x.7781069.0.i30" class="selected"></path><path d="M511.292 805.538m-75.123 0a75.123 75.123 0 1 0 150.246 0 75.123 75.123 0 1 0-150.246 0Z" fill="#1296db" p-id="16887" data-spm-anchor-id="a313x.7781069.0.i29" class=""></path></svg>
