<?xml version="1.0" standalone="no"?><!DOCTYPE svg PUBLIC "-//W3C//DTD SVG 1.1//EN" "http://www.w3.org/Graphics/SVG/1.1/DTD/svg11.dtd"><svg t="1709283827011" class="icon" viewBox="0 0 1024 1024" version="1.1" xmlns="http://www.w3.org/2000/svg" p-id="7119" xmlns:xlink="http://www.w3.org/1999/xlink" width="200" height="200"><path d="M974.358 198.21c-10.596-11.308-26.09-17.096-45.902-17.096a38.422 38.422 0 0 0-38.422 38.467c0 10.285 4.764 19.901 13.223 27.381 1.736 8.815 4.274 23.864 6.99 46.525V871.29c0 4.63-0.89 9.083-2.627 13.223L374.83 669.206l131.16-184.542a1235.39 1235.39 0 0 0 92.339 88.464l25.199 21.237 23.775-20.836 4.363-3.829a1204.313 1204.313 0 0 0 101.732-103.958c35.706-41.494 62.998-80.006 81.297-114.822 19.411-36.908 29.34-70.878 29.34-100.797 0-66.47-25.378-128.98-71.503-176.083A240.863 240.863 0 0 0 618.986 0.712 241.04 241.04 0 0 0 445.44 74.04a249.99 249.99 0 0 0-71.502 176.083c0 49.241 26.268 106.585 80.273 174.748L301.635 639.688 83.656 551.713V291.795c0-18.61 14.47-33.836 32.368-33.836h179.645a38.422 38.422 0 1 0 0-76.845H115.935c-60.194 0-109.257 49.687-109.257 110.681v579.406c0 60.995 48.93 110.637 109.212 110.637h761.945c33.881 0 64.245-15.672 84.235-40.381l7.524-10.285c10.997-17.319 17.497-37.932 17.497-60.104V291.795c0-8.503 0.58-17.007 1.069-25.11 1.647-24.665 3.473-50.042-13.802-68.474z m-523.575 51.913c0-95.187 75.464-172.566 168.203-172.566s168.158 77.379 168.158 172.566c0 34.282-27.425 86.64-77.067 147.545a1062.957 1062.957 0 0 1-87.708 94.164 1154.449 1154.449 0 0 1-76.354-77.067c-82.81-92.74-95.277-143.004-95.277-164.642zM113.219 904.86A33.213 33.213 0 0 1 83.656 871.2V634.524l172.255 69.587L113.219 904.86z m94.119 0.089l121.678-171.32 424.292 171.32h-545.97z" p-id="7120" fill="#1296db"></path><path d="M696.32 245.76c0-45.145-36.775-81.92-81.92-81.92s-81.92 36.775-81.92 81.92 36.775 81.92 81.92 81.92 81.92-36.775 81.92-81.92z" p-id="7121" fill="#1296db"></path></svg>