<?xml version="1.0" standalone="no"?><!DOCTYPE svg PUBLIC "-//W3C//DTD SVG 1.1//EN" "http://www.w3.org/Graphics/SVG/1.1/DTD/svg11.dtd"><svg t="1652765454059" class="icon" viewBox="0 0 1024 1024" version="1.1" xmlns="http://www.w3.org/2000/svg" p-id="35098" xmlns:xlink="http://www.w3.org/1999/xlink" width="200" height="200"><defs><style type="text/css">@font-face { font-family: feedback-iconfont; src: url("//at.alicdn.com/t/font_1031158_u69w8yhxdu.woff2?t=1630033759944") format("woff2"), url("//at.alicdn.com/t/font_1031158_u69w8yhxdu.woff?t=1630033759944") format("woff"), url("//at.alicdn.com/t/font_1031158_u69w8yhxdu.ttf?t=1630033759944") format("truetype"); }
</style></defs><path d="M512.0992925 107.7857375c-222.52976438 0-402.91818188 180.53327812-402.91818188 403.25107594 0 222.71683781 180.38841655 403.24915687 402.91818188 403.24915687 222.55087031 0 402.93928687-180.53231906 402.93928687-403.24915687C915.03857938 288.31901562 734.65112281 107.7857375 512.0992925 107.7857375zM599.72244406 685.16643312c9.57430875 9.53113781 10.52598375 23.99237344 2.17676438 32.32240501-8.37128438 8.3300325-22.93612969 7.35437344-32.50851938-2.15373938l-187.39262812-185.2983675c-5.42895937-5.4088125-7.9971375-12.36985312-7.74962531-18.91933312-0.28972313-6.60799969 2.28037406-13.63235719 7.73043843-19.0814625l187.411815-185.2983675c9.57238969-9.53113781 24.11708906-10.48473094 32.50851938-2.15469938 8.34921938 8.3290725 7.39850343 22.79222719-2.17676438 32.322405L423.54269375 511.03681344 599.72244406 685.16643312z" fill="#1296db" p-id="35099"></path></svg>