<?xml version="1.0" standalone="no"?><!DOCTYPE svg PUBLIC "-//W3C//DTD SVG 1.1//EN" "http://www.w3.org/Graphics/SVG/1.1/DTD/svg11.dtd"><svg t="1583315315012" class="icon" viewBox="0 0 1024 1024" version="1.1" xmlns="http://www.w3.org/2000/svg" p-id="8913" xmlns:xlink="http://www.w3.org/1999/xlink" width="48" height="48"><defs><style type="text/css"></style></defs><path d="M967.04 1016.32a47.36 47.36 0 0 1-32.64-14.08L512 579.84l-422.4 422.4a45.44 45.44 0 0 1-64 0 45.44 45.44 0 0 1 0-64l453.76-456.32a46.08 46.08 0 0 1 64 0l455.04 455.04a45.44 45.44 0 0 1 0 64 46.08 46.08 0 0 1-31.36 15.36z" fill="#1296db" p-id="8914"></path><path d="M56.96 560.64a45.44 45.44 0 0 1-32.64-13.44 45.44 45.44 0 0 1 0-64L479.36 26.88a47.36 47.36 0 0 1 64 0l455.04 455.04a45.44 45.44 0 0 1 0 64 46.08 46.08 0 0 1-64 0L512 128 89.6 547.2a46.72 46.72 0 0 1-32.64 13.44z" fill="#1296db" p-id="8915"></path></svg>