<?xml version="1.0" standalone="no"?><!DOCTYPE svg PUBLIC "-//W3C//DTD SVG 1.1//EN" "http://www.w3.org/Graphics/SVG/1.1/DTD/svg11.dtd"><svg t="1536204851923" class="icon" style="" viewBox="0 0 1024 1024" version="1.1" xmlns="http://www.w3.org/2000/svg" p-id="18039" xmlns:xlink="http://www.w3.org/1999/xlink" width="64" height="64"><defs><style type="text/css"></style></defs><path d="M960.128 659.264a28.8 28.8 0 0 0-28.8 28.8V906.4a31.024 31.024 0 0 1-30.96 30.992H123.632a31.024 31.024 0 0 1-30.96-30.992l0.016-719.44c0-17.056 13.888-30.944 30.96-30.944H298.4a28.8 28.8 0 0 0 0-57.6H123.648a88.64 88.64 0 0 0-88.544 88.544L35.088 906.4a88.64 88.64 0 0 0 88.544 88.576h776.736a88.64 88.64 0 0 0 88.544-88.576V688.064a28.784 28.784 0 0 0-28.784-28.8z" p-id="18040" fill="#1296db"></path><path d="M544.592 156.992h180.96L147.408 716.848a28.8 28.8 0 1 0 40.064 41.376l586.72-568.16v230.064a28.8 28.8 0 0 0 57.6 0V187.952a88.64 88.64 0 0 0-88.528-88.544H544.592a28.8 28.8 0 0 0 0 57.584z" p-id="18041" fill="#1296db"></path></svg>
