<?xml version="1.0" standalone="no"?><!DOCTYPE svg PUBLIC "-//W3C//DTD SVG 1.1//EN" "http://www.w3.org/Graphics/SVG/1.1/DTD/svg11.dtd"><svg t="1528852543245" class="icon" style="" viewBox="0 0 1024 1024" version="1.1" xmlns="http://www.w3.org/2000/svg" p-id="3361" xmlns:xlink="http://www.w3.org/1999/xlink" width="64" height="64"><defs><style type="text/css"></style></defs><path d="M608 32.496h-32v0.048l-416-0.048c-35.264 0-64 29.408-64 64v831.472C96 962.608 124.752 992 160 992h703.328C898.624 992 928 962.608 928 927.984V352.512L608 32.496z m32 96.016l191.984 192H640v-192z m224 767.504c0 11.552-20.256 31.968-32 31.968H192c-11.76 0-32-20.416-32-31.968V128.512c0-11.536 20.24-32 32-32h384v256c0 12.128 19.84 32 32 32h256v511.504z" p-id="3362" fill="#0086CC"></path><path d="M539.408 464.016h-54.848v164.592H320v54.832h164.56v164.576h54.848V683.44H704v-54.832H539.408z" p-id="3363" fill="#0086CC"></path></svg>
