<?xml version="1.0" standalone="no"?><!DOCTYPE svg PUBLIC "-//W3C//DTD SVG 1.1//EN" "http://www.w3.org/Graphics/SVG/1.1/DTD/svg11.dtd"><svg t="1559284625303" class="icon" style="" viewBox="0 0 1024 1024" version="1.1" xmlns="http://www.w3.org/2000/svg" p-id="3384" xmlns:xlink="http://www.w3.org/1999/xlink" width="32" height="32"><defs><style type="text/css"></style></defs><path d="M531.033077 943.569901C281.863496 943.569901 79.150994 740.8574 79.150994 491.687819S281.863496 39.805736 531.033077 39.805736 982.915159 242.518237 982.915159 491.687819 780.202658 943.569901 531.033077 943.569901zM531.033077 73.983412c-230.341161 0-417.704407 187.363246-417.704407 417.704407s187.363246 417.704407 417.704407 417.704407 417.704407-187.363246 417.704407-417.704407S761.374238 73.983412 531.033077 73.983412z" p-id="3385" fill="#1296db"></path><path d="M726.002998 516.798241c-3.017887-9.753173-9.633257-15.149395-15.988808-21.524933-8.773858-8.773858-17.527731-17.547717-26.301589-26.341561-34.415909-34.455881-42.350355-42.350355-76.746278-76.806236-26.541421-26.621365-26.601379-26.681323-53.1428-53.302688-4.097132-4.097132-8.194264-8.21425-12.311382-12.311382-7.574698-7.594684-14.030179-14.170081-29.339462-14.170081-0.259818 0-0.519636 0-0.779454 0-35.974818 6.415509-71.949635 12.831018-107.904467 19.246527-21.964625 4.75667-36.554412 2.977915-46.807235 20.38573-3.177776 5.396223-3.537524 12.631158-5.096432 19.826122-2.458279 13.790347-4.896572 27.560708-7.354852 41.331068-3.637454 20.425702-7.254922 40.87139-10.892375 61.297092-1.958629 9.093634-5.436195 21.2851-2.398321 31.278105 3.15779 10.412711 10.492655 16.168682 17.247926 22.943939 10.172879 10.192865 20.365744 20.38573 30.538623 30.578595 39.552313 39.592285 52.623164 52.64315 92.175477 92.235435 22.903967 22.983911 19.346457 19.426402 42.250425 42.390327 6.835215 6.835215 15.449186 16.72829 29.139602 16.72829 2.258419 0 4.65674-0.279804 7.21495-0.859398 11.072249-2.598181 18.626961-9.973019 24.74268-17.547717 7.21495-7.21495 14.429899-14.429899 21.644849-21.664835 33.416608-33.45658 66.853203-66.913161 100.269811-100.369741 5.236335-5.236335 10.472669-10.472669 15.689018-15.709004 5.016488-5.016488 10.292795-9.533327 13.150794-16.708304C727.082242 532.567203 727.921655 522.993904 726.002998 516.798241zM698.162486 529.889078c-0.939342 2.378335-3.017887 4.476866-6.575397 7.974418-0.659538 0.639552-1.339063 1.299091-2.018587 1.998601-4.95653 4.95653-9.893075 9.893075-14.829619 14.849605-31.577895 31.617867-63.155791 63.235735-94.753672 94.833616l-10.032977 10.052963-10.412711 10.412711-0.659538 0.639552-0.579594 0.719496c-5.196363 6.455481-9.233537 9.533327-13.910263 10.632557-1.039273 0.239832-1.998601 0.359748-2.897971 0.359748-4.436894 0-8.174278-3.45758-13.790347-9.153592-0.539622-0.539622-1.059259-1.079245-1.558909-1.578895-10.812431-10.852403-15.389228-15.4292-19.946038-20.025982-4.576796-4.576796-9.133606-9.173578-19.98601-20.045968-18.706905-18.726891-31.138203-31.158189-43.589487-43.609473-12.411312-12.431298-24.84261-24.84261-43.509543-43.529529-9.613271-9.633257-19.246527-19.266513-28.859798-28.89977-1.079245-1.079245-2.138503-2.098531-3.15779-3.097832-4.996502-4.816628-7.654642-7.534726-8.833816-11.392026-1.199161-3.937244 0.579594-11.77176 1.878685-17.507745 0.259818-1.119217 0.519636-2.258419 0.759468-3.377636l0.059958-0.29979 0.059958-0.319776c3.437594-19.306485 6.855201-38.612971 10.292795-57.919456l3.137804-17.587689 3.75737-21.165184c0.459678-2.138503 0.79944-4.217048 1.119217-6.055761 0.419706-2.458279 1.039273-6.175677 1.618867-7.21495 3.297692-5.576097 6.035775-6.435495 19.966024-8.753872 3.797342-0.619566 8.094334-1.339063 12.751074-2.338363l50.664535-9.033676 49.465374-8.833816c6.595383 0.139902 8.573998 2.118517 14.629759 8.174278l0.139902 0.139902 11.611872 11.631858c13.550515 13.590487 19.806136 19.866094 26.641351 26.721295 5.815929 5.835915 12.051564 12.091536 23.563506 23.64345 15.888878 15.888878 25.781953 25.801939 35.555111 35.575097 10.232837 10.232837 20.325772 20.325772 36.954132 36.974118l8.294194 8.294194c5.516139 5.536125 11.052263 11.052263 16.568402 16.588388 0.879384 0.879384 1.738783 1.718797 2.558209 2.518237 4.65674 4.536824 7.135005 7.075047 8.254222 10.692515C699.141801 523.31368 698.861997 528.050365 698.162486 529.889078zM457.910663 388.048366c-28.460078 0-51.543919 23.123813-51.543919 51.663835 0 28.540022 23.083841 51.663835 51.543919 51.663835 28.460078 0 51.543919-23.123813 51.543919-51.663835C509.454582 411.172179 486.37074 388.048366 457.910663 388.048366zM457.910663 461.496952c-11.991606 0-21.724793-9.773159-21.724793-21.784751 0-12.011592 9.753173-21.784751 21.724793-21.784751 11.991606 0 21.724793 9.773159 21.724793 21.784751C479.635455 451.723793 469.882282 461.496952 457.910663 461.496952z" p-id="3386" fill="#1296db"></path></svg>