<?xml version="1.0" standalone="no"?><!DOCTYPE svg PUBLIC "-//W3C//DTD SVG 1.1//EN" "http://www.w3.org/Graphics/SVG/1.1/DTD/svg11.dtd"><svg t="1555406173960" class="icon" style="" viewBox="0 0 1024 1024" version="1.1" xmlns="http://www.w3.org/2000/svg" p-id="4370" xmlns:xlink="http://www.w3.org/1999/xlink" width="32" height="32"><defs><style type="text/css"></style></defs><path d="M874.24 604.49792c22.29248-2.14016 42.97728-11.73504 59.2384-27.56608l0 282.50112c0 48.85504-39.76192 88.59648-88.6272 88.59648l-634.9824 0c-48.87552 0-88.63744-39.74144-88.63744-88.59648L121.23136 225.1264c0-48.85504 39.76192-88.60672 88.63744-88.60672l283.26912 0c-15.24736 15.64672-25.38496 36.29056-27.60704 59.22816L209.85856 195.74784c-16.20992 0-29.39904 13.17888-29.39904 29.37856l0 634.29632c0 16.18944 13.18912 29.36832 29.39904 29.36832l634.9824 0c16.20992 0 29.39904-13.17888 29.39904-29.36832L874.24 604.49792zM890.15296 130.44736 589.2608 130.44736c-24.53504 0-44.42112 19.88608-44.42112 44.43136 0 24.53504 19.88608 44.42112 44.42112 44.42112l191.21152 0c-1.8432 1.34144-3.6864 2.70336-5.34528 4.37248L461.6704 537.10848l0-193.6384c0-24.53504-19.88608-44.42112-44.42112-44.42112-12.26752 0-23.37792 4.95616-31.41632 13.0048-8.0384 8.05888-13.01504 19.13856-13.01504 31.41632l0 300.9024c0 24.5248 19.88608 44.42112 44.42112 44.42112L718.1312 688.7936c24.53504 0 44.42112-19.89632 44.42112-44.4416 0-24.5248-19.88608-44.42112-44.42112-44.42112L526.94016 599.93088c1.8432-1.34144 3.67616-2.70336 5.33504-4.36224l313.43616-313.4464 0 193.64864c0 24.53504 19.88608 44.42112 44.42112 44.42112 12.26752 0 23.37792-4.95616 31.41632-13.0048 8.0384-8.05888 13.01504-19.1488 13.01504-31.41632L934.56384 174.86848C934.57408 150.34368 914.67776 130.44736 890.15296 130.44736z" p-id="4371" fill="#1296db"></path></svg>