<svg width="640" height="480" xmlns="http://www.w3.org/2000/svg">
 <!-- Created with Method Draw - http://github.com/duopixel/Method-Draw/ -->

 <g>
  <title>background</title>
  <rect fill="none" id="canvas_background" height="482" width="642" y="-1" x="-1"/>
  <g display="none" overflow="visible" y="0" x="0" height="100%" width="100%" id="canvasGrid">
  </g>
 </g>
 <g>
  <title>Layer 1</title>
  <path stroke="#000" id="svg_5" d="m211.817481,463.032789c-25.823089,-23.009755 54.457068,-34.809079 33.695432,-56.224135c-33.109951,-13.699308 -82.714582,-10.499165 -123.979976,-9.453389c-44.572962,-2.534169 -57.62445,18.534756 -83.320588,27.289553c-50.669616,-7.301191 -32.548416,-37.609905 13.660396,-40.970766c60.428913,-12.066682 127.143074,-5.130132 189.909764,-10.47742c45.423541,-12.204777 -10.709874,-38.414548 -46.379785,-41.199783c-59.033627,-11.001727 -131.94292,-11.294434 -177.056651,-34.470408c-17.938997,-18.054403 -13.285867,-51.092584 35.083289,-57.416696c21.921471,-17.114837 17.338623,-39.155213 11.576486,-58.158078c4.918677,-20.207558 -92.275263,-8.371917 -51.493346,-29.088653c36.776948,-13.006104 84.195008,-20.97845 130.651883,-20.660123c37.903301,0.578863 40.487345,20.710581 -1.300194,15.780833c-42.504083,9.853806 -26.679783,38.041936 -25.055785,56.065123c20.508217,18.164248 76.184208,8.557458 112.2943,11.277599c51.369539,0.63699 75.106092,0.70886 123.823033,8.347668c49.272395,-1.681379 29.86579,-32.868344 0.590146,-35.027972c-45.031043,-4.578834 -89.545816,-16.349237 -114.729866,-34.482572c-14.070862,-21.149452 5.869151,-43.437386 16.50235,-64.05923c31.727243,-44.776779 117.940613,-86.999651 225.761498,-87.109432c66.185003,0.459675 134.265183,23.091414 145.57861,53.932853c8.59065,32.428469 -19.254982,65.464163 -1.105897,97.434312c44.068061,11.22824 -30.069727,28.352563 -31.662973,43.849999c-18.793273,22.538745 24.097986,48.712836 -12.626579,69.026301c-22.977749,14.956771 -76.572317,23.218764 -77.513876,43.124208c-13.19423,17.922796 -74.189308,16.575655 -104.66107,28.249334c-33.674976,4.572967 -52.116145,30.573698 -0.540734,25.399404c50.281196,-0.572215 100.32777,-9.275198 150.486265,-5.289942c35.912341,11.320309 -1.557447,33.83066 -37.702785,23.188234c-18.8818,0.133648 -88.591231,4.469627 -64.846869,13.855052c59.394507,6.400987 123.797255,14.683849 162.260019,38.318557c36.046064,22.174088 -44.013466,27.469163 -59.948752,7.974849c-66.662918,-25.115752 -166.913633,-38.659938 -245.234584,-16.716031c-47.378323,9.141311 -36.403974,32.745601 -41.402435,50.315346c-19.280103,9.716284 -45.840122,-4.029513 -51.31066,-12.624628l-0.000069,0.000032zm346.439954,-245.507002c-15.978444,-13.781429 -95.687632,-27.370573 -106.5285,-7.523655c6.086357,20.224489 67.801503,25.013607 100.738685,16.756525c5.996724,-2.105279 8.478177,-5.970423 5.789781,-9.23287l0.000035,0z" stroke-opacity="null" stroke-width="1.5" fill="#1296db"/>
 </g>
</svg>