<?xml version="1.0" standalone="no"?><!DOCTYPE svg PUBLIC "-//W3C//DTD SVG 1.1//EN" "http://www.w3.org/Graphics/SVG/1.1/DTD/svg11.dtd"><svg t="1555473572699" class="icon" style="" viewBox="0 0 1024 1024" version="1.1" xmlns="http://www.w3.org/2000/svg" p-id="7758" xmlns:xlink="http://www.w3.org/1999/xlink" width="32" height="32"><defs><style type="text/css"></style></defs><path d="M785.829647 637.409882H897.505882c19.937882 0 36.141176 15.962353 36.141177 35.71953v223.472941a35.900235 35.900235 0 0 1-36.141177 35.779765H614.4a35.900235 35.900235 0 0 1-36.141176-35.71953v-223.533176c0-19.757176 16.263529-35.719529 36.141176-35.71953h111.736471V530.853647H302.381176v106.556235h111.676236c19.937882 0 36.141176 15.962353 36.141176 35.71953v223.472941a35.900235 35.900235 0 0 1-36.141176 35.779765h-283.105883a35.900235 35.900235 0 0 1-36.141176-35.71953v-223.533176c0-19.757176 16.263529-35.719529 36.141176-35.71953h111.676236V507.482353c0-19.696941 16.263529-35.719529 36.141176-35.719529H487.303529v-106.616471H346.955294a35.900235 35.900235 0 0 1-36.141176-35.659294V124.807529c0-19.757176 16.203294-35.719529 36.141176-35.719529h340.329412c19.877647 0 36.141176 15.962353 36.141176 35.719529V329.487059a35.900235 35.900235 0 0 1-36.141176 35.719529H546.936471v106.616471h202.752c19.998118 0 36.141176 15.962353 36.141176 35.659294v129.927529zM364.544 312.018824h305.152V142.155294H364.544v169.86353z m31.924706 378.458352H148.540235v188.717177h247.928471v-188.717177z m483.44847 0H631.988706v188.717177h247.92847v-188.717177z" p-id="7759" fill="#1296db"></path></svg>