<?xml version="1.0" standalone="no"?><!DOCTYPE svg PUBLIC "-//W3C//DTD SVG 1.1//EN" "http://www.w3.org/Graphics/SVG/1.1/DTD/svg11.dtd"><svg t="1629374316292" class="icon" viewBox="0 0 1024 1024" version="1.1" xmlns="http://www.w3.org/2000/svg" p-id="2205" xmlns:xlink="http://www.w3.org/1999/xlink" width="48" height="48"><defs><style type="text/css"></style></defs><path d="M306.89 142.8H717.1c90.62 0.22 163.9 73.87 163.68 164.49-0.22 90.31-73.38 163.46-163.68 163.68H306.89c-90.62-0.22-163.9-73.87-163.68-164.49 0.22-90.3 73.38-163.45 163.68-163.68z m0 246.13c45.31 0 82.04-36.73 82.04-82.04s-36.73-82.04-82.04-82.04-82.04 36.73-82.04 82.04 36.73 82.04 82.04 82.04z" fill="#1296db" p-id="2206"></path><path d="M306.89 553.02H717.1c90.62 0.22 163.9 73.87 163.68 164.49-0.22 90.31-73.38 163.46-163.68 163.68H306.89c-90.62-0.22-163.9-73.87-163.68-164.49 0.22-90.3 73.38-163.45 163.68-163.68zM717.1 799.15c45.31 0 82.04-36.73 82.04-82.04 0-45.31-36.73-82.04-82.04-82.04s-82.04 36.73-82.04 82.04c0 45.31 36.73 82.04 82.04 82.04z" fill="#1296db" opacity=".3" p-id="2207"></path></svg>