<?xml version="1.0" standalone="no"?><!DOCTYPE svg PUBLIC "-//W3C//DTD SVG 1.1//EN" "http://www.w3.org/Graphics/SVG/1.1/DTD/svg11.dtd"><svg t="1633766525949" class="icon" viewBox="0 0 1024 1024" version="1.1" xmlns="http://www.w3.org/2000/svg" p-id="4078" xmlns:xlink="http://www.w3.org/1999/xlink" width="48" height="48"><defs><style type="text/css"></style></defs><path d="M757.333333 597.333333a95.594667 95.594667 0 0 1 96 96v38.4a163.264 163.264 0 0 1-55.466666 121.6c-66.133333 57.6-162.133333 85.333333-285.866667 85.333334s-219.733333-27.733333-285.866667-85.333334A163.264 163.264 0 0 1 170.666667 731.733333v-38.4a95.594667 95.594667 0 0 1 96-96z m0 64h-490.666666a32.810667 32.810667 0 0 0-32 32v38.4a94.293333 94.293333 0 0 0 34.133333 72.533334Q348.8 874.666667 512 874.666667t243.2-70.4a97.685333 97.685333 0 0 0 34.133333-72.533334v-38.4a32.810667 32.810667 0 0 0-32-32zM507.733333 85.333333h4.266667a32.298667 32.298667 0 0 1 32 27.733334V149.333333h149.333333a95.594667 95.594667 0 0 1 96 96v192a95.594667 95.594667 0 0 1-96 96h-362.666666a95.594667 95.594667 0 0 1-96-96v-192A95.594667 95.594667 0 0 1 330.666667 149.333333h149.333333V117.333333A30.613333 30.613333 0 0 1 507.733333 85.333333z m185.6 128h-362.666666a32.810667 32.810667 0 0 0-32 32v192a32.810667 32.810667 0 0 0 32 32h362.666666a32.810667 32.810667 0 0 0 32-32v-192a32.810667 32.810667 0 0 0-32-32z" p-id="4079" fill="#1296db"></path><path d="M512 945.066667c-125.866667 0-221.866667-29.866667-290.133333-87.466667a166.869333 166.869333 0 0 1-57.6-125.866667v-38.4a103.829333 103.829333 0 0 1 102.4-102.4h497.066666a102.698667 102.698667 0 0 1 96 102.4v38.4a166.869333 166.869333 0 0 1-57.6 125.866667c-68.266667 57.6-164.266667 87.466667-290.133333 87.466667z m-245.333333-341.333334a90.133333 90.133333 0 0 0-89.6 89.6v38.4a155.733333 155.733333 0 0 0 53.333333 117.333334c64 55.466667 160 83.2 281.6 83.2s217.6-27.733333 281.6-83.2a155.733333 155.733333 0 0 0 53.333333-117.333334v-38.4a90.133333 90.133333 0 0 0-89.6-89.6z m245.333333 277.333334c-108.8 0-192-23.466667-247.466667-70.4a98.133333 98.133333 0 0 1-36.266666-76.8v-38.4a38.250667 38.250667 0 0 1 38.4-38.4h490.666666a38.250667 38.250667 0 0 1 38.4 38.4v38.4a98.133333 98.133333 0 0 1-36.266666 76.8c-55.466667 46.933333-138.666667 70.4-247.466667 70.4z m-245.333333-213.333334a24.64 24.64 0 0 0-25.6 25.6v38.4a86.890667 86.890667 0 0 0 32 68.266667c53.333333 44.8 134.4 68.266667 238.933333 68.266667 106.666667 0 187.733333-23.466667 238.933333-68.266667a94.144 94.144 0 0 0 32-68.266667v-38.4a24.64 24.64 0 0 0-25.6-25.6z m426.666666-128h-362.666666a103.829333 103.829333 0 0 1-102.4-102.4v-192a103.829333 103.829333 0 0 1 102.4-102.4h142.933333V117.333333a39.061333 39.061333 0 0 1 34.133333-38.4h4.266667a39.061333 39.061333 0 0 1 38.4 34.133334v29.866666h142.933333a103.829333 103.829333 0 0 1 102.4 102.4v192a102.4 102.4 0 0 1-102.4 102.4z m-362.666666-384a90.133333 90.133333 0 0 0-89.6 89.6v192a90.133333 90.133333 0 0 0 89.6 89.6h362.666666a90.133333 90.133333 0 0 0 89.6-89.6v-192a90.133333 90.133333 0 0 0-89.6-89.6h-155.733333v-42.666666a25.344 25.344 0 0 0-25.6-21.333334h-4.266667a25.344 25.344 0 0 0-21.333333 25.6v38.4h-155.733333z m362.666666 320h-362.666666a38.250667 38.250667 0 0 1-38.4-38.4v-192a38.250667 38.250667 0 0 1 38.4-38.4h362.666666a38.250667 38.250667 0 0 1 38.4 38.4v192a38.250667 38.250667 0 0 1-38.4 38.4z m-362.666666-256a24.64 24.64 0 0 0-25.6 25.6v192a24.64 24.64 0 0 0 25.6 25.6h362.666666a24.64 24.64 0 0 0 25.6-25.6v-192a24.64 24.64 0 0 0-25.6-25.6z" p-id="4080" fill="#1296db"></path><path d="M416 285.866667a54.250667 54.250667 0 0 1 55.466667 51.2 52.8 52.8 0 0 1-51.2 55.466666 54.250667 54.250667 0 0 1-55.466667-51.2v-2.133333a51.050667 51.050667 0 0 1 51.2-53.333333z m192 0a54.250667 54.250667 0 0 1 55.466667 51.2 52.8 52.8 0 0 1-51.2 55.466666 54.250667 54.250667 0 0 1-55.466667-51.2v-2.133333a49.834667 49.834667 0 0 1 51.2-53.333333z" p-id="4081" fill="#1296db"></path></svg>