<?xml version="1.0" standalone="no"?><!DOCTYPE svg PUBLIC "-//W3C//DTD SVG 1.1//EN" "http://www.w3.org/Graphics/SVG/1.1/DTD/svg11.dtd"><svg t="1712054549596" class="icon" viewBox="0 0 1024 1024" version="1.1" xmlns="http://www.w3.org/2000/svg" p-id="4467" xmlns:xlink="http://www.w3.org/1999/xlink" width="64" height="64"><path d="M853.333333 256h-85.333333l-59.733333-89.6c-17.066667-25.6-42.666667-38.4-72.533334-38.4H388.266667c-29.866667 0-55.466667 12.8-72.533334 38.4L256 256H170.666667c-46.933333 0-85.333333 38.4-85.333334 85.333333v469.333334c0 46.933333 38.4 85.333333 85.333334 85.333333h682.666666c46.933333 0 85.333333-38.4 85.333334-85.333333V341.333333c0-46.933333-38.4-85.333333-85.333334-85.333333z m0 554.666667H170.666667V341.333333h132.266666l25.6-38.4L388.266667 213.333333H640l59.733333 89.6 21.333334 38.4H853.333333v469.333334z" fill="#1296db" p-id="4468"></path><path d="M520.533333 512l34.133334-166.4c0-4.266667-4.266667-4.266667-8.533334-4.266667l-200.533333 247.466667c-4.266667 4.266667 0 8.533333 4.266667 8.533333h153.6l-34.133334 162.133334c0 4.266667 4.266667 8.533333 8.533334 4.266666l200.533333-243.2c4.266667-4.266667 0-8.533333-4.266667-8.533333h-153.6z" fill="#1296db" p-id="4469"></path></svg>