<?xml version="1.0" standalone="no"?><!DOCTYPE svg PUBLIC "-//W3C//DTD SVG 1.1//EN" "http://www.w3.org/Graphics/SVG/1.1/DTD/svg11.dtd"><svg t="1524640895238" class="icon" style="" viewBox="0 0 1025 1024" version="1.1" xmlns="http://www.w3.org/2000/svg" p-id="36617" xmlns:xlink="http://www.w3.org/1999/xlink" width="64" height="64"><defs><style type="text/css"></style></defs><path d="M512.026875 0C229.23903 0 0 229.23903 0 512.026875c0 282.744095 229.23903 511.973125 512.026875 511.973125 282.779095 0 512.003125-229.22903 512.003125-511.973125C1024.03 229.23903 794.80597 0 512.026875 0zM841.758528 610.523245c-6.073757 13.932517-14.556268 26.391282-25.210031 37.041295-10.668763 10.668763-23.266278 19.160023-37.456296 25.243781-14.282517 6.123757-29.531286 9.223761-45.317555 9.223761-14.815018 0-28.975035-2.733753-42.075051-8.13001-4.648756-1.913752-9.136261-4.057505-13.452516-6.421258l0 61.201325c0 15.737519-5.620007 29.341286-16.70877 40.435049-11.093764 11.093764-24.69753 16.71377-40.435049 16.71377L284.444097 785.830959c-15.673769 0-29.356286-5.586257-40.66005-16.59002-11.396264-11.110014-17.172521-24.75253-17.172521-40.55755l0-77.295094 0.34625-1.460002c2.965004-12.436265 8.657511-21.967527 16.928771-28.330035 4.571256-3.516254 10.171262-5.375007 16.19127-5.375007 7.266259 0 15.127518 2.591253 24.033779 7.92376 5.801257 3.380004 7.87626 3.852505 7.95876 3.872505l1.890002 0.3175 1.650002 0.845001c9.995012 4.995006 20.253775 7.528759 30.488787 7.528759 10.507513 0 20.430025-1.957502 29.487536-5.810007 9.130011-3.886255 17.197521-9.292511 23.973779-16.06502 6.792508-6.791258 12.207515-14.770018 16.09877-23.720029 3.828755-8.810011 5.767507-18.585023 5.767507-29.057535 0-10.503763-1.953752-20.425025-5.811257-29.482536-3.886255-9.137511-9.287511-17.203771-16.05877-23.975029-6.772508-6.772508-14.835018-12.172515-23.970029-16.06002-9.057511-3.852505-18.980023-5.810007-29.487536-5.810007-10.000012 0-19.990024 2.162503-29.687536 6.430008l-1.103751 0.425001c-2.685003 0.898751-4.282505 1.601252-5.151256 2.036252-5.658757 2.832503-11.270014 5.453757-16.67502 7.80751-7.270009 3.160004-14.175017 4.410005-20.483775 3.711255-5.512507-0.610001-13.348766-3.266254-19.462524-12.431265-4.131255-6.196258-6.327508-14.761268-6.908758-26.958783l-0.015-0.610001 0-71.698838c0-15.742519 5.737507-29.463786 17.056271-40.7813 11.317514-11.313764 25.038781-17.051271 40.7763-17.051271l83.095101 0c-2.182503-4.203755-4.145005-8.54501-5.873757-13.017516-4.877506-12.573765-7.353759-26.191282-7.353759-40.458799 0-16.72877 3.237504-32.58379 9.615012-47.125058 6.298758-14.370018 14.892518-27.055033 25.536281-37.700046 10.645013-10.643763 23.325028-19.237523 37.700046-25.541281 14.541268-6.377508 30.161287-9.610012 46.436307-9.610012 16.27377 0 31.898789 3.232504 46.440057 9.610012 14.375018 6.303758 27.060033 14.897518 37.705046 25.541281 10.645013 10.650013 19.238773 23.335028 25.537531 37.705046 6.377508 14.531268 9.608762 30.386287 9.608762 47.120058 0 19.501274-4.246255 37.402546-12.665015 53.476315l40.8788 0c15.806269 0 29.448786 5.776257 40.5513 17.167521 11.011263 11.303764 16.59127 24.986281 16.59127 40.66505l0 66.665081c4.316255-2.368753 8.803761-4.512506 13.452516-6.421258 13.105016-5.400007 27.261283-8.13501 42.080051-8.13501 15.781269 0 31.025038 3.105004 45.312555 9.223761 14.190017 6.083757 26.792533 14.575018 37.456296 25.243781 10.673763 10.668763 19.165023 23.271278 25.243781 37.461296 6.122507 14.288767 9.223761 29.531286 9.223761 45.312555C851.017289 581.061959 847.906035 596.445728 841.758528 610.523245z" p-id="36618" fill="#0086CC"></path><path d="M252.134058 654.468299l0 74.213841c0 8.906261 3.007504 15.98127 9.462512 22.276277 6.460008 6.287508 13.931267 9.348761 22.847528 9.348761l336.660411 0c8.847511 0 16.17252-3.022504 22.387527-9.238761 6.211258-6.216258 9.233761-13.540017 9.233761-22.387527l0-112.958888L673.750822 633.599523c8.04251 6.837508 17.348771 12.456265 27.666284 16.70377 10.005012 4.121255 20.893776 6.211258 32.35879 6.211258 12.310015 0 24.17003-2.412503 35.263793-7.162509 11.186264-4.798756 21.098776-11.468764 29.462536-19.833774 8.38376-8.38376 15.068768-18.207522 19.863774-29.198786 4.731256-10.840013 7.128759-22.791278 7.128759-35.527543 0-12.305015-2.412503-24.17003-7.162509-35.263793-4.795006-11.186264-11.465014-21.098776-19.828774-29.462536-8.36376-8.36501-18.276272-15.035018-29.462536-19.828774-11.093764-4.751256-22.953778-7.163759-35.263793-7.163759-11.465014 0-22.353777 2.090003-32.35879 6.211258-10.317513 4.247505-19.623774 9.867512-27.666284 16.69877l-21.025026 17.876272 0-118.417645c0-8.916261-3.056254-16.39252-9.350011-22.852528-6.288758-6.450008-13.368766-9.457512-22.270027-9.457512l-92.543863 0 17.958772-21.045026c14.028767-16.43127 20.845025-35.391293 20.845025-57.953821 0-13.178766-2.510003-25.586281-7.461259-36.870045-5.020006-11.451264-11.821264-21.513776-20.210025-29.907537-8.38876-8.38876-18.452523-15.191269-29.907537-20.215025-11.288764-4.951256-23.466279-7.461259-36.191294-7.461259s-24.89753 2.510003-36.181294 7.461259c-11.455014 5.023756-21.518776 11.826264-29.907537 20.215025-8.38876 8.39376-15.190019 18.452523-20.215025 29.907537-4.951256 11.288764-7.461259 23.691279-7.461259 36.870045 0 11.103764 1.895002 21.611276 5.625007 31.235038 3.833755 9.882512 9.038761 18.980023 15.478769 27.036283l16.58252 20.732525L284.444097 363.136693c-8.852511 0-16.28502 3.130004-22.735028 9.575012-6.440008 6.445008-9.575012 13.881267-9.575012 22.730028l0 71.386337c0.512501 10.063762 2.285003 13.193766 2.636253 13.721267 0.665001 1.000001 1.085001 1.253752 1.090001 1.253752 0.14625 0 0.385 0.01 0.625001 0.01 1.240002 0 3.427504-0.3125 6.821258-1.786252 4.990006-2.168753 10.180012-4.600006 15.428769-7.222509 2.231253-1.117501 4.833756-2.182503 7.93501-3.237504 12.792516-5.546257 26.055032-8.35376 39.428798-8.35376 13.965017 0 27.246283 2.636253 39.482548 7.84626 12.148765 5.166256 22.925028 12.402515 32.021289 21.493776 9.096261 9.097511 16.32877 19.873774 21.498776 32.031289 5.210006 12.236265 7.84751 25.517531 7.84751 39.482548 0 13.988767-2.651253 27.187533-7.88626 39.228798-5.171256 11.895015-12.392515 22.526277-21.455026 31.592539-9.101261 9.095011-19.877524 16.32752-32.031289 21.497526-12.231265 5.210006-25.517531 7.84626-39.477548 7.84626-13.721267 0-27.320033-3.197504-40.440049-9.505012-3.940005-1.012501-8.52001-3.097504-14.477518-6.568758l-0.13625-0.0825c-6.508758-3.906255-9.838762-4.326255-10.971263-4.326255-0.435001 0-0.596251 0.05875-0.601251 0.05875C256.181563 644.337037 253.72531 648.589542 252.134058 654.468299L252.134058 654.468299z" p-id="36619" fill="#0086CC"></path><path d="M252.134058 654.468299" p-id="36620" fill="#0086CC"></path><path d="M512.026875 999.03122" p-id="36621" fill="#0086CC"></path></svg>
