<?xml version="1.0" standalone="no"?><!DOCTYPE svg PUBLIC "-//W3C//DTD SVG 1.1//EN" "http://www.w3.org/Graphics/SVG/1.1/DTD/svg11.dtd"><svg t="1524627292582" class="icon" style="" viewBox="0 0 1024 1024" version="1.1" xmlns="http://www.w3.org/2000/svg" p-id="19095" xmlns:xlink="http://www.w3.org/1999/xlink" width="64" height="64"><defs><style type="text/css"></style></defs><path d="M510.408759 960.414823c-60.290131 0-118.797663-11.81714-173.898609-35.122939-53.199643-22.50148-100.970646-54.706973-141.983735-95.720062s-73.218582-88.784092-95.720062-141.983735c-23.305799-55.101969-35.122939-113.608477-35.122939-173.898609 0-60.290131 11.81714-118.797663 35.122939-173.898609 22.50148-53.200666 54.706973-100.970646 95.720062-141.983735 41.013089-41.014112 88.784092-73.218582 141.983735-95.721085 55.101969-23.305799 113.608477-35.122939 173.898609-35.122939s118.797663 11.81714 173.898609 35.122939c53.199643 22.502503 100.970646 54.706973 141.983735 95.721085 41.013089 41.013089 73.218582 88.784092 95.720062 141.983735 23.305799 55.100946 35.122939 113.608477 35.122939 173.898609 0 60.290131-11.81714 118.797663-35.122939 173.898609-22.50148 53.199643-54.706973 100.970646-95.720062 141.983735s-88.784092 73.218582-141.983735 95.720062C629.205399 948.597683 570.69889 960.414823 510.408759 960.414823zM510.408759 130.408095c-102.377692 0-198.627826 39.868009-271.0206 112.260783s-112.260783 168.642908-112.260783 271.0206 39.868009 198.627826 112.260783 271.0206 168.642908 112.260783 271.0206 112.260783 198.627826-39.868009 271.0206-112.260783c72.39175-72.392774 112.260783-168.642908 112.260783-271.0206s-39.868009-198.627826-112.260783-271.0206C709.036585 170.276105 612.786451 130.408095 510.408759 130.408095z" p-id="19096" fill="#0086CC"></path><path d="M475.148697 382.586558 475.148697 309.159222 318.077336 415.863453 475.148697 523.366885 475.148697 451.656657 634.602316 451.656657 634.602316 638.225843 384.088772 638.225843 384.088772 702.872189 703.341886 702.872189 703.341886 382.586558Z" p-id="19097" fill="#0086CC"></path></svg>
