<?xml version="1.0" standalone="no"?><!DOCTYPE svg PUBLIC "-//W3C//DTD SVG 1.1//EN" "http://www.w3.org/Graphics/SVG/1.1/DTD/svg11.dtd"><svg t="1529989005342" class="icon" style="" viewBox="0 0 1024 1024" version="1.1" xmlns="http://www.w3.org/2000/svg" p-id="1302" xmlns:xlink="http://www.w3.org/1999/xlink" width="64" height="64"><defs><style type="text/css"></style></defs><path d="M358.4 513.13777778c0-28.90524445-23.43253333-52.33777778-52.33777778-52.33777778H88.74666667c-28.90524445 0-52.33777778 23.43253333-52.33777778 52.33777778s23.43253333 52.33777778 52.33777778 52.33777777h217.31555555c28.90524445 0 52.33777778-23.43253333 52.33777778-52.33777777zM330.98069333 621.08216889L177.31470222 774.74929778c-20.43790222 20.43790222-20.43904 53.57681778 0 74.01585777 20.44017778 20.44017778 53.57795555 20.44017778 74.01813333 0l153.66485334-153.66485333c20.44017778-20.44017778 20.44017778-53.57795555 0-74.01813333-20.44017778-20.43904-53.57795555-20.43904-74.01699556 0zM514.27555555 664.46222222c-28.90410667 0-52.33777778 23.43253333-52.33777777 52.33777778v217.31669333C461.93777778 963.01966222 485.37031111 986.45333333 514.27555555 986.45333333c28.90638222 0 52.33777778-23.43139555 52.33777778-52.33777778V716.8c0-28.90638222-23.43139555-52.33777778-52.33777778-52.33777778zM696.23694222 617.86453333c-20.44017778-20.44017778-53.57568-20.44017778-74.01585777 0-20.43904 20.43904-20.44017778 53.57795555 0 74.01813334l153.6659911 153.66599111c20.43790222 20.43790222 53.57681778 20.43790222 74.01585778-0.00113778 20.44017778-20.44017778 20.44131555-53.57568 0-74.01699555L696.23694222 617.86453333zM935.25219555 456.24888889h-217.31555555c-28.90638222 0-52.33664 23.43139555-52.33777778 52.33777778 0.00113778 28.90524445 23.43367111 52.33777778 52.34005333 52.33777778h217.31555556c28.90296889 0 52.33550222-23.43367111 52.33550222-52.33777778 0-28.90638222-23.42912-52.33777778-52.33777778-52.33777778zM693.02044445 400.64113778l153.6659911-153.66599111c20.43790222-20.43790222 20.43676445-53.57681778-0.00227555-74.01472-20.44017778-20.44017778-53.57568-20.44245333-74.01699555 0L619.00117333 326.62528c-20.44017778 20.44017778-20.43904 53.57568 0 74.01699555 20.44017778 20.43790222 53.57909333 20.43904 74.01927112-0.00113777zM509.72444445 357.26336c28.90524445-0.00113778 52.33777778-23.43367111 52.33777777-52.34005333v-217.31555556c0-28.90296889-23.43367111-52.33550222-52.33777777-52.33550222-28.90638222 0-52.33777778 23.42912-52.33777778 52.33777778v217.31555555c0 28.90752 23.43025778 52.33664 52.33777778 52.33777778zM327.76305778 403.86104889c20.44017778 20.44017778 53.57568 20.43790222 74.01699555 0 20.43790222-20.44017778 20.43904-53.57909333-0.00113778-74.01927111L248.11292445 176.17692445c-20.43790222-20.43790222-53.57681778-20.43676445-74.01585778 0.00227555-20.44017778 20.44017778-20.44131555 53.57454222 0 74.01699555l153.66599111 153.66485334z" p-id="1303" fill="#0086CC"></path></svg>
