<?xml version="1.0" standalone="no"?><!DOCTYPE svg PUBLIC "-//W3C//DTD SVG 1.1//EN" "http://www.w3.org/Graphics/SVG/1.1/DTD/svg11.dtd"><svg t="1529988896154" class="icon" style="" viewBox="0 0 1024 1024" version="1.1" xmlns="http://www.w3.org/2000/svg" p-id="768" xmlns:xlink="http://www.w3.org/1999/xlink" width="64" height="64"><defs><style type="text/css"></style></defs><path d="M752.179 188.786q42.89 30.5 76.247 69.099t57.186 83.395 36.217 94.832 12.39 101.504q0 88.638-33.835 166.314t-91.497 135.339-135.339 91.498-166.314 33.835q-87.684 0-165.361-33.835t-135.816-91.498-91.498-135.339-33.359-166.314q0-50.513 11.913-99.121t33.835-92.45 54.326-81.966 72.435-68.623q20.968-15.249 45.272-11.437t39.554 23.827 11.437 44.795-23.827 40.030q-60.045 43.842-91.973 107.699t-31.928 137.244q0 62.904 23.827 118.659t65.287 97.216 97.216 65.763 118.659 24.304 118.659-24.304 97.216-65.763 65.763-97.216 24.304-118.659q0-74.341-34.312-140.58t-96.262-109.13q-20.968-14.296-25.258-39.076t10.007-45.749q14.296-20.015 39.076-24.304t45.749 10.007zM507.235 540.477q-24.781 0-42.413-17.632t-17.632-42.413v-362.174q0-24.781 17.632-42.89t42.413-18.108q25.733 0 43.366 18.108t17.632 42.89v362.174q0 24.781-17.632 42.413t-43.366 17.632z" p-id="769" fill="#0086CC"></path></svg>
