<svg id="图层_1" data-name="图层 1" xmlns="http://www.w3.org/2000/svg" viewBox="0 0 50 50"><defs><style>.cls-1{fill:#8e8e8e;}</style></defs><path class="cls-1" d="M25,15C12.85,15,3,20.29,3,26.81s9.85,11.8,22,11.8,22-5.29,22-11.8S37.15,15,25,15Zm3.25,15.61-.81-1.39H22.85L22,30.62H18.46l5.1-7.45h3.15l5.14,7.45Z"/><polygon class="cls-1" points="23.65 27.84 26.64 27.84 25.14 25.25 23.65 27.84"/><path class="cls-1" d="M25,39.35C13.85,39.35,5.06,35,3.3,30.13a.16.16,0,0,0-.3.06v4.39a8.65,8.65,0,0,0,1.42,4.93c6.91,10.13,35.41,10,41.53-.62a8.49,8.49,0,0,0,1-4.28V30a.12.12,0,0,0-.24,0C45.13,35.13,36.29,39.35,25,39.35Z"/><path class="cls-1" d="M20.39,13.4V8H18.54a.57.57,0,0,1-.3-1.06l6.1-3.73a1.3,1.3,0,0,1,1.32,0l6.1,3.73A.57.57,0,0,1,31.46,8H29.61V13.4A.62.62,0,0,1,29,14H21A.62.62,0,0,1,20.39,13.4Z"/></svg>