<svg id="图层_1" data-name="图层 1" xmlns="http://www.w3.org/2000/svg" viewBox="0 0 50 50"><defs><style>.cls-1{fill:#8e8e8e;}</style></defs><path class="cls-1" d="M26.55,26.08a.68.68,0,0,0,.47-.62.7.7,0,0,0-.51-.68,4.6,4.6,0,0,0-1.63-.21H23.23V26.3H25A4.36,4.36,0,0,0,26.55,26.08Z"/><path class="cls-1" d="M25.58,27.48H23.23v1.79h2.2A3.36,3.36,0,0,0,26.82,29a.67.67,0,0,0,.49-.62C27.31,27.79,26.74,27.48,25.58,27.48Z"/><path class="cls-1" d="M25,15C12.85,15,3,20.3,3,26.83s9.85,11.82,22,11.82,22-5.29,22-11.82S37.15,15,25,15Zm4.36,15.08a10.14,10.14,0,0,1-3.83.56H19.88V23.18h5a12.15,12.15,0,0,1,4.08.53c.93.35,1.4.86,1.4,1.53a1.27,1.27,0,0,1-.5,1,3.36,3.36,0,0,1-1.46.6,3.71,3.71,0,0,1,1.67.58,1.22,1.22,0,0,1,.58,1A1.78,1.78,0,0,1,29.36,30.09Z"/><path class="cls-1" d="M25,39.35C13.85,39.35,5.06,35,3.3,30.13a.16.16,0,0,0-.3.06v4.39a8.65,8.65,0,0,0,1.42,4.93c6.91,10.13,35.41,10,41.53-.62a8.49,8.49,0,0,0,1-4.28V30a.12.12,0,0,0-.24,0C45.13,35.13,36.29,39.35,25,39.35Z"/><path class="cls-1" d="M20.39,13.4V8H18.54a.57.57,0,0,1-.3-1.06l6.1-3.73a1.3,1.3,0,0,1,1.32,0l6.1,3.73A.57.57,0,0,1,31.46,8H29.61V13.4A.62.62,0,0,1,29,14H21A.62.62,0,0,1,20.39,13.4Z"/></svg>