<?xml version="1.0" standalone="no"?><!DOCTYPE svg PUBLIC "-//W3C//DTD SVG 1.1//EN" "http://www.w3.org/Graphics/SVG/1.1/DTD/svg11.dtd"><svg t="1649323818879" class="icon" viewBox="0 0 1024 1024" version="1.1" xmlns="http://www.w3.org/2000/svg" p-id="2393" xmlns:xlink="http://www.w3.org/1999/xlink" width="64" height="64"><defs><style type="text/css">@font-face { font-family: feedback-iconfont; src: url("//at.alicdn.com/t/font_1031158_u69w8yhxdu.woff2?t=1630033759944") format("woff2"), url("//at.alicdn.com/t/font_1031158_u69w8yhxdu.woff?t=1630033759944") format("woff"), url("//at.alicdn.com/t/font_1031158_u69w8yhxdu.ttf?t=1630033759944") format("truetype"); }
</style></defs><path d="M823.067569 49.230769H208.809354C120.816246 49.230769 49.230769 120.816246 49.230769 208.809354v614.258215c0 87.993108 71.585477 159.578585 159.578585 159.578585h614.258215c87.993108 0 159.578585-71.585477 159.578585-159.578585V208.809354c0-87.993108-71.585477-159.578585-159.578585-159.578585zM884.184615 208.809354v50.077538h-320.854646V147.692308h259.7376c33.701415 0 61.117046 27.415631 61.117046 61.117046z m-239.084307 148.539077v107.52H383.098092v-107.52h262.002216z m-360.463754 107.52H147.692308v-107.52h136.944246v107.52z m180.231877 98.461538v103.837539H147.692308v-103.837539h317.176123z m180.231877 202.299077V884.184615H383.098092v-118.555569h262.002216z m-81.770339-98.461538v-103.837539H884.184615v103.837539h-320.854646z m180.231877-202.299077v-107.52H884.184615v107.52h-140.622769zM208.809354 147.692308h256.059077v111.194584H147.692308V208.809354c0-33.701415 27.415631-61.117046 61.117046-61.117046zM147.692308 823.067569v-57.438523h136.944246V884.184615H208.809354c-33.701415 0-61.117046-27.415631-61.117046-61.117046zM823.067569 884.184615h-79.509661v-118.555569H884.184615v57.438523c0 33.701415-27.415631 61.117046-61.117046 61.117046z" fill="#1296db" p-id="2394"></path></svg>