<?xml version="1.0" encoding="utf-8"?>
<!-- Generator: Adobe Illustrator 15.0.0, SVG Export Plug-In . SVG Version: 6.00 Build 0)  -->
<!DOCTYPE svg PUBLIC "-//W3C//DTD SVG 1.1//EN" "http://www.w3.org/Graphics/SVG/1.1/DTD/svg11.dtd">
<svg version="1.1" id="图层_1" xmlns="http://www.w3.org/2000/svg" xmlns:xlink="http://www.w3.org/1999/xlink" x="0px" y="0px"
	 width="64" height="64" viewBox="0 0 32 32" enable-background="new 0 0 32 32" xml:space="preserve">
<path fill="#1C2B76" d="M24.979,9.804v0.64h4.817v19.339H2.23V10.444h7.287v-0.64H1.59v20.619h28.845V9.804H24.979z"/>
<path fill="#00557A" d="M10.604,27.516h1.412v1.412h-1.412V27.516z"/>
<path fill="#00557A" d="M20.004,27.516h1.418v1.412h-1.418V27.516z"/>
<path fill="#00557A" d="M15.308,27.516h1.411v1.412h-1.411V27.516z"/>
<path fill="#E72B64" d="M9.162,18.211c-0.044,0.059-0.103,0.176-0.177,0.352c-0.074,0.162-1.028,2.066-2.21,5.629
	c-0.103,0.484-0.162,0.88-0.177,1.188c0.997-1.24,3.608-6.237,3.951-6.605c1.013-1.088,6.369-9.643,7.542-10.456
	c-0.535,1.486-7.265,12.349-7.427,12.599c5.068,1.111,7.265-1.73,7.56-1.979l-2.233-0.396l2.718-0.813
	c1.792-1.824,2.276-4.683,2.276-4.683c-0.206,0.073-2.372,0.711-2.74,0.813l2.961-1.605c0.207-0.806,1.77-4.456,1.835-10.355
	c-0.796,0.059-8.866,2.433-13.924,15.786C9.074,17.947,9.088,18.123,9.162,18.211L9.162,18.211z"/>
</svg>
