<svg width="32" height="32" xmlns="http://www.w3.org/2000/svg">
 <!-- Created with Method Draw - http://github.com/duopixel/Method-Draw/ -->
 <g>
  <title>background</title>
  <rect fill="none" id="canvas_background" height="34" width="34" y="-1" x="-1"/>
  <g display="none" overflow="visible" y="0" x="0" height="100%" width="100%" id="canvasGrid">
  </g>
 </g>
 <g>
  <title>Layer 1</title>
  <path id="svg_1" d="m4.424114,22.713484c-0.008141,-7.503553 -0.016277,-15.007109 -0.024418,-22.510661c7.349344,0.086242 14.729856,-0.204305 22.054314,0.221456c3.571735,0.972485 3.056998,7.026324 2.998995,11.548071c-0.156682,3.409953 2.086848,10.169777 -3.740374,11.185837c-2.905182,0.00012 -2.916615,0.952012 -2.62008,2.673928c0.344125,2.579648 -0.6549,8.358385 -5.427431,4.69561l-13.241007,-7.81424l0.000001,-0.000001zm22.492534,-2.45291c0.011809,-6.744735 -0.086697,-12.498963 -0.574274,-16.942779c-4.332101,-1.511556 -10.185973,-0.775946 -15.087503,-0.798916c-1.92678,0.718869 4.570639,3.105861 5.948679,4.032055c5.231539,1.991462 6.792404,5.613127 5.889014,9.706145c0,1.592166 0,3.184336 0,4.776502c0.964743,-0.000895 2.960648,-0.367563 3.824085,-0.773012l-0.000001,0.000004z" stroke-width="1.5" fill="#1296db"/>
 </g>
</svg>