<?xml version="1.0" standalone="no"?><!DOCTYPE svg PUBLIC "-//W3C//DTD SVG 1.1//EN" "http://www.w3.org/Graphics/SVG/1.1/DTD/svg11.dtd"><svg t="1705284406945" class="icon" viewBox="0 0 1024 1024" version="1.1" xmlns="http://www.w3.org/2000/svg" p-id="7250" xmlns:xlink="http://www.w3.org/1999/xlink" width="200" height="200"><path d="M947.712 255.488c15.872 0 29.184-12.8 29.184-29.184v-153.6c0-15.872-12.8-29.184-29.184-29.184h-153.6c-15.872 0-29.184 12.8-29.184 29.184v47.616H670.72c-3.072-0.512-6.144-0.512-8.704 0H258.56v-47.616c0-15.872-12.8-29.184-29.184-29.184h-153.6c-15.872 0-29.184 12.8-29.184 29.184v153.6c0 15.872 12.8 29.184 29.184 29.184h47.616v506.368h-47.616c-15.872 0-29.184 12.8-29.184 29.184v153.6c0 15.872 12.8 29.184 29.184 29.184h153.6c15.872 0 29.184-12.8 29.184-29.184v-47.616h506.368v47.616c0 15.872 12.8 29.184 29.184 29.184h153.6c15.872 0 29.184-12.8 29.184-29.184v-153.6c0-15.872-12.8-29.184-29.184-29.184h-47.616V354.816 255.488h47.616z m-124.416-153.6h95.232v95.232h-95.232V101.888zM181.76 459.776c1.536-1.024 3.584-2.56 4.608-4.096l276.992-276.992h132.096l-414.208 414.208v-133.12z m-76.8-357.888h95.232V197.12H104.96V101.888z m124.928 153.6c15.872 0 29.184-12.8 29.184-29.184v-47.616h122.88l-199.68 199.68v-122.88h47.616z m-48.128 419.84L677.888 179.2h87.04v35.84l-547.84 547.84h-35.328v-87.552z m-76.8 240.64v-95.232h95.232V915.968H104.96z m737.28-361.984l-278.528 278.528c-2.048 2.048-3.584 4.608-5.12 7.168H426.496l415.744-415.744v130.048z m76.8 361.984h-95.232v-95.232h95.232v95.232z m-124.928-153.6c-15.872 0-29.184 12.8-29.184 29.184v47.616h-126.464l203.264-203.264v126.464h-47.616z m48.128-421.376l-497.664 497.664H258.56v-35.84l547.84-547.328h35.84v85.504z" fill="#1296db" p-id="7251"></path></svg>