<?xml version="1.0" standalone="no"?><!DOCTYPE svg PUBLIC "-//W3C//DTD SVG 1.1//EN" "http://www.w3.org/Graphics/SVG/1.1/DTD/svg11.dtd"><svg t="1536211014328" class="icon" style="" viewBox="0 0 1024 1024" version="1.1" xmlns="http://www.w3.org/2000/svg" p-id="45837" xmlns:xlink="http://www.w3.org/1999/xlink" width="64" height="64"><defs><style type="text/css"></style></defs><path d="M985.6 460.8h-947.2c-20.48 0-38.4 17.92-38.4 38.4S17.92 537.6 38.4 537.6h947.2c20.48 0 38.4-17.92 38.4-38.4s-17.92-38.4-38.4-38.4z" p-id="45838" fill="#1296db"></path><path d="M803.84 335.36c0 7.68 2.56 15.36 7.68 20.48l120.32 120.32c10.24 10.24 10.24 30.72 0 40.96l-120.32 120.32c-5.12 5.12-7.68 12.8-7.68 20.48 0 25.6 30.72 38.4 48.64 20.48l161.28-161.28c10.24-10.24 10.24-30.72 0-40.96l-161.28-161.28c-17.92-17.92-48.64-5.12-48.64 20.48zM460.8 38.4v947.2c0 20.48 17.92 38.4 38.4 38.4s38.4-17.92 38.4-38.4v-947.2c0-20.48-17.92-38.4-38.4-38.4S460.8 17.92 460.8 38.4z" p-id="45839" fill="#1296db"></path><path d="M335.36 220.16c7.68 0 15.36-2.56 20.48-7.68l120.32-120.32c10.24-10.24 30.72-10.24 40.96 0l120.32 120.32c5.12 5.12 12.8 7.68 20.48 7.68 25.6 0 38.4-30.72 20.48-48.64L517.12 10.24C506.88 0 486.4 0 476.16 10.24l-161.28 161.28c-17.92 17.92-5.12 48.64 20.48 48.64z" p-id="45840" fill="#1296db"></path></svg>
