<?xml version="1.0" standalone="no"?><!DOCTYPE svg PUBLIC "-//W3C//DTD SVG 1.1//EN" "http://www.w3.org/Graphics/SVG/1.1/DTD/svg11.dtd"><svg t="1536210633390" class="icon" style="" viewBox="0 0 1024 1024" version="1.1" xmlns="http://www.w3.org/2000/svg" p-id="42551" xmlns:xlink="http://www.w3.org/1999/xlink" width="64" height="64"><defs><style type="text/css"></style></defs><path d="M668.017991 60.411394H297.029085v0.153524l-237.500449 237.500449h-0.153524V963.358321h667.595803v-0.153523l237.500449-237.50045h0.153524V60.411394H668.017991zM297.029085 127.654573v170.334033h-170.334033L297.029085 127.654573zM106.890555 345.58081H297.029085v346.57871L106.890555 882.221289V345.58081z m572.564917 570.262069h-538.943328l189.985007-190.06177h348.958321v190.06177z m0-237.653973H344.544528V345.58081h334.910944v332.608096z m14.047377-380.123539H344.544528V107.926837h538.943328L693.502849 298.065367z m33.468066 598.049775V725.781109h170.334033l-170.334033 170.334033z m190.13853-217.926236H726.970915V331.610195l190.061769-190.061769v536.64048z m0 0" p-id="42552" fill="#1296db"></path><path d="M320.287856 700.833583l-230.745427 204.723239-9.211395-606.416792L298.794603 97.487256z" p-id="42553" fill="#1296db"></path></svg>
