<?xml version="1.0" standalone="no"?><!DOCTYPE svg PUBLIC "-//W3C//DTD SVG 1.1//EN" "http://www.w3.org/Graphics/SVG/1.1/DTD/svg11.dtd"><svg t="1536210506131" class="icon" style="" viewBox="0 0 1024 1024" version="1.1" xmlns="http://www.w3.org/2000/svg" p-id="41728" xmlns:xlink="http://www.w3.org/1999/xlink" width="64" height="64"><defs><style type="text/css"></style></defs><path d="M948.89 439.24L536.17 60.55a32 32 0 0 0-43.11-0.15L74.7 439.09a32 32 0 1 0 43 47.45l396.69-359.12 391.23 359a32 32 0 1 0 43.27-47.16zM834 547a32 32 0 0 0-32 32v320H669.75a31.93 31.93 0 0 0 0.25-3.94V579a32 32 0 0 0-32-32H382a32 32 0 0 0-32 32v316.06a31.93 31.93 0 0 0 0.25 3.94H224V580a32 32 0 0 0-64 0v351a32 32 0 0 0 32 32h642a32 32 0 0 0 32-32V579a32 32 0 0 0-32-32zM413.75 899a31.93 31.93 0 0 0 0.25-3.94V611h192v284.06a31.93 31.93 0 0 0 0.25 3.94z" fill="#1296db" p-id="41729"></path></svg>
