<?xml version="1.0" standalone="no"?><!DOCTYPE svg PUBLIC "-//W3C//DTD SVG 1.1//EN" "http://www.w3.org/Graphics/SVG/1.1/DTD/svg11.dtd"><svg t="1627553921307" class="icon" viewBox="0 0 1024 1024" version="1.1" xmlns="http://www.w3.org/2000/svg" p-id="1395" xmlns:xlink="http://www.w3.org/1999/xlink" width="48" height="48"><defs><style type="text/css">@font-face { font-family: feedback-iconfont; src: url("//at.alicdn.com/t/font_1031158_1uhr8ri0pk5.eot?#iefix") format("embedded-opentype"), url("//at.alicdn.com/t/font_1031158_1uhr8ri0pk5.woff2") format("woff2"), url("//at.alicdn.com/t/font_1031158_1uhr8ri0pk5.woff") format("woff"), url("//at.alicdn.com/t/font_1031158_1uhr8ri0pk5.ttf") format("truetype"), url("//at.alicdn.com/t/font_1031158_1uhr8ri0pk5.svg#iconfont") format("svg"); }
</style></defs><path d="M477.866667 436.48m10.666666 0l42.666667 0q10.666667 0 10.666667 10.666667l0 192q0 10.666667-10.666667 10.666666l-42.666667 0q-10.666667 0-10.666666-10.666666l0-192q0-10.666667 10.666666-10.666667Z" fill="#1296db" p-id="1396"></path><path d="M477.866667 713.813333m10.666666 0l42.666667 0q10.666667 0 10.666667 10.666667l0 42.666667q0 10.666667-10.666667 10.666666l-42.666667 0q-10.666667 0-10.666666-10.666666l0-42.666667q0-10.666667 10.666666-10.666667Z" fill="#1296db" p-id="1397"></path><path d="M932.266667 786.773333a117.76 117.76 0 0 0-85.333334-30.293333c-5.12 0-10.24 1.493333-15.146666 2.346667L587.946667 239.573333a100.266667 100.266667 0 0 0 10.88-10.453333 117.333333 117.333333 0 0 0-92.586667-196.053333 117.333333 117.333333 0 0 0-111.36 122.88 116.053333 116.053333 0 0 0 37.973333 80.853333L187.733333 757.76a135.253333 135.253333 0 0 0-22.826666-1.28 117.333333 117.333333 0 1 0 92.586666 196.053333 115.626667 115.626667 0 0 0 25.6-46.72h457.6a117.12 117.12 0 1 0 192-119.04zM472.533333 114.346667a53.76 53.76 0 0 1 75.306667-3.626667 54.4 54.4 0 0 1 17.493333 36.906667 52.906667 52.906667 0 0 1-13.866666 38.4 53.546667 53.546667 0 0 1-75.306667 3.84 54.4 54.4 0 0 1-17.493333-36.906667 53.76 53.76 0 0 1 13.866666-38.613333zM210.133333 909.653333a53.333333 53.333333 0 0 1-75.306666 3.626667 53.973333 53.973333 0 0 1-17.493334-36.906667 53.333333 53.333333 0 0 1 89.173334-42.666666 53.12 53.12 0 0 1 3.626666 75.306666z m556.373334-114.773333a116.48 116.48 0 0 0-25.6 46.933333H283.306667a118.613333 118.613333 0 0 0-33.706667-55.04 21.333333 21.333333 0 0 1-3.626667-2.56L490.666667 265.386667a108.16 108.16 0 0 0 21.333333 2.133333 121.386667 121.386667 0 0 0 17.706667-1.493333l245.333333 521.173333a98.986667 98.986667 0 0 0-8.533333 7.68z m126.293333 114.773333a53.333333 53.333333 0 0 1-75.306667 3.626667 53.973333 53.973333 0 0 1-17.493333-36.906667 53.333333 53.333333 0 0 1 89.173333-42.666666 53.12 53.12 0 0 1 3.626667 75.306666z" fill="#1296db" p-id="1398"></path></svg>