<?xml version="1.0" standalone="no"?><!DOCTYPE svg PUBLIC "-//W3C//DTD SVG 1.1//EN" "http://www.w3.org/Graphics/SVG/1.1/DTD/svg11.dtd"><svg t="1532499898475" class="icon" style="" viewBox="0 0 1024 1024" version="1.1" xmlns="http://www.w3.org/2000/svg" p-id="14537" xmlns:xlink="http://www.w3.org/1999/xlink" width="64" height="64"><defs><style type="text/css"></style></defs><path d="M512 316.673591V120.834032h3.071993a348.415216 348.415216 0 0 1 346.111221 346.367221A36.607918 36.607918 0 0 0 895.999136 503.297172a38.911912 38.911912 0 0 0 36.095919-36.095919A423.167048 423.167048 0 0 0 512 45.314202h-3.071993A58.623868 58.623868 0 0 0 451.328137 0.002304H59.649018A59.391866 59.391866 0 0 0 2.305147 57.346175v259.327416a59.391866 59.391866 0 0 0 57.343871 57.087872h391.679119A59.903865 59.903865 0 0 0 512 316.673591z m-76.799827-18.175959H74.752984V75.522134h358.399193v222.975498z m0 0" fill="#1296db" p-id="14538" data-spm-anchor-id="a313x.7781069.0.i26" class="selected"></path><path d="M963.582984 542.465083h-391.679119a59.391866 59.391866 0 0 0-57.343871 57.343871v214.015519A347.647218 347.647218 0 0 1 168.192774 482.305219h210.687526a36.607918 36.607918 0 0 0 36.095918-36.095919A38.911912 38.911912 0 0 0 378.8803 409.601382H134.912848a36.607918 36.607918 0 0 0-36.095918 36.095919v3.071993a42.751904 42.751904 0 0 0-6.143987 18.175959A423.167048 423.167048 0 0 0 514.559994 889.088304a11.007975 11.007975 0 0 0 8.95998-3.071994 53.759879 53.759879 0 0 0 48.127892 30.207932h391.679119a59.391866 59.391866 0 0 0 57.34387-57.34387V599.808954a55.295876 55.295876 0 0 0-57.34387-57.343871z m-15.103966 298.239329H587.007831v-222.719498h358.399194v222.975498z m-60.159865 108.543756h-244.22345a36.607918 36.607918 0 0 0-36.095919 36.095919 38.911912 38.911912 0 0 0 36.095919 36.095919h244.22345a36.095919 36.095919 0 0 0 0-72.447837z m0 0" fill="#dcdcdc" p-id="14539"></path></svg>
